<?xml version="1.0" encoding="UTF-8" standalone="no"?>
<!DOCTYPE svg PUBLIC "-//W3C//DTD SVG 1.1//EN"
 "http://www.w3.org/Graphics/SVG/1.1/DTD/svg11.dtd">
<!-- Generated by graphviz version 2.40.1 (20161225.0304)
 -->
<!-- Title: PROV Pages: 1 -->
<svg width="365pt" height="252pt"
 viewBox="0.00 0.00 365.00 252.00" xmlns="http://www.w3.org/2000/svg" xmlns:xlink="http://www.w3.org/1999/xlink">
<g id="graph0" class="graph" transform="scale(1 1) rotate(0) translate(4 248)">
<title>PROV</title>
<polygon fill="#ffffff" stroke="transparent" points="-4,4 -4,-248 361,-248 361,4 -4,4"/>
<g id="clust1" class="cluster">
<title>clusterurn:uuid:60fa369d&#45;39a9&#45;4d94&#45;9a07&#45;371876528921</title>
<g id="a_clust1"><a xlink:href="urn:uuid:60fa369d-39a9-4d94-9a07-371876528921" xlink:title="60fa369d&#45;39a9&#45;4d94&#45;9a07&#45;371876528921">
<polygon fill="none" stroke="#000000" points="8,-8 8,-236 349,-236 349,-8 8,-8"/>
<text text-anchor="middle" x="178.5" y="-14.8" font-family="Times,serif" font-size="14.00" fill="#000000">60fa369d&#45;39a9&#45;4d94&#45;9a07&#45;371876528921</text>
</a>
</g>
</g>
<!-- http://eprints.soton.ac.uk/id/eprint/365509 -->
<g id="node1" class="node">
<title>http://eprints.soton.ac.uk/id/eprint/365509</title>
<g id="a_node1"><a xlink:href="http://eprints.soton.ac.uk/id/eprint/365509" xlink:title="365509">
<ellipse fill="#fffc87" stroke="#808080" cx="164" cy="-138" rx="36.775" ry="18"/>
<text text-anchor="middle" x="164" y="-133.8" font-family="Times,serif" font-size="14.00" fill="#000000">365509</text>
</a>
</g>
</g>
<!-- http://eprints.soton.ac.uk/id/person/ext&#45;47115 -->
<g id="node3" class="node">
<title>http://eprints.soton.ac.uk/id/person/ext&#45;47115</title>
<g id="a_node3"><a xlink:href="http://eprints.soton.ac.uk/id/person/ext-47115" xlink:title="ext&#45;47115">
<polygon fill="#fdb266" stroke="#000000" points="317.3295,-215.5623 261,-228 204.6705,-215.5623 204.723,-195.4377 317.277,-195.4377 317.3295,-215.5623"/>
<text text-anchor="middle" x="261" y="-205.8" font-family="Times,serif" font-size="14.00" fill="#000000">ext&#45;47115</text>
</a>
</g>
</g>
<!-- http://eprints.soton.ac.uk/id/eprint/365509&#45;&gt;http://eprints.soton.ac.uk/id/person/ext&#45;47115 -->
<g id="edge4" class="edge">
<title>http://eprints.soton.ac.uk/id/eprint/365509&#45;&gt;http://eprints.soton.ac.uk/id/person/ext&#45;47115</title>
<path fill="none" stroke="#000000" d="M184.5712,-153.2693C198.6481,-163.7181 217.4866,-177.7014 232.938,-189.1705"/>
<polygon fill="#000000" stroke="#000000" points="231.0061,-192.0953 241.1219,-195.2451 235.1782,-186.4745 231.0061,-192.0953"/>
<text text-anchor="middle" x="198.336" y="-144.9086" font-family="Times,serif" font-size="8.00" fill="#000000">att</text>
</g>
<!-- http://eprints.soton.ac.uk/id/person/ext&#45;43268 -->
<g id="node5" class="node">
<title>http://eprints.soton.ac.uk/id/person/ext&#45;43268</title>
<g id="a_node5"><a xlink:href="http://eprints.soton.ac.uk/id/person/ext-43268" xlink:title="ext&#45;43268">
<polygon fill="#fdb266" stroke="#000000" points="167.6306,-215.5623 111,-228 54.3694,-215.5623 54.4222,-195.4377 167.5778,-195.4377 167.6306,-215.5623"/>
<text text-anchor="middle" x="111" y="-205.8" font-family="Times,serif" font-size="14.00" fill="#000000">ext&#45;43268</text>
</a>
</g>
</g>
<!-- http://eprints.soton.ac.uk/id/eprint/365509&#45;&gt;http://eprints.soton.ac.uk/id/person/ext&#45;43268 -->
<g id="edge5" class="edge">
<title>http://eprints.soton.ac.uk/id/eprint/365509&#45;&gt;http://eprints.soton.ac.uk/id/person/ext&#45;43268</title>
<path fill="none" stroke="#000000" d="M151.4397,-155.063C144.4566,-164.5495 135.6681,-176.4886 128.0693,-186.8115"/>
<polygon fill="#000000" stroke="#000000" points="125.1415,-184.885 122.0319,-195.0132 130.7788,-189.0347 125.1415,-184.885"/>
<text text-anchor="middle" x="157.4552" y="-166.4039" font-family="Times,serif" font-size="8.00" fill="#000000">att</text>
</g>
<!-- &#45;attrs0 -->
<g id="node2" class="node">
<title>&#45;attrs0</title>
<polygon fill="none" stroke="#c0c0c0" points="264,-84 58,-84 58,-38 270,-38 270,-78 264,-84"/>
<polyline fill="none" stroke="#c0c0c0" points="264,-84 264,-78 "/>
<polyline fill="none" stroke="#c0c0c0" points="270,-78 264,-78 "/>
<text text-anchor="start" x="68" y="-70" font-family="Times,serif" font-size="10.00" fill="#000000">type:</text>
<text text-anchor="start" x="92" y="-70" font-family="Times,serif" font-size="10.00" fill="#000000">pic:Article</text>
<text text-anchor="start" x="67.894" y="-58" font-family="Times,serif" font-size="10.00" fill="#000000">label:</text>
<text text-anchor="start" x="91.5786" y="-58" font-family="Times,serif" font-size="10.00" fill="#000000">ProvStore: a public provenance repository</text>
<text text-anchor="start" x="68" y="-46" font-family="Times,serif" font-size="10.00" fill="#000000">year:</text>
<text text-anchor="start" x="92" y="-46" font-family="Times,serif" font-size="10.00" fill="#000000">2014</text>
</g>
<!-- &#45;attrs0&#45;&gt;http://eprints.soton.ac.uk/id/eprint/365509 -->
<g id="edge1" class="edge">
<title>&#45;attrs0&#45;&gt;http://eprints.soton.ac.uk/id/eprint/365509</title>
<path fill="none" stroke="#c0c0c0" stroke-dasharray="5,2" d="M164,-84.1025C164,-95.443 164,-108.9173 164,-119.5566"/>
</g>
<!-- &#45;attrs1 -->
<g id="node4" class="node">
<title>&#45;attrs1</title>
<polygon fill="none" stroke="#c0c0c0" points="335,-156 219,-156 219,-120 341,-120 341,-150 335,-156"/>
<polyline fill="none" stroke="#c0c0c0" points="335,-156 335,-150 "/>
<polyline fill="none" stroke="#c0c0c0" points="341,-150 335,-150 "/>
<text text-anchor="start" x="229" y="-141" font-family="Times,serif" font-size="10.00" fill="#000000">type:</text>
<text text-anchor="start" x="253" y="-141" font-family="Times,serif" font-size="10.00" fill="#000000">prov:Person</text>
<text text-anchor="start" x="228.894" y="-129" font-family="Times,serif" font-size="10.00" fill="#000000">label:</text>
<text text-anchor="start" x="252.7324" y="-129" font-family="Times,serif" font-size="10.00" fill="#000000">Trung Dong Huynh</text>
</g>
<!-- &#45;attrs1&#45;&gt;http://eprints.soton.ac.uk/id/person/ext&#45;47115 -->
<g id="edge2" class="edge">
<title>&#45;attrs1&#45;&gt;http://eprints.soton.ac.uk/id/person/ext&#45;47115</title>
<path fill="none" stroke="#c0c0c0" stroke-dasharray="5,2" d="M275.2055,-156.1686C272.0394,-168.1664 267.9405,-183.6993 264.9599,-194.9941"/>
</g>
<!-- &#45;attrs2 -->
<g id="node6" class="node">
<title>&#45;attrs2</title>
<polygon fill="none" stroke="#c0c0c0" points="103.5,-156 16.5,-156 16.5,-120 109.5,-120 109.5,-150 103.5,-156"/>
<polyline fill="none" stroke="#c0c0c0" points="103.5,-156 103.5,-150 "/>
<polyline fill="none" stroke="#c0c0c0" points="109.5,-150 103.5,-150 "/>
<text text-anchor="start" x="27" y="-141" font-family="Times,serif" font-size="10.00" fill="#000000">type:</text>
<text text-anchor="start" x="51" y="-141" font-family="Times,serif" font-size="10.00" fill="#000000">prov:Person</text>
<text text-anchor="start" x="26.894" y="-129" font-family="Times,serif" font-size="10.00" fill="#000000">label:</text>
<text text-anchor="start" x="50.9272" y="-129" font-family="Times,serif" font-size="10.00" fill="#000000">Luc Moreau</text>
</g>
<!-- &#45;attrs2&#45;&gt;http://eprints.soton.ac.uk/id/person/ext&#45;43268 -->
<g id="edge3" class="edge">
<title>&#45;attrs2&#45;&gt;http://eprints.soton.ac.uk/id/person/ext&#45;43268</title>
<path fill="none" stroke="#c0c0c0" stroke-dasharray="5,2" d="M75.1124,-156.1686C83.111,-168.1664 93.4662,-183.6993 100.9961,-194.9941"/>
</g>
</g>
</svg>
