<?xml version="1.0" encoding="UTF-8" standalone="no"?>
<!DOCTYPE svg PUBLIC "-//W3C//DTD SVG 1.1//EN"
 "http://www.w3.org/Graphics/SVG/1.1/DTD/svg11.dtd">
<!-- Generated by graphviz version 2.40.1 (20161225.0304)
 -->
<!-- Title: PROV Pages: 1 -->
<svg width="729pt" height="252pt"
 viewBox="0.00 0.00 729.00 252.00" xmlns="http://www.w3.org/2000/svg" xmlns:xlink="http://www.w3.org/1999/xlink">
<g id="graph0" class="graph" transform="scale(1 1) rotate(0) translate(4 248)">
<title>PROV</title>
<polygon fill="#ffffff" stroke="transparent" points="-4,4 -4,-248 725,-248 725,4 -4,4"/>
<g id="clust1" class="cluster">
<title>clusterurn:uuid:8e1f320b&#45;751d&#45;436a&#45;8755&#45;bc1a309d41bc</title>
<g id="a_clust1"><a xlink:href="urn:uuid:8e1f320b-751d-436a-8755-bc1a309d41bc" xlink:title="8e1f320b&#45;751d&#45;436a&#45;8755&#45;bc1a309d41bc">
<polygon fill="none" stroke="#000000" points="8,-8 8,-236 713,-236 713,-8 8,-8"/>
<text text-anchor="middle" x="360.5" y="-14.8" font-family="Times,serif" font-size="14.00" fill="#000000">8e1f320b&#45;751d&#45;436a&#45;8755&#45;bc1a309d41bc</text>
</a>
</g>
</g>
<!-- http://www.orchid.ac.uk/eprints/id/eprint/78 -->
<g id="node1" class="node">
<title>http://www.orchid.ac.uk/eprints/id/eprint/78</title>
<g id="a_node1"><a xlink:href="http://www.orchid.ac.uk/eprints/id/eprint/78" xlink:title="78">
<ellipse fill="#fffc87" stroke="#808080" cx="442" cy="-138" rx="27" ry="18"/>
<text text-anchor="middle" x="442" y="-133.8" font-family="Times,serif" font-size="14.00" fill="#000000">78</text>
</a>
</g>
</g>
<!-- http://www.robots.ox.ac.uk/~mebden -->
<g id="node3" class="node">
<title>http://www.robots.ox.ac.uk/~mebden</title>
<g id="a_node3"><a xlink:href="http://www.robots.ox.ac.uk/~mebden" xlink:title="mebden">
<polygon fill="#fdb266" stroke="#000000" points="677.1912,-215.5623 630,-228 582.8088,-215.5623 582.8529,-195.4377 677.1471,-195.4377 677.1912,-215.5623"/>
<text text-anchor="middle" x="630" y="-205.8" font-family="Times,serif" font-size="14.00" fill="#000000">mebden</text>
</a>
</g>
</g>
<!-- http://www.orchid.ac.uk/eprints/id/eprint/78&#45;&gt;http://www.robots.ox.ac.uk/~mebden -->
<g id="edge7" class="edge">
<title>http://www.orchid.ac.uk/eprints/id/eprint/78&#45;&gt;http://www.robots.ox.ac.uk/~mebden</title>
<path fill="none" stroke="#000000" d="M463.5008,-149.2861C468.2271,-151.6159 473.2423,-153.9744 478,-156 509.4837,-169.404 545.5405,-182.3145 574.6328,-192.1489"/>
<polygon fill="#000000" stroke="#000000" points="573.6212,-195.5012 584.2152,-195.3624 575.8469,-188.8645 573.6212,-195.5012"/>
<text text-anchor="middle" x="475.955" y="-138.5259" font-family="Times,serif" font-size="8.00" fill="#000000">att</text>
</g>
<!-- http://id.ecs.soton.ac.uk/person/10022 -->
<g id="node5" class="node">
<title>http://id.ecs.soton.ac.uk/person/10022</title>
<g id="a_node5"><a xlink:href="http://id.ecs.soton.ac.uk/person/10022" xlink:title="10022">
<polygon fill="#fdb266" stroke="#000000" points="509.6419,-215.5623 470,-228 430.3581,-215.5623 430.3951,-195.4377 509.6049,-195.4377 509.6419,-215.5623"/>
<text text-anchor="middle" x="470" y="-205.8" font-family="Times,serif" font-size="14.00" fill="#000000">10022</text>
</a>
</g>
</g>
<!-- http://www.orchid.ac.uk/eprints/id/eprint/78&#45;&gt;http://id.ecs.soton.ac.uk/person/10022 -->
<g id="edge8" class="edge">
<title>http://www.orchid.ac.uk/eprints/id/eprint/78&#45;&gt;http://id.ecs.soton.ac.uk/person/10022</title>
<path fill="none" stroke="#000000" d="M448.778,-155.4292C452.3225,-164.5436 456.7175,-175.845 460.5869,-185.795"/>
<polygon fill="#000000" stroke="#000000" points="457.3437,-187.1119 464.2302,-195.1634 463.8677,-184.5748 457.3437,-187.1119"/>
<text text-anchor="middle" x="463.6035" y="-155.3109" font-family="Times,serif" font-size="8.00" fill="#000000">att</text>
</g>
<!-- http://id.ecs.soton.ac.uk/person/391 -->
<g id="node7" class="node">
<title>http://id.ecs.soton.ac.uk/person/391</title>
<g id="a_node7"><a xlink:href="http://id.ecs.soton.ac.uk/person/391" xlink:title="391">
<polygon fill="#fdb266" stroke="#000000" points="394.7792,-215.5623 366,-228 337.2208,-215.5623 337.2476,-195.4377 394.7524,-195.4377 394.7792,-215.5623"/>
<text text-anchor="middle" x="366" y="-205.8" font-family="Times,serif" font-size="14.00" fill="#000000">391</text>
</a>
</g>
</g>
<!-- http://www.orchid.ac.uk/eprints/id/eprint/78&#45;&gt;http://id.ecs.soton.ac.uk/person/391 -->
<g id="edge9" class="edge">
<title>http://www.orchid.ac.uk/eprints/id/eprint/78&#45;&gt;http://id.ecs.soton.ac.uk/person/391</title>
<path fill="none" stroke="#000000" d="M426.2528,-152.9184C415.4817,-163.1226 401.0277,-176.8158 388.9766,-188.2327"/>
<polygon fill="#000000" stroke="#000000" points="386.3195,-185.9287 381.467,-195.347 391.1337,-191.0104 386.3195,-185.9287"/>
<text text-anchor="middle" x="429.7422" y="-165.1069" font-family="Times,serif" font-size="8.00" fill="#000000">att</text>
</g>
<!-- http://id.ecs.soton.ac.uk/person/7047 -->
<g id="node9" class="node">
<title>http://id.ecs.soton.ac.uk/person/7047</title>
<g id="a_node9"><a xlink:href="http://id.ecs.soton.ac.uk/person/7047" xlink:title="7047">
<polygon fill="#fdb266" stroke="#000000" points="285.2105,-215.5623 251,-228 216.7895,-215.5623 216.8214,-195.4377 285.1786,-195.4377 285.2105,-215.5623"/>
<text text-anchor="middle" x="251" y="-205.8" font-family="Times,serif" font-size="14.00" fill="#000000">7047</text>
</a>
</g>
</g>
<!-- http://www.orchid.ac.uk/eprints/id/eprint/78&#45;&gt;http://id.ecs.soton.ac.uk/person/7047 -->
<g id="edge10" class="edge">
<title>http://www.orchid.ac.uk/eprints/id/eprint/78&#45;&gt;http://id.ecs.soton.ac.uk/person/7047</title>
<path fill="none" stroke="#000000" d="M420.5085,-149.3082C415.7816,-151.6366 410.7638,-153.989 406,-156 369.282,-171.5 326.4194,-186.1818 295.0862,-196.3129"/>
<polygon fill="#000000" stroke="#000000" points="293.7945,-193.0514 285.3406,-199.4375 295.9317,-199.7172 293.7945,-193.0514"/>
<text text-anchor="middle" x="419.4897" y="-161.8735" font-family="Times,serif" font-size="8.00" fill="#000000">att</text>
</g>
<!-- http://www.robots.ox.ac.uk/~sjrob -->
<g id="node11" class="node">
<title>http://www.robots.ox.ac.uk/~sjrob</title>
<g id="a_node11"><a xlink:href="http://www.robots.ox.ac.uk/~sjrob" xlink:title="sjrob">
<polygon fill="#fdb266" stroke="#000000" points="136.2105,-215.5623 102,-228 67.7895,-215.5623 67.8214,-195.4377 136.1786,-195.4377 136.2105,-215.5623"/>
<text text-anchor="middle" x="102" y="-205.8" font-family="Times,serif" font-size="14.00" fill="#000000">sjrob</text>
</a>
</g>
</g>
<!-- http://www.orchid.ac.uk/eprints/id/eprint/78&#45;&gt;http://www.robots.ox.ac.uk/~sjrob -->
<g id="edge11" class="edge">
<title>http://www.orchid.ac.uk/eprints/id/eprint/78&#45;&gt;http://www.robots.ox.ac.uk/~sjrob</title>
<path fill="none" stroke="#000000" d="M421.112,-149.707C416.2625,-152.0663 411.0415,-154.3308 406,-156 393.7389,-160.0594 227.5928,-188.6204 146.2492,-202.4844"/>
<polygon fill="#000000" stroke="#000000" points="145.5665,-199.0502 136.2961,-204.1796 146.7418,-205.9509 145.5665,-199.0502"/>
<text text-anchor="middle" x="419.9804" y="-162.2643" font-family="Times,serif" font-size="8.00" fill="#000000">att</text>
</g>
<!-- &#45;attrs0 -->
<g id="node2" class="node">
<title>&#45;attrs0</title>
<polygon fill="none" stroke="#c0c0c0" points="611.5,-84 266.5,-84 266.5,-38 617.5,-38 617.5,-78 611.5,-84"/>
<polyline fill="none" stroke="#c0c0c0" points="611.5,-84 611.5,-78 "/>
<polyline fill="none" stroke="#c0c0c0" points="617.5,-78 611.5,-78 "/>
<text text-anchor="start" x="277" y="-70" font-family="Times,serif" font-size="10.00" fill="#000000">type:</text>
<text text-anchor="start" x="301" y="-70" font-family="Times,serif" font-size="10.00" fill="#000000">pic:Article</text>
<text text-anchor="start" x="276.894" y="-58" font-family="Times,serif" font-size="10.00" fill="#000000">label:</text>
<text text-anchor="start" x="300.9136" y="-58" font-family="Times,serif" font-size="10.00" fill="#000000">Network Analysis on Provenance Graphs from a Crowdsourcing Application</text>
<text text-anchor="start" x="277" y="-46" font-family="Times,serif" font-size="10.00" fill="#000000">year:</text>
<text text-anchor="start" x="301" y="-46" font-family="Times,serif" font-size="10.00" fill="#000000">2012</text>
</g>
<!-- &#45;attrs0&#45;&gt;http://www.orchid.ac.uk/eprints/id/eprint/78 -->
<g id="edge1" class="edge">
<title>&#45;attrs0&#45;&gt;http://www.orchid.ac.uk/eprints/id/eprint/78</title>
<path fill="none" stroke="#c0c0c0" stroke-dasharray="5,2" d="M442,-84.1025C442,-95.443 442,-108.9173 442,-119.5566"/>
</g>
<!-- &#45;attrs1 -->
<g id="node4" class="node">
<title>&#45;attrs1</title>
<polygon fill="none" stroke="#c0c0c0" points="698.5,-156 611.5,-156 611.5,-120 704.5,-120 704.5,-150 698.5,-156"/>
<polyline fill="none" stroke="#c0c0c0" points="698.5,-156 698.5,-150 "/>
<polyline fill="none" stroke="#c0c0c0" points="704.5,-150 698.5,-150 "/>
<text text-anchor="start" x="622" y="-141" font-family="Times,serif" font-size="10.00" fill="#000000">type:</text>
<text text-anchor="start" x="646" y="-141" font-family="Times,serif" font-size="10.00" fill="#000000">prov:Person</text>
<text text-anchor="start" x="621.894" y="-129" font-family="Times,serif" font-size="10.00" fill="#000000">label:</text>
<text text-anchor="start" x="645.6465" y="-129" font-family="Times,serif" font-size="10.00" fill="#000000">Mark Ebden</text>
</g>
<!-- &#45;attrs1&#45;&gt;http://www.robots.ox.ac.uk/~mebden -->
<g id="edge2" class="edge">
<title>&#45;attrs1&#45;&gt;http://www.robots.ox.ac.uk/~mebden</title>
<path fill="none" stroke="#c0c0c0" stroke-dasharray="5,2" d="M650.9344,-156.1686C646.2686,-168.1664 640.2281,-183.6993 635.8356,-194.9941"/>
</g>
<!-- &#45;attrs2 -->
<g id="node6" class="node">
<title>&#45;attrs2</title>
<polygon fill="none" stroke="#c0c0c0" points="587,-156 487,-156 487,-120 593,-120 593,-150 587,-156"/>
<polyline fill="none" stroke="#c0c0c0" points="587,-156 587,-150 "/>
<polyline fill="none" stroke="#c0c0c0" points="593,-150 587,-150 "/>
<text text-anchor="start" x="497" y="-141" font-family="Times,serif" font-size="10.00" fill="#000000">type:</text>
<text text-anchor="start" x="521" y="-141" font-family="Times,serif" font-size="10.00" fill="#000000">prov:Person</text>
<text text-anchor="start" x="496.894" y="-129" font-family="Times,serif" font-size="10.00" fill="#000000">label:</text>
<text text-anchor="start" x="520.8428" y="-129" font-family="Times,serif" font-size="10.00" fill="#000000">T. Dong Huynh</text>
</g>
<!-- &#45;attrs2&#45;&gt;http://id.ecs.soton.ac.uk/person/10022 -->
<g id="edge3" class="edge">
<title>&#45;attrs2&#45;&gt;http://id.ecs.soton.ac.uk/person/10022</title>
<path fill="none" stroke="#c0c0c0" stroke-dasharray="5,2" d="M522.336,-156.1686C510.6715,-168.1664 495.5701,-183.6993 484.5891,-194.9941"/>
</g>
<!-- &#45;attrs3 -->
<g id="node8" class="node">
<title>&#45;attrs3</title>
<polygon fill="none" stroke="#c0c0c0" points="390.5,-156 303.5,-156 303.5,-120 396.5,-120 396.5,-150 390.5,-156"/>
<polyline fill="none" stroke="#c0c0c0" points="390.5,-156 390.5,-150 "/>
<polyline fill="none" stroke="#c0c0c0" points="396.5,-150 390.5,-150 "/>
<text text-anchor="start" x="314" y="-141" font-family="Times,serif" font-size="10.00" fill="#000000">type:</text>
<text text-anchor="start" x="338" y="-141" font-family="Times,serif" font-size="10.00" fill="#000000">prov:Person</text>
<text text-anchor="start" x="313.894" y="-129" font-family="Times,serif" font-size="10.00" fill="#000000">label:</text>
<text text-anchor="start" x="337.9272" y="-129" font-family="Times,serif" font-size="10.00" fill="#000000">Luc Moreau</text>
</g>
<!-- &#45;attrs3&#45;&gt;http://id.ecs.soton.ac.uk/person/391 -->
<g id="edge4" class="edge">
<title>&#45;attrs3&#45;&gt;http://id.ecs.soton.ac.uk/person/391</title>
<path fill="none" stroke="#c0c0c0" stroke-dasharray="5,2" d="M354.0375,-156.1686C356.7037,-168.1664 360.1554,-183.6993 362.6654,-194.9941"/>
</g>
<!-- &#45;attrs4 -->
<g id="node10" class="node">
<title>&#45;attrs4</title>
<polygon fill="none" stroke="#c0c0c0" points="279.5,-156 150.5,-156 150.5,-120 285.5,-120 285.5,-150 279.5,-156"/>
<polyline fill="none" stroke="#c0c0c0" points="279.5,-156 279.5,-150 "/>
<polyline fill="none" stroke="#c0c0c0" points="285.5,-150 279.5,-150 "/>
<text text-anchor="start" x="161" y="-141" font-family="Times,serif" font-size="10.00" fill="#000000">type:</text>
<text text-anchor="start" x="185" y="-141" font-family="Times,serif" font-size="10.00" fill="#000000">prov:Person</text>
<text text-anchor="start" x="160.894" y="-129" font-family="Times,serif" font-size="10.00" fill="#000000">label:</text>
<text text-anchor="start" x="184.6797" y="-129" font-family="Times,serif" font-size="10.00" fill="#000000">Sarvapali D Ramchurn</text>
</g>
<!-- &#45;attrs4&#45;&gt;http://id.ecs.soton.ac.uk/person/7047 -->
<g id="edge5" class="edge">
<title>&#45;attrs4&#45;&gt;http://id.ecs.soton.ac.uk/person/7047</title>
<path fill="none" stroke="#c0c0c0" stroke-dasharray="5,2" d="M226.3273,-156.1686C231.8263,-168.1664 238.9455,-183.6993 244.1223,-194.9941"/>
</g>
<!-- &#45;attrs5 -->
<g id="node12" class="node">
<title>&#45;attrs5</title>
<polygon fill="none" stroke="#c0c0c0" points="126,-156 16,-156 16,-120 132,-120 132,-150 126,-156"/>
<polyline fill="none" stroke="#c0c0c0" points="126,-156 126,-150 "/>
<polyline fill="none" stroke="#c0c0c0" points="132,-150 126,-150 "/>
<text text-anchor="start" x="26" y="-141" font-family="Times,serif" font-size="10.00" fill="#000000">type:</text>
<text text-anchor="start" x="50" y="-141" font-family="Times,serif" font-size="10.00" fill="#000000">prov:Person</text>
<text text-anchor="start" x="25.894" y="-129" font-family="Times,serif" font-size="10.00" fill="#000000">label:</text>
<text text-anchor="start" x="49.8916" y="-129" font-family="Times,serif" font-size="10.00" fill="#000000">Stephen J Roberts</text>
</g>
<!-- &#45;attrs5&#45;&gt;http://www.robots.ox.ac.uk/~sjrob -->
<g id="edge6" class="edge">
<title>&#45;attrs5&#45;&gt;http://www.robots.ox.ac.uk/~sjrob</title>
<path fill="none" stroke="#c0c0c0" stroke-dasharray="5,2" d="M81.0656,-156.1686C85.7314,-168.1664 91.7719,-183.6993 96.1644,-194.9941"/>
</g>
</g>
</svg>
