<?xml version="1.0" encoding="UTF-8" standalone="no"?>
<!DOCTYPE svg PUBLIC "-//W3C//DTD SVG 1.1//EN"
 "http://www.w3.org/Graphics/SVG/1.1/DTD/svg11.dtd">
<!-- Generated by graphviz version 2.40.1 (20161225.0304)
 -->
<!-- Title: PROV Pages: 1 -->
<svg width="854pt" height="252pt"
 viewBox="0.00 0.00 854.00 252.00" xmlns="http://www.w3.org/2000/svg" xmlns:xlink="http://www.w3.org/1999/xlink">
<g id="graph0" class="graph" transform="scale(1 1) rotate(0) translate(4 248)">
<title>PROV</title>
<polygon fill="#ffffff" stroke="transparent" points="-4,4 -4,-248 850,-248 850,4 -4,4"/>
<g id="clust1" class="cluster">
<title>clusterurn:uuid:12414c7d&#45;5f5f&#45;4697&#45;8a1b&#45;72018e078324</title>
<g id="a_clust1"><a xlink:href="urn:uuid:12414c7d-5f5f-4697-8a1b-72018e078324" xlink:title="12414c7d&#45;5f5f&#45;4697&#45;8a1b&#45;72018e078324">
<polygon fill="none" stroke="#000000" points="8,-8 8,-236 838,-236 838,-8 8,-8"/>
<text text-anchor="middle" x="423" y="-14.8" font-family="Times,serif" font-size="14.00" fill="#000000">12414c7d&#45;5f5f&#45;4697&#45;8a1b&#45;72018e078324</text>
</a>
</g>
</g>
<!-- http://www.orchid.ac.uk/eprints/id/eprint/158 -->
<g id="node1" class="node">
<title>http://www.orchid.ac.uk/eprints/id/eprint/158</title>
<g id="a_node1"><a xlink:href="http://www.orchid.ac.uk/eprints/id/eprint/158" xlink:title="158">
<ellipse fill="#fffc87" stroke="#808080" cx="443" cy="-138" rx="27" ry="18"/>
<text text-anchor="middle" x="443" y="-133.8" font-family="Times,serif" font-size="14.00" fill="#000000">158</text>
</a>
</g>
</g>
<!-- http://id.ecs.soton.ac.uk/person/10022 -->
<g id="node3" class="node">
<title>http://id.ecs.soton.ac.uk/person/10022</title>
<g id="a_node3"><a xlink:href="http://id.ecs.soton.ac.uk/person/10022" xlink:title="10022">
<polygon fill="#fdb266" stroke="#000000" points="798.6419,-215.5623 759,-228 719.3581,-215.5623 719.3951,-195.4377 798.6049,-195.4377 798.6419,-215.5623"/>
<text text-anchor="middle" x="759" y="-205.8" font-family="Times,serif" font-size="14.00" fill="#000000">10022</text>
</a>
</g>
</g>
<!-- http://www.orchid.ac.uk/eprints/id/eprint/158&#45;&gt;http://id.ecs.soton.ac.uk/person/10022 -->
<g id="edge8" class="edge">
<title>http://www.orchid.ac.uk/eprints/id/eprint/158&#45;&gt;http://id.ecs.soton.ac.uk/person/10022</title>
<path fill="none" stroke="#000000" d="M463.8941,-149.6885C468.7433,-152.0488 473.9626,-154.3184 479,-156 563.4254,-184.1837 588.7187,-174.5657 676,-192 686.8488,-194.167 698.4681,-196.61 709.4744,-198.9811"/>
<polygon fill="#000000" stroke="#000000" points="708.8553,-202.4281 719.3701,-201.1284 710.3397,-195.5873 708.8553,-202.4281"/>
<text text-anchor="middle" x="476.2839" y="-138.8332" font-family="Times,serif" font-size="8.00" fill="#000000">att</text>
</g>
<!-- http://www.robots.ox.ac.uk/~mebden -->
<g id="node5" class="node">
<title>http://www.robots.ox.ac.uk/~mebden</title>
<g id="a_node5"><a xlink:href="http://www.robots.ox.ac.uk/~mebden" xlink:title="mebden">
<polygon fill="#fdb266" stroke="#000000" points="667.1912,-215.5623 620,-228 572.8088,-215.5623 572.8529,-195.4377 667.1471,-195.4377 667.1912,-215.5623"/>
<text text-anchor="middle" x="620" y="-205.8" font-family="Times,serif" font-size="14.00" fill="#000000">mebden</text>
</a>
</g>
</g>
<!-- http://www.orchid.ac.uk/eprints/id/eprint/158&#45;&gt;http://www.robots.ox.ac.uk/~mebden -->
<g id="edge9" class="edge">
<title>http://www.orchid.ac.uk/eprints/id/eprint/158&#45;&gt;http://www.robots.ox.ac.uk/~mebden</title>
<path fill="none" stroke="#000000" d="M464.5388,-149.1983C469.2628,-151.5336 474.2674,-153.9166 479,-156 508.3798,-168.9338 541.9163,-181.8504 568.9098,-191.8065"/>
<polygon fill="#000000" stroke="#000000" points="567.9452,-195.1806 578.5389,-195.3352 570.3538,-188.608 567.9452,-195.1806"/>
<text text-anchor="middle" x="477.0057" y="-138.4571" font-family="Times,serif" font-size="8.00" fill="#000000">att</text>
</g>
<!-- http://id.ecs.soton.ac.uk/person/24883 -->
<g id="node7" class="node">
<title>http://id.ecs.soton.ac.uk/person/24883</title>
<g id="a_node7"><a xlink:href="http://id.ecs.soton.ac.uk/person/24883" xlink:title="24883">
<polygon fill="#fdb266" stroke="#000000" points="499.6419,-215.5623 460,-228 420.3581,-215.5623 420.3951,-195.4377 499.6049,-195.4377 499.6419,-215.5623"/>
<text text-anchor="middle" x="460" y="-205.8" font-family="Times,serif" font-size="14.00" fill="#000000">24883</text>
</a>
</g>
</g>
<!-- http://www.orchid.ac.uk/eprints/id/eprint/158&#45;&gt;http://id.ecs.soton.ac.uk/person/24883 -->
<g id="edge10" class="edge">
<title>http://www.orchid.ac.uk/eprints/id/eprint/158&#45;&gt;http://id.ecs.soton.ac.uk/person/24883</title>
<path fill="none" stroke="#000000" d="M447.2022,-155.7978C449.3107,-164.7276 451.8979,-175.6852 454.193,-185.4055"/>
<polygon fill="#000000" stroke="#000000" points="450.8279,-186.385 456.5323,-195.3131 457.6406,-184.7764 450.8279,-186.385"/>
<text text-anchor="middle" x="461.5684" y="-157.712" font-family="Times,serif" font-size="8.00" fill="#000000">att</text>
</g>
<!-- http://id.ecs.soton.ac.uk/person/7047 -->
<g id="node9" class="node">
<title>http://id.ecs.soton.ac.uk/person/7047</title>
<g id="a_node9"><a xlink:href="http://id.ecs.soton.ac.uk/person/7047" xlink:title="7047">
<polygon fill="#fdb266" stroke="#000000" points="383.2105,-215.5623 349,-228 314.7895,-215.5623 314.8214,-195.4377 383.1786,-195.4377 383.2105,-215.5623"/>
<text text-anchor="middle" x="349" y="-205.8" font-family="Times,serif" font-size="14.00" fill="#000000">7047</text>
</a>
</g>
</g>
<!-- http://www.orchid.ac.uk/eprints/id/eprint/158&#45;&gt;http://id.ecs.soton.ac.uk/person/7047 -->
<g id="edge11" class="edge">
<title>http://www.orchid.ac.uk/eprints/id/eprint/158&#45;&gt;http://id.ecs.soton.ac.uk/person/7047</title>
<path fill="none" stroke="#000000" d="M424.8759,-151.8823C411.1015,-162.4329 391.9247,-177.1215 376.2967,-189.0919"/>
<polygon fill="#000000" stroke="#000000" points="373.847,-186.5595 368.0365,-195.4189 378.1035,-192.1167 373.847,-186.5595"/>
<text text-anchor="middle" x="426.8209" y="-164.3557" font-family="Times,serif" font-size="8.00" fill="#000000">att</text>
</g>
<!-- http://www.robots.ox.ac.uk/~sjrob -->
<g id="node11" class="node">
<title>http://www.robots.ox.ac.uk/~sjrob</title>
<g id="a_node11"><a xlink:href="http://www.robots.ox.ac.uk/~sjrob" xlink:title="sjrob">
<polygon fill="#fdb266" stroke="#000000" points="258.2105,-215.5623 224,-228 189.7895,-215.5623 189.8214,-195.4377 258.1786,-195.4377 258.2105,-215.5623"/>
<text text-anchor="middle" x="224" y="-205.8" font-family="Times,serif" font-size="14.00" fill="#000000">sjrob</text>
</a>
</g>
</g>
<!-- http://www.orchid.ac.uk/eprints/id/eprint/158&#45;&gt;http://www.robots.ox.ac.uk/~sjrob -->
<g id="edge12" class="edge">
<title>http://www.orchid.ac.uk/eprints/id/eprint/158&#45;&gt;http://www.robots.ox.ac.uk/~sjrob</title>
<path fill="none" stroke="#000000" d="M421.963,-149.2956C417.1212,-151.6762 411.941,-154.0534 407,-156 360.7994,-174.2014 305.9567,-189.6027 268.435,-199.242"/>
<polygon fill="#000000" stroke="#000000" points="267.1647,-195.9533 258.3328,-201.8055 268.8865,-202.7382 267.1647,-195.9533"/>
<text text-anchor="middle" x="420.9211" y="-161.8593" font-family="Times,serif" font-size="8.00" fill="#000000">att</text>
</g>
<!-- http://id.ecs.soton.ac.uk/person/391 -->
<g id="node13" class="node">
<title>http://id.ecs.soton.ac.uk/person/391</title>
<g id="a_node13"><a xlink:href="http://id.ecs.soton.ac.uk/person/391" xlink:title="391">
<polygon fill="#fdb266" stroke="#000000" points="112.7792,-215.5623 84,-228 55.2208,-215.5623 55.2476,-195.4377 112.7524,-195.4377 112.7792,-215.5623"/>
<text text-anchor="middle" x="84" y="-205.8" font-family="Times,serif" font-size="14.00" fill="#000000">391</text>
</a>
</g>
</g>
<!-- http://www.orchid.ac.uk/eprints/id/eprint/158&#45;&gt;http://id.ecs.soton.ac.uk/person/391 -->
<g id="edge13" class="edge">
<title>http://www.orchid.ac.uk/eprints/id/eprint/158&#45;&gt;http://id.ecs.soton.ac.uk/person/391</title>
<path fill="none" stroke="#000000" d="M422.1338,-149.7738C417.2832,-152.1296 412.0562,-154.3759 407,-156 310.1624,-187.1058 281.2322,-174.7199 181,-192 161.8109,-195.3082 140.5352,-199.228 122.8105,-202.5638"/>
<polygon fill="#000000" stroke="#000000" points="122.0031,-199.1544 112.8275,-204.4513 123.3037,-206.0325 122.0031,-199.1544"/>
<text text-anchor="middle" x="420.9879" y="-162.33" font-family="Times,serif" font-size="8.00" fill="#000000">att</text>
</g>
<!-- &#45;attrs0 -->
<g id="node2" class="node">
<title>&#45;attrs0</title>
<polygon fill="none" stroke="#c0c0c0" points="618.5,-84 261.5,-84 261.5,-38 624.5,-38 624.5,-78 618.5,-84"/>
<polyline fill="none" stroke="#c0c0c0" points="618.5,-84 618.5,-78 "/>
<polyline fill="none" stroke="#c0c0c0" points="624.5,-78 618.5,-78 "/>
<text text-anchor="start" x="272" y="-70" font-family="Times,serif" font-size="10.00" fill="#000000">type:</text>
<text text-anchor="start" x="296" y="-70" font-family="Times,serif" font-size="10.00" fill="#000000">pic:Article</text>
<text text-anchor="start" x="271.894" y="-58" font-family="Times,serif" font-size="10.00" fill="#000000">label:</text>
<text text-anchor="start" x="295.8076" y="-58" font-family="Times,serif" font-size="10.00" fill="#000000">Interpretation of Crowdsourced Activities Using Provenance Network Analysis </text>
<text text-anchor="start" x="272" y="-46" font-family="Times,serif" font-size="10.00" fill="#000000">year:</text>
<text text-anchor="start" x="296" y="-46" font-family="Times,serif" font-size="10.00" fill="#000000">2013</text>
</g>
<!-- &#45;attrs0&#45;&gt;http://www.orchid.ac.uk/eprints/id/eprint/158 -->
<g id="edge1" class="edge">
<title>&#45;attrs0&#45;&gt;http://www.orchid.ac.uk/eprints/id/eprint/158</title>
<path fill="none" stroke="#c0c0c0" stroke-dasharray="5,2" d="M443,-84.1025C443,-95.443 443,-108.9173 443,-119.5566"/>
</g>
<!-- &#45;attrs1 -->
<g id="node4" class="node">
<title>&#45;attrs1</title>
<polygon fill="none" stroke="#c0c0c0" points="824,-156 724,-156 724,-120 830,-120 830,-150 824,-156"/>
<polyline fill="none" stroke="#c0c0c0" points="824,-156 824,-150 "/>
<polyline fill="none" stroke="#c0c0c0" points="830,-150 824,-150 "/>
<text text-anchor="start" x="734" y="-141" font-family="Times,serif" font-size="10.00" fill="#000000">type:</text>
<text text-anchor="start" x="758" y="-141" font-family="Times,serif" font-size="10.00" fill="#000000">prov:Person</text>
<text text-anchor="start" x="733.894" y="-129" font-family="Times,serif" font-size="10.00" fill="#000000">label:</text>
<text text-anchor="start" x="757.8428" y="-129" font-family="Times,serif" font-size="10.00" fill="#000000">T. Dong Huynh</text>
</g>
<!-- &#45;attrs1&#45;&gt;http://id.ecs.soton.ac.uk/person/10022 -->
<g id="edge2" class="edge">
<title>&#45;attrs1&#45;&gt;http://id.ecs.soton.ac.uk/person/10022</title>
<path fill="none" stroke="#c0c0c0" stroke-dasharray="5,2" d="M772.4578,-156.1686C769.4584,-168.1664 765.5752,-183.6993 762.7515,-194.9941"/>
</g>
<!-- &#45;attrs2 -->
<g id="node6" class="node">
<title>&#45;attrs2</title>
<polygon fill="none" stroke="#c0c0c0" points="699.5,-156 612.5,-156 612.5,-120 705.5,-120 705.5,-150 699.5,-156"/>
<polyline fill="none" stroke="#c0c0c0" points="699.5,-156 699.5,-150 "/>
<polyline fill="none" stroke="#c0c0c0" points="705.5,-150 699.5,-150 "/>
<text text-anchor="start" x="623" y="-141" font-family="Times,serif" font-size="10.00" fill="#000000">type:</text>
<text text-anchor="start" x="647" y="-141" font-family="Times,serif" font-size="10.00" fill="#000000">prov:Person</text>
<text text-anchor="start" x="622.894" y="-129" font-family="Times,serif" font-size="10.00" fill="#000000">label:</text>
<text text-anchor="start" x="646.6465" y="-129" font-family="Times,serif" font-size="10.00" fill="#000000">Mark Ebden</text>
</g>
<!-- &#45;attrs2&#45;&gt;http://www.robots.ox.ac.uk/~mebden -->
<g id="edge3" class="edge">
<title>&#45;attrs2&#45;&gt;http://www.robots.ox.ac.uk/~mebden</title>
<path fill="none" stroke="#c0c0c0" stroke-dasharray="5,2" d="M649.1587,-156.1686C642.6598,-168.1664 634.2462,-183.6993 628.1282,-194.9941"/>
</g>
<!-- &#45;attrs3 -->
<g id="node8" class="node">
<title>&#45;attrs3</title>
<polygon fill="none" stroke="#c0c0c0" points="588,-156 488,-156 488,-120 594,-120 594,-150 588,-156"/>
<polyline fill="none" stroke="#c0c0c0" points="588,-156 588,-150 "/>
<polyline fill="none" stroke="#c0c0c0" points="594,-150 588,-150 "/>
<text text-anchor="start" x="498" y="-141" font-family="Times,serif" font-size="10.00" fill="#000000">type:</text>
<text text-anchor="start" x="522" y="-141" font-family="Times,serif" font-size="10.00" fill="#000000">prov:Person</text>
<text text-anchor="start" x="497.894" y="-129" font-family="Times,serif" font-size="10.00" fill="#000000">label:</text>
<text text-anchor="start" x="521.5718" y="-129" font-family="Times,serif" font-size="10.00" fill="#000000">Matteo Venanzi</text>
</g>
<!-- &#45;attrs3&#45;&gt;http://id.ecs.soton.ac.uk/person/24883 -->
<g id="edge4" class="edge">
<title>&#45;attrs3&#45;&gt;http://id.ecs.soton.ac.uk/person/24883</title>
<path fill="none" stroke="#c0c0c0" stroke-dasharray="5,2" d="M520.5603,-156.1686C506.969,-168.2497 489.3454,-183.9152 476.6176,-195.2288"/>
</g>
<!-- &#45;attrs4 -->
<g id="node10" class="node">
<title>&#45;attrs4</title>
<polygon fill="none" stroke="#c0c0c0" points="391.5,-156 262.5,-156 262.5,-120 397.5,-120 397.5,-150 391.5,-156"/>
<polyline fill="none" stroke="#c0c0c0" points="391.5,-156 391.5,-150 "/>
<polyline fill="none" stroke="#c0c0c0" points="397.5,-150 391.5,-150 "/>
<text text-anchor="start" x="273" y="-141" font-family="Times,serif" font-size="10.00" fill="#000000">type:</text>
<text text-anchor="start" x="297" y="-141" font-family="Times,serif" font-size="10.00" fill="#000000">prov:Person</text>
<text text-anchor="start" x="272.894" y="-129" font-family="Times,serif" font-size="10.00" fill="#000000">label:</text>
<text text-anchor="start" x="296.6797" y="-129" font-family="Times,serif" font-size="10.00" fill="#000000">Sarvapali D Ramchurn</text>
</g>
<!-- &#45;attrs4&#45;&gt;http://id.ecs.soton.ac.uk/person/7047 -->
<g id="edge5" class="edge">
<title>&#45;attrs4&#45;&gt;http://id.ecs.soton.ac.uk/person/7047</title>
<path fill="none" stroke="#c0c0c0" stroke-dasharray="5,2" d="M334.7945,-156.1686C337.9606,-168.1664 342.0595,-183.6993 345.0401,-194.9941"/>
</g>
<!-- &#45;attrs5 -->
<g id="node12" class="node">
<title>&#45;attrs5</title>
<polygon fill="none" stroke="#c0c0c0" points="238,-156 128,-156 128,-120 244,-120 244,-150 238,-156"/>
<polyline fill="none" stroke="#c0c0c0" points="238,-156 238,-150 "/>
<polyline fill="none" stroke="#c0c0c0" points="244,-150 238,-150 "/>
<text text-anchor="start" x="138" y="-141" font-family="Times,serif" font-size="10.00" fill="#000000">type:</text>
<text text-anchor="start" x="162" y="-141" font-family="Times,serif" font-size="10.00" fill="#000000">prov:Person</text>
<text text-anchor="start" x="137.894" y="-129" font-family="Times,serif" font-size="10.00" fill="#000000">label:</text>
<text text-anchor="start" x="161.8916" y="-129" font-family="Times,serif" font-size="10.00" fill="#000000">Stephen J Roberts</text>
</g>
<!-- &#45;attrs5&#45;&gt;http://www.robots.ox.ac.uk/~sjrob -->
<g id="edge6" class="edge">
<title>&#45;attrs5&#45;&gt;http://www.robots.ox.ac.uk/~sjrob</title>
<path fill="none" stroke="#c0c0c0" stroke-dasharray="5,2" d="M195.589,-156.1686C201.9212,-168.1664 210.1191,-183.6993 216.0802,-194.9941"/>
</g>
<!-- &#45;attrs6 -->
<g id="node14" class="node">
<title>&#45;attrs6</title>
<polygon fill="none" stroke="#c0c0c0" points="103.5,-156 16.5,-156 16.5,-120 109.5,-120 109.5,-150 103.5,-156"/>
<polyline fill="none" stroke="#c0c0c0" points="103.5,-156 103.5,-150 "/>
<polyline fill="none" stroke="#c0c0c0" points="109.5,-150 103.5,-150 "/>
<text text-anchor="start" x="27" y="-141" font-family="Times,serif" font-size="10.00" fill="#000000">type:</text>
<text text-anchor="start" x="51" y="-141" font-family="Times,serif" font-size="10.00" fill="#000000">prov:Person</text>
<text text-anchor="start" x="26.894" y="-129" font-family="Times,serif" font-size="10.00" fill="#000000">label:</text>
<text text-anchor="start" x="50.9272" y="-129" font-family="Times,serif" font-size="10.00" fill="#000000">Luc Moreau</text>
</g>
<!-- &#45;attrs6&#45;&gt;http://id.ecs.soton.ac.uk/person/391 -->
<g id="edge7" class="edge">
<title>&#45;attrs6&#45;&gt;http://id.ecs.soton.ac.uk/person/391</title>
<path fill="none" stroke="#c0c0c0" stroke-dasharray="5,2" d="M68.2992,-156.1686C71.7985,-168.1664 76.329,-183.6993 79.6233,-194.9941"/>
</g>
</g>
</svg>
