<?xml version="1.0" encoding="UTF-8" standalone="no"?>
<!DOCTYPE svg PUBLIC "-//W3C//DTD SVG 1.1//EN"
 "http://www.w3.org/Graphics/SVG/1.1/DTD/svg11.dtd">
<!-- Generated by graphviz version 2.40.1 (20161225.0304)
 -->
<!-- Title: PROV Pages: 1 -->
<svg width="676pt" height="252pt"
 viewBox="0.00 0.00 676.00 252.00" xmlns="http://www.w3.org/2000/svg" xmlns:xlink="http://www.w3.org/1999/xlink">
<g id="graph0" class="graph" transform="scale(1 1) rotate(0) translate(4 248)">
<title>PROV</title>
<polygon fill="#ffffff" stroke="transparent" points="-4,4 -4,-248 672,-248 672,4 -4,4"/>
<g id="clust1" class="cluster">
<title>clusterurn:uuid:fa70c77a&#45;1a2f&#45;46af&#45;852a&#45;314f3f2ae137</title>
<g id="a_clust1"><a xlink:href="urn:uuid:fa70c77a-1a2f-46af-852a-314f3f2ae137" xlink:title="fa70c77a&#45;1a2f&#45;46af&#45;852a&#45;314f3f2ae137">
<polygon fill="none" stroke="#000000" points="8,-8 8,-236 660,-236 660,-8 8,-8"/>
<text text-anchor="middle" x="334" y="-14.8" font-family="Times,serif" font-size="14.00" fill="#000000">fa70c77a&#45;1a2f&#45;46af&#45;852a&#45;314f3f2ae137</text>
</a>
</g>
</g>
<!-- http://www.orchid.ac.uk/eprints/id/eprint/128 -->
<g id="node1" class="node">
<title>http://www.orchid.ac.uk/eprints/id/eprint/128</title>
<g id="a_node1"><a xlink:href="http://www.orchid.ac.uk/eprints/id/eprint/128" xlink:title="128">
<ellipse fill="#fffc87" stroke="#808080" cx="347" cy="-138" rx="27" ry="18"/>
<text text-anchor="middle" x="347" y="-133.8" font-family="Times,serif" font-size="14.00" fill="#000000">128</text>
</a>
</g>
</g>
<!-- http://id.ecs.soton.ac.uk/person/7047 -->
<g id="node3" class="node">
<title>http://id.ecs.soton.ac.uk/person/7047</title>
<g id="a_node3"><a xlink:href="http://id.ecs.soton.ac.uk/person/7047" xlink:title="7047">
<polygon fill="#fdb266" stroke="#000000" points="652.2105,-215.5623 618,-228 583.7895,-215.5623 583.8214,-195.4377 652.1786,-195.4377 652.2105,-215.5623"/>
<text text-anchor="middle" x="618" y="-205.8" font-family="Times,serif" font-size="14.00" fill="#000000">7047</text>
</a>
</g>
</g>
<!-- http://www.orchid.ac.uk/eprints/id/eprint/128&#45;&gt;http://id.ecs.soton.ac.uk/person/7047 -->
<g id="edge6" class="edge">
<title>http://www.orchid.ac.uk/eprints/id/eprint/128&#45;&gt;http://id.ecs.soton.ac.uk/person/7047</title>
<path fill="none" stroke="#000000" d="M367.8999,-149.6714C372.7488,-152.0325 377.9665,-154.3068 383,-156 465.2893,-183.6812 491.8271,-167.0991 575,-192 575.1018,-192.0305 575.2036,-192.0611 575.3055,-192.0919"/>
<polygon fill="#000000" stroke="#000000" points="574.3246,-195.4547 584.9188,-195.3382 576.5642,-188.8227 574.3246,-195.4547"/>
<text text-anchor="middle" x="380.2918" y="-138.8191" font-family="Times,serif" font-size="8.00" fill="#000000">att</text>
</g>
<!-- http://id.ecs.soton.ac.uk/person/10022 -->
<g id="node5" class="node">
<title>http://id.ecs.soton.ac.uk/person/10022</title>
<g id="a_node5"><a xlink:href="http://id.ecs.soton.ac.uk/person/10022" xlink:title="10022">
<polygon fill="#fdb266" stroke="#000000" points="565.6419,-215.5623 526,-228 486.3581,-215.5623 486.3951,-195.4377 565.6049,-195.4377 565.6419,-215.5623"/>
<text text-anchor="middle" x="526" y="-205.8" font-family="Times,serif" font-size="14.00" fill="#000000">10022</text>
</a>
</g>
</g>
<!-- http://www.orchid.ac.uk/eprints/id/eprint/128&#45;&gt;http://id.ecs.soton.ac.uk/person/10022 -->
<g id="edge7" class="edge">
<title>http://www.orchid.ac.uk/eprints/id/eprint/128&#45;&gt;http://id.ecs.soton.ac.uk/person/10022</title>
<path fill="none" stroke="#000000" d="M368.5314,-149.2151C373.2558,-151.5494 378.2625,-153.9277 383,-156 392.067,-159.9662 439.1207,-177.6451 476.8132,-191.7093"/>
<polygon fill="#000000" stroke="#000000" points="476.0673,-195.1665 486.66,-195.3808 478.5129,-188.6076 476.0673,-195.1665"/>
<text text-anchor="middle" x="380.9959" y="-138.4702" font-family="Times,serif" font-size="8.00" fill="#000000">att</text>
</g>
<!-- http://id.ecs.soton.ac.uk/person/24883 -->
<g id="node7" class="node">
<title>http://id.ecs.soton.ac.uk/person/24883</title>
<g id="a_node7"><a xlink:href="http://id.ecs.soton.ac.uk/person/24883" xlink:title="24883">
<polygon fill="#fdb266" stroke="#000000" points="467.6419,-215.5623 428,-228 388.3581,-215.5623 388.3951,-195.4377 467.6049,-195.4377 467.6419,-215.5623"/>
<text text-anchor="middle" x="428" y="-205.8" font-family="Times,serif" font-size="14.00" fill="#000000">24883</text>
</a>
</g>
</g>
<!-- http://www.orchid.ac.uk/eprints/id/eprint/128&#45;&gt;http://id.ecs.soton.ac.uk/person/24883 -->
<g id="edge8" class="edge">
<title>http://www.orchid.ac.uk/eprints/id/eprint/128&#45;&gt;http://id.ecs.soton.ac.uk/person/24883</title>
<path fill="none" stroke="#000000" d="M363.3916,-152.5703C374.9527,-162.8469 390.6349,-176.7866 403.6536,-188.3588"/>
<polygon fill="#000000" stroke="#000000" points="401.5554,-191.1765 411.3548,-195.2043 406.206,-185.9447 401.5554,-191.1765"/>
<text text-anchor="middle" x="377.6275" y="-145.4439" font-family="Times,serif" font-size="8.00" fill="#000000">att</text>
</g>
<!-- http://www.example.com/d866ccae4f2a9419ff984a12c1b63e98 -->
<g id="node9" class="node">
<title>http://www.example.com/d866ccae4f2a9419ff984a12c1b63e98</title>
<g id="a_node9"><a xlink:href="http://www.example.com/d866ccae4f2a9419ff984a12c1b63e98" xlink:title="d866ccae4f2a9419ff984a12c1b63e98">
<polygon fill="#fdb266" stroke="#000000" points="369.6239,-215.5623 193,-228 16.3761,-215.5623 16.5409,-195.4377 369.4591,-195.4377 369.6239,-215.5623"/>
<text text-anchor="middle" x="193" y="-205.8" font-family="Times,serif" font-size="14.00" fill="#000000">d866ccae4f2a9419ff984a12c1b63e98</text>
</a>
</g>
</g>
<!-- http://www.orchid.ac.uk/eprints/id/eprint/128&#45;&gt;http://www.example.com/d866ccae4f2a9419ff984a12c1b63e98 -->
<g id="edge9" class="edge">
<title>http://www.orchid.ac.uk/eprints/id/eprint/128&#45;&gt;http://www.example.com/d866ccae4f2a9419ff984a12c1b63e98</title>
<path fill="none" stroke="#000000" d="M325.3574,-148.9724C320.6399,-151.3217 315.6642,-153.7675 311,-156 285.9283,-168.0003 257.6158,-180.9759 235.0092,-191.1996"/>
<polygon fill="#000000" stroke="#000000" points="233.3717,-188.0986 225.6961,-195.4018 236.2507,-194.4792 233.3717,-188.0986"/>
<text text-anchor="middle" x="324.4264" y="-161.5435" font-family="Times,serif" font-size="8.00" fill="#000000">att</text>
</g>
<!-- &#45;attrs0 -->
<g id="node2" class="node">
<title>&#45;attrs0</title>
<polygon fill="none" stroke="#c0c0c0" points="479,-84 209,-84 209,-38 485,-38 485,-78 479,-84"/>
<polyline fill="none" stroke="#c0c0c0" points="479,-84 479,-78 "/>
<polyline fill="none" stroke="#c0c0c0" points="485,-78 479,-78 "/>
<text text-anchor="start" x="219" y="-70" font-family="Times,serif" font-size="10.00" fill="#000000">type:</text>
<text text-anchor="start" x="243" y="-70" font-family="Times,serif" font-size="10.00" fill="#000000">pic:Article</text>
<text text-anchor="start" x="218.894" y="-58" font-family="Times,serif" font-size="10.00" fill="#000000">label:</text>
<text text-anchor="start" x="242.7305" y="-58" font-family="Times,serif" font-size="10.00" fill="#000000">Collabmap: crowdsourcing maps for emergency planning.</text>
<text text-anchor="start" x="219" y="-46" font-family="Times,serif" font-size="10.00" fill="#000000">year:</text>
<text text-anchor="start" x="243" y="-46" font-family="Times,serif" font-size="10.00" fill="#000000">2013</text>
</g>
<!-- &#45;attrs0&#45;&gt;http://www.orchid.ac.uk/eprints/id/eprint/128 -->
<g id="edge1" class="edge">
<title>&#45;attrs0&#45;&gt;http://www.orchid.ac.uk/eprints/id/eprint/128</title>
<path fill="none" stroke="#c0c0c0" stroke-dasharray="5,2" d="M347,-84.1025C347,-95.443 347,-108.9173 347,-119.5566"/>
</g>
<!-- &#45;attrs1 -->
<g id="node4" class="node">
<title>&#45;attrs1</title>
<polygon fill="none" stroke="#c0c0c0" points="645.5,-156 516.5,-156 516.5,-120 651.5,-120 651.5,-150 645.5,-156"/>
<polyline fill="none" stroke="#c0c0c0" points="645.5,-156 645.5,-150 "/>
<polyline fill="none" stroke="#c0c0c0" points="651.5,-150 645.5,-150 "/>
<text text-anchor="start" x="527" y="-141" font-family="Times,serif" font-size="10.00" fill="#000000">type:</text>
<text text-anchor="start" x="551" y="-141" font-family="Times,serif" font-size="10.00" fill="#000000">prov:Person</text>
<text text-anchor="start" x="526.894" y="-129" font-family="Times,serif" font-size="10.00" fill="#000000">label:</text>
<text text-anchor="start" x="550.6797" y="-129" font-family="Times,serif" font-size="10.00" fill="#000000">Sarvapali D Ramchurn</text>
</g>
<!-- &#45;attrs1&#45;&gt;http://id.ecs.soton.ac.uk/person/7047 -->
<g id="edge2" class="edge">
<title>&#45;attrs1&#45;&gt;http://id.ecs.soton.ac.uk/person/7047</title>
<path fill="none" stroke="#c0c0c0" stroke-dasharray="5,2" d="M592.5796,-156.1686C598.2453,-168.1664 605.5802,-183.6993 610.9139,-194.9941"/>
</g>
<!-- &#45;attrs2 -->
<g id="node6" class="node">
<title>&#45;attrs2</title>
<polygon fill="none" stroke="#c0c0c0" points="492,-156 392,-156 392,-120 498,-120 498,-150 492,-156"/>
<polyline fill="none" stroke="#c0c0c0" points="492,-156 492,-150 "/>
<polyline fill="none" stroke="#c0c0c0" points="498,-150 492,-150 "/>
<text text-anchor="start" x="402" y="-141" font-family="Times,serif" font-size="10.00" fill="#000000">type:</text>
<text text-anchor="start" x="426" y="-141" font-family="Times,serif" font-size="10.00" fill="#000000">prov:Person</text>
<text text-anchor="start" x="401.894" y="-129" font-family="Times,serif" font-size="10.00" fill="#000000">label:</text>
<text text-anchor="start" x="425.8428" y="-129" font-family="Times,serif" font-size="10.00" fill="#000000">T. Dong Huynh</text>
</g>
<!-- &#45;attrs2&#45;&gt;http://id.ecs.soton.ac.uk/person/10022 -->
<g id="edge3" class="edge">
<title>&#45;attrs2&#45;&gt;http://id.ecs.soton.ac.uk/person/10022</title>
<path fill="none" stroke="#c0c0c0" stroke-dasharray="5,2" d="M465.4397,-156.1686C479.031,-168.2497 496.6546,-183.9152 509.3824,-195.2288"/>
</g>
<!-- &#45;attrs3 -->
<g id="node8" class="node">
<title>&#45;attrs3</title>
<polygon fill="none" stroke="#c0c0c0" points="296,-156 196,-156 196,-120 302,-120 302,-150 296,-156"/>
<polyline fill="none" stroke="#c0c0c0" points="296,-156 296,-150 "/>
<polyline fill="none" stroke="#c0c0c0" points="302,-150 296,-150 "/>
<text text-anchor="start" x="206" y="-141" font-family="Times,serif" font-size="10.00" fill="#000000">type:</text>
<text text-anchor="start" x="230" y="-141" font-family="Times,serif" font-size="10.00" fill="#000000">prov:Person</text>
<text text-anchor="start" x="205.894" y="-129" font-family="Times,serif" font-size="10.00" fill="#000000">label:</text>
<text text-anchor="start" x="229.5718" y="-129" font-family="Times,serif" font-size="10.00" fill="#000000">Matteo Venanzi</text>
</g>
<!-- &#45;attrs3&#45;&gt;http://id.ecs.soton.ac.uk/person/24883 -->
<g id="edge4" class="edge">
<title>&#45;attrs3&#45;&gt;http://id.ecs.soton.ac.uk/person/24883</title>
<path fill="none" stroke="#c0c0c0" stroke-dasharray="5,2" d="M294.1693,-156.1686C324.3078,-168.2914 363.419,-184.0233 391.5677,-195.3457"/>
</g>
<!-- &#45;attrs4 -->
<g id="node10" class="node">
<title>&#45;attrs4</title>
<polygon fill="none" stroke="#c0c0c0" points="172,-156 86,-156 86,-120 178,-120 178,-150 172,-156"/>
<polyline fill="none" stroke="#c0c0c0" points="172,-156 172,-150 "/>
<polyline fill="none" stroke="#c0c0c0" points="178,-150 172,-150 "/>
<text text-anchor="start" x="96" y="-141" font-family="Times,serif" font-size="10.00" fill="#000000">type:</text>
<text text-anchor="start" x="119.835" y="-141" font-family="Times,serif" font-size="10.00" fill="#000000">prov:Person</text>
<text text-anchor="start" x="95.894" y="-129" font-family="Times,serif" font-size="10.00" fill="#000000">label:</text>
<text text-anchor="start" x="120" y="-129" font-family="Times,serif" font-size="10.00" fill="#000000">Bing Shi</text>
</g>
<!-- &#45;attrs4&#45;&gt;http://www.example.com/d866ccae4f2a9419ff984a12c1b63e98 -->
<g id="edge5" class="edge">
<title>&#45;attrs4&#45;&gt;http://www.example.com/d866ccae4f2a9419ff984a12c1b63e98</title>
<path fill="none" stroke="#c0c0c0" stroke-dasharray="5,2" d="M147.3929,-156.1686C157.5577,-168.1664 170.7175,-183.6993 180.2867,-194.9941"/>
</g>
</g>
</svg>
