<?xml version="1.0" encoding="UTF-8" standalone="no"?>
<!DOCTYPE svg PUBLIC "-//W3C//DTD SVG 1.1//EN"
 "http://www.w3.org/Graphics/SVG/1.1/DTD/svg11.dtd">
<!-- Generated by graphviz version 2.40.1 (20161225.0304)
 -->
<!-- Title: PROV Pages: 1 -->
<svg width="410pt" height="242pt"
 viewBox="0.00 0.00 410.00 242.00" xmlns="http://www.w3.org/2000/svg" xmlns:xlink="http://www.w3.org/1999/xlink">
<g id="graph0" class="graph" transform="scale(1 1) rotate(0) translate(4 238)">
<title>PROV</title>
<polygon fill="#ffffff" stroke="transparent" points="-4,4 -4,-238 406,-238 406,4 -4,4"/>
<g id="clust1" class="cluster">
<title>clusterurn:uuid:1283bee8&#45;e4e1&#45;4d9c&#45;aa6d&#45;659b7f684fdb</title>
<g id="a_clust1"><a xlink:href="urn:uuid:1283bee8-e4e1-4d9c-aa6d-659b7f684fdb" xlink:title="1283bee8&#45;e4e1&#45;4d9c&#45;aa6d&#45;659b7f684fdb">
<polygon fill="none" stroke="#000000" points="8,-8 8,-226 394,-226 394,-8 8,-8"/>
<text text-anchor="middle" x="201" y="-14.8" font-family="Times,serif" font-size="14.00" fill="#000000">1283bee8&#45;e4e1&#45;4d9c&#45;aa6d&#45;659b7f684fdb</text>
</a>
</g>
</g>
<!-- http://www.slideshare.net/lordPretzel/ipaw14&#45;presentation&#45;quan&#45;tanu&#45;ian -->
<g id="node1" class="node">
<title>http://www.slideshare.net/lordPretzel/ipaw14&#45;presentation&#45;quan&#45;tanu&#45;ian</title>
<g id="a_node1"><a xlink:href="http://www.slideshare.net/lordPretzel/ipaw14-presentation-quan-tanu-ian" xlink:title="ipaw14&#45;presentation&#45;quan&#45;tanu&#45;ian">
<ellipse fill="#fffc87" stroke="#808080" cx="252" cy="-128" rx="134.2204" ry="18"/>
<text text-anchor="middle" x="252" y="-123.8" font-family="Times,serif" font-size="14.00" fill="#000000">ipaw14&#45;presentation&#45;quan&#45;tanu&#45;ian</text>
</a>
</g>
</g>
<!-- http://www.ipaw.info/data/paper/PhamIPAW2014 -->
<g id="node3" class="node">
<title>http://www.ipaw.info/data/paper/PhamIPAW2014</title>
<g id="a_node3"><a xlink:href="http://www.ipaw.info/data/paper/PhamIPAW2014" xlink:title="PhamIPAW2014">
<ellipse fill="#fffc87" stroke="#808080" cx="168" cy="-200" rx="69.0373" ry="18"/>
<text text-anchor="middle" x="168" y="-195.8" font-family="Times,serif" font-size="14.00" fill="#000000">PhamIPAW2014</text>
</a>
</g>
</g>
<!-- http://www.slideshare.net/lordPretzel/ipaw14&#45;presentation&#45;quan&#45;tanu&#45;ian&#45;&gt;http://www.ipaw.info/data/paper/PhamIPAW2014 -->
<g id="edge3" class="edge">
<title>http://www.slideshare.net/lordPretzel/ipaw14&#45;presentation&#45;quan&#45;tanu&#45;ian&#45;&gt;http://www.ipaw.info/data/paper/PhamIPAW2014</title>
<path fill="none" stroke="#000000" d="M231.2359,-145.7978C220.5779,-154.9332 207.444,-166.1908 195.9125,-176.075"/>
<polygon fill="#000000" stroke="#000000" points="193.5502,-173.4901 188.2353,-182.6554 198.1057,-178.8049 193.5502,-173.4901"/>
<text text-anchor="middle" x="233.9956" y="-158.1417" font-family="Times,serif" font-size="8.00" fill="#000000">der</text>
</g>
<!-- &#45;attrs0 -->
<g id="node2" class="node">
<title>&#45;attrs0</title>
<polygon fill="none" stroke="#c0c0c0" points="286,-74 212,-74 212,-38 292,-38 292,-68 286,-74"/>
<polyline fill="none" stroke="#c0c0c0" points="286,-74 286,-68 "/>
<polyline fill="none" stroke="#c0c0c0" points="292,-68 286,-68 "/>
<text text-anchor="start" x="221.5024" y="-53" font-family="Times,serif" font-size="10.00" fill="#000000">type:</text>
<text text-anchor="start" x="242.7783" y="-53" font-family="Times,serif" font-size="10.00" fill="#000000">pic:Slides</text>
</g>
<!-- &#45;attrs0&#45;&gt;http://www.slideshare.net/lordPretzel/ipaw14&#45;presentation&#45;quan&#45;tanu&#45;ian -->
<g id="edge1" class="edge">
<title>&#45;attrs0&#45;&gt;http://www.slideshare.net/lordPretzel/ipaw14&#45;presentation&#45;quan&#45;tanu&#45;ian</title>
<path fill="none" stroke="#c0c0c0" stroke-dasharray="5,2" d="M252,-74.1686C252,-85 252,-98.7124 252,-109.5867"/>
</g>
<!-- &#45;attrs1 -->
<g id="node4" class="node">
<title>&#45;attrs1</title>
<polygon fill="none" stroke="#c0c0c0" points="93.5,-146 16.5,-146 16.5,-110 99.5,-110 99.5,-140 93.5,-146"/>
<polyline fill="none" stroke="#c0c0c0" points="93.5,-146 93.5,-140 "/>
<polyline fill="none" stroke="#c0c0c0" points="99.5,-140 93.5,-140 "/>
<text text-anchor="start" x="26.5024" y="-125" font-family="Times,serif" font-size="10.00" fill="#000000">type:</text>
<text text-anchor="start" x="47.6206" y="-125" font-family="Times,serif" font-size="10.00" fill="#000000">pic:Article</text>
</g>
<!-- &#45;attrs1&#45;&gt;http://www.ipaw.info/data/paper/PhamIPAW2014 -->
<g id="edge2" class="edge">
<title>&#45;attrs1&#45;&gt;http://www.ipaw.info/data/paper/PhamIPAW2014</title>
<path fill="none" stroke="#c0c0c0" stroke-dasharray="5,2" d="M85.7576,-146.1686C103.0693,-157.4999 125.1983,-171.9843 142.1404,-183.0737"/>
</g>
</g>
</svg>
