<?xml version="1.0" encoding="UTF-8" standalone="no"?>
<!DOCTYPE svg PUBLIC "-//W3C//DTD SVG 1.1//EN"
 "http://www.w3.org/Graphics/SVG/1.1/DTD/svg11.dtd">
<!-- Generated by graphviz version 2.40.1 (20161225.0304)
 -->
<!-- Title: PROV Pages: 1 -->
<svg width="386pt" height="242pt"
 viewBox="0.00 0.00 386.00 242.00" xmlns="http://www.w3.org/2000/svg" xmlns:xlink="http://www.w3.org/1999/xlink">
<g id="graph0" class="graph" transform="scale(1 1) rotate(0) translate(4 238)">
<title>PROV</title>
<polygon fill="#ffffff" stroke="transparent" points="-4,4 -4,-238 382,-238 382,4 -4,4"/>
<g id="clust1" class="cluster">
<title>clusterurn:uuid:a3c26b29&#45;1630&#45;4fec&#45;ad19&#45;6f3b4deacbe5</title>
<g id="a_clust1"><a xlink:href="urn:uuid:a3c26b29-1630-4fec-ad19-6f3b4deacbe5" xlink:title="a3c26b29&#45;1630&#45;4fec&#45;ad19&#45;6f3b4deacbe5">
<polygon fill="none" stroke="#000000" points="8,-8 8,-226 370,-226 370,-8 8,-8"/>
<text text-anchor="middle" x="189" y="-14.8" font-family="Times,serif" font-size="14.00" fill="#000000">a3c26b29&#45;1630&#45;4fec&#45;ad19&#45;6f3b4deacbe5</text>
</a>
</g>
</g>
<!-- http://eprints.soton.ac.uk/361113/13/Summary2.pdf -->
<g id="node1" class="node">
<title>http://eprints.soton.ac.uk/361113/13/Summary2.pdf</title>
<g id="a_node1"><a xlink:href="http://eprints.soton.ac.uk/361113/13/Summary2.pdf" xlink:title="Summary2.pdf">
<ellipse fill="#fffc87" stroke="#808080" cx="237" cy="-200" rx="62.8344" ry="18"/>
<text text-anchor="middle" x="237" y="-195.8" font-family="Times,serif" font-size="14.00" fill="#000000">Summary2.pdf</text>
</a>
</g>
</g>
<!-- &#45;attrs0 -->
<g id="node2" class="node">
<title>&#45;attrs0</title>
<polygon fill="none" stroke="#c0c0c0" points="331.5,-146 234.5,-146 234.5,-110 337.5,-110 337.5,-140 331.5,-146"/>
<polyline fill="none" stroke="#c0c0c0" points="331.5,-146 331.5,-140 "/>
<polyline fill="none" stroke="#c0c0c0" points="337.5,-140 331.5,-140 "/>
<text text-anchor="start" x="245" y="-131" font-family="Times,serif" font-size="10.00" fill="#000000">type:</text>
<text text-anchor="start" x="269" y="-131" font-family="Times,serif" font-size="10.00" fill="#000000">pic:Figure</text>
<text text-anchor="start" x="244.894" y="-119" font-family="Times,serif" font-size="10.00" fill="#000000">label:</text>
<text text-anchor="start" x="268.6416" y="-119" font-family="Times,serif" font-size="10.00" fill="#000000">Summary2.pdf</text>
</g>
<!-- &#45;attrs0&#45;&gt;http://eprints.soton.ac.uk/361113/13/Summary2.pdf -->
<g id="edge1" class="edge">
<title>&#45;attrs0&#45;&gt;http://eprints.soton.ac.uk/361113/13/Summary2.pdf</title>
<path fill="none" stroke="#c0c0c0" stroke-dasharray="5,2" d="M273.6352,-146.1686C266.1505,-157.1666 256.6442,-171.135 249.1911,-182.0866"/>
</g>
<!-- http://www.orchid.ac.uk/eprints/id/eprint/180 -->
<g id="node3" class="node">
<title>http://www.orchid.ac.uk/eprints/id/eprint/180</title>
<g id="a_node3"><a xlink:href="http://www.orchid.ac.uk/eprints/id/eprint/180" xlink:title="180">
<ellipse fill="#fffc87" stroke="#808080" cx="189" cy="-128" rx="27" ry="18"/>
<text text-anchor="middle" x="189" y="-123.8" font-family="Times,serif" font-size="14.00" fill="#000000">180</text>
</a>
</g>
</g>
<!-- http://www.orchid.ac.uk/eprints/id/eprint/180&#45;&gt;http://eprints.soton.ac.uk/361113/13/Summary2.pdf -->
<g id="edge3" class="edge">
<title>http://www.orchid.ac.uk/eprints/id/eprint/180&#45;&gt;http://eprints.soton.ac.uk/361113/13/Summary2.pdf</title>
<path fill="none" stroke="#000000" d="M200.1328,-144.6992C205.8578,-153.2867 212.9697,-163.9546 219.4153,-173.623"/>
<polygon fill="#000000" stroke="#000000" points="216.6294,-175.7538 225.0886,-182.1329 222.4537,-171.8709 216.6294,-175.7538"/>
</g>
<!-- &#45;attrs1 -->
<g id="node4" class="node">
<title>&#45;attrs1</title>
<polygon fill="none" stroke="#c0c0c0" points="356,-74 16,-74 16,-38 362,-38 362,-68 356,-74"/>
<polyline fill="none" stroke="#c0c0c0" points="356,-74 356,-68 "/>
<polyline fill="none" stroke="#c0c0c0" points="362,-68 356,-68 "/>
<text text-anchor="start" x="26" y="-59" font-family="Times,serif" font-size="10.00" fill="#000000">type:</text>
<text text-anchor="start" x="50" y="-59" font-family="Times,serif" font-size="10.00" fill="#000000">pic:Article</text>
<text text-anchor="start" x="25.894" y="-47" font-family="Times,serif" font-size="10.00" fill="#000000">label:</text>
<text text-anchor="start" x="49.6035" y="-47" font-family="Times,serif" font-size="10.00" fill="#000000">An Online Validator for Provenance: Algorithmic Design, Testing, and API </text>
</g>
<!-- &#45;attrs1&#45;&gt;http://www.orchid.ac.uk/eprints/id/eprint/180 -->
<g id="edge2" class="edge">
<title>&#45;attrs1&#45;&gt;http://www.orchid.ac.uk/eprints/id/eprint/180</title>
<path fill="none" stroke="#c0c0c0" stroke-dasharray="5,2" d="M189,-74.1686C189,-85 189,-98.7124 189,-109.5867"/>
</g>
</g>
</svg>
