<?xml version="1.0" encoding="UTF-8" standalone="no"?>
<!DOCTYPE svg PUBLIC "-//W3C//DTD SVG 1.1//EN"
 "http://www.w3.org/Graphics/SVG/1.1/DTD/svg11.dtd">
<!-- Generated by graphviz version 2.40.1 (20161225.0304)
 -->
<!-- Title: PROV Pages: 1 -->
<svg width="1152pt" height="62pt"
 viewBox="0.00 0.00 1152.00 62.03" xmlns="http://www.w3.org/2000/svg" xmlns:xlink="http://www.w3.org/1999/xlink">
<g id="graph0" class="graph" transform="scale(.2563 .2563) rotate(0) translate(4 238)">
<title>PROV</title>
<polygon fill="#ffffff" stroke="transparent" points="-4,4 -4,-238 4490,-238 4490,4 -4,4"/>
<g id="clust1" class="cluster">
<title>clusterurn:uuid:ecb4a610&#45;cd6c&#45;47ae&#45;8d12&#45;f25021fbb71c</title>
<g id="a_clust1"><a xlink:href="urn:uuid:ecb4a610-cd6c-47ae-8d12-f25021fbb71c" xlink:title="ecb4a610&#45;cd6c&#45;47ae&#45;8d12&#45;f25021fbb71c">
<polygon fill="none" stroke="#000000" points="8,-8 8,-226 4478,-226 4478,-8 8,-8"/>
<text text-anchor="middle" x="2243" y="-14.8" font-family="Times,serif" font-size="14.00" fill="#000000">ecb4a610&#45;cd6c&#45;47ae&#45;8d12&#45;f25021fbb71c</text>
</a>
</g>
</g>
<!-- http://www.w3.org/TR/2013/NOTE&#45;prov&#45;primer&#45;20130430/images/key&#45;concepts.png -->
<g id="node1" class="node">
<title>http://www.w3.org/TR/2013/NOTE&#45;prov&#45;primer&#45;20130430/images/key&#45;concepts.png</title>
<g id="a_node1"><a xlink:href="http://www.w3.org/TR/2013/NOTE-prov-primer-20130430/images/key-concepts.png" xlink:title="NOTE&#45;prov&#45;primer&#45;20130430/images/key&#45;concepts.png">
<ellipse fill="#fffc87" stroke="#808080" cx="4260" cy="-200" rx="209.6887" ry="18"/>
<text text-anchor="middle" x="4260" y="-195.8" font-family="Times,serif" font-size="14.00" fill="#000000">NOTE&#45;prov&#45;primer&#45;20130430/images/key&#45;concepts.png</text>
</a>
</g>
</g>
<!-- &#45;attrs0 -->
<g id="node2" class="node">
<title>&#45;attrs0</title>
<polygon fill="none" stroke="#c0c0c0" points="4295,-146 4219,-146 4219,-110 4301,-110 4301,-140 4295,-146"/>
<polyline fill="none" stroke="#c0c0c0" points="4295,-146 4295,-140 "/>
<polyline fill="none" stroke="#c0c0c0" points="4301,-140 4295,-140 "/>
<text text-anchor="start" x="4228.5024" y="-125" font-family="Times,serif" font-size="10.00" fill="#000000">type:</text>
<text text-anchor="start" x="4249.9482" y="-125" font-family="Times,serif" font-size="10.00" fill="#000000">pic:Figure</text>
</g>
<!-- &#45;attrs0&#45;&gt;http://www.w3.org/TR/2013/NOTE&#45;prov&#45;primer&#45;20130430/images/key&#45;concepts.png -->
<g id="edge1" class="edge">
<title>&#45;attrs0&#45;&gt;http://www.w3.org/TR/2013/NOTE&#45;prov&#45;primer&#45;20130430/images/key&#45;concepts.png</title>
<path fill="none" stroke="#c0c0c0" stroke-dasharray="5,2" d="M4260,-146.1686C4260,-157 4260,-170.7124 4260,-181.5867"/>
</g>
<!-- http://www.w3.org/TR/2013/NOTE&#45;prov&#45;primer&#45;20130430/images/entities.png -->
<g id="node3" class="node">
<title>http://www.w3.org/TR/2013/NOTE&#45;prov&#45;primer&#45;20130430/images/entities.png</title>
<g id="a_node3"><a xlink:href="http://www.w3.org/TR/2013/NOTE-prov-primer-20130430/images/entities.png" xlink:title="NOTE&#45;prov&#45;primer&#45;20130430/images/entities.png">
<ellipse fill="#fffc87" stroke="#808080" cx="3844" cy="-200" rx="188.4663" ry="18"/>
<text text-anchor="middle" x="3844" y="-195.8" font-family="Times,serif" font-size="14.00" fill="#000000">NOTE&#45;prov&#45;primer&#45;20130430/images/entities.png</text>
</a>
</g>
</g>
<!-- &#45;attrs1 -->
<g id="node4" class="node">
<title>&#45;attrs1</title>
<polygon fill="none" stroke="#c0c0c0" points="3879,-146 3803,-146 3803,-110 3885,-110 3885,-140 3879,-146"/>
<polyline fill="none" stroke="#c0c0c0" points="3879,-146 3879,-140 "/>
<polyline fill="none" stroke="#c0c0c0" points="3885,-140 3879,-140 "/>
<text text-anchor="start" x="3812.5024" y="-125" font-family="Times,serif" font-size="10.00" fill="#000000">type:</text>
<text text-anchor="start" x="3833.9482" y="-125" font-family="Times,serif" font-size="10.00" fill="#000000">pic:Figure</text>
</g>
<!-- &#45;attrs1&#45;&gt;http://www.w3.org/TR/2013/NOTE&#45;prov&#45;primer&#45;20130430/images/entities.png -->
<g id="edge2" class="edge">
<title>&#45;attrs1&#45;&gt;http://www.w3.org/TR/2013/NOTE&#45;prov&#45;primer&#45;20130430/images/entities.png</title>
<path fill="none" stroke="#c0c0c0" stroke-dasharray="5,2" d="M3844,-146.1686C3844,-157 3844,-170.7124 3844,-181.5867"/>
</g>
<!-- http://www.w3.org/TR/2013/NOTE&#45;prov&#45;primer&#45;20130430/images/activities.png -->
<g id="node5" class="node">
<title>http://www.w3.org/TR/2013/NOTE&#45;prov&#45;primer&#45;20130430/images/activities.png</title>
<g id="a_node5"><a xlink:href="http://www.w3.org/TR/2013/NOTE-prov-primer-20130430/images/activities.png" xlink:title="NOTE&#45;prov&#45;primer&#45;20130430/images/activities.png">
<ellipse fill="#fffc87" stroke="#808080" cx="3443" cy="-200" rx="194.7307" ry="18"/>
<text text-anchor="middle" x="3443" y="-195.8" font-family="Times,serif" font-size="14.00" fill="#000000">NOTE&#45;prov&#45;primer&#45;20130430/images/activities.png</text>
</a>
</g>
</g>
<!-- &#45;attrs2 -->
<g id="node6" class="node">
<title>&#45;attrs2</title>
<polygon fill="none" stroke="#c0c0c0" points="3478,-146 3402,-146 3402,-110 3484,-110 3484,-140 3478,-146"/>
<polyline fill="none" stroke="#c0c0c0" points="3478,-146 3478,-140 "/>
<polyline fill="none" stroke="#c0c0c0" points="3484,-140 3478,-140 "/>
<text text-anchor="start" x="3411.5024" y="-125" font-family="Times,serif" font-size="10.00" fill="#000000">type:</text>
<text text-anchor="start" x="3432.9482" y="-125" font-family="Times,serif" font-size="10.00" fill="#000000">pic:Figure</text>
</g>
<!-- &#45;attrs2&#45;&gt;http://www.w3.org/TR/2013/NOTE&#45;prov&#45;primer&#45;20130430/images/activities.png -->
<g id="edge3" class="edge">
<title>&#45;attrs2&#45;&gt;http://www.w3.org/TR/2013/NOTE&#45;prov&#45;primer&#45;20130430/images/activities.png</title>
<path fill="none" stroke="#c0c0c0" stroke-dasharray="5,2" d="M3443,-146.1686C3443,-157 3443,-170.7124 3443,-181.5867"/>
</g>
<!-- http://www.w3.org/TR/2013/NOTE&#45;prov&#45;primer&#45;20130430/images/use&#45;generate.png -->
<g id="node7" class="node">
<title>http://www.w3.org/TR/2013/NOTE&#45;prov&#45;primer&#45;20130430/images/use&#45;generate.png</title>
<g id="a_node7"><a xlink:href="http://www.w3.org/TR/2013/NOTE-prov-primer-20130430/images/use-generate.png" xlink:title="NOTE&#45;prov&#45;primer&#45;20130430/images/use&#45;generate.png">
<ellipse fill="#fffc87" stroke="#808080" cx="3023" cy="-200" rx="207.742" ry="18"/>
<text text-anchor="middle" x="3023" y="-195.8" font-family="Times,serif" font-size="14.00" fill="#000000">NOTE&#45;prov&#45;primer&#45;20130430/images/use&#45;generate.png</text>
</a>
</g>
</g>
<!-- &#45;attrs3 -->
<g id="node8" class="node">
<title>&#45;attrs3</title>
<polygon fill="none" stroke="#c0c0c0" points="3058,-146 2982,-146 2982,-110 3064,-110 3064,-140 3058,-146"/>
<polyline fill="none" stroke="#c0c0c0" points="3058,-146 3058,-140 "/>
<polyline fill="none" stroke="#c0c0c0" points="3064,-140 3058,-140 "/>
<text text-anchor="start" x="2991.5024" y="-125" font-family="Times,serif" font-size="10.00" fill="#000000">type:</text>
<text text-anchor="start" x="3012.9482" y="-125" font-family="Times,serif" font-size="10.00" fill="#000000">pic:Figure</text>
</g>
<!-- &#45;attrs3&#45;&gt;http://www.w3.org/TR/2013/NOTE&#45;prov&#45;primer&#45;20130430/images/use&#45;generate.png -->
<g id="edge4" class="edge">
<title>&#45;attrs3&#45;&gt;http://www.w3.org/TR/2013/NOTE&#45;prov&#45;primer&#45;20130430/images/use&#45;generate.png</title>
<path fill="none" stroke="#c0c0c0" stroke-dasharray="5,2" d="M3023,-146.1686C3023,-157 3023,-170.7124 3023,-181.5867"/>
</g>
<!-- http://www.w3.org/TR/2013/NOTE&#45;prov&#45;primer&#45;20130430/images/agents.png -->
<g id="node9" class="node">
<title>http://www.w3.org/TR/2013/NOTE&#45;prov&#45;primer&#45;20130430/images/agents.png</title>
<g id="a_node9"><a xlink:href="http://www.w3.org/TR/2013/NOTE-prov-primer-20130430/images/agents.png" xlink:title="NOTE&#45;prov&#45;primer&#45;20130430/images/agents.png">
<ellipse fill="#fffc87" stroke="#808080" cx="2612" cy="-200" rx="185.5678" ry="18"/>
<text text-anchor="middle" x="2612" y="-195.8" font-family="Times,serif" font-size="14.00" fill="#000000">NOTE&#45;prov&#45;primer&#45;20130430/images/agents.png</text>
</a>
</g>
</g>
<!-- &#45;attrs4 -->
<g id="node10" class="node">
<title>&#45;attrs4</title>
<polygon fill="none" stroke="#c0c0c0" points="2647,-146 2571,-146 2571,-110 2653,-110 2653,-140 2647,-146"/>
<polyline fill="none" stroke="#c0c0c0" points="2647,-146 2647,-140 "/>
<polyline fill="none" stroke="#c0c0c0" points="2653,-140 2647,-140 "/>
<text text-anchor="start" x="2580.5024" y="-125" font-family="Times,serif" font-size="10.00" fill="#000000">type:</text>
<text text-anchor="start" x="2601.9482" y="-125" font-family="Times,serif" font-size="10.00" fill="#000000">pic:Figure</text>
</g>
<!-- &#45;attrs4&#45;&gt;http://www.w3.org/TR/2013/NOTE&#45;prov&#45;primer&#45;20130430/images/agents.png -->
<g id="edge5" class="edge">
<title>&#45;attrs4&#45;&gt;http://www.w3.org/TR/2013/NOTE&#45;prov&#45;primer&#45;20130430/images/agents.png</title>
<path fill="none" stroke="#c0c0c0" stroke-dasharray="5,2" d="M2612,-146.1686C2612,-157 2612,-170.7124 2612,-181.5867"/>
</g>
<!-- http://www.w3.org/TR/2013/NOTE&#45;prov&#45;primer&#45;20130430/images/roles.png -->
<g id="node11" class="node">
<title>http://www.w3.org/TR/2013/NOTE&#45;prov&#45;primer&#45;20130430/images/roles.png</title>
<g id="a_node11"><a xlink:href="http://www.w3.org/TR/2013/NOTE-prov-primer-20130430/images/roles.png" xlink:title="NOTE&#45;prov&#45;primer&#45;20130430/images/roles.png">
<ellipse fill="#fffc87" stroke="#808080" cx="2228" cy="-200" rx="180.264" ry="18"/>
<text text-anchor="middle" x="2228" y="-195.8" font-family="Times,serif" font-size="14.00" fill="#000000">NOTE&#45;prov&#45;primer&#45;20130430/images/roles.png</text>
</a>
</g>
</g>
<!-- &#45;attrs5 -->
<g id="node12" class="node">
<title>&#45;attrs5</title>
<polygon fill="none" stroke="#c0c0c0" points="2351,-146 2275,-146 2275,-110 2357,-110 2357,-140 2351,-146"/>
<polyline fill="none" stroke="#c0c0c0" points="2351,-146 2351,-140 "/>
<polyline fill="none" stroke="#c0c0c0" points="2357,-140 2351,-140 "/>
<text text-anchor="start" x="2284.5024" y="-125" font-family="Times,serif" font-size="10.00" fill="#000000">type:</text>
<text text-anchor="start" x="2305.9482" y="-125" font-family="Times,serif" font-size="10.00" fill="#000000">pic:Figure</text>
</g>
<!-- &#45;attrs5&#45;&gt;http://www.w3.org/TR/2013/NOTE&#45;prov&#45;primer&#45;20130430/images/roles.png -->
<g id="edge6" class="edge">
<title>&#45;attrs5&#45;&gt;http://www.w3.org/TR/2013/NOTE&#45;prov&#45;primer&#45;20130430/images/roles.png</title>
<path fill="none" stroke="#c0c0c0" stroke-dasharray="5,2" d="M2293.7939,-146.1686C2280.3519,-157.1666 2263.2794,-171.135 2249.8942,-182.0866"/>
</g>
<!-- http://www.w3.org/TR/2013/NOTE&#45;prov&#45;primer&#45;20130430/images/derivation.png -->
<g id="node13" class="node">
<title>http://www.w3.org/TR/2013/NOTE&#45;prov&#45;primer&#45;20130430/images/derivation.png</title>
<g id="a_node13"><a xlink:href="http://www.w3.org/TR/2013/NOTE-prov-primer-20130430/images/derivation.png" xlink:title="NOTE&#45;prov&#45;primer&#45;20130430/images/derivation.png">
<ellipse fill="#fffc87" stroke="#808080" cx="1831" cy="-200" rx="198.5898" ry="18"/>
<text text-anchor="middle" x="1831" y="-195.8" font-family="Times,serif" font-size="14.00" fill="#000000">NOTE&#45;prov&#45;primer&#45;20130430/images/derivation.png</text>
</a>
</g>
</g>
<!-- &#45;attrs6 -->
<g id="node14" class="node">
<title>&#45;attrs6</title>
<polygon fill="none" stroke="#c0c0c0" points="1866,-146 1790,-146 1790,-110 1872,-110 1872,-140 1866,-146"/>
<polyline fill="none" stroke="#c0c0c0" points="1866,-146 1866,-140 "/>
<polyline fill="none" stroke="#c0c0c0" points="1872,-140 1866,-140 "/>
<text text-anchor="start" x="1799.5024" y="-125" font-family="Times,serif" font-size="10.00" fill="#000000">type:</text>
<text text-anchor="start" x="1820.9482" y="-125" font-family="Times,serif" font-size="10.00" fill="#000000">pic:Figure</text>
</g>
<!-- &#45;attrs6&#45;&gt;http://www.w3.org/TR/2013/NOTE&#45;prov&#45;primer&#45;20130430/images/derivation.png -->
<g id="edge7" class="edge">
<title>&#45;attrs6&#45;&gt;http://www.w3.org/TR/2013/NOTE&#45;prov&#45;primer&#45;20130430/images/derivation.png</title>
<path fill="none" stroke="#c0c0c0" stroke-dasharray="5,2" d="M1831,-146.1686C1831,-157 1831,-170.7124 1831,-181.5867"/>
</g>
<!-- http://www.w3.org/TR/2013/NOTE&#45;prov&#45;primer&#45;20130430/images/plans.png -->
<g id="node15" class="node">
<title>http://www.w3.org/TR/2013/NOTE&#45;prov&#45;primer&#45;20130430/images/plans.png</title>
<g id="a_node15"><a xlink:href="http://www.w3.org/TR/2013/NOTE-prov-primer-20130430/images/plans.png" xlink:title="NOTE&#45;prov&#45;primer&#45;20130430/images/plans.png">
<ellipse fill="#fffc87" stroke="#808080" cx="1433" cy="-200" rx="181.7176" ry="18"/>
<text text-anchor="middle" x="1433" y="-195.8" font-family="Times,serif" font-size="14.00" fill="#000000">NOTE&#45;prov&#45;primer&#45;20130430/images/plans.png</text>
</a>
</g>
</g>
<!-- &#45;attrs7 -->
<g id="node16" class="node">
<title>&#45;attrs7</title>
<polygon fill="none" stroke="#c0c0c0" points="1468,-146 1392,-146 1392,-110 1474,-110 1474,-140 1468,-146"/>
<polyline fill="none" stroke="#c0c0c0" points="1468,-146 1468,-140 "/>
<polyline fill="none" stroke="#c0c0c0" points="1474,-140 1468,-140 "/>
<text text-anchor="start" x="1401.5024" y="-125" font-family="Times,serif" font-size="10.00" fill="#000000">type:</text>
<text text-anchor="start" x="1422.9482" y="-125" font-family="Times,serif" font-size="10.00" fill="#000000">pic:Figure</text>
</g>
<!-- &#45;attrs7&#45;&gt;http://www.w3.org/TR/2013/NOTE&#45;prov&#45;primer&#45;20130430/images/plans.png -->
<g id="edge8" class="edge">
<title>&#45;attrs7&#45;&gt;http://www.w3.org/TR/2013/NOTE&#45;prov&#45;primer&#45;20130430/images/plans.png</title>
<path fill="none" stroke="#c0c0c0" stroke-dasharray="5,2" d="M1433,-146.1686C1433,-157 1433,-170.7124 1433,-181.5867"/>
</g>
<!-- http://www.w3.org/TR/2013/NOTE&#45;prov&#45;primer&#45;20130430/images/time.png -->
<g id="node17" class="node">
<title>http://www.w3.org/TR/2013/NOTE&#45;prov&#45;primer&#45;20130430/images/time.png</title>
<g id="a_node17"><a xlink:href="http://www.w3.org/TR/2013/NOTE-prov-primer-20130430/images/time.png" xlink:title="NOTE&#45;prov&#45;primer&#45;20130430/images/time.png">
<ellipse fill="#fffc87" stroke="#808080" cx="1055" cy="-200" rx="178.8191" ry="18"/>
<text text-anchor="middle" x="1055" y="-195.8" font-family="Times,serif" font-size="14.00" fill="#000000">NOTE&#45;prov&#45;primer&#45;20130430/images/time.png</text>
</a>
</g>
</g>
<!-- &#45;attrs8 -->
<g id="node18" class="node">
<title>&#45;attrs8</title>
<polygon fill="none" stroke="#c0c0c0" points="1090,-146 1014,-146 1014,-110 1096,-110 1096,-140 1090,-146"/>
<polyline fill="none" stroke="#c0c0c0" points="1090,-146 1090,-140 "/>
<polyline fill="none" stroke="#c0c0c0" points="1096,-140 1090,-140 "/>
<text text-anchor="start" x="1023.5024" y="-125" font-family="Times,serif" font-size="10.00" fill="#000000">type:</text>
<text text-anchor="start" x="1044.9482" y="-125" font-family="Times,serif" font-size="10.00" fill="#000000">pic:Figure</text>
</g>
<!-- &#45;attrs8&#45;&gt;http://www.w3.org/TR/2013/NOTE&#45;prov&#45;primer&#45;20130430/images/time.png -->
<g id="edge9" class="edge">
<title>&#45;attrs8&#45;&gt;http://www.w3.org/TR/2013/NOTE&#45;prov&#45;primer&#45;20130430/images/time.png</title>
<path fill="none" stroke="#c0c0c0" stroke-dasharray="5,2" d="M1055,-146.1686C1055,-157 1055,-170.7124 1055,-181.5867"/>
</g>
<!-- http://www.w3.org/TR/2013/NOTE&#45;prov&#45;primer&#45;20130430/images/specialization.png -->
<g id="node19" class="node">
<title>http://www.w3.org/TR/2013/NOTE&#45;prov&#45;primer&#45;20130430/images/specialization.png</title>
<g id="a_node19"><a xlink:href="http://www.w3.org/TR/2013/NOTE-prov-primer-20130430/images/specialization.png" xlink:title="NOTE&#45;prov&#45;primer&#45;20130430/images/specialization.png">
<ellipse fill="#fffc87" stroke="#808080" cx="647" cy="-200" rx="211.6182" ry="18"/>
<text text-anchor="middle" x="647" y="-195.8" font-family="Times,serif" font-size="14.00" fill="#000000">NOTE&#45;prov&#45;primer&#45;20130430/images/specialization.png</text>
</a>
</g>
</g>
<!-- &#45;attrs9 -->
<g id="node20" class="node">
<title>&#45;attrs9</title>
<polygon fill="none" stroke="#c0c0c0" points="682,-146 606,-146 606,-110 688,-110 688,-140 682,-146"/>
<polyline fill="none" stroke="#c0c0c0" points="682,-146 682,-140 "/>
<polyline fill="none" stroke="#c0c0c0" points="688,-140 682,-140 "/>
<text text-anchor="start" x="615.5024" y="-125" font-family="Times,serif" font-size="10.00" fill="#000000">type:</text>
<text text-anchor="start" x="636.9482" y="-125" font-family="Times,serif" font-size="10.00" fill="#000000">pic:Figure</text>
</g>
<!-- &#45;attrs9&#45;&gt;http://www.w3.org/TR/2013/NOTE&#45;prov&#45;primer&#45;20130430/images/specialization.png -->
<g id="edge10" class="edge">
<title>&#45;attrs9&#45;&gt;http://www.w3.org/TR/2013/NOTE&#45;prov&#45;primer&#45;20130430/images/specialization.png</title>
<path fill="none" stroke="#c0c0c0" stroke-dasharray="5,2" d="M647,-146.1686C647,-157 647,-170.7124 647,-181.5867"/>
</g>
<!-- http://www.w3.org/TR/2013/NOTE&#45;prov&#45;primer&#45;20130430/images/everything.png -->
<g id="node21" class="node">
<title>http://www.w3.org/TR/2013/NOTE&#45;prov&#45;primer&#45;20130430/images/everything.png</title>
<g id="a_node21"><a xlink:href="http://www.w3.org/TR/2013/NOTE-prov-primer-20130430/images/everything.png" xlink:title="NOTE&#45;prov&#45;primer&#45;20130430/images/everything.png">
<ellipse fill="#fffc87" stroke="#808080" cx="217" cy="-200" rx="200.5193" ry="18"/>
<text text-anchor="middle" x="217" y="-195.8" font-family="Times,serif" font-size="14.00" fill="#000000">NOTE&#45;prov&#45;primer&#45;20130430/images/everything.png</text>
</a>
</g>
</g>
<!-- &#45;attrs10 -->
<g id="node22" class="node">
<title>&#45;attrs10</title>
<polygon fill="none" stroke="#c0c0c0" points="252,-146 176,-146 176,-110 258,-110 258,-140 252,-146"/>
<polyline fill="none" stroke="#c0c0c0" points="252,-146 252,-140 "/>
<polyline fill="none" stroke="#c0c0c0" points="258,-140 252,-140 "/>
<text text-anchor="start" x="185.5024" y="-125" font-family="Times,serif" font-size="10.00" fill="#000000">type:</text>
<text text-anchor="start" x="206.9482" y="-125" font-family="Times,serif" font-size="10.00" fill="#000000">pic:Figure</text>
</g>
<!-- &#45;attrs10&#45;&gt;http://www.w3.org/TR/2013/NOTE&#45;prov&#45;primer&#45;20130430/images/everything.png -->
<g id="edge11" class="edge">
<title>&#45;attrs10&#45;&gt;http://www.w3.org/TR/2013/NOTE&#45;prov&#45;primer&#45;20130430/images/everything.png</title>
<path fill="none" stroke="#c0c0c0" stroke-dasharray="5,2" d="M217,-146.1686C217,-157 217,-170.7124 217,-181.5867"/>
</g>
<!-- http://www.w3.org/TR/2013/NOTE&#45;prov&#45;primer&#45;20130430 -->
<g id="node23" class="node">
<title>http://www.w3.org/TR/2013/NOTE&#45;prov&#45;primer&#45;20130430</title>
<g id="a_node23"><a xlink:href="http://www.w3.org/TR/2013/NOTE-prov-primer-20130430" xlink:title="NOTE&#45;prov&#45;primer&#45;20130430">
<ellipse fill="#fffc87" stroke="#808080" cx="2139" cy="-128" rx="117.5045" ry="18"/>
<text text-anchor="middle" x="2139" y="-123.8" font-family="Times,serif" font-size="14.00" fill="#000000">NOTE&#45;prov&#45;primer&#45;20130430</text>
</a>
</g>
</g>
<!-- http://www.w3.org/TR/2013/NOTE&#45;prov&#45;primer&#45;20130430&#45;&gt;http://www.w3.org/TR/2013/NOTE&#45;prov&#45;primer&#45;20130430/images/key&#45;concepts.png -->
<g id="edge13" class="edge">
<title>http://www.w3.org/TR/2013/NOTE&#45;prov&#45;primer&#45;20130430&#45;&gt;http://www.w3.org/TR/2013/NOTE&#45;prov&#45;primer&#45;20130430/images/key&#45;concepts.png</title>
<path fill="none" stroke="#000000" d="M2220.4785,-141.0288C2235.5773,-143.0216 2251.2391,-144.8086 2266,-146 3052.4936,-209.4789 3252.9806,-141.663 4041,-182 4062.0624,-183.0781 4084.2409,-184.5301 4106.0713,-186.144"/>
<polygon fill="#000000" stroke="#000000" points="4105.8372,-189.6362 4116.0716,-186.8962 4106.3623,-182.6559 4105.8372,-189.6362"/>
</g>
<!-- http://www.w3.org/TR/2013/NOTE&#45;prov&#45;primer&#45;20130430&#45;&gt;http://www.w3.org/TR/2013/NOTE&#45;prov&#45;primer&#45;20130430/images/entities.png -->
<g id="edge14" class="edge">
<title>http://www.w3.org/TR/2013/NOTE&#45;prov&#45;primer&#45;20130430&#45;&gt;http://www.w3.org/TR/2013/NOTE&#45;prov&#45;primer&#45;20130430/images/entities.png</title>
<path fill="none" stroke="#000000" d="M2220.825,-141.0037C2235.8179,-142.9856 2251.3536,-144.7752 2266,-146 2877.8508,-197.1645 3034.0672,-146.0472 3647,-182 3665.5393,-183.0875 3685.0361,-184.5186 3704.2588,-186.0998"/>
<polygon fill="#000000" stroke="#000000" points="3704.0222,-189.5921 3714.2796,-186.9393 3704.6067,-182.6166 3704.0222,-189.5921"/>
</g>
<!-- http://www.w3.org/TR/2013/NOTE&#45;prov&#45;primer&#45;20130430&#45;&gt;http://www.w3.org/TR/2013/NOTE&#45;prov&#45;primer&#45;20130430/images/activities.png -->
<g id="edge15" class="edge">
<title>http://www.w3.org/TR/2013/NOTE&#45;prov&#45;primer&#45;20130430&#45;&gt;http://www.w3.org/TR/2013/NOTE&#45;prov&#45;primer&#45;20130430/images/activities.png</title>
<path fill="none" stroke="#000000" d="M2221.1772,-140.9174C2236.0634,-142.895 2251.4714,-144.7054 2266,-146 2697.475,-184.4462 2807.6665,-154.8608 3240,-182 3258.6435,-183.1703 3278.2315,-184.6235 3297.5813,-186.1932"/>
<polygon fill="#000000" stroke="#000000" points="3297.4186,-189.6915 3307.672,-187.0237 3297.9929,-182.7151 3297.4186,-189.6915"/>
</g>
<!-- http://www.w3.org/TR/2013/NOTE&#45;prov&#45;primer&#45;20130430&#45;&gt;http://www.w3.org/TR/2013/NOTE&#45;prov&#45;primer&#45;20130430/images/use&#45;generate.png -->
<g id="edge16" class="edge">
<title>http://www.w3.org/TR/2013/NOTE&#45;prov&#45;primer&#45;20130430&#45;&gt;http://www.w3.org/TR/2013/NOTE&#45;prov&#45;primer&#45;20130430/images/use&#45;generate.png</title>
<path fill="none" stroke="#000000" d="M2222.5762,-140.7459C2237.0337,-142.6928 2251.9351,-144.5374 2266,-146 2505.6837,-170.9253 2566.6975,-163.9934 2807,-182 2825.7734,-183.4067 2845.4585,-184.9511 2864.9821,-186.5256"/>
<polygon fill="#000000" stroke="#000000" points="2864.9212,-190.032 2875.1712,-187.3511 2865.4865,-183.0549 2864.9212,-190.032"/>
</g>
<!-- http://www.w3.org/TR/2013/NOTE&#45;prov&#45;primer&#45;20130430&#45;&gt;http://www.w3.org/TR/2013/NOTE&#45;prov&#45;primer&#45;20130430/images/agents.png -->
<g id="edge17" class="edge">
<title>http://www.w3.org/TR/2013/NOTE&#45;prov&#45;primer&#45;20130430&#45;&gt;http://www.w3.org/TR/2013/NOTE&#45;prov&#45;primer&#45;20130430/images/agents.png</title>
<path fill="none" stroke="#000000" d="M2222.4741,-140.7064C2300.2832,-152.5505 2416.8202,-170.2897 2502.1533,-183.2792"/>
<polygon fill="#000000" stroke="#000000" points="2501.7254,-186.7543 2512.1382,-184.7991 2502.7789,-179.834 2501.7254,-186.7543"/>
</g>
<!-- http://www.w3.org/TR/2013/NOTE&#45;prov&#45;primer&#45;20130430&#45;&gt;http://www.w3.org/TR/2013/NOTE&#45;prov&#45;primer&#45;20130430/images/roles.png -->
<g id="edge18" class="edge">
<title>http://www.w3.org/TR/2013/NOTE&#45;prov&#45;primer&#45;20130430&#45;&gt;http://www.w3.org/TR/2013/NOTE&#45;prov&#45;primer&#45;20130430/images/roles.png</title>
<path fill="none" stroke="#000000" d="M2161,-145.7978C2172.0415,-154.7302 2185.5909,-165.6915 2197.609,-175.414"/>
<polygon fill="#000000" stroke="#000000" points="2195.6591,-178.3385 2205.6349,-181.9069 2200.0617,-172.8963 2195.6591,-178.3385"/>
</g>
<!-- http://www.w3.org/TR/2013/NOTE&#45;prov&#45;primer&#45;20130430&#45;&gt;http://www.w3.org/TR/2013/NOTE&#45;prov&#45;primer&#45;20130430/images/derivation.png -->
<g id="edge19" class="edge">
<title>http://www.w3.org/TR/2013/NOTE&#45;prov&#45;primer&#45;20130430&#45;&gt;http://www.w3.org/TR/2013/NOTE&#45;prov&#45;primer&#45;20130430/images/derivation.png</title>
<path fill="none" stroke="#000000" d="M2074.4331,-143.0936C2027.4673,-154.0726 1963.5185,-169.0216 1912.9502,-180.8428"/>
<polygon fill="#000000" stroke="#000000" points="1911.9647,-177.4787 1903.024,-183.1632 1913.5582,-184.295 1911.9647,-177.4787"/>
</g>
<!-- http://www.w3.org/TR/2013/NOTE&#45;prov&#45;primer&#45;20130430&#45;&gt;http://www.w3.org/TR/2013/NOTE&#45;prov&#45;primer&#45;20130430/images/plans.png -->
<g id="edge20" class="edge">
<title>http://www.w3.org/TR/2013/NOTE&#45;prov&#45;primer&#45;20130430&#45;&gt;http://www.w3.org/TR/2013/NOTE&#45;prov&#45;primer&#45;20130430/images/plans.png</title>
<path fill="none" stroke="#000000" d="M2040.8337,-138.0113C1918.3919,-150.4983 1708.3633,-171.9176 1570.0925,-186.0189"/>
<polygon fill="#000000" stroke="#000000" points="1569.4424,-182.5669 1559.8491,-187.0635 1570.1527,-189.5308 1569.4424,-182.5669"/>
</g>
<!-- http://www.w3.org/TR/2013/NOTE&#45;prov&#45;primer&#45;20130430&#45;&gt;http://www.w3.org/TR/2013/NOTE&#45;prov&#45;primer&#45;20130430/images/time.png -->
<g id="edge21" class="edge">
<title>http://www.w3.org/TR/2013/NOTE&#45;prov&#45;primer&#45;20130430&#45;&gt;http://www.w3.org/TR/2013/NOTE&#45;prov&#45;primer&#45;20130430/images/time.png</title>
<path fill="none" stroke="#000000" d="M2032.6387,-135.7418C1986.1002,-139.0461 1930.8529,-142.8568 1881,-146 1597.1134,-163.899 1525.6267,-160.3686 1242,-182 1225.4849,-183.2596 1208.1633,-184.7277 1191.0051,-186.2722"/>
<polygon fill="#000000" stroke="#000000" points="1190.5704,-182.7972 1180.9288,-187.1893 1191.205,-189.7684 1190.5704,-182.7972"/>
</g>
<!-- http://www.w3.org/TR/2013/NOTE&#45;prov&#45;primer&#45;20130430&#45;&gt;http://www.w3.org/TR/2013/NOTE&#45;prov&#45;primer&#45;20130430/images/specialization.png -->
<g id="edge22" class="edge">
<title>http://www.w3.org/TR/2013/NOTE&#45;prov&#45;primer&#45;20130430&#45;&gt;http://www.w3.org/TR/2013/NOTE&#45;prov&#45;primer&#45;20130430/images/specialization.png</title>
<path fill="none" stroke="#000000" d="M2033.9202,-136.1475C1987.1278,-139.565 1931.3312,-143.3516 1881,-146 1430.6724,-169.6961 1317.1775,-155.6064 867,-182 846.6064,-183.1957 825.1667,-184.6739 804.0007,-186.2651"/>
<polygon fill="#000000" stroke="#000000" points="803.6757,-182.7796 793.9704,-187.0289 804.2073,-189.7594 803.6757,-182.7796"/>
</g>
<!-- http://www.w3.org/TR/2013/NOTE&#45;prov&#45;primer&#45;20130430&#45;&gt;http://www.w3.org/TR/2013/NOTE&#45;prov&#45;primer&#45;20130430/images/everything.png -->
<g id="edge23" class="edge">
<title>http://www.w3.org/TR/2013/NOTE&#45;prov&#45;primer&#45;20130430&#45;&gt;http://www.w3.org/TR/2013/NOTE&#45;prov&#45;primer&#45;20130430/images/everything.png</title>
<path fill="none" stroke="#000000" d="M2034.5577,-136.3572C1987.6402,-139.8354 1931.569,-143.6116 1881,-146 1234.8557,-176.518 1071.8749,-146.2306 426,-182 406.3127,-183.0903 385.6047,-184.5245 365.1883,-186.1084"/>
<polygon fill="#000000" stroke="#000000" points="364.8885,-182.6211 355.1949,-186.8971 365.4393,-189.5994 364.8885,-182.6211"/>
</g>
<!-- &#45;attrs11 -->
<g id="node24" class="node">
<title>&#45;attrs11</title>
<polygon fill="none" stroke="#c0c0c0" points="2197,-74 2075,-74 2075,-38 2203,-38 2203,-68 2197,-74"/>
<polyline fill="none" stroke="#c0c0c0" points="2197,-74 2197,-68 "/>
<polyline fill="none" stroke="#c0c0c0" points="2203,-68 2197,-68 "/>
<text text-anchor="start" x="2085" y="-59" font-family="Times,serif" font-size="10.00" fill="#000000">type:</text>
<text text-anchor="start" x="2109" y="-59" font-family="Times,serif" font-size="10.00" fill="#000000">pic:Article</text>
<text text-anchor="start" x="2084.894" y="-47" font-family="Times,serif" font-size="10.00" fill="#000000">label:</text>
<text text-anchor="start" x="2108.5879" y="-47" font-family="Times,serif" font-size="10.00" fill="#000000">PROV Model Primer</text>
</g>
<!-- &#45;attrs11&#45;&gt;http://www.w3.org/TR/2013/NOTE&#45;prov&#45;primer&#45;20130430 -->
<g id="edge12" class="edge">
<title>&#45;attrs11&#45;&gt;http://www.w3.org/TR/2013/NOTE&#45;prov&#45;primer&#45;20130430</title>
<path fill="none" stroke="#c0c0c0" stroke-dasharray="5,2" d="M2139,-74.1686C2139,-85 2139,-98.7124 2139,-109.5867"/>
</g>
</g>
</svg>
