<?xml version="1.0" encoding="UTF-8" standalone="no"?>
<!DOCTYPE svg PUBLIC "-//W3C//DTD SVG 1.1//EN"
 "http://www.w3.org/Graphics/SVG/1.1/DTD/svg11.dtd">
<!-- Generated by graphviz version 2.40.1 (20161225.0304)
 -->
<!-- Title: G Pages: 1 -->
<svg width="254pt" height="440pt"
 viewBox="0.00 0.00 254.00 440.00" xmlns="http://www.w3.org/2000/svg" xmlns:xlink="http://www.w3.org/1999/xlink">
<g id="graph0" class="graph" transform="scale(1 1) rotate(0) translate(4 436)">
<title>G</title>
<polygon fill="#ffffff" stroke="transparent" points="-4,4 -4,-436 250,-436 250,4 -4,4"/>
<g id="clust1" class="cluster">
<title>cluster_c1</title>
<g id="a_clust1"><a xlink:href="http://openprovenance.org/vargen#bundleId" xlink:title="vargen:bundleId">
<polygon fill="none" stroke="#000000" points="8,-8 8,-424 238,-424 238,-8 8,-8"/>
<text text-anchor="middle" x="123" y="-14.8" font-family="Times,serif" font-size="14.00" fill="#000000">vargen:bundleId</text>
</a>
</g>
</g>
<!-- n1 -->
<g id="node1" class="node">
<title>n1</title>
<g id="a_node1"><a xlink:href="http://openprovenance.org/var#dataset" xlink:title="var:dataset">
<ellipse fill="#fffc87" stroke="#808080" cx="122" cy="-398" rx="48.3169" ry="18"/>
<text text-anchor="middle" x="122" y="-393.8" font-family="Times,serif" font-size="14.00" fill="#000000">var:dataset</text>
</a>
</g>
</g>
<!-- ann1 -->
<g id="node2" class="node">
<title>ann1</title>
<polygon fill="none" stroke="#c0c0c0" points="219.5,-305 100.5,-305 100.5,-269 225.5,-269 225.5,-299 219.5,-305"/>
<polyline fill="none" stroke="#c0c0c0" points="219.5,-305 219.5,-299 "/>
<polyline fill="none" stroke="#c0c0c0" points="225.5,-299 219.5,-299 "/>
<g id="a_node2_0"><a xlink:href="http://www.w3.org/ns/prov#type" xlink:title="&lt;TABLE&gt;">
<text text-anchor="start" x="111" y="-290" font-family="Times,serif" font-size="10.00" fill="#000000">prov:type</text>
</a>
</g>
<g id="a_node2_1"><a xlink:href="http://openprovenance.org/var#datasetType" xlink:title="&lt;TABLE&gt;">
<text text-anchor="start" x="152.9204" y="-290" font-family="Times,serif" font-size="10.00" fill="#000000">var:datasetType</text>
</a>
</g>
<g id="a_node2_2"><a xlink:href="http://openprovenance.org/tmpl#label" xlink:title="&lt;TABLE&gt;">
<text text-anchor="start" x="110.7266" y="-278" font-family="Times,serif" font-size="10.00" fill="#000000">tmpl:label</text>
</a>
</g>
<g id="a_node2_3"><a xlink:href="http://openprovenance.org/var#datasetTitle" xlink:title="&lt;TABLE&gt;">
<text text-anchor="start" x="153" y="-278" font-family="Times,serif" font-size="10.00" fill="#000000">var:datasetTitle</text>
</a>
</g>
</g>
<!-- ann1&#45;&gt;n1 -->
<g id="edge1" class="edge">
<title>ann1&#45;&gt;n1</title>
<path fill="none" stroke="#c0c0c0" stroke-dasharray="5,2" d="M156.2297,-305.3294C148.5876,-326.0191 136.2342,-359.4634 128.6443,-380.0117"/>
</g>
<!-- n2 -->
<g id="node3" class="node">
<title>n2</title>
<g id="a_node3"><a xlink:href="http://openprovenance.org/var#work" xlink:title="var:work">
<ellipse fill="#fffc87" stroke="#808080" cx="188" cy="-167" rx="42.0611" ry="18"/>
<text text-anchor="middle" x="188" y="-162.8" font-family="Times,serif" font-size="14.00" fill="#000000">var:work</text>
</a>
</g>
</g>
<!-- b1 -->
<g id="node5" class="node">
<title>b1</title>
<ellipse fill="#c0c0c0" stroke="#c0c0c0" cx="81" cy="-287" rx="1.8" ry="1.8"/>
</g>
<!-- n2&#45;&gt;b1 -->
<g id="edge3" class="edge">
<title>n2&#45;&gt;b1</title>
<path fill="none" stroke="#000000" d="M170.1916,-183.7064C149.9829,-203.1456 116.6362,-236.7152 92,-269 87.7343,-274.59 83.6797,-281.92 81.9189,-285.2356"/>
<text text-anchor="middle" x="166.7144" y="-224" font-family="Times,serif" font-size="10.00" fill="#000000">wasDerivedFrom</text>
</g>
<!-- ann2 -->
<g id="node4" class="node">
<title>ann2</title>
<polygon fill="none" stroke="#c0c0c0" points="223.5,-74 114.5,-74 114.5,-38 229.5,-38 229.5,-68 223.5,-74"/>
<polyline fill="none" stroke="#c0c0c0" points="223.5,-74 223.5,-68 "/>
<polyline fill="none" stroke="#c0c0c0" points="229.5,-68 223.5,-68 "/>
<g id="a_node4_4"><a xlink:href="http://www.w3.org/ns/prov#type" xlink:title="&lt;TABLE&gt;">
<text text-anchor="start" x="124.8374" y="-53" font-family="Times,serif" font-size="10.00" fill="#000000">prov:type</text>
</a>
</g>
<g id="a_node4_5"><a xlink:href="http://openprovenance.org/var#workType" xlink:title="&lt;TABLE&gt;">
<text text-anchor="start" x="164.5264" y="-53" font-family="Times,serif" font-size="10.00" fill="#000000">var:workType</text>
</a>
</g>
</g>
<!-- ann2&#45;&gt;n2 -->
<g id="edge2" class="edge">
<title>ann2&#45;&gt;n2</title>
<path fill="none" stroke="#c0c0c0" stroke-dasharray="5,2" d="M174.6421,-74.3294C177.6244,-95.0191 182.4452,-128.4634 185.4071,-149.0117"/>
</g>
<!-- b1&#45;&gt;n1 -->
<g id="edge4" class="edge">
<title>b1&#45;&gt;n1</title>
<path fill="none" stroke="#000000" d="M81.7116,-288.9266C85.2311,-298.4549 101.0361,-341.2442 111.7723,-370.3104"/>
<polygon fill="#000000" stroke="#000000" points="108.5818,-371.7743 115.33,-379.9421 115.1482,-369.3488 108.5818,-371.7743"/>
</g>
<!-- ann3 -->
<g id="node6" class="node">
<title>ann3</title>
<polygon fill="none" stroke="#c0c0c0" points="121.5,-185 16.5,-185 16.5,-149 127.5,-149 127.5,-179 121.5,-185"/>
<polyline fill="none" stroke="#c0c0c0" points="121.5,-185 121.5,-179 "/>
<polyline fill="none" stroke="#c0c0c0" points="127.5,-179 121.5,-179 "/>
<g id="a_node6_6"><a xlink:href="http://www.w3.org/ns/prov#type" xlink:title="&lt;TABLE&gt;">
<text text-anchor="start" x="26.8374" y="-164" font-family="Times,serif" font-size="10.00" fill="#000000">prov:type</text>
</a>
</g>
<g id="a_node6_7"><a xlink:href="http://www.ipaw.info/ns/picaso#BasedOn" xlink:title="&lt;TABLE&gt;">
<text text-anchor="start" x="66.6724" y="-164" font-family="Times,serif" font-size="10.00" fill="#000000">pic:BasedOn</text>
</a>
</g>
</g>
<!-- ann3&#45;&gt;b1 -->
<g id="edge5" class="edge">
<title>ann3&#45;&gt;b1</title>
<path fill="none" stroke="#c0c0c0" stroke-dasharray="5,2" d="M73.3669,-185.2254C75.6289,-215.3856 79.9877,-273.5031 80.8498,-284.9971"/>
</g>
</g>
</svg>
