<?xml version="1.0" encoding="UTF-8" standalone="no"?>
<!DOCTYPE svg PUBLIC "-//W3C//DTD SVG 1.1//EN"
 "http://www.w3.org/Graphics/SVG/1.1/DTD/svg11.dtd">
<!-- Generated by graphviz version 2.40.1 (20161225.0304)
 -->
<!-- Title: G Pages: 1 -->
<svg width="197pt" height="440pt"
 viewBox="0.00 0.00 197.43 440.00" xmlns="http://www.w3.org/2000/svg" xmlns:xlink="http://www.w3.org/1999/xlink">
<g id="graph0" class="graph" transform="scale(1 1) rotate(0) translate(4 436)">
<title>G</title>
<polygon fill="#ffffff" stroke="transparent" points="-4,4 -4,-436 193.4287,-436 193.4287,4 -4,4"/>
<g id="clust1" class="cluster">
<title>cluster_c1</title>
<g id="a_clust1"><a xlink:href="http://openprovenance.org/vargen#bundleId" xlink:title="vargen:bundleId">
<polygon fill="none" stroke="#000000" points="8,-8 8,-424 161,-424 161,-8 8,-8"/>
<text text-anchor="middle" x="84.5" y="-14.8" font-family="Times,serif" font-size="14.00" fill="#000000">vargen:bundleId</text>
</a>
</g>
</g>
<!-- n1 -->
<g id="node1" class="node">
<title>n1</title>
<g id="a_node1"><a xlink:href="http://openprovenance.org/var#derived" xlink:title="var:derived">
<ellipse fill="#fffc87" stroke="#808080" cx="84" cy="-167" rx="50.2465" ry="18"/>
<text text-anchor="middle" x="84" y="-162.8" font-family="Times,serif" font-size="14.00" fill="#000000">var:derived</text>
</a>
</g>
</g>
<!-- b1 -->
<g id="node5" class="node">
<title>b1</title>
<ellipse fill="#c0c0c0" stroke="#c0c0c0" cx="151" cy="-287" rx="1.8" ry="1.8"/>
</g>
<!-- n1&#45;&gt;b1 -->
<g id="edge3" class="edge">
<title>n1&#45;&gt;b1</title>
<path fill="none" stroke="#000000" d="M93.8988,-184.6822C105.2784,-205.0169 124.5108,-239.4065 141,-269 144.3408,-274.9958 148.2954,-282.1229 150.0639,-285.3117"/>
<text text-anchor="middle" x="154.7144" y="-224" font-family="Times,serif" font-size="10.00" fill="#000000">wasDerivedFrom</text>
</g>
<!-- ann1 -->
<g id="node2" class="node">
<title>ann1</title>
<polygon fill="none" stroke="#c0c0c0" points="141.5,-74 20.5,-74 20.5,-38 147.5,-38 147.5,-68 141.5,-74"/>
<polyline fill="none" stroke="#c0c0c0" points="141.5,-74 141.5,-68 "/>
<polyline fill="none" stroke="#c0c0c0" points="147.5,-68 141.5,-68 "/>
<g id="a_node2_0"><a xlink:href="http://www.w3.org/ns/prov#type" xlink:title="&lt;TABLE&gt;">
<text text-anchor="start" x="31" y="-59" font-family="Times,serif" font-size="10.00" fill="#000000">prov:type</text>
</a>
</g>
<g id="a_node2_1"><a xlink:href="http://openprovenance.org/var#derivedType" xlink:title="&lt;TABLE&gt;">
<text text-anchor="start" x="72.8096" y="-59" font-family="Times,serif" font-size="10.00" fill="#000000">var:derivedType</text>
</a>
</g>
<g id="a_node2_2"><a xlink:href="http://openprovenance.org/tmpl#label" xlink:title="&lt;TABLE&gt;">
<text text-anchor="start" x="30.7266" y="-47" font-family="Times,serif" font-size="10.00" fill="#000000">tmpl:label</text>
</a>
</g>
<g id="a_node2_3"><a xlink:href="http://openprovenance.org/var#derivedTitle" xlink:title="&lt;TABLE&gt;">
<text text-anchor="start" x="73" y="-47" font-family="Times,serif" font-size="10.00" fill="#000000">var:derivedTitle</text>
</a>
</g>
</g>
<!-- ann1&#45;&gt;n1 -->
<g id="edge1" class="edge">
<title>ann1&#45;&gt;n1</title>
<path fill="none" stroke="#c0c0c0" stroke-dasharray="5,2" d="M84,-74.3294C84,-94.8959 84,-128.0657 84,-148.6434"/>
</g>
<!-- n2 -->
<g id="node3" class="node">
<title>n2</title>
<g id="a_node3"><a xlink:href="http://openprovenance.org/var#work" xlink:title="var:work">
<ellipse fill="#fffc87" stroke="#808080" cx="99" cy="-398" rx="42.0611" ry="18"/>
<text text-anchor="middle" x="99" y="-393.8" font-family="Times,serif" font-size="14.00" fill="#000000">var:work</text>
</a>
</g>
</g>
<!-- ann2 -->
<g id="node4" class="node">
<title>ann2</title>
<polygon fill="none" stroke="#c0c0c0" points="125.5,-305 16.5,-305 16.5,-269 131.5,-269 131.5,-299 125.5,-305"/>
<polyline fill="none" stroke="#c0c0c0" points="125.5,-305 125.5,-299 "/>
<polyline fill="none" stroke="#c0c0c0" points="131.5,-299 125.5,-299 "/>
<g id="a_node4_4"><a xlink:href="http://www.w3.org/ns/prov#type" xlink:title="&lt;TABLE&gt;">
<text text-anchor="start" x="26.8374" y="-284" font-family="Times,serif" font-size="10.00" fill="#000000">prov:type</text>
</a>
</g>
<g id="a_node4_5"><a xlink:href="http://openprovenance.org/var#workType" xlink:title="&lt;TABLE&gt;">
<text text-anchor="start" x="66.5264" y="-284" font-family="Times,serif" font-size="10.00" fill="#000000">var:workType</text>
</a>
</g>
</g>
<!-- ann2&#45;&gt;n2 -->
<g id="edge2" class="edge">
<title>ann2&#45;&gt;n2</title>
<path fill="none" stroke="#c0c0c0" stroke-dasharray="5,2" d="M78.1282,-305.3294C82.7881,-326.0191 90.3206,-359.4634 94.9486,-380.0117"/>
</g>
<!-- b1&#45;&gt;n2 -->
<g id="edge4" class="edge">
<title>b1&#45;&gt;n2</title>
<path fill="none" stroke="#000000" d="M150.0974,-288.9266C145.6143,-298.4965 125.4129,-341.6185 111.7937,-370.6904"/>
<polygon fill="#000000" stroke="#000000" points="108.5324,-369.4017 107.4596,-379.9421 114.8713,-372.3713 108.5324,-369.4017"/>
</g>
</g>
</svg>
