<?xml version="1.0" encoding="UTF-8" standalone="no"?>
<!DOCTYPE svg PUBLIC "-//W3C//DTD SVG 1.1//EN"
 "http://www.w3.org/Graphics/SVG/1.1/DTD/svg11.dtd">
<!-- Generated by graphviz version 2.40.1 (20161225.0304)
 -->
<!-- Title: PROV Pages: 1 -->
<svg width="1152pt" height="91pt"
 viewBox="0.00 0.00 1152.00 90.96" xmlns="http://www.w3.org/2000/svg" xmlns:xlink="http://www.w3.org/1999/xlink">
<g id="graph0" class="graph" transform="scale(.3759 .3759) rotate(0) translate(4 238)">
<title>PROV</title>
<polygon fill="#ffffff" stroke="transparent" points="-4,4 -4,-238 3061,-238 3061,4 -4,4"/>
<g id="clust1" class="cluster">
<title>clusterurn:uuid:2c41308d&#45;dfe0&#45;41d8&#45;a3d9&#45;02f1fd0e9458</title>
<g id="a_clust1"><a xlink:href="urn:uuid:2c41308d-dfe0-41d8-a3d9-02f1fd0e9458" xlink:title="2c41308d&#45;dfe0&#45;41d8&#45;a3d9&#45;02f1fd0e9458">
<polygon fill="none" stroke="#000000" points="8,-8 8,-226 3049,-226 3049,-8 8,-8"/>
<text text-anchor="middle" x="1528.5" y="-14.8" font-family="Times,serif" font-size="14.00" fill="#000000">2c41308d&#45;dfe0&#45;41d8&#45;a3d9&#45;02f1fd0e9458</text>
</a>
</g>
</g>
<!-- http://www.ipaw.info/data/paper/MoreauOPM101 -->
<g id="node1" class="node">
<title>http://www.ipaw.info/data/paper/MoreauOPM101</title>
<g id="a_node1"><a xlink:href="http://www.ipaw.info/data/paper/MoreauOPM101" xlink:title="MoreauOPM101">
<ellipse fill="#fffc87" stroke="#808080" cx="1628" cy="-128" rx="70.0841" ry="18"/>
<text text-anchor="middle" x="1628" y="-123.8" font-family="Times,serif" font-size="14.00" fill="#000000">MoreauOPM101</text>
</a>
</g>
</g>
<!-- http://www.ipaw.info/data/people/MoreauLuc -->
<g id="node3" class="node">
<title>http://www.ipaw.info/data/people/MoreauLuc</title>
<g id="a_node3"><a xlink:href="http://www.ipaw.info/data/people/MoreauLuc" xlink:title="MoreauLuc">
<polygon fill="#fdb266" stroke="#000000" points="3041.463,-205.5623 2978,-218 2914.537,-205.5623 2914.5962,-185.4377 3041.4038,-185.4377 3041.463,-205.5623"/>
<text text-anchor="middle" x="2978" y="-195.8" font-family="Times,serif" font-size="14.00" fill="#000000">MoreauLuc</text>
</a>
</g>
</g>
<!-- http://www.ipaw.info/data/paper/MoreauOPM101&#45;&gt;http://www.ipaw.info/data/people/MoreauLuc -->
<g id="edge20" class="edge">
<title>http://www.ipaw.info/data/paper/MoreauOPM101&#45;&gt;http://www.ipaw.info/data/people/MoreauLuc</title>
<path fill="none" stroke="#000000" d="M1677.4645,-140.8138C1687.1951,-142.8961 1697.3721,-144.7704 1707,-146 2235.8341,-213.536 2377.9026,-108.9269 2906,-182 2909.0292,-182.4192 2912.1157,-182.9153 2915.2226,-183.4706"/>
<polygon fill="#000000" stroke="#000000" points="2914.6836,-186.9315 2925.1705,-185.4233 2916.032,-180.0626 2914.6836,-186.9315"/>
<text text-anchor="middle" x="1687.4828" y="-127.2498" font-family="Times,serif" font-size="8.00" fill="#000000">att</text>
</g>
<!-- http://www.ipaw.info/data/people/PlaleBeth -->
<g id="node5" class="node">
<title>http://www.ipaw.info/data/people/PlaleBeth</title>
<g id="a_node5"><a xlink:href="http://www.ipaw.info/data/people/PlaleBeth" xlink:title="PlaleBeth">
<polygon fill="#fdb266" stroke="#000000" points="2896.9899,-205.5623 2842,-218 2787.0101,-205.5623 2787.0615,-185.4377 2896.9385,-185.4377 2896.9899,-205.5623"/>
<text text-anchor="middle" x="2842" y="-195.8" font-family="Times,serif" font-size="14.00" fill="#000000">PlaleBeth</text>
</a>
</g>
</g>
<!-- http://www.ipaw.info/data/paper/MoreauOPM101&#45;&gt;http://www.ipaw.info/data/people/PlaleBeth -->
<g id="edge21" class="edge">
<title>http://www.ipaw.info/data/paper/MoreauOPM101&#45;&gt;http://www.ipaw.info/data/people/PlaleBeth</title>
<path fill="none" stroke="#000000" d="M1677.4681,-140.7861C1687.1984,-142.8708 1697.3743,-144.7532 1707,-146 2179.323,-207.1797 2307.3591,-108.9987 2778,-182 2780.3578,-182.3657 2782.7521,-182.7897 2785.1617,-183.2603"/>
<polygon fill="#000000" stroke="#000000" points="2784.5829,-186.7162 2795.099,-185.4263 2786.0738,-179.8768 2784.5829,-186.7162"/>
<text text-anchor="middle" x="1687.4897" y="-127.2252" font-family="Times,serif" font-size="8.00" fill="#000000">att</text>
</g>
<!-- http://www.ipaw.info/data/people/MilesSimon -->
<g id="node7" class="node">
<title>http://www.ipaw.info/data/people/MilesSimon</title>
<g id="a_node7"><a xlink:href="http://www.ipaw.info/data/people/MilesSimon" xlink:title="MilesSimon">
<polygon fill="#fdb266" stroke="#000000" points="2768.8842,-205.5623 2703,-218 2637.1158,-205.5623 2637.1773,-185.4377 2768.8227,-185.4377 2768.8842,-205.5623"/>
<text text-anchor="middle" x="2703" y="-195.8" font-family="Times,serif" font-size="14.00" fill="#000000">MilesSimon</text>
</a>
</g>
</g>
<!-- http://www.ipaw.info/data/paper/MoreauOPM101&#45;&gt;http://www.ipaw.info/data/people/MilesSimon -->
<g id="edge22" class="edge">
<title>http://www.ipaw.info/data/paper/MoreauOPM101&#45;&gt;http://www.ipaw.info/data/people/MilesSimon</title>
<path fill="none" stroke="#000000" d="M1677.4736,-140.744C1687.2034,-142.8324 1697.3778,-144.7269 1707,-146 2113.1067,-199.7319 2222.2096,-125.9295 2628,-182 2631.1835,-182.4399 2634.4293,-182.9555 2637.6976,-183.5288"/>
<polygon fill="#000000" stroke="#000000" points="2637.0524,-186.9687 2647.531,-185.4035 2638.3634,-180.0926 2637.0524,-186.9687"/>
<text text-anchor="middle" x="1687.5004" y="-127.1877" font-family="Times,serif" font-size="8.00" fill="#000000">att</text>
</g>
<!-- http://www.ipaw.info/data/people/GobleCarole -->
<g id="node9" class="node">
<title>http://www.ipaw.info/data/people/GobleCarole</title>
<g id="a_node9"><a xlink:href="http://www.ipaw.info/data/people/GobleCarole" xlink:title="GobleCarole">
<polygon fill="#fdb266" stroke="#000000" points="2619.1882,-205.5623 2551,-218 2482.8118,-205.5623 2482.8754,-185.4377 2619.1246,-185.4377 2619.1882,-205.5623"/>
<text text-anchor="middle" x="2551" y="-195.8" font-family="Times,serif" font-size="14.00" fill="#000000">GobleCarole</text>
</a>
</g>
</g>
<!-- http://www.ipaw.info/data/paper/MoreauOPM101&#45;&gt;http://www.ipaw.info/data/people/GobleCarole -->
<g id="edge23" class="edge">
<title>http://www.ipaw.info/data/paper/MoreauOPM101&#45;&gt;http://www.ipaw.info/data/people/GobleCarole</title>
<path fill="none" stroke="#000000" d="M1677.905,-140.7741C1687.5056,-142.8322 1697.5223,-144.7079 1707,-146 2044.6965,-192.0377 2135.3677,-135.4938 2473,-182 2476.2354,-182.4456 2479.534,-182.9612 2482.8571,-183.5299"/>
<polygon fill="#000000" stroke="#000000" points="2482.3909,-187.003 2492.8606,-185.3796 2483.6637,-180.1197 2482.3909,-187.003"/>
<text text-anchor="middle" x="1687.9305" y="-127.2167" font-family="Times,serif" font-size="8.00" fill="#000000">att</text>
</g>
<!-- http://www.ipaw.info/data/people/MissierPaolo -->
<g id="node11" class="node">
<title>http://www.ipaw.info/data/people/MissierPaolo</title>
<g id="a_node11"><a xlink:href="http://www.ipaw.info/data/people/MissierPaolo" xlink:title="MissierPaolo">
<polygon fill="#fdb266" stroke="#000000" points="2464.3712,-205.5623 2394,-218 2323.6288,-205.5623 2323.6945,-185.4377 2464.3055,-185.4377 2464.3712,-205.5623"/>
<text text-anchor="middle" x="2394" y="-195.8" font-family="Times,serif" font-size="14.00" fill="#000000">MissierPaolo</text>
</a>
</g>
</g>
<!-- http://www.ipaw.info/data/paper/MoreauOPM101&#45;&gt;http://www.ipaw.info/data/people/MissierPaolo -->
<g id="edge24" class="edge">
<title>http://www.ipaw.info/data/paper/MoreauOPM101&#45;&gt;http://www.ipaw.info/data/people/MissierPaolo</title>
<path fill="none" stroke="#000000" d="M1677.918,-140.6808C1687.5174,-142.7475 1697.5303,-144.6502 1707,-146 1974.9869,-184.1978 2047.0131,-143.8022 2315,-182 2318.203,-182.4565 2321.4681,-182.9763 2324.7584,-183.5444"/>
<polygon fill="#000000" stroke="#000000" points="2324.1975,-186.9999 2334.6675,-185.3779 2325.4713,-180.1168 2324.1975,-186.9999"/>
<text text-anchor="middle" x="1687.9555" y="-127.1341" font-family="Times,serif" font-size="8.00" fill="#000000">att</text>
</g>
<!-- http://www.ipaw.info/data/people/BargaRogerS -->
<g id="node13" class="node">
<title>http://www.ipaw.info/data/people/BargaRogerS</title>
<g id="a_node13"><a xlink:href="http://www.ipaw.info/data/people/BargaRogerS" xlink:title="BargaRogerS">
<polygon fill="#fdb266" stroke="#000000" points="2306.3888,-205.5623 2235,-218 2163.6112,-205.5623 2163.6778,-185.4377 2306.3222,-185.4377 2306.3888,-205.5623"/>
<text text-anchor="middle" x="2235" y="-195.8" font-family="Times,serif" font-size="14.00" fill="#000000">BargaRogerS</text>
</a>
</g>
</g>
<!-- http://www.ipaw.info/data/paper/MoreauOPM101&#45;&gt;http://www.ipaw.info/data/people/BargaRogerS -->
<g id="edge25" class="edge">
<title>http://www.ipaw.info/data/paper/MoreauOPM101&#45;&gt;http://www.ipaw.info/data/people/BargaRogerS</title>
<path fill="none" stroke="#000000" d="M1678.3657,-140.6101C1687.8334,-142.6573 1697.6842,-144.5711 1707,-146 1904.0061,-176.2167 1956.9137,-152.3108 2154,-182 2157.0359,-182.4573 2160.1278,-182.9633 2163.2452,-183.5066"/>
<polygon fill="#000000" stroke="#000000" points="2162.7815,-186.9801 2173.251,-185.3549 2164.0532,-180.0965 2162.7815,-186.9801"/>
<text text-anchor="middle" x="1688.417" y="-127.0758" font-family="Times,serif" font-size="8.00" fill="#000000">att</text>
</g>
<!-- http://www.ipaw.info/data/people/SimmhanYogeshL -->
<g id="node15" class="node">
<title>http://www.ipaw.info/data/people/SimmhanYogeshL</title>
<g id="a_node15"><a xlink:href="http://www.ipaw.info/data/people/SimmhanYogeshL" xlink:title="SimmhanYogeshL">
<polygon fill="#fdb266" stroke="#000000" points="2145.2641,-205.5623 2052,-218 1958.7359,-205.5623 1958.8229,-185.4377 2145.1771,-185.4377 2145.2641,-205.5623"/>
<text text-anchor="middle" x="2052" y="-195.8" font-family="Times,serif" font-size="14.00" fill="#000000">SimmhanYogeshL</text>
</a>
</g>
</g>
<!-- http://www.ipaw.info/data/paper/MoreauOPM101&#45;&gt;http://www.ipaw.info/data/people/SimmhanYogeshL -->
<g id="edge26" class="edge">
<title>http://www.ipaw.info/data/paper/MoreauOPM101&#45;&gt;http://www.ipaw.info/data/people/SimmhanYogeshL</title>
<path fill="none" stroke="#000000" d="M1679.3002,-140.291C1688.4975,-142.3225 1698.0135,-144.3131 1707,-146 1814.3047,-166.1422 1842.231,-164.5115 1950,-182 1953.4321,-182.557 1956.9276,-183.1325 1960.4574,-183.7205"/>
<polygon fill="#000000" stroke="#000000" points="1960.0294,-187.1976 1970.4717,-185.4062 1961.1914,-180.2948 1960.0294,-187.1976"/>
<text text-anchor="middle" x="1689.4124" y="-126.812" font-family="Times,serif" font-size="8.00" fill="#000000">att</text>
</g>
<!-- http://www.ipaw.info/data/people/FutrelleJoe -->
<g id="node17" class="node">
<title>http://www.ipaw.info/data/people/FutrelleJoe</title>
<g id="a_node17"><a xlink:href="http://www.ipaw.info/data/people/FutrelleJoe" xlink:title="FutrelleJoe">
<polygon fill="#fdb266" stroke="#000000" points="1941.1273,-205.5623 1880,-218 1818.8727,-205.5623 1818.9297,-185.4377 1941.0703,-185.4377 1941.1273,-205.5623"/>
<text text-anchor="middle" x="1880" y="-195.8" font-family="Times,serif" font-size="14.00" fill="#000000">FutrelleJoe</text>
</a>
</g>
</g>
<!-- http://www.ipaw.info/data/paper/MoreauOPM101&#45;&gt;http://www.ipaw.info/data/people/FutrelleJoe -->
<g id="edge27" class="edge">
<title>http://www.ipaw.info/data/paper/MoreauOPM101&#45;&gt;http://www.ipaw.info/data/people/FutrelleJoe</title>
<path fill="none" stroke="#000000" d="M1675.1037,-141.4582C1715.7629,-153.0751 1774.7627,-169.9322 1819.0203,-182.5772"/>
<polygon fill="#000000" stroke="#000000" points="1818.2179,-185.988 1828.7947,-185.3699 1820.141,-179.2573 1818.2179,-185.988"/>
<text text-anchor="middle" x="1685.8838" y="-128.628" font-family="Times,serif" font-size="8.00" fill="#000000">att</text>
</g>
<!-- http://www.ipaw.info/data/people/McGrathRobertE -->
<g id="node19" class="node">
<title>http://www.ipaw.info/data/people/McGrathRobertE</title>
<g id="a_node19"><a xlink:href="http://www.ipaw.info/data/people/McGrathRobertE" xlink:title="McGrathRobertE">
<polygon fill="#fdb266" stroke="#000000" points="1801.2617,-205.5623 1713,-218 1624.7383,-205.5623 1624.8207,-185.4377 1801.1793,-185.4377 1801.2617,-205.5623"/>
<text text-anchor="middle" x="1713" y="-195.8" font-family="Times,serif" font-size="14.00" fill="#000000">McGrathRobertE</text>
</a>
</g>
</g>
<!-- http://www.ipaw.info/data/paper/MoreauOPM101&#45;&gt;http://www.ipaw.info/data/people/McGrathRobertE -->
<g id="edge28" class="edge">
<title>http://www.ipaw.info/data/paper/MoreauOPM101&#45;&gt;http://www.ipaw.info/data/people/McGrathRobertE</title>
<path fill="none" stroke="#000000" d="M1648.5761,-145.4292C1660.4256,-155.4664 1675.4061,-168.1558 1687.9389,-178.7718"/>
<polygon fill="#000000" stroke="#000000" points="1685.8711,-181.6071 1695.7638,-185.3999 1690.3955,-176.2658 1685.8711,-181.6071"/>
<text text-anchor="middle" x="1662.6952" y="-137.9645" font-family="Times,serif" font-size="8.00" fill="#000000">att</text>
</g>
<!-- http://www.ipaw.info/data/people/MyersJim -->
<g id="node21" class="node">
<title>http://www.ipaw.info/data/people/MyersJim</title>
<g id="a_node21"><a xlink:href="http://www.ipaw.info/data/people/MyersJim" xlink:title="MyersJim">
<polygon fill="#fdb266" stroke="#000000" points="1606.4353,-205.5623 1550,-218 1493.5647,-205.5623 1493.6174,-185.4377 1606.3826,-185.4377 1606.4353,-205.5623"/>
<text text-anchor="middle" x="1550" y="-195.8" font-family="Times,serif" font-size="14.00" fill="#000000">MyersJim</text>
</a>
</g>
</g>
<!-- http://www.ipaw.info/data/paper/MoreauOPM101&#45;&gt;http://www.ipaw.info/data/people/MyersJim -->
<g id="edge29" class="edge">
<title>http://www.ipaw.info/data/paper/MoreauOPM101&#45;&gt;http://www.ipaw.info/data/people/MyersJim</title>
<path fill="none" stroke="#000000" d="M1609.1184,-145.4292C1598.3483,-155.3708 1584.7595,-167.9143 1573.3264,-178.4679"/>
<polygon fill="#000000" stroke="#000000" points="1570.7908,-176.0453 1565.8168,-185.3999 1575.5388,-181.1889 1570.7908,-176.0453"/>
<text text-anchor="middle" x="1612.4185" y="-157.6617" font-family="Times,serif" font-size="8.00" fill="#000000">att</text>
</g>
<!-- http://www.ipaw.info/data/people/PaulsonPatrick -->
<g id="node23" class="node">
<title>http://www.ipaw.info/data/people/PaulsonPatrick</title>
<g id="a_node23"><a xlink:href="http://www.ipaw.info/data/people/PaulsonPatrick" xlink:title="PaulsonPatrick">
<polygon fill="#fdb266" stroke="#000000" points="1476.1483,-205.5623 1398,-218 1319.8517,-205.5623 1319.9246,-185.4377 1476.0754,-185.4377 1476.1483,-205.5623"/>
<text text-anchor="middle" x="1398" y="-195.8" font-family="Times,serif" font-size="14.00" fill="#000000">PaulsonPatrick</text>
</a>
</g>
</g>
<!-- http://www.ipaw.info/data/paper/MoreauOPM101&#45;&gt;http://www.ipaw.info/data/people/PaulsonPatrick -->
<g id="edge30" class="edge">
<title>http://www.ipaw.info/data/paper/MoreauOPM101&#45;&gt;http://www.ipaw.info/data/people/PaulsonPatrick</title>
<path fill="none" stroke="#000000" d="M1583.381,-141.9677C1546.5722,-153.4904 1494.1326,-169.9063 1454.4143,-182.3399"/>
<polygon fill="#000000" stroke="#000000" points="1453.3628,-179.0015 1444.8651,-185.3292 1455.454,-185.6818 1453.3628,-179.0015"/>
<text text-anchor="middle" x="1580.1043" y="-154.2054" font-family="Times,serif" font-size="8.00" fill="#000000">att</text>
</g>
<!-- http://www.ipaw.info/data/people/BowersShawn -->
<g id="node25" class="node">
<title>http://www.ipaw.info/data/people/BowersShawn</title>
<g id="a_node25"><a xlink:href="http://www.ipaw.info/data/people/BowersShawn" xlink:title="BowersShawn">
<polygon fill="#fdb266" stroke="#000000" points="1301.7915,-205.5623 1226,-218 1150.2085,-205.5623 1150.2793,-185.4377 1301.7207,-185.4377 1301.7915,-205.5623"/>
<text text-anchor="middle" x="1226" y="-195.8" font-family="Times,serif" font-size="14.00" fill="#000000">BowersShawn</text>
</a>
</g>
</g>
<!-- http://www.ipaw.info/data/paper/MoreauOPM101&#45;&gt;http://www.ipaw.info/data/people/BowersShawn -->
<g id="edge31" class="edge">
<title>http://www.ipaw.info/data/paper/MoreauOPM101&#45;&gt;http://www.ipaw.info/data/people/BowersShawn</title>
<path fill="none" stroke="#000000" d="M1576.6955,-140.2682C1567.4986,-142.3021 1557.9839,-144.2995 1549,-146 1443.8855,-165.8967 1416.264,-162.9102 1311,-182 1308.4676,-182.4593 1305.8951,-182.9373 1303.2992,-183.4295"/>
<polygon fill="#000000" stroke="#000000" points="1302.3554,-180.0473 1293.2056,-185.3888 1303.6893,-186.919 1302.3554,-180.0473"/>
<text text-anchor="middle" x="1572.1614" y="-152.1665" font-family="Times,serif" font-size="8.00" fill="#000000">att</text>
</g>
<!-- http://www.ipaw.info/data/people/LudaescherBertram -->
<g id="node27" class="node">
<title>http://www.ipaw.info/data/people/LudaescherBertram</title>
<g id="a_node27"><a xlink:href="http://www.ipaw.info/data/people/LudaescherBertram" xlink:title="LudaescherBertram">
<polygon fill="#fdb266" stroke="#000000" points="1132.8645,-205.5623 1034,-218 935.1355,-205.5623 935.2278,-185.4377 1132.7722,-185.4377 1132.8645,-205.5623"/>
<text text-anchor="middle" x="1034" y="-195.8" font-family="Times,serif" font-size="14.00" fill="#000000">LudaescherBertram</text>
</a>
</g>
</g>
<!-- http://www.ipaw.info/data/paper/MoreauOPM101&#45;&gt;http://www.ipaw.info/data/people/LudaescherBertram -->
<g id="edge32" class="edge">
<title>http://www.ipaw.info/data/paper/MoreauOPM101&#45;&gt;http://www.ipaw.info/data/people/LudaescherBertram</title>
<path fill="none" stroke="#000000" d="M1577.6252,-140.5519C1568.1584,-142.6047 1558.3103,-144.5356 1549,-146 1369.1731,-174.2857 1321.564,-158.8827 1141,-182 1136.3405,-182.5966 1131.5734,-183.2477 1126.7639,-183.9371"/>
<polygon fill="#000000" stroke="#000000" points="1126.2345,-180.4772 1116.8532,-185.4008 1127.2573,-187.4021 1126.2345,-180.4772"/>
<text text-anchor="middle" x="1573.0184" y="-152.427" font-family="Times,serif" font-size="8.00" fill="#000000">att</text>
</g>
<!-- http://www.ipaw.info/data/people/KwasnikowskaNatalia -->
<g id="node29" class="node">
<title>http://www.ipaw.info/data/people/KwasnikowskaNatalia</title>
<g id="a_node29"><a xlink:href="http://www.ipaw.info/data/people/KwasnikowskaNatalia" xlink:title="KwasnikowskaNatalia">
<polygon fill="#fdb266" stroke="#000000" points="916.6925,-205.5623 806,-218 695.3075,-205.5623 695.4108,-185.4377 916.5892,-185.4377 916.6925,-205.5623"/>
<text text-anchor="middle" x="806" y="-195.8" font-family="Times,serif" font-size="14.00" fill="#000000">KwasnikowskaNatalia</text>
</a>
</g>
</g>
<!-- http://www.ipaw.info/data/paper/MoreauOPM101&#45;&gt;http://www.ipaw.info/data/people/KwasnikowskaNatalia -->
<g id="edge33" class="edge">
<title>http://www.ipaw.info/data/paper/MoreauOPM101&#45;&gt;http://www.ipaw.info/data/people/KwasnikowskaNatalia</title>
<path fill="none" stroke="#000000" d="M1578.0835,-140.6917C1568.484,-142.7574 1558.4707,-144.657 1549,-146 1274.3967,-184.9419 1201.8722,-153.3991 926,-182 919.8807,-182.6344 913.596,-183.3583 907.2632,-184.143"/>
<polygon fill="#000000" stroke="#000000" points="906.7626,-180.6785 897.289,-185.4221 907.653,-187.6216 906.7626,-180.6785"/>
<text text-anchor="middle" x="1573.4471" y="-152.5572" font-family="Times,serif" font-size="8.00" fill="#000000">att</text>
</g>
<!-- http://www.ipaw.info/data/people/denBusscheJanVan -->
<g id="node31" class="node">
<title>http://www.ipaw.info/data/people/denBusscheJanVan</title>
<g id="a_node31"><a xlink:href="http://www.ipaw.info/data/people/denBusscheJanVan" xlink:title="denBusscheJanVan">
<polygon fill="#fdb266" stroke="#000000" points="677.0609,-205.5623 581,-218 484.9391,-205.5623 485.0287,-185.4377 676.9713,-185.4377 677.0609,-205.5623"/>
<text text-anchor="middle" x="581" y="-195.8" font-family="Times,serif" font-size="14.00" fill="#000000">denBusscheJanVan</text>
</a>
</g>
</g>
<!-- http://www.ipaw.info/data/paper/MoreauOPM101&#45;&gt;http://www.ipaw.info/data/people/denBusscheJanVan -->
<g id="edge34" class="edge">
<title>http://www.ipaw.info/data/paper/MoreauOPM101&#45;&gt;http://www.ipaw.info/data/people/denBusscheJanVan</title>
<path fill="none" stroke="#000000" d="M1578.1004,-140.8146C1568.4994,-142.8689 1558.4811,-144.7329 1549,-146 1168.4939,-196.8525 1067.7452,-141.4853 686,-182 680.5974,-182.5734 675.0522,-183.2522 669.4682,-184.0046"/>
<polygon fill="#000000" stroke="#000000" points="668.8074,-180.5632 659.3975,-185.4318 669.7897,-187.494 668.8074,-180.5632"/>
<text text-anchor="middle" x="1573.4439" y="-152.6735" font-family="Times,serif" font-size="8.00" fill="#000000">att</text>
</g>
<!-- http://www.ipaw.info/data/people/EllkvistTommy -->
<g id="node33" class="node">
<title>http://www.ipaw.info/data/people/EllkvistTommy</title>
<g id="a_node33"><a xlink:href="http://www.ipaw.info/data/people/EllkvistTommy" xlink:title="EllkvistTommy">
<polygon fill="#fdb266" stroke="#000000" points="466.2067,-205.5623 386,-218 305.7933,-205.5623 305.8681,-185.4377 466.1319,-185.4377 466.2067,-205.5623"/>
<text text-anchor="middle" x="386" y="-195.8" font-family="Times,serif" font-size="14.00" fill="#000000">EllkvistTommy</text>
</a>
</g>
</g>
<!-- http://www.ipaw.info/data/paper/MoreauOPM101&#45;&gt;http://www.ipaw.info/data/people/EllkvistTommy -->
<g id="edge35" class="edge">
<title>http://www.ipaw.info/data/paper/MoreauOPM101&#45;&gt;http://www.ipaw.info/data/people/EllkvistTommy</title>
<path fill="none" stroke="#000000" d="M1578.532,-140.7866C1568.8017,-142.8713 1558.6257,-144.7535 1549,-146 1075.794,-207.279 949.9799,-127.0265 476,-182 471.6076,-182.5094 467.11,-183.1199 462.5815,-183.8036"/>
<polygon fill="#000000" stroke="#000000" points="461.9624,-180.3581 452.6475,-185.4063 463.0774,-187.2688 461.9624,-180.3581"/>
<text text-anchor="middle" x="1573.8772" y="-152.6461" font-family="Times,serif" font-size="8.00" fill="#000000">att</text>
</g>
<!-- http://www.ipaw.info/data/people/FreireJuliana -->
<g id="node35" class="node">
<title>http://www.ipaw.info/data/people/FreireJuliana</title>
<g id="a_node35"><a xlink:href="http://www.ipaw.info/data/people/FreireJuliana" xlink:title="FreireJuliana">
<polygon fill="#fdb266" stroke="#000000" points="287.6111,-205.5623 218,-218 148.3889,-205.5623 148.4539,-185.4377 287.5461,-185.4377 287.6111,-205.5623"/>
<text text-anchor="middle" x="218" y="-195.8" font-family="Times,serif" font-size="14.00" fill="#000000">FreireJuliana</text>
</a>
</g>
</g>
<!-- http://www.ipaw.info/data/paper/MoreauOPM101&#45;&gt;http://www.ipaw.info/data/people/FreireJuliana -->
<g id="edge36" class="edge">
<title>http://www.ipaw.info/data/paper/MoreauOPM101&#45;&gt;http://www.ipaw.info/data/people/FreireJuliana</title>
<path fill="none" stroke="#000000" d="M1578.5367,-140.8235C1568.806,-142.905 1558.6287,-144.7766 1549,-146 996.7656,-216.1681 849.2344,-111.8319 297,-182 293.3674,-182.4616 289.6568,-183.0154 285.9215,-183.6379"/>
<polygon fill="#000000" stroke="#000000" points="285.2304,-180.206 276.0131,-185.4301 286.4764,-187.0942 285.2304,-180.206"/>
<text text-anchor="middle" x="1573.8762" y="-152.6811" font-family="Times,serif" font-size="8.00" fill="#000000">att</text>
</g>
<!-- http://www.ipaw.info/data/people/GrothPaul -->
<g id="node37" class="node">
<title>http://www.ipaw.info/data/people/GrothPaul</title>
<g id="a_node37"><a xlink:href="http://www.ipaw.info/data/people/GrothPaul" xlink:title="GrothPaul">
<polygon fill="#fdb266" stroke="#000000" points="130.3577,-205.5623 73,-218 15.6423,-205.5623 15.6958,-185.4377 130.3042,-185.4377 130.3577,-205.5623"/>
<text text-anchor="middle" x="73" y="-195.8" font-family="Times,serif" font-size="14.00" fill="#000000">GrothPaul</text>
</a>
</g>
</g>
<!-- http://www.ipaw.info/data/paper/MoreauOPM101&#45;&gt;http://www.ipaw.info/data/people/GrothPaul -->
<g id="edge37" class="edge">
<title>http://www.ipaw.info/data/paper/MoreauOPM101&#45;&gt;http://www.ipaw.info/data/people/GrothPaul</title>
<path fill="none" stroke="#000000" d="M1578.5399,-140.8484C1568.8089,-142.9276 1558.6306,-144.7921 1549,-146 927.0026,-224.015 759.2117,-90.8704 139,-182 136.481,-182.3701 133.921,-182.8045 131.3446,-183.2897"/>
<polygon fill="#000000" stroke="#000000" points="130.4437,-179.9026 121.3778,-185.3853 131.8841,-186.7528 130.4437,-179.9026"/>
<text text-anchor="middle" x="1573.8755" y="-152.7047" font-family="Times,serif" font-size="8.00" fill="#000000">att</text>
</g>
<!-- &#45;attrs0 -->
<g id="node2" class="node">
<title>&#45;attrs0</title>
<polygon fill="none" stroke="#c0c0c0" points="1718.5,-74 1531.5,-74 1531.5,-38 1724.5,-38 1724.5,-68 1718.5,-74"/>
<polyline fill="none" stroke="#c0c0c0" points="1718.5,-74 1718.5,-68 "/>
<polyline fill="none" stroke="#c0c0c0" points="1724.5,-68 1718.5,-68 "/>
<text text-anchor="start" x="1542" y="-59" font-family="Times,serif" font-size="10.00" fill="#000000">type:</text>
<text text-anchor="start" x="1566" y="-59" font-family="Times,serif" font-size="10.00" fill="#000000">pic:Article</text>
<text text-anchor="start" x="1541.894" y="-47" font-family="Times,serif" font-size="10.00" fill="#000000">label:</text>
<text text-anchor="start" x="1565.9395" y="-47" font-family="Times,serif" font-size="10.00" fill="#000000">The Open Provenance Model (v1.01)</text>
</g>
<!-- &#45;attrs0&#45;&gt;http://www.ipaw.info/data/paper/MoreauOPM101 -->
<g id="edge1" class="edge">
<title>&#45;attrs0&#45;&gt;http://www.ipaw.info/data/paper/MoreauOPM101</title>
<path fill="none" stroke="#c0c0c0" stroke-dasharray="5,2" d="M1628,-74.1686C1628,-85 1628,-98.7124 1628,-109.5867"/>
</g>
<!-- &#45;attrs1 -->
<g id="node4" class="node">
<title>&#45;attrs1</title>
<polygon fill="none" stroke="#c0c0c0" points="3034.5,-146 2913.5,-146 2913.5,-110 3040.5,-110 3040.5,-140 3034.5,-146"/>
<polyline fill="none" stroke="#c0c0c0" points="3034.5,-146 3034.5,-140 "/>
<polyline fill="none" stroke="#c0c0c0" points="3040.5,-140 3034.5,-140 "/>
<text text-anchor="start" x="2924" y="-131" font-family="Times,serif" font-size="10.00" fill="#000000">type:</text>
<text text-anchor="start" x="2948" y="-131" font-family="Times,serif" font-size="10.00" fill="#000000">prov:Person</text>
<text text-anchor="start" x="2923.894" y="-119" font-family="Times,serif" font-size="10.00" fill="#000000">label:</text>
<text text-anchor="start" x="2947.8496" y="-119" font-family="Times,serif" font-size="10.00" fill="#000000">Luc Moreau (Editor)</text>
</g>
<!-- &#45;attrs1&#45;&gt;http://www.ipaw.info/data/people/MoreauLuc -->
<g id="edge2" class="edge">
<title>&#45;attrs1&#45;&gt;http://www.ipaw.info/data/people/MoreauLuc</title>
<path fill="none" stroke="#c0c0c0" stroke-dasharray="5,2" d="M2977.2523,-146.1686C2977.419,-158.1664 2977.6347,-173.6993 2977.7916,-184.9941"/>
</g>
<!-- &#45;attrs2 -->
<g id="node6" class="node">
<title>&#45;attrs2</title>
<polygon fill="none" stroke="#c0c0c0" points="2882,-146 2796,-146 2796,-110 2888,-110 2888,-140 2882,-146"/>
<polyline fill="none" stroke="#c0c0c0" points="2882,-146 2882,-140 "/>
<polyline fill="none" stroke="#c0c0c0" points="2888,-140 2882,-140 "/>
<text text-anchor="start" x="2806" y="-131" font-family="Times,serif" font-size="10.00" fill="#000000">type:</text>
<text text-anchor="start" x="2829.835" y="-131" font-family="Times,serif" font-size="10.00" fill="#000000">prov:Person</text>
<text text-anchor="start" x="2805.894" y="-119" font-family="Times,serif" font-size="10.00" fill="#000000">label:</text>
<text text-anchor="start" x="2830" y="-119" font-family="Times,serif" font-size="10.00" fill="#000000">Beth Plale</text>
</g>
<!-- &#45;attrs2&#45;&gt;http://www.ipaw.info/data/people/PlaleBeth -->
<g id="edge3" class="edge">
<title>&#45;attrs2&#45;&gt;http://www.ipaw.info/data/people/PlaleBeth</title>
<path fill="none" stroke="#c0c0c0" stroke-dasharray="5,2" d="M2842,-146.1686C2842,-158.1664 2842,-173.6993 2842,-184.9941"/>
</g>
<!-- &#45;attrs3 -->
<g id="node8" class="node">
<title>&#45;attrs3</title>
<polygon fill="none" stroke="#c0c0c0" points="2744.5,-146 2655.5,-146 2655.5,-110 2750.5,-110 2750.5,-140 2744.5,-146"/>
<polyline fill="none" stroke="#c0c0c0" points="2744.5,-146 2744.5,-140 "/>
<polyline fill="none" stroke="#c0c0c0" points="2750.5,-140 2744.5,-140 "/>
<text text-anchor="start" x="2666" y="-131" font-family="Times,serif" font-size="10.00" fill="#000000">type:</text>
<text text-anchor="start" x="2690" y="-131" font-family="Times,serif" font-size="10.00" fill="#000000">prov:Person</text>
<text text-anchor="start" x="2665.894" y="-119" font-family="Times,serif" font-size="10.00" fill="#000000">label:</text>
<text text-anchor="start" x="2689.8018" y="-119" font-family="Times,serif" font-size="10.00" fill="#000000">Simon Miles</text>
</g>
<!-- &#45;attrs3&#45;&gt;http://www.ipaw.info/data/people/MilesSimon -->
<g id="edge4" class="edge">
<title>&#45;attrs3&#45;&gt;http://www.ipaw.info/data/people/MilesSimon</title>
<path fill="none" stroke="#c0c0c0" stroke-dasharray="5,2" d="M2703,-146.1686C2703,-158.1664 2703,-173.6993 2703,-184.9941"/>
</g>
<!-- &#45;attrs4 -->
<g id="node10" class="node">
<title>&#45;attrs4</title>
<polygon fill="none" stroke="#c0c0c0" points="2593.5,-146 2502.5,-146 2502.5,-110 2599.5,-110 2599.5,-140 2593.5,-146"/>
<polyline fill="none" stroke="#c0c0c0" points="2593.5,-146 2593.5,-140 "/>
<polyline fill="none" stroke="#c0c0c0" points="2599.5,-140 2593.5,-140 "/>
<text text-anchor="start" x="2513" y="-131" font-family="Times,serif" font-size="10.00" fill="#000000">type:</text>
<text text-anchor="start" x="2537" y="-131" font-family="Times,serif" font-size="10.00" fill="#000000">prov:Person</text>
<text text-anchor="start" x="2512.894" y="-119" font-family="Times,serif" font-size="10.00" fill="#000000">label:</text>
<text text-anchor="start" x="2536.7031" y="-119" font-family="Times,serif" font-size="10.00" fill="#000000">Carole Goble</text>
</g>
<!-- &#45;attrs4&#45;&gt;http://www.ipaw.info/data/people/GobleCarole -->
<g id="edge5" class="edge">
<title>&#45;attrs4&#45;&gt;http://www.ipaw.info/data/people/GobleCarole</title>
<path fill="none" stroke="#c0c0c0" stroke-dasharray="5,2" d="M2551,-146.1686C2551,-158.1664 2551,-173.6993 2551,-184.9941"/>
</g>
<!-- &#45;attrs5 -->
<g id="node12" class="node">
<title>&#45;attrs5</title>
<polygon fill="none" stroke="#c0c0c0" points="2437.5,-146 2344.5,-146 2344.5,-110 2443.5,-110 2443.5,-140 2437.5,-146"/>
<polyline fill="none" stroke="#c0c0c0" points="2437.5,-146 2437.5,-140 "/>
<polyline fill="none" stroke="#c0c0c0" points="2443.5,-140 2437.5,-140 "/>
<text text-anchor="start" x="2355" y="-131" font-family="Times,serif" font-size="10.00" fill="#000000">type:</text>
<text text-anchor="start" x="2379" y="-131" font-family="Times,serif" font-size="10.00" fill="#000000">prov:Person</text>
<text text-anchor="start" x="2354.894" y="-119" font-family="Times,serif" font-size="10.00" fill="#000000">label:</text>
<text text-anchor="start" x="2378.8608" y="-119" font-family="Times,serif" font-size="10.00" fill="#000000">Paolo Missier</text>
</g>
<!-- &#45;attrs5&#45;&gt;http://www.ipaw.info/data/people/MissierPaolo -->
<g id="edge6" class="edge">
<title>&#45;attrs5&#45;&gt;http://www.ipaw.info/data/people/MissierPaolo</title>
<path fill="none" stroke="#c0c0c0" stroke-dasharray="5,2" d="M2394,-146.1686C2394,-158.1664 2394,-173.6993 2394,-184.9941"/>
</g>
<!-- &#45;attrs6 -->
<g id="node14" class="node">
<title>&#45;attrs6</title>
<polygon fill="none" stroke="#c0c0c0" points="2281.5,-146 2182.5,-146 2182.5,-110 2287.5,-110 2287.5,-140 2281.5,-146"/>
<polyline fill="none" stroke="#c0c0c0" points="2281.5,-146 2281.5,-140 "/>
<polyline fill="none" stroke="#c0c0c0" points="2287.5,-140 2281.5,-140 "/>
<text text-anchor="start" x="2193" y="-131" font-family="Times,serif" font-size="10.00" fill="#000000">type:</text>
<text text-anchor="start" x="2217" y="-131" font-family="Times,serif" font-size="10.00" fill="#000000">prov:Person</text>
<text text-anchor="start" x="2192.894" y="-119" font-family="Times,serif" font-size="10.00" fill="#000000">label:</text>
<text text-anchor="start" x="2216.8994" y="-119" font-family="Times,serif" font-size="10.00" fill="#000000">Roger S. Barga</text>
</g>
<!-- &#45;attrs6&#45;&gt;http://www.ipaw.info/data/people/BargaRogerS -->
<g id="edge7" class="edge">
<title>&#45;attrs6&#45;&gt;http://www.ipaw.info/data/people/BargaRogerS</title>
<path fill="none" stroke="#c0c0c0" stroke-dasharray="5,2" d="M2235,-146.1686C2235,-158.1664 2235,-173.6993 2235,-184.9941"/>
</g>
<!-- &#45;attrs7 -->
<g id="node16" class="node">
<title>&#45;attrs7</title>
<polygon fill="none" stroke="#c0c0c0" points="2108.5,-146 1989.5,-146 1989.5,-110 2114.5,-110 2114.5,-140 2108.5,-146"/>
<polyline fill="none" stroke="#c0c0c0" points="2108.5,-146 2108.5,-140 "/>
<polyline fill="none" stroke="#c0c0c0" points="2114.5,-140 2108.5,-140 "/>
<text text-anchor="start" x="2000" y="-131" font-family="Times,serif" font-size="10.00" fill="#000000">type:</text>
<text text-anchor="start" x="2024" y="-131" font-family="Times,serif" font-size="10.00" fill="#000000">prov:Person</text>
<text text-anchor="start" x="1999.894" y="-119" font-family="Times,serif" font-size="10.00" fill="#000000">label:</text>
<text text-anchor="start" x="2023.7505" y="-119" font-family="Times,serif" font-size="10.00" fill="#000000">Yogesh L. Simmhan</text>
</g>
<!-- &#45;attrs7&#45;&gt;http://www.ipaw.info/data/people/SimmhanYogeshL -->
<g id="edge8" class="edge">
<title>&#45;attrs7&#45;&gt;http://www.ipaw.info/data/people/SimmhanYogeshL</title>
<path fill="none" stroke="#c0c0c0" stroke-dasharray="5,2" d="M2052,-146.1686C2052,-158.1664 2052,-173.6993 2052,-184.9941"/>
</g>
<!-- &#45;attrs8 -->
<g id="node18" class="node">
<title>&#45;attrs8</title>
<polygon fill="none" stroke="#c0c0c0" points="1940,-146 1854,-146 1854,-110 1946,-110 1946,-140 1940,-146"/>
<polyline fill="none" stroke="#c0c0c0" points="1940,-146 1940,-140 "/>
<polyline fill="none" stroke="#c0c0c0" points="1946,-140 1940,-140 "/>
<text text-anchor="start" x="1864" y="-131" font-family="Times,serif" font-size="10.00" fill="#000000">type:</text>
<text text-anchor="start" x="1887.835" y="-131" font-family="Times,serif" font-size="10.00" fill="#000000">prov:Person</text>
<text text-anchor="start" x="1863.894" y="-119" font-family="Times,serif" font-size="10.00" fill="#000000">label:</text>
<text text-anchor="start" x="1888" y="-119" font-family="Times,serif" font-size="10.00" fill="#000000">Joe Futrelle</text>
</g>
<!-- &#45;attrs8&#45;&gt;http://www.ipaw.info/data/people/FutrelleJoe -->
<g id="edge9" class="edge">
<title>&#45;attrs8&#45;&gt;http://www.ipaw.info/data/people/FutrelleJoe</title>
<path fill="none" stroke="#c0c0c0" stroke-dasharray="5,2" d="M1894.9532,-146.1686C1891.6204,-158.1664 1887.3058,-173.6993 1884.1683,-184.9941"/>
</g>
<!-- &#45;attrs9 -->
<g id="node20" class="node">
<title>&#45;attrs9</title>
<polygon fill="none" stroke="#c0c0c0" points="1830,-146 1716,-146 1716,-110 1836,-110 1836,-140 1830,-146"/>
<polyline fill="none" stroke="#c0c0c0" points="1830,-146 1830,-140 "/>
<polyline fill="none" stroke="#c0c0c0" points="1836,-140 1830,-140 "/>
<text text-anchor="start" x="1726" y="-131" font-family="Times,serif" font-size="10.00" fill="#000000">type:</text>
<text text-anchor="start" x="1750" y="-131" font-family="Times,serif" font-size="10.00" fill="#000000">prov:Person</text>
<text text-anchor="start" x="1725.894" y="-119" font-family="Times,serif" font-size="10.00" fill="#000000">label:</text>
<text text-anchor="start" x="1749.5381" y="-119" font-family="Times,serif" font-size="10.00" fill="#000000">Robert E. McGrath</text>
</g>
<!-- &#45;attrs9&#45;&gt;http://www.ipaw.info/data/people/McGrathRobertE -->
<g id="edge10" class="edge">
<title>&#45;attrs9&#45;&gt;http://www.ipaw.info/data/people/McGrathRobertE</title>
<path fill="none" stroke="#c0c0c0" stroke-dasharray="5,2" d="M1760.1024,-146.1686C1749.6044,-158.1664 1736.0131,-173.6993 1726.1302,-184.9941"/>
</g>
<!-- &#45;attrs10 -->
<g id="node22" class="node">
<title>&#45;attrs10</title>
<polygon fill="none" stroke="#c0c0c0" points="1534,-146 1448,-146 1448,-110 1540,-110 1540,-140 1534,-146"/>
<polyline fill="none" stroke="#c0c0c0" points="1534,-146 1534,-140 "/>
<polyline fill="none" stroke="#c0c0c0" points="1540,-140 1534,-140 "/>
<text text-anchor="start" x="1458" y="-131" font-family="Times,serif" font-size="10.00" fill="#000000">type:</text>
<text text-anchor="start" x="1481.835" y="-131" font-family="Times,serif" font-size="10.00" fill="#000000">prov:Person</text>
<text text-anchor="start" x="1457.894" y="-119" font-family="Times,serif" font-size="10.00" fill="#000000">label:</text>
<text text-anchor="start" x="1482" y="-119" font-family="Times,serif" font-size="10.00" fill="#000000">Jim Myers</text>
</g>
<!-- &#45;attrs10&#45;&gt;http://www.ipaw.info/data/people/MyersJim -->
<g id="edge11" class="edge">
<title>&#45;attrs10&#45;&gt;http://www.ipaw.info/data/people/MyersJim</title>
<path fill="none" stroke="#c0c0c0" stroke-dasharray="5,2" d="M1508.1312,-146.1686C1517.4628,-158.1664 1529.5439,-173.6993 1538.3287,-184.9941"/>
</g>
<!-- &#45;attrs11 -->
<g id="node24" class="node">
<title>&#45;attrs11</title>
<polygon fill="none" stroke="#c0c0c0" points="1424,-146 1324,-146 1324,-110 1430,-110 1430,-140 1424,-146"/>
<polyline fill="none" stroke="#c0c0c0" points="1424,-146 1424,-140 "/>
<polyline fill="none" stroke="#c0c0c0" points="1430,-140 1424,-140 "/>
<text text-anchor="start" x="1334" y="-131" font-family="Times,serif" font-size="10.00" fill="#000000">type:</text>
<text text-anchor="start" x="1358" y="-131" font-family="Times,serif" font-size="10.00" fill="#000000">prov:Person</text>
<text text-anchor="start" x="1333.894" y="-119" font-family="Times,serif" font-size="10.00" fill="#000000">label:</text>
<text text-anchor="start" x="1357.7524" y="-119" font-family="Times,serif" font-size="10.00" fill="#000000">Patrick Paulson</text>
</g>
<!-- &#45;attrs11&#45;&gt;http://www.ipaw.info/data/people/PaulsonPatrick -->
<g id="edge12" class="edge">
<title>&#45;attrs11&#45;&gt;http://www.ipaw.info/data/people/PaulsonPatrick</title>
<path fill="none" stroke="#c0c0c0" stroke-dasharray="5,2" d="M1382.2992,-146.1686C1385.7985,-158.1664 1390.329,-173.6993 1393.6233,-184.9941"/>
</g>
<!-- &#45;attrs12 -->
<g id="node26" class="node">
<title>&#45;attrs12</title>
<polygon fill="none" stroke="#c0c0c0" points="1272,-146 1174,-146 1174,-110 1278,-110 1278,-140 1272,-146"/>
<polyline fill="none" stroke="#c0c0c0" points="1272,-146 1272,-140 "/>
<polyline fill="none" stroke="#c0c0c0" points="1278,-140 1272,-140 "/>
<text text-anchor="start" x="1184" y="-131" font-family="Times,serif" font-size="10.00" fill="#000000">type:</text>
<text text-anchor="start" x="1208" y="-131" font-family="Times,serif" font-size="10.00" fill="#000000">prov:Person</text>
<text text-anchor="start" x="1183.894" y="-119" font-family="Times,serif" font-size="10.00" fill="#000000">label:</text>
<text text-anchor="start" x="1207.8633" y="-119" font-family="Times,serif" font-size="10.00" fill="#000000">Shawn Bowers</text>
</g>
<!-- &#45;attrs12&#45;&gt;http://www.ipaw.info/data/people/BowersShawn -->
<g id="edge13" class="edge">
<title>&#45;attrs12&#45;&gt;http://www.ipaw.info/data/people/BowersShawn</title>
<path fill="none" stroke="#c0c0c0" stroke-dasharray="5,2" d="M1226,-146.1686C1226,-158.1664 1226,-173.6993 1226,-184.9941"/>
</g>
<!-- &#45;attrs13 -->
<g id="node28" class="node">
<title>&#45;attrs13</title>
<polygon fill="none" stroke="#c0c0c0" points="1090.5,-146 971.5,-146 971.5,-110 1096.5,-110 1096.5,-140 1090.5,-146"/>
<polyline fill="none" stroke="#c0c0c0" points="1090.5,-146 1090.5,-140 "/>
<polyline fill="none" stroke="#c0c0c0" points="1096.5,-140 1090.5,-140 "/>
<text text-anchor="start" x="982" y="-131" font-family="Times,serif" font-size="10.00" fill="#000000">type:</text>
<text text-anchor="start" x="1006" y="-131" font-family="Times,serif" font-size="10.00" fill="#000000">prov:Person</text>
<text text-anchor="start" x="981.894" y="-119" font-family="Times,serif" font-size="10.00" fill="#000000">label:</text>
<text text-anchor="start" x="1005.8262" y="-119" font-family="Times,serif" font-size="10.00" fill="#000000">Bertram Ludaescher</text>
</g>
<!-- &#45;attrs13&#45;&gt;http://www.ipaw.info/data/people/LudaescherBertram -->
<g id="edge14" class="edge">
<title>&#45;attrs13&#45;&gt;http://www.ipaw.info/data/people/LudaescherBertram</title>
<path fill="none" stroke="#c0c0c0" stroke-dasharray="5,2" d="M1034,-146.1686C1034,-158.1664 1034,-173.6993 1034,-184.9941"/>
</g>
<!-- &#45;attrs14 -->
<g id="node30" class="node">
<title>&#45;attrs14</title>
<polygon fill="none" stroke="#c0c0c0" points="868,-146 738,-146 738,-110 874,-110 874,-140 868,-146"/>
<polyline fill="none" stroke="#c0c0c0" points="868,-146 868,-140 "/>
<polyline fill="none" stroke="#c0c0c0" points="874,-140 868,-140 "/>
<text text-anchor="start" x="748" y="-131" font-family="Times,serif" font-size="10.00" fill="#000000">type:</text>
<text text-anchor="start" x="772" y="-131" font-family="Times,serif" font-size="10.00" fill="#000000">prov:Person</text>
<text text-anchor="start" x="747.894" y="-119" font-family="Times,serif" font-size="10.00" fill="#000000">label:</text>
<text text-anchor="start" x="771.7622" y="-119" font-family="Times,serif" font-size="10.00" fill="#000000">Natalia Kwasnikowska</text>
</g>
<!-- &#45;attrs14&#45;&gt;http://www.ipaw.info/data/people/KwasnikowskaNatalia -->
<g id="edge15" class="edge">
<title>&#45;attrs14&#45;&gt;http://www.ipaw.info/data/people/KwasnikowskaNatalia</title>
<path fill="none" stroke="#c0c0c0" stroke-dasharray="5,2" d="M806,-146.1686C806,-158.1664 806,-173.6993 806,-184.9941"/>
</g>
<!-- &#45;attrs15 -->
<g id="node32" class="node">
<title>&#45;attrs15</title>
<polygon fill="none" stroke="#c0c0c0" points="638.5,-146 517.5,-146 517.5,-110 644.5,-110 644.5,-140 638.5,-146"/>
<polyline fill="none" stroke="#c0c0c0" points="638.5,-146 638.5,-140 "/>
<polyline fill="none" stroke="#c0c0c0" points="644.5,-140 638.5,-140 "/>
<text text-anchor="start" x="528" y="-131" font-family="Times,serif" font-size="10.00" fill="#000000">type:</text>
<text text-anchor="start" x="552" y="-131" font-family="Times,serif" font-size="10.00" fill="#000000">prov:Person</text>
<text text-anchor="start" x="527.894" y="-119" font-family="Times,serif" font-size="10.00" fill="#000000">label:</text>
<text text-anchor="start" x="551.5127" y="-119" font-family="Times,serif" font-size="10.00" fill="#000000">Jan Van den Bussche</text>
</g>
<!-- &#45;attrs15&#45;&gt;http://www.ipaw.info/data/people/denBusscheJanVan -->
<g id="edge16" class="edge">
<title>&#45;attrs15&#45;&gt;http://www.ipaw.info/data/people/denBusscheJanVan</title>
<path fill="none" stroke="#c0c0c0" stroke-dasharray="5,2" d="M581,-146.1686C581,-158.1664 581,-173.6993 581,-184.9941"/>
</g>
<!-- &#45;attrs16 -->
<g id="node34" class="node">
<title>&#45;attrs16</title>
<polygon fill="none" stroke="#c0c0c0" points="434,-146 332,-146 332,-110 440,-110 440,-140 434,-146"/>
<polyline fill="none" stroke="#c0c0c0" points="434,-146 434,-140 "/>
<polyline fill="none" stroke="#c0c0c0" points="440,-140 434,-140 "/>
<text text-anchor="start" x="342" y="-131" font-family="Times,serif" font-size="10.00" fill="#000000">type:</text>
<text text-anchor="start" x="366" y="-131" font-family="Times,serif" font-size="10.00" fill="#000000">prov:Person</text>
<text text-anchor="start" x="341.894" y="-119" font-family="Times,serif" font-size="10.00" fill="#000000">label:</text>
<text text-anchor="start" x="365.71" y="-119" font-family="Times,serif" font-size="10.00" fill="#000000">Tommy Ellkvist</text>
</g>
<!-- &#45;attrs16&#45;&gt;http://www.ipaw.info/data/people/EllkvistTommy -->
<g id="edge17" class="edge">
<title>&#45;attrs16&#45;&gt;http://www.ipaw.info/data/people/EllkvistTommy</title>
<path fill="none" stroke="#c0c0c0" stroke-dasharray="5,2" d="M386,-146.1686C386,-158.1664 386,-173.6993 386,-184.9941"/>
</g>
<!-- &#45;attrs17 -->
<g id="node36" class="node">
<title>&#45;attrs17</title>
<polygon fill="none" stroke="#c0c0c0" points="261,-146 169,-146 169,-110 267,-110 267,-140 261,-146"/>
<polyline fill="none" stroke="#c0c0c0" points="261,-146 261,-140 "/>
<polyline fill="none" stroke="#c0c0c0" points="267,-140 261,-140 "/>
<text text-anchor="start" x="179" y="-131" font-family="Times,serif" font-size="10.00" fill="#000000">type:</text>
<text text-anchor="start" x="203" y="-131" font-family="Times,serif" font-size="10.00" fill="#000000">prov:Person</text>
<text text-anchor="start" x="178.894" y="-119" font-family="Times,serif" font-size="10.00" fill="#000000">label:</text>
<text text-anchor="start" x="202.6489" y="-119" font-family="Times,serif" font-size="10.00" fill="#000000">Juliana Freire</text>
</g>
<!-- &#45;attrs17&#45;&gt;http://www.ipaw.info/data/people/FreireJuliana -->
<g id="edge18" class="edge">
<title>&#45;attrs17&#45;&gt;http://www.ipaw.info/data/people/FreireJuliana</title>
<path fill="none" stroke="#c0c0c0" stroke-dasharray="5,2" d="M218,-146.1686C218,-158.1664 218,-173.6993 218,-184.9941"/>
</g>
<!-- &#45;attrs18 -->
<g id="node38" class="node">
<title>&#45;attrs18</title>
<polygon fill="none" stroke="#c0c0c0" points="113,-146 27,-146 27,-110 119,-110 119,-140 113,-146"/>
<polyline fill="none" stroke="#c0c0c0" points="113,-146 113,-140 "/>
<polyline fill="none" stroke="#c0c0c0" points="119,-140 113,-140 "/>
<text text-anchor="start" x="37" y="-131" font-family="Times,serif" font-size="10.00" fill="#000000">type:</text>
<text text-anchor="start" x="60.835" y="-131" font-family="Times,serif" font-size="10.00" fill="#000000">prov:Person</text>
<text text-anchor="start" x="36.894" y="-119" font-family="Times,serif" font-size="10.00" fill="#000000">label:</text>
<text text-anchor="start" x="61" y="-119" font-family="Times,serif" font-size="10.00" fill="#000000">Paul Groth</text>
</g>
<!-- &#45;attrs18&#45;&gt;http://www.ipaw.info/data/people/GrothPaul -->
<g id="edge19" class="edge">
<title>&#45;attrs18&#45;&gt;http://www.ipaw.info/data/people/GrothPaul</title>
<path fill="none" stroke="#c0c0c0" stroke-dasharray="5,2" d="M73,-146.1686C73,-158.1664 73,-173.6993 73,-184.9941"/>
</g>
</g>
</svg>
