<?xml version="1.0" encoding="UTF-8" standalone="no"?>
<!DOCTYPE svg PUBLIC "-//W3C//DTD SVG 1.1//EN"
 "http://www.w3.org/Graphics/SVG/1.1/DTD/svg11.dtd">
<!-- Generated by graphviz version 2.40.1 (20161225.0304)
 -->
<!-- Title: PROV Pages: 1 -->
<svg width="764pt" height="242pt"
 viewBox="0.00 0.00 764.00 242.00" xmlns="http://www.w3.org/2000/svg" xmlns:xlink="http://www.w3.org/1999/xlink">
<g id="graph0" class="graph" transform="scale(1 1) rotate(0) translate(4 238)">
<title>PROV</title>
<polygon fill="#ffffff" stroke="transparent" points="-4,4 -4,-238 760,-238 760,4 -4,4"/>
<g id="clust1" class="cluster">
<title>clusterurn:uuid:c0a852d5&#45;72d4&#45;4b9f&#45;938b&#45;90dc0bf9039a</title>
<g id="a_clust1"><a xlink:href="urn:uuid:c0a852d5-72d4-4b9f-938b-90dc0bf9039a" xlink:title="c0a852d5&#45;72d4&#45;4b9f&#45;938b&#45;90dc0bf9039a">
<polygon fill="none" stroke="#000000" points="8,-8 8,-226 748,-226 748,-8 8,-8"/>
<text text-anchor="middle" x="378" y="-14.8" font-family="Times,serif" font-size="14.00" fill="#000000">c0a852d5&#45;72d4&#45;4b9f&#45;938b&#45;90dc0bf9039a</text>
</a>
</g>
</g>
<!-- http://dx.doi.org/10.1145/1210525.1210535 -->
<g id="node1" class="node">
<title>http://dx.doi.org/10.1145/1210525.1210535</title>
<g id="a_node1"><a xlink:href="http://dx.doi.org/10.1145/1210525.1210535" xlink:title="10.1145/1210525.1210535">
<ellipse fill="#fffc87" stroke="#808080" cx="399" cy="-128" rx="105.1928" ry="18"/>
<text text-anchor="middle" x="399" y="-123.8" font-family="Times,serif" font-size="14.00" fill="#000000">10.1145/1210525.1210535</text>
</a>
</g>
</g>
<!-- http://www.ipaw.info/data/people/MunroeSteve -->
<g id="node3" class="node">
<title>http://www.ipaw.info/data/people/MunroeSteve</title>
<g id="a_node3"><a xlink:href="http://www.ipaw.info/data/people/MunroeSteve" xlink:title="MunroeSteve">
<polygon fill="#fdb266" stroke="#000000" points="736.2728,-205.5623 665,-218 593.7272,-205.5623 593.7938,-185.4377 736.2062,-185.4377 736.2728,-205.5623"/>
<text text-anchor="middle" x="665" y="-195.8" font-family="Times,serif" font-size="14.00" fill="#000000">MunroeSteve</text>
</a>
</g>
</g>
<!-- http://dx.doi.org/10.1145/1210525.1210535&#45;&gt;http://www.ipaw.info/data/people/MunroeSteve -->
<g id="edge6" class="edge">
<title>http://dx.doi.org/10.1145/1210525.1210535&#45;&gt;http://www.ipaw.info/data/people/MunroeSteve</title>
<path fill="none" stroke="#000000" d="M455.4118,-143.2693C498.0878,-154.8208 556.7228,-170.6919 601.1237,-182.7102"/>
<polygon fill="#000000" stroke="#000000" points="600.3734,-186.133 610.9406,-185.3674 602.2024,-179.3761 600.3734,-186.133"/>
<text text-anchor="middle" x="466.0453" y="-130.2898" font-family="Times,serif" font-size="8.00" fill="#000000">att</text>
</g>
<!-- http://www.ipaw.info/data/people/MilesSimon -->
<g id="node5" class="node">
<title>http://www.ipaw.info/data/people/MilesSimon</title>
<g id="a_node5"><a xlink:href="http://www.ipaw.info/data/people/MilesSimon" xlink:title="MilesSimon">
<polygon fill="#fdb266" stroke="#000000" points="572.8842,-205.5623 507,-218 441.1158,-205.5623 441.1773,-185.4377 572.8227,-185.4377 572.8842,-205.5623"/>
<text text-anchor="middle" x="507" y="-195.8" font-family="Times,serif" font-size="14.00" fill="#000000">MilesSimon</text>
</a>
</g>
</g>
<!-- http://dx.doi.org/10.1145/1210525.1210535&#45;&gt;http://www.ipaw.info/data/people/MilesSimon -->
<g id="edge7" class="edge">
<title>http://dx.doi.org/10.1145/1210525.1210535&#45;&gt;http://www.ipaw.info/data/people/MilesSimon</title>
<path fill="none" stroke="#000000" d="M425.4198,-145.6132C440.8053,-155.8702 460.2741,-168.8494 476.3337,-179.5558"/>
<polygon fill="#000000" stroke="#000000" points="474.5955,-182.6034 484.8574,-185.2383 478.4784,-176.7791 474.5955,-182.6034"/>
<text text-anchor="middle" x="438.8659" y="-136.5648" font-family="Times,serif" font-size="8.00" fill="#000000">att</text>
</g>
<!-- http://www.ipaw.info/data/people/MoreauLuc -->
<g id="node7" class="node">
<title>http://www.ipaw.info/data/people/MoreauLuc</title>
<g id="a_node7"><a xlink:href="http://www.ipaw.info/data/people/MoreauLuc" xlink:title="MoreauLuc">
<polygon fill="#fdb266" stroke="#000000" points="417.463,-205.5623 354,-218 290.537,-205.5623 290.5962,-185.4377 417.4038,-185.4377 417.463,-205.5623"/>
<text text-anchor="middle" x="354" y="-195.8" font-family="Times,serif" font-size="14.00" fill="#000000">MoreauLuc</text>
</a>
</g>
</g>
<!-- http://dx.doi.org/10.1145/1210525.1210535&#45;&gt;http://www.ipaw.info/data/people/MoreauLuc -->
<g id="edge8" class="edge">
<title>http://dx.doi.org/10.1145/1210525.1210535&#45;&gt;http://www.ipaw.info/data/people/MoreauLuc</title>
<path fill="none" stroke="#000000" d="M387.6446,-146.1686C381.9035,-155.3544 374.8672,-166.6124 368.7162,-176.4541"/>
<polygon fill="#000000" stroke="#000000" points="365.7107,-174.6591 363.3787,-184.9941 371.6467,-178.3691 365.7107,-174.6591"/>
<text text-anchor="middle" x="394.6854" y="-157.0135" font-family="Times,serif" font-size="8.00" fill="#000000">att</text>
</g>
<!-- http://www.ipaw.info/data/people/VazquezSalcedaJavier -->
<g id="node9" class="node">
<title>http://www.ipaw.info/data/people/VazquezSalcedaJavier</title>
<g id="a_node9"><a xlink:href="http://www.ipaw.info/data/people/VazquezSalcedaJavier" xlink:title="VazquezSalcedaJavier">
<polygon fill="#fdb266" stroke="#000000" points="260.7052,-205.5623 151,-218 41.2948,-205.5623 41.3972,-185.4377 260.6028,-185.4377 260.7052,-205.5623"/>
<text text-anchor="middle" x="151" y="-195.8" font-family="Times,serif" font-size="14.00" fill="#000000">VazquezSalcedaJavier</text>
</a>
</g>
</g>
<!-- http://dx.doi.org/10.1145/1210525.1210535&#45;&gt;http://www.ipaw.info/data/people/VazquezSalcedaJavier -->
<g id="edge9" class="edge">
<title>http://dx.doi.org/10.1145/1210525.1210535&#45;&gt;http://www.ipaw.info/data/people/VazquezSalcedaJavier</title>
<path fill="none" stroke="#000000" d="M345.493,-143.5343C305.9456,-155.0158 252.0732,-170.6562 211.0539,-182.565"/>
<polygon fill="#000000" stroke="#000000" points="210.078,-179.2037 201.4504,-185.3531 212.0297,-185.9262 210.078,-179.2037"/>
<text text-anchor="middle" x="341.9123" y="-155.7006" font-family="Times,serif" font-size="8.00" fill="#000000">att</text>
</g>
<!-- &#45;attrs0 -->
<g id="node2" class="node">
<title>&#45;attrs0</title>
<polygon fill="none" stroke="#c0c0c0" points="603.5,-74 188.5,-74 188.5,-38 609.5,-38 609.5,-68 603.5,-74"/>
<polyline fill="none" stroke="#c0c0c0" points="603.5,-74 603.5,-68 "/>
<polyline fill="none" stroke="#c0c0c0" points="609.5,-68 603.5,-68 "/>
<text text-anchor="start" x="199" y="-59" font-family="Times,serif" font-size="10.00" fill="#000000">type:</text>
<text text-anchor="start" x="223" y="-59" font-family="Times,serif" font-size="10.00" fill="#000000">pic:Article</text>
<text text-anchor="start" x="198.894" y="-47" font-family="Times,serif" font-size="10.00" fill="#000000">label:</text>
<text text-anchor="start" x="222.5522" y="-47" font-family="Times,serif" font-size="10.00" fill="#000000">PrIMe: A Software Engineering Methodology for Developing Provenance&#45;Aware Applications</text>
</g>
<!-- &#45;attrs0&#45;&gt;http://dx.doi.org/10.1145/1210525.1210535 -->
<g id="edge1" class="edge">
<title>&#45;attrs0&#45;&gt;http://dx.doi.org/10.1145/1210525.1210535</title>
<path fill="none" stroke="#c0c0c0" stroke-dasharray="5,2" d="M399,-74.1686C399,-85 399,-98.7124 399,-109.5867"/>
</g>
<!-- &#45;attrs1 -->
<g id="node4" class="node">
<title>&#45;attrs1</title>
<polygon fill="none" stroke="#c0c0c0" points="734,-146 638,-146 638,-110 740,-110 740,-140 734,-146"/>
<polyline fill="none" stroke="#c0c0c0" points="734,-146 734,-140 "/>
<polyline fill="none" stroke="#c0c0c0" points="740,-140 734,-140 "/>
<text text-anchor="start" x="648" y="-131" font-family="Times,serif" font-size="10.00" fill="#000000">type:</text>
<text text-anchor="start" x="672" y="-131" font-family="Times,serif" font-size="10.00" fill="#000000">prov:Person</text>
<text text-anchor="start" x="647.894" y="-119" font-family="Times,serif" font-size="10.00" fill="#000000">label:</text>
<text text-anchor="start" x="671.5615" y="-119" font-family="Times,serif" font-size="10.00" fill="#000000">Munroe, Steve</text>
</g>
<!-- &#45;attrs1&#45;&gt;http://www.ipaw.info/data/people/MunroeSteve -->
<g id="edge2" class="edge">
<title>&#45;attrs1&#45;&gt;http://www.ipaw.info/data/people/MunroeSteve</title>
<path fill="none" stroke="#c0c0c0" stroke-dasharray="5,2" d="M682.9438,-146.1686C678.9445,-158.1664 673.7669,-173.6993 670.002,-184.9941"/>
</g>
<!-- &#45;attrs2 -->
<g id="node6" class="node">
<title>&#45;attrs2</title>
<polygon fill="none" stroke="#c0c0c0" points="613.5,-146 522.5,-146 522.5,-110 619.5,-110 619.5,-140 613.5,-146"/>
<polyline fill="none" stroke="#c0c0c0" points="613.5,-146 613.5,-140 "/>
<polyline fill="none" stroke="#c0c0c0" points="619.5,-140 613.5,-140 "/>
<text text-anchor="start" x="533" y="-131" font-family="Times,serif" font-size="10.00" fill="#000000">type:</text>
<text text-anchor="start" x="557" y="-131" font-family="Times,serif" font-size="10.00" fill="#000000">prov:Person</text>
<text text-anchor="start" x="532.894" y="-119" font-family="Times,serif" font-size="10.00" fill="#000000">label:</text>
<text text-anchor="start" x="556.5518" y="-119" font-family="Times,serif" font-size="10.00" fill="#000000">Miles, Simon</text>
</g>
<!-- &#45;attrs2&#45;&gt;http://www.ipaw.info/data/people/MilesSimon -->
<g id="edge3" class="edge">
<title>&#45;attrs2&#45;&gt;http://www.ipaw.info/data/people/MilesSimon</title>
<path fill="none" stroke="#c0c0c0" stroke-dasharray="5,2" d="M554.8501,-146.1686C544.1854,-158.1664 530.3784,-173.6993 520.3386,-184.9941"/>
</g>
<!-- &#45;attrs3 -->
<g id="node8" class="node">
<title>&#45;attrs3</title>
<polygon fill="none" stroke="#c0c0c0" points="269.5,-146 180.5,-146 180.5,-110 275.5,-110 275.5,-140 269.5,-146"/>
<polyline fill="none" stroke="#c0c0c0" points="269.5,-146 269.5,-140 "/>
<polyline fill="none" stroke="#c0c0c0" points="275.5,-140 269.5,-140 "/>
<text text-anchor="start" x="191" y="-131" font-family="Times,serif" font-size="10.00" fill="#000000">type:</text>
<text text-anchor="start" x="215" y="-131" font-family="Times,serif" font-size="10.00" fill="#000000">prov:Person</text>
<text text-anchor="start" x="190.894" y="-119" font-family="Times,serif" font-size="10.00" fill="#000000">label:</text>
<text text-anchor="start" x="214.6772" y="-119" font-family="Times,serif" font-size="10.00" fill="#000000">Moreau, Luc</text>
</g>
<!-- &#45;attrs3&#45;&gt;http://www.ipaw.info/data/people/MoreauLuc -->
<g id="edge4" class="edge">
<title>&#45;attrs3&#45;&gt;http://www.ipaw.info/data/people/MoreauLuc</title>
<path fill="none" stroke="#c0c0c0" stroke-dasharray="5,2" d="M259.7951,-146.1686C280.9371,-158.2497 308.3516,-173.9152 328.1504,-185.2288"/>
</g>
<!-- &#45;attrs4 -->
<g id="node10" class="node">
<title>&#45;attrs4</title>
<polygon fill="none" stroke="#c0c0c0" points="156,-146 16,-146 16,-110 162,-110 162,-140 156,-146"/>
<polyline fill="none" stroke="#c0c0c0" points="156,-146 156,-140 "/>
<polyline fill="none" stroke="#c0c0c0" points="162,-140 156,-140 "/>
<text text-anchor="start" x="26" y="-131" font-family="Times,serif" font-size="10.00" fill="#000000">type:</text>
<text text-anchor="start" x="50" y="-131" font-family="Times,serif" font-size="10.00" fill="#000000">prov:Person</text>
<text text-anchor="start" x="25.894" y="-119" font-family="Times,serif" font-size="10.00" fill="#000000">label:</text>
<text text-anchor="start" x="49.5718" y="-119" font-family="Times,serif" font-size="10.00" fill="#000000">V\&#39;azquez&#45;Salceda, Javier</text>
</g>
<!-- &#45;attrs4&#45;&gt;http://www.ipaw.info/data/people/VazquezSalcedaJavier -->
<g id="edge5" class="edge">
<title>&#45;attrs4&#45;&gt;http://www.ipaw.info/data/people/VazquezSalcedaJavier</title>
<path fill="none" stroke="#c0c0c0" stroke-dasharray="5,2" d="M104.6452,-146.1686C114.9766,-158.1664 128.3522,-173.6993 138.0782,-184.9941"/>
</g>
</g>
</svg>
