<?xml version="1.0" encoding="UTF-8" standalone="no"?>
<!DOCTYPE svg PUBLIC "-//W3C//DTD SVG 1.1//EN"
 "http://www.w3.org/Graphics/SVG/1.1/DTD/svg11.dtd">
<!-- Generated by graphviz version 2.40.1 (20161225.0304)
 -->
<!-- Title: PROV Pages: 1 -->
<svg width="716pt" height="242pt"
 viewBox="0.00 0.00 716.00 242.00" xmlns="http://www.w3.org/2000/svg" xmlns:xlink="http://www.w3.org/1999/xlink">
<g id="graph0" class="graph" transform="scale(1 1) rotate(0) translate(4 238)">
<title>PROV</title>
<polygon fill="#ffffff" stroke="transparent" points="-4,4 -4,-238 712,-238 712,4 -4,4"/>
<g id="clust1" class="cluster">
<title>clusterurn:uuid:14dc9ed1&#45;f54b&#45;4d18&#45;ac26&#45;e8d8876618fd</title>
<g id="a_clust1"><a xlink:href="urn:uuid:14dc9ed1-f54b-4d18-ac26-e8d8876618fd" xlink:title="14dc9ed1&#45;f54b&#45;4d18&#45;ac26&#45;e8d8876618fd">
<polygon fill="none" stroke="#000000" points="8,-8 8,-226 700,-226 700,-8 8,-8"/>
<text text-anchor="middle" x="354" y="-14.8" font-family="Times,serif" font-size="14.00" fill="#000000">14dc9ed1&#45;f54b&#45;4d18&#45;ac26&#45;e8d8876618fd</text>
</a>
</g>
</g>
<!-- http://www.w3.org/TR/2013/REC&#45;prov&#45;n&#45;20130430 -->
<g id="node1" class="node">
<title>http://www.w3.org/TR/2013/REC&#45;prov&#45;n&#45;20130430</title>
<g id="a_node1"><a xlink:href="http://www.w3.org/TR/2013/REC-prov-n-20130430" xlink:title="REC&#45;prov&#45;n&#45;20130430">
<ellipse fill="#fffc87" stroke="#808080" cx="371" cy="-128" rx="92.293" ry="18"/>
<text text-anchor="middle" x="371" y="-123.8" font-family="Times,serif" font-size="14.00" fill="#000000">REC&#45;prov&#45;n&#45;20130430</text>
</a>
</g>
</g>
<!-- http://www.ipaw.info/data/people/MoreauLuc -->
<g id="node3" class="node">
<title>http://www.ipaw.info/data/people/MoreauLuc</title>
<g id="a_node3"><a xlink:href="http://www.ipaw.info/data/people/MoreauLuc" xlink:title="MoreauLuc">
<polygon fill="#fdb266" stroke="#000000" points="690.463,-205.5623 627,-218 563.537,-205.5623 563.5962,-185.4377 690.4038,-185.4377 690.463,-205.5623"/>
<text text-anchor="middle" x="627" y="-195.8" font-family="Times,serif" font-size="14.00" fill="#000000">MoreauLuc</text>
</a>
</g>
</g>
<!-- http://www.w3.org/TR/2013/REC&#45;prov&#45;n&#45;20130430&#45;&gt;http://www.ipaw.info/data/people/MoreauLuc -->
<g id="edge6" class="edge">
<title>http://www.w3.org/TR/2013/REC&#45;prov&#45;n&#45;20130430&#45;&gt;http://www.ipaw.info/data/people/MoreauLuc</title>
<path fill="none" stroke="#000000" d="M423.733,-142.8311C464.8776,-154.4031 522.1146,-170.501 565.3712,-182.6669"/>
<polygon fill="#000000" stroke="#000000" points="564.6367,-186.096 575.2108,-185.4343 566.532,-179.3575 564.6367,-186.096"/>
<text text-anchor="middle" x="434.4699" y="-129.9565" font-family="Times,serif" font-size="8.00" fill="#000000">att</text>
</g>
<!-- http://www.ipaw.info/data/people/MissierPaolo -->
<g id="node5" class="node">
<title>http://www.ipaw.info/data/people/MissierPaolo</title>
<g id="a_node5"><a xlink:href="http://www.ipaw.info/data/people/MissierPaolo" xlink:title="MissierPaolo">
<polygon fill="#fdb266" stroke="#000000" points="544.3712,-205.5623 474,-218 403.6288,-205.5623 403.6945,-185.4377 544.3055,-185.4377 544.3712,-205.5623"/>
<text text-anchor="middle" x="474" y="-195.8" font-family="Times,serif" font-size="14.00" fill="#000000">MissierPaolo</text>
</a>
</g>
</g>
<!-- http://www.w3.org/TR/2013/REC&#45;prov&#45;n&#45;20130430&#45;&gt;http://www.ipaw.info/data/people/MissierPaolo -->
<g id="edge7" class="edge">
<title>http://www.w3.org/TR/2013/REC&#45;prov&#45;n&#45;20130430&#45;&gt;http://www.ipaw.info/data/people/MissierPaolo</title>
<path fill="none" stroke="#000000" d="M395.9334,-145.4292C410.5657,-155.6576 429.138,-168.6402 444.4964,-179.3761"/>
<polygon fill="#000000" stroke="#000000" points="442.9124,-182.5392 453.1138,-185.3999 446.923,-176.802 442.9124,-182.5392"/>
<text text-anchor="middle" x="409.523" y="-136.6792" font-family="Times,serif" font-size="8.00" fill="#000000">att</text>
</g>
<!-- http://www.ipaw.info/data/people/CheneyJames -->
<g id="node7" class="node">
<title>http://www.ipaw.info/data/people/CheneyJames</title>
<g id="a_node7"><a xlink:href="http://www.ipaw.info/data/people/CheneyJames" xlink:title="CheneyJames">
<polygon fill="#fdb266" stroke="#000000" points="383.6959,-205.5623 311,-218 238.3041,-205.5623 238.3719,-185.4377 383.6281,-185.4377 383.6959,-205.5623"/>
<text text-anchor="middle" x="311" y="-195.8" font-family="Times,serif" font-size="14.00" fill="#000000">CheneyJames</text>
</a>
</g>
</g>
<!-- http://www.w3.org/TR/2013/REC&#45;prov&#45;n&#45;20130430&#45;&gt;http://www.ipaw.info/data/people/CheneyJames -->
<g id="edge8" class="edge">
<title>http://www.w3.org/TR/2013/REC&#45;prov&#45;n&#45;20130430&#45;&gt;http://www.ipaw.info/data/people/CheneyJames</title>
<path fill="none" stroke="#000000" d="M356.1685,-145.7978C348.1728,-155.3926 338.2263,-167.3284 329.704,-177.5552"/>
<polygon fill="#000000" stroke="#000000" points="326.9522,-175.3902 323.2391,-185.3131 332.3298,-179.8715 326.9522,-175.3902"/>
<text text-anchor="middle" x="361.3466" y="-157.4757" font-family="Times,serif" font-size="8.00" fill="#000000">att</text>
</g>
<!-- http://www.ipaw.info/data/people/SoilandReyesStian -->
<g id="node9" class="node">
<title>http://www.ipaw.info/data/people/SoilandReyesStian</title>
<g id="a_node9"><a xlink:href="http://www.ipaw.info/data/people/SoilandReyesStian" xlink:title="SoilandReyesStian">
<polygon fill="#fdb266" stroke="#000000" points="215.1586,-205.5623 120,-218 24.8414,-205.5623 24.9302,-185.4377 215.0698,-185.4377 215.1586,-205.5623"/>
<text text-anchor="middle" x="120" y="-195.8" font-family="Times,serif" font-size="14.00" fill="#000000">SoilandReyesStian</text>
</a>
</g>
</g>
<!-- http://www.w3.org/TR/2013/REC&#45;prov&#45;n&#45;20130430&#45;&gt;http://www.ipaw.info/data/people/SoilandReyesStian -->
<g id="edge9" class="edge">
<title>http://www.w3.org/TR/2013/REC&#45;prov&#45;n&#45;20130430&#45;&gt;http://www.ipaw.info/data/people/SoilandReyesStian</title>
<path fill="none" stroke="#000000" d="M318.9926,-142.9184C278.7614,-154.4589 222.9728,-170.462 180.7005,-182.5879"/>
<polygon fill="#000000" stroke="#000000" points="179.7292,-179.2253 171.0819,-185.347 181.6594,-185.9539 179.7292,-179.2253"/>
<text text-anchor="middle" x="315.3653" y="-155.0732" font-family="Times,serif" font-size="8.00" fill="#000000">att</text>
</g>
<!-- &#45;attrs0 -->
<g id="node2" class="node">
<title>&#45;attrs0</title>
<polygon fill="none" stroke="#c0c0c0" points="458.5,-74 277.5,-74 277.5,-38 464.5,-38 464.5,-68 458.5,-74"/>
<polyline fill="none" stroke="#c0c0c0" points="458.5,-74 458.5,-68 "/>
<polyline fill="none" stroke="#c0c0c0" points="464.5,-68 458.5,-68 "/>
<text text-anchor="start" x="288" y="-59" font-family="Times,serif" font-size="10.00" fill="#000000">type:</text>
<text text-anchor="start" x="312" y="-59" font-family="Times,serif" font-size="10.00" fill="#000000">pic:Article</text>
<text text-anchor="start" x="287.894" y="-47" font-family="Times,serif" font-size="10.00" fill="#000000">label:</text>
<text text-anchor="start" x="311.7007" y="-47" font-family="Times,serif" font-size="10.00" fill="#000000">PROV&#45;N: The Provenance Notation</text>
</g>
<!-- &#45;attrs0&#45;&gt;http://www.w3.org/TR/2013/REC&#45;prov&#45;n&#45;20130430 -->
<g id="edge1" class="edge">
<title>&#45;attrs0&#45;&gt;http://www.w3.org/TR/2013/REC&#45;prov&#45;n&#45;20130430</title>
<path fill="none" stroke="#c0c0c0" stroke-dasharray="5,2" d="M371,-74.1686C371,-85 371,-98.7124 371,-109.5867"/>
</g>
<!-- &#45;attrs1 -->
<g id="node4" class="node">
<title>&#45;attrs1</title>
<polygon fill="none" stroke="#c0c0c0" points="685.5,-146 598.5,-146 598.5,-110 691.5,-110 691.5,-140 685.5,-146"/>
<polyline fill="none" stroke="#c0c0c0" points="685.5,-146 685.5,-140 "/>
<polyline fill="none" stroke="#c0c0c0" points="691.5,-140 685.5,-140 "/>
<text text-anchor="start" x="609" y="-131" font-family="Times,serif" font-size="10.00" fill="#000000">type:</text>
<text text-anchor="start" x="633" y="-131" font-family="Times,serif" font-size="10.00" fill="#000000">prov:Person</text>
<text text-anchor="start" x="608.894" y="-119" font-family="Times,serif" font-size="10.00" fill="#000000">label:</text>
<text text-anchor="start" x="632.9272" y="-119" font-family="Times,serif" font-size="10.00" fill="#000000">Luc Moreau</text>
</g>
<!-- &#45;attrs1&#45;&gt;http://www.ipaw.info/data/people/MoreauLuc -->
<g id="edge2" class="edge">
<title>&#45;attrs1&#45;&gt;http://www.ipaw.info/data/people/MoreauLuc</title>
<path fill="none" stroke="#c0c0c0" stroke-dasharray="5,2" d="M640.4578,-146.1686C637.4584,-158.1664 633.5752,-173.6993 630.7515,-184.9941"/>
</g>
<!-- &#45;attrs2 -->
<g id="node6" class="node">
<title>&#45;attrs2</title>
<polygon fill="none" stroke="#c0c0c0" points="574.5,-146 481.5,-146 481.5,-110 580.5,-110 580.5,-140 574.5,-146"/>
<polyline fill="none" stroke="#c0c0c0" points="574.5,-146 574.5,-140 "/>
<polyline fill="none" stroke="#c0c0c0" points="580.5,-140 574.5,-140 "/>
<text text-anchor="start" x="492" y="-131" font-family="Times,serif" font-size="10.00" fill="#000000">type:</text>
<text text-anchor="start" x="516" y="-131" font-family="Times,serif" font-size="10.00" fill="#000000">prov:Person</text>
<text text-anchor="start" x="491.894" y="-119" font-family="Times,serif" font-size="10.00" fill="#000000">label:</text>
<text text-anchor="start" x="515.8608" y="-119" font-family="Times,serif" font-size="10.00" fill="#000000">Paolo Missier</text>
</g>
<!-- &#45;attrs2&#45;&gt;http://www.ipaw.info/data/people/MissierPaolo -->
<g id="edge3" class="edge">
<title>&#45;attrs2&#45;&gt;http://www.ipaw.info/data/people/MissierPaolo</title>
<path fill="none" stroke="#c0c0c0" stroke-dasharray="5,2" d="M516.6165,-146.1686C507.1182,-158.1664 494.8214,-173.6993 485.8797,-184.9941"/>
</g>
<!-- &#45;attrs3 -->
<g id="node8" class="node">
<title>&#45;attrs3</title>
<polygon fill="none" stroke="#c0c0c0" points="254.5,-146 159.5,-146 159.5,-110 260.5,-110 260.5,-140 254.5,-146"/>
<polyline fill="none" stroke="#c0c0c0" points="254.5,-146 254.5,-140 "/>
<polyline fill="none" stroke="#c0c0c0" points="260.5,-140 254.5,-140 "/>
<text text-anchor="start" x="170" y="-131" font-family="Times,serif" font-size="10.00" fill="#000000">type:</text>
<text text-anchor="start" x="194" y="-131" font-family="Times,serif" font-size="10.00" fill="#000000">prov:Person</text>
<text text-anchor="start" x="169.894" y="-119" font-family="Times,serif" font-size="10.00" fill="#000000">label:</text>
<text text-anchor="start" x="193.7573" y="-119" font-family="Times,serif" font-size="10.00" fill="#000000">James Cheney</text>
</g>
<!-- &#45;attrs3&#45;&gt;http://www.ipaw.info/data/people/CheneyJames -->
<g id="edge4" class="edge">
<title>&#45;attrs3&#45;&gt;http://www.ipaw.info/data/people/CheneyJames</title>
<path fill="none" stroke="#c0c0c0" stroke-dasharray="5,2" d="M235.4866,-146.1686C252.4337,-158.2497 274.4088,-173.9152 290.2793,-185.2288"/>
</g>
<!-- &#45;attrs4 -->
<g id="node10" class="node">
<title>&#45;attrs4</title>
<polygon fill="none" stroke="#c0c0c0" points="135.5,-146 16.5,-146 16.5,-110 141.5,-110 141.5,-140 135.5,-146"/>
<polyline fill="none" stroke="#c0c0c0" points="135.5,-146 135.5,-140 "/>
<polyline fill="none" stroke="#c0c0c0" points="141.5,-140 135.5,-140 "/>
<text text-anchor="start" x="27" y="-131" font-family="Times,serif" font-size="10.00" fill="#000000">type:</text>
<text text-anchor="start" x="51" y="-131" font-family="Times,serif" font-size="10.00" fill="#000000">prov:Person</text>
<text text-anchor="start" x="26.894" y="-119" font-family="Times,serif" font-size="10.00" fill="#000000">label:</text>
<text text-anchor="start" x="50.8091" y="-119" font-family="Times,serif" font-size="10.00" fill="#000000">Stian Soiland&#45;Reyes</text>
</g>
<!-- &#45;attrs4&#45;&gt;http://www.ipaw.info/data/people/SoilandReyesStian -->
<g id="edge5" class="edge">
<title>&#45;attrs4&#45;&gt;http://www.ipaw.info/data/people/SoilandReyesStian</title>
<path fill="none" stroke="#c0c0c0" stroke-dasharray="5,2" d="M89.346,-146.1686C96.1781,-158.1664 105.0232,-173.6993 111.455,-184.9941"/>
</g>
</g>
</svg>
