<?xml version="1.0" encoding="UTF-8" standalone="no"?>
<!DOCTYPE svg PUBLIC "-//W3C//DTD SVG 1.1//EN"
 "http://www.w3.org/Graphics/SVG/1.1/DTD/svg11.dtd">
<!-- Generated by graphviz version 2.40.1 (20161225.0304)
 -->
<!-- Title: PROV Pages: 1 -->
<svg width="990pt" height="242pt"
 viewBox="0.00 0.00 990.00 242.00" xmlns="http://www.w3.org/2000/svg" xmlns:xlink="http://www.w3.org/1999/xlink">
<g id="graph0" class="graph" transform="scale(1 1) rotate(0) translate(4 238)">
<title>PROV</title>
<polygon fill="#ffffff" stroke="transparent" points="-4,4 -4,-238 986,-238 986,4 -4,4"/>
<g id="clust1" class="cluster">
<title>clusterurn:uuid:d65ab625&#45;a18d&#45;45c9&#45;bb07&#45;b66b5c208e0a</title>
<g id="a_clust1"><a xlink:href="urn:uuid:d65ab625-a18d-45c9-bb07-b66b5c208e0a" xlink:title="d65ab625&#45;a18d&#45;45c9&#45;bb07&#45;b66b5c208e0a">
<polygon fill="none" stroke="#000000" points="8,-8 8,-226 974,-226 974,-8 8,-8"/>
<text text-anchor="middle" x="491" y="-14.8" font-family="Times,serif" font-size="14.00" fill="#000000">d65ab625&#45;a18d&#45;45c9&#45;bb07&#45;b66b5c208e0a</text>
</a>
</g>
</g>
<!-- http://www.orchid.ac.uk/eprints/id/eprint/198 -->
<g id="node1" class="node">
<title>http://www.orchid.ac.uk/eprints/id/eprint/198</title>
<g id="a_node1"><a xlink:href="http://www.orchid.ac.uk/eprints/id/eprint/198" xlink:title="198">
<ellipse fill="#fffc87" stroke="#808080" cx="553" cy="-128" rx="27" ry="18"/>
<text text-anchor="middle" x="553" y="-123.8" font-family="Times,serif" font-size="14.00" fill="#000000">198</text>
</a>
</g>
</g>
<!-- http://id.ecs.soton.ac.uk/person/2355 -->
<g id="node3" class="node">
<title>http://id.ecs.soton.ac.uk/person/2355</title>
<g id="a_node3"><a xlink:href="http://id.ecs.soton.ac.uk/person/2355" xlink:title="2355">
<polygon fill="#fdb266" stroke="#000000" points="946.2105,-205.5623 912,-218 877.7895,-205.5623 877.8214,-185.4377 946.1786,-185.4377 946.2105,-205.5623"/>
<text text-anchor="middle" x="912" y="-195.8" font-family="Times,serif" font-size="14.00" fill="#000000">2355</text>
</a>
</g>
</g>
<!-- http://www.orchid.ac.uk/eprints/id/eprint/198&#45;&gt;http://id.ecs.soton.ac.uk/person/2355 -->
<g id="edge9" class="edge">
<title>http://www.orchid.ac.uk/eprints/id/eprint/198&#45;&gt;http://id.ecs.soton.ac.uk/person/2355</title>
<path fill="none" stroke="#000000" d="M573.8308,-139.8869C578.6833,-142.2369 583.9199,-144.4521 589,-146 709.0211,-182.5699 747.818,-149.4831 869,-182 869.215,-182.0577 869.4302,-182.1162 869.6459,-182.1755"/>
<polygon fill="#000000" stroke="#000000" points="868.859,-185.5985 879.4499,-185.3111 870.9914,-178.9311 868.859,-185.5985"/>
<text text-anchor="middle" x="586.1965" y="-128.9964" font-family="Times,serif" font-size="8.00" fill="#000000">att</text>
</g>
<!-- http://id.ecs.soton.ac.uk/person/391 -->
<g id="node5" class="node">
<title>http://id.ecs.soton.ac.uk/person/391</title>
<g id="a_node5"><a xlink:href="http://id.ecs.soton.ac.uk/person/391" xlink:title="391">
<polygon fill="#fdb266" stroke="#000000" points="859.7792,-205.5623 831,-218 802.2208,-205.5623 802.2476,-185.4377 859.7524,-185.4377 859.7792,-205.5623"/>
<text text-anchor="middle" x="831" y="-195.8" font-family="Times,serif" font-size="14.00" fill="#000000">391</text>
</a>
</g>
</g>
<!-- http://www.orchid.ac.uk/eprints/id/eprint/198&#45;&gt;http://id.ecs.soton.ac.uk/person/391 -->
<g id="edge10" class="edge">
<title>http://www.orchid.ac.uk/eprints/id/eprint/198&#45;&gt;http://id.ecs.soton.ac.uk/person/391</title>
<path fill="none" stroke="#000000" d="M573.8866,-139.7113C578.7362,-142.0703 583.9575,-144.3337 589,-146 673.4302,-173.9006 703.2382,-155.4103 792.5656,-182.3808"/>
<polygon fill="#000000" stroke="#000000" points="791.6891,-185.7738 802.278,-185.419 793.779,-179.093 791.6891,-185.7738"/>
<text text-anchor="middle" x="586.2736" y="-128.8519" font-family="Times,serif" font-size="8.00" fill="#000000">att</text>
</g>
<!-- http://www.example.com/c5f5f6d110fea86b072a97932c5f261f -->
<g id="node7" class="node">
<title>http://www.example.com/c5f5f6d110fea86b072a97932c5f261f</title>
<g id="a_node7"><a xlink:href="http://www.example.com/c5f5f6d110fea86b072a97932c5f261f" xlink:title="c5f5f6d110fea86b072a97932c5f261f">
<polygon fill="#fdb266" stroke="#000000" points="783.5889,-205.5623 609,-218 434.4111,-205.5623 434.5741,-185.4377 783.4259,-185.4377 783.5889,-205.5623"/>
<text text-anchor="middle" x="609" y="-195.8" font-family="Times,serif" font-size="14.00" fill="#000000">c5f5f6d110fea86b072a97932c5f261f</text>
</a>
</g>
</g>
<!-- http://www.orchid.ac.uk/eprints/id/eprint/198&#45;&gt;http://www.example.com/c5f5f6d110fea86b072a97932c5f261f -->
<g id="edge11" class="edge">
<title>http://www.orchid.ac.uk/eprints/id/eprint/198&#45;&gt;http://www.example.com/c5f5f6d110fea86b072a97932c5f261f</title>
<path fill="none" stroke="#000000" d="M565.7073,-144.3379C573.2444,-154.0285 582.9141,-166.461 591.2022,-177.1172"/>
<polygon fill="#000000" stroke="#000000" points="588.5837,-179.4514 597.4859,-185.1961 594.1092,-175.1538 588.5837,-179.4514"/>
<text text-anchor="middle" x="580.5658" y="-139.8827" font-family="Times,serif" font-size="8.00" fill="#000000">att</text>
</g>
<!-- http://id.ecs.soton.ac.uk/person/7047 -->
<g id="node9" class="node">
<title>http://id.ecs.soton.ac.uk/person/7047</title>
<g id="a_node9"><a xlink:href="http://id.ecs.soton.ac.uk/person/7047" xlink:title="7047">
<polygon fill="#fdb266" stroke="#000000" points="416.2105,-205.5623 382,-218 347.7895,-205.5623 347.8214,-185.4377 416.1786,-185.4377 416.2105,-205.5623"/>
<text text-anchor="middle" x="382" y="-195.8" font-family="Times,serif" font-size="14.00" fill="#000000">7047</text>
</a>
</g>
</g>
<!-- http://www.orchid.ac.uk/eprints/id/eprint/198&#45;&gt;http://id.ecs.soton.ac.uk/person/7047 -->
<g id="edge12" class="edge">
<title>http://www.orchid.ac.uk/eprints/id/eprint/198&#45;&gt;http://id.ecs.soton.ac.uk/person/7047</title>
<path fill="none" stroke="#000000" d="M531.4497,-139.1724C526.7265,-141.5093 521.725,-143.8995 517,-146 479.5425,-162.652 467.3109,-165.2266 425.6044,-181.8193"/>
<polygon fill="#000000" stroke="#000000" points="424.2117,-178.6069 416.2377,-185.5829 426.8216,-185.1022 424.2117,-178.6069"/>
<text text-anchor="middle" x="530.4662" y="-151.7401" font-family="Times,serif" font-size="8.00" fill="#000000">att</text>
</g>
<!-- http://www.robots.ox.ac.uk/~sjrob -->
<g id="node11" class="node">
<title>http://www.robots.ox.ac.uk/~sjrob</title>
<g id="a_node11"><a xlink:href="http://www.robots.ox.ac.uk/~sjrob" xlink:title="sjrob">
<polygon fill="#fdb266" stroke="#000000" points="329.2105,-205.5623 295,-218 260.7895,-205.5623 260.8214,-185.4377 329.1786,-185.4377 329.2105,-205.5623"/>
<text text-anchor="middle" x="295" y="-195.8" font-family="Times,serif" font-size="14.00" fill="#000000">sjrob</text>
</a>
</g>
</g>
<!-- http://www.orchid.ac.uk/eprints/id/eprint/198&#45;&gt;http://www.robots.ox.ac.uk/~sjrob -->
<g id="edge13" class="edge">
<title>http://www.orchid.ac.uk/eprints/id/eprint/198&#45;&gt;http://www.robots.ox.ac.uk/~sjrob</title>
<path fill="none" stroke="#000000" d="M532.0821,-139.6184C527.2341,-141.9823 522.0213,-144.2711 517,-146 440.6842,-172.2767 416.2512,-158.6157 339,-182 338.7926,-182.0628 338.5849,-182.1261 338.3768,-182.1901"/>
<polygon fill="#000000" stroke="#000000" points="337.2331,-178.8821 328.8804,-185.3999 339.4746,-185.5135 337.2331,-178.8821"/>
<text text-anchor="middle" x="530.9696" y="-152.1771" font-family="Times,serif" font-size="8.00" fill="#000000">att</text>
</g>
<!-- http://www.nottingham.ac.uk/computerscience/People/tom.rodden -->
<g id="node13" class="node">
<title>http://www.nottingham.ac.uk/computerscience/People/tom.rodden</title>
<g id="a_node13"><a xlink:href="http://www.nottingham.ac.uk/computerscience/People/tom.rodden" xlink:title="tom.rodden">
<polygon fill="#fdb266" stroke="#000000" points="241.6697,-205.5623 179,-218 116.3303,-205.5623 116.3888,-185.4377 241.6112,-185.4377 241.6697,-205.5623"/>
<text text-anchor="middle" x="179" y="-195.8" font-family="Times,serif" font-size="14.00" fill="#000000">tom.rodden</text>
</a>
</g>
</g>
<!-- http://www.orchid.ac.uk/eprints/id/eprint/198&#45;&gt;http://www.nottingham.ac.uk/computerscience/People/tom.rodden -->
<g id="edge14" class="edge">
<title>http://www.orchid.ac.uk/eprints/id/eprint/198&#45;&gt;http://www.nottingham.ac.uk/computerscience/People/tom.rodden</title>
<path fill="none" stroke="#000000" d="M532.161,-139.86C527.3089,-142.2113 522.0745,-144.434 517,-146 403.4258,-181.0499 368.7567,-159.7405 252,-182 249.9464,-182.3915 247.8641,-182.8045 245.7646,-183.2347"/>
<polygon fill="#000000" stroke="#000000" points="244.9026,-179.8399 235.8583,-185.358 246.3697,-186.6844 244.9026,-179.8399"/>
<text text-anchor="middle" x="530.9966" y="-152.4147" font-family="Times,serif" font-size="8.00" fill="#000000">att</text>
</g>
<!-- http://id.ecs.soton.ac.uk/person/5113 -->
<g id="node15" class="node">
<title>http://id.ecs.soton.ac.uk/person/5113</title>
<g id="a_node15"><a xlink:href="http://id.ecs.soton.ac.uk/person/5113" xlink:title="5113">
<polygon fill="#fdb266" stroke="#000000" points="96.9094,-205.5623 63,-218 29.0906,-205.5623 29.1223,-185.4377 96.8777,-185.4377 96.9094,-205.5623"/>
<text text-anchor="middle" x="63" y="-195.8" font-family="Times,serif" font-size="14.00" fill="#000000">5113</text>
</a>
</g>
</g>
<!-- http://www.orchid.ac.uk/eprints/id/eprint/198&#45;&gt;http://id.ecs.soton.ac.uk/person/5113 -->
<g id="edge15" class="edge">
<title>http://www.orchid.ac.uk/eprints/id/eprint/198&#45;&gt;http://id.ecs.soton.ac.uk/person/5113</title>
<path fill="none" stroke="#000000" d="M532.5964,-139.8539C527.6355,-142.2663 522.2447,-144.5167 517,-146 340.9805,-195.7803 284.7691,-138.8831 107,-182 106.5388,-182.1119 106.0761,-182.2278 105.6123,-182.3475"/>
<polygon fill="#000000" stroke="#000000" points="104.3436,-179.0752 95.8003,-185.3412 106.3864,-185.7705 104.3436,-179.0752"/>
<text text-anchor="middle" x="531.4398" y="-152.4093" font-family="Times,serif" font-size="8.00" fill="#000000">att</text>
</g>
<!-- &#45;attrs0 -->
<g id="node2" class="node">
<title>&#45;attrs0</title>
<polygon fill="none" stroke="#c0c0c0" points="625,-74 475,-74 475,-38 631,-38 631,-68 625,-74"/>
<polyline fill="none" stroke="#c0c0c0" points="625,-74 625,-68 "/>
<polyline fill="none" stroke="#c0c0c0" points="631,-68 625,-68 "/>
<text text-anchor="start" x="485" y="-59" font-family="Times,serif" font-size="10.00" fill="#000000">type:</text>
<text text-anchor="start" x="509" y="-59" font-family="Times,serif" font-size="10.00" fill="#000000">pic:Article</text>
<text text-anchor="start" x="484.894" y="-47" font-family="Times,serif" font-size="10.00" fill="#000000">label:</text>
<text text-anchor="start" x="508.9087" y="-47" font-family="Times,serif" font-size="10.00" fill="#000000">On human&#45;agent collectives</text>
</g>
<!-- &#45;attrs0&#45;&gt;http://www.orchid.ac.uk/eprints/id/eprint/198 -->
<g id="edge1" class="edge">
<title>&#45;attrs0&#45;&gt;http://www.orchid.ac.uk/eprints/id/eprint/198</title>
<path fill="none" stroke="#c0c0c0" stroke-dasharray="5,2" d="M553,-74.1686C553,-85 553,-98.7124 553,-109.5867"/>
</g>
<!-- &#45;attrs1 -->
<g id="node4" class="node">
<title>&#45;attrs1</title>
<polygon fill="none" stroke="#c0c0c0" points="960,-146 840,-146 840,-110 966,-110 966,-140 960,-146"/>
<polyline fill="none" stroke="#c0c0c0" points="960,-146 960,-140 "/>
<polyline fill="none" stroke="#c0c0c0" points="966,-140 960,-140 "/>
<text text-anchor="start" x="850" y="-131" font-family="Times,serif" font-size="10.00" fill="#000000">type:</text>
<text text-anchor="start" x="874" y="-131" font-family="Times,serif" font-size="10.00" fill="#000000">prov:Person</text>
<text text-anchor="start" x="849.894" y="-119" font-family="Times,serif" font-size="10.00" fill="#000000">label:</text>
<text text-anchor="start" x="873.8916" y="-119" font-family="Times,serif" font-size="10.00" fill="#000000">Nicholas R Jennings</text>
</g>
<!-- &#45;attrs1&#45;&gt;http://id.ecs.soton.ac.uk/person/2355 -->
<g id="edge2" class="edge">
<title>&#45;attrs1&#45;&gt;http://id.ecs.soton.ac.uk/person/2355</title>
<path fill="none" stroke="#c0c0c0" stroke-dasharray="5,2" d="M905.2711,-146.1686C906.7708,-158.1664 908.7124,-173.6993 910.1243,-184.9941"/>
</g>
<!-- &#45;attrs2 -->
<g id="node6" class="node">
<title>&#45;attrs2</title>
<polygon fill="none" stroke="#c0c0c0" points="815.5,-146 728.5,-146 728.5,-110 821.5,-110 821.5,-140 815.5,-146"/>
<polyline fill="none" stroke="#c0c0c0" points="815.5,-146 815.5,-140 "/>
<polyline fill="none" stroke="#c0c0c0" points="821.5,-140 815.5,-140 "/>
<text text-anchor="start" x="739" y="-131" font-family="Times,serif" font-size="10.00" fill="#000000">type:</text>
<text text-anchor="start" x="763" y="-131" font-family="Times,serif" font-size="10.00" fill="#000000">prov:Person</text>
<text text-anchor="start" x="738.894" y="-119" font-family="Times,serif" font-size="10.00" fill="#000000">label:</text>
<text text-anchor="start" x="762.9272" y="-119" font-family="Times,serif" font-size="10.00" fill="#000000">Luc Moreau</text>
</g>
<!-- &#45;attrs2&#45;&gt;http://id.ecs.soton.ac.uk/person/391 -->
<g id="edge3" class="edge">
<title>&#45;attrs2&#45;&gt;http://id.ecs.soton.ac.uk/person/391</title>
<path fill="none" stroke="#c0c0c0" stroke-dasharray="5,2" d="M789.1312,-146.1686C798.4628,-158.1664 810.5439,-173.6993 819.3287,-184.9941"/>
</g>
<!-- &#45;attrs3 -->
<g id="node8" class="node">
<title>&#45;attrs3</title>
<polygon fill="none" stroke="#c0c0c0" points="704,-146 598,-146 598,-110 710,-110 710,-140 704,-146"/>
<polyline fill="none" stroke="#c0c0c0" points="704,-146 704,-140 "/>
<polyline fill="none" stroke="#c0c0c0" points="710,-140 704,-140 "/>
<text text-anchor="start" x="608" y="-131" font-family="Times,serif" font-size="10.00" fill="#000000">type:</text>
<text text-anchor="start" x="632" y="-131" font-family="Times,serif" font-size="10.00" fill="#000000">prov:Person</text>
<text text-anchor="start" x="607.894" y="-119" font-family="Times,serif" font-size="10.00" fill="#000000">label:</text>
<text text-anchor="start" x="631.9766" y="-119" font-family="Times,serif" font-size="10.00" fill="#000000">David Nicholson</text>
</g>
<!-- &#45;attrs3&#45;&gt;http://www.example.com/c5f5f6d110fea86b072a97932c5f261f -->
<g id="edge4" class="edge">
<title>&#45;attrs3&#45;&gt;http://www.example.com/c5f5f6d110fea86b072a97932c5f261f</title>
<path fill="none" stroke="#c0c0c0" stroke-dasharray="5,2" d="M642.6446,-146.1686C635.146,-158.1664 625.4379,-173.6993 618.3787,-184.9941"/>
</g>
<!-- &#45;attrs4 -->
<g id="node10" class="node">
<title>&#45;attrs4</title>
<polygon fill="none" stroke="#c0c0c0" points="501.5,-146 372.5,-146 372.5,-110 507.5,-110 507.5,-140 501.5,-146"/>
<polyline fill="none" stroke="#c0c0c0" points="501.5,-146 501.5,-140 "/>
<polyline fill="none" stroke="#c0c0c0" points="507.5,-140 501.5,-140 "/>
<text text-anchor="start" x="383" y="-131" font-family="Times,serif" font-size="10.00" fill="#000000">type:</text>
<text text-anchor="start" x="407" y="-131" font-family="Times,serif" font-size="10.00" fill="#000000">prov:Person</text>
<text text-anchor="start" x="382.894" y="-119" font-family="Times,serif" font-size="10.00" fill="#000000">label:</text>
<text text-anchor="start" x="406.6797" y="-119" font-family="Times,serif" font-size="10.00" fill="#000000">Sarvapali D Ramchurn</text>
</g>
<!-- &#45;attrs4&#45;&gt;http://id.ecs.soton.ac.uk/person/7047 -->
<g id="edge5" class="edge">
<title>&#45;attrs4&#45;&gt;http://id.ecs.soton.ac.uk/person/7047</title>
<path fill="none" stroke="#c0c0c0" stroke-dasharray="5,2" d="M425.3642,-146.1686C415.6993,-158.1664 403.1867,-173.6993 394.0881,-184.9941"/>
</g>
<!-- &#45;attrs5 -->
<g id="node12" class="node">
<title>&#45;attrs5</title>
<polygon fill="none" stroke="#c0c0c0" points="348,-146 238,-146 238,-110 354,-110 354,-140 348,-146"/>
<polyline fill="none" stroke="#c0c0c0" points="348,-146 348,-140 "/>
<polyline fill="none" stroke="#c0c0c0" points="354,-140 348,-140 "/>
<text text-anchor="start" x="248" y="-131" font-family="Times,serif" font-size="10.00" fill="#000000">type:</text>
<text text-anchor="start" x="272" y="-131" font-family="Times,serif" font-size="10.00" fill="#000000">prov:Person</text>
<text text-anchor="start" x="247.894" y="-119" font-family="Times,serif" font-size="10.00" fill="#000000">label:</text>
<text text-anchor="start" x="271.8916" y="-119" font-family="Times,serif" font-size="10.00" fill="#000000">Stephen J Roberts</text>
</g>
<!-- &#45;attrs5&#45;&gt;http://www.robots.ox.ac.uk/~sjrob -->
<g id="edge6" class="edge">
<title>&#45;attrs5&#45;&gt;http://www.robots.ox.ac.uk/~sjrob</title>
<path fill="none" stroke="#c0c0c0" stroke-dasharray="5,2" d="M295.7477,-146.1686C295.581,-158.1664 295.3653,-173.6993 295.2084,-184.9941"/>
</g>
<!-- &#45;attrs6 -->
<g id="node14" class="node">
<title>&#45;attrs6</title>
<polygon fill="none" stroke="#c0c0c0" points="214,-146 128,-146 128,-110 220,-110 220,-140 214,-146"/>
<polyline fill="none" stroke="#c0c0c0" points="214,-146 214,-140 "/>
<polyline fill="none" stroke="#c0c0c0" points="220,-140 214,-140 "/>
<text text-anchor="start" x="138" y="-131" font-family="Times,serif" font-size="10.00" fill="#000000">type:</text>
<text text-anchor="start" x="161.835" y="-131" font-family="Times,serif" font-size="10.00" fill="#000000">prov:Person</text>
<text text-anchor="start" x="137.894" y="-119" font-family="Times,serif" font-size="10.00" fill="#000000">label:</text>
<text text-anchor="start" x="162" y="-119" font-family="Times,serif" font-size="10.00" fill="#000000">T Rodden</text>
</g>
<!-- &#45;attrs6&#45;&gt;http://www.nottingham.ac.uk/computerscience/People/tom.rodden -->
<g id="edge7" class="edge">
<title>&#45;attrs6&#45;&gt;http://www.nottingham.ac.uk/computerscience/People/tom.rodden</title>
<path fill="none" stroke="#c0c0c0" stroke-dasharray="5,2" d="M175.2617,-146.1686C176.0949,-158.1664 177.1736,-173.6993 177.9579,-184.9941"/>
</g>
<!-- &#45;attrs7 -->
<g id="node16" class="node">
<title>&#45;attrs7</title>
<polygon fill="none" stroke="#c0c0c0" points="104,-146 16,-146 16,-110 110,-110 110,-140 104,-146"/>
<polyline fill="none" stroke="#c0c0c0" points="104,-146 104,-140 "/>
<polyline fill="none" stroke="#c0c0c0" points="110,-140 104,-140 "/>
<text text-anchor="start" x="26" y="-131" font-family="Times,serif" font-size="10.00" fill="#000000">type:</text>
<text text-anchor="start" x="50" y="-131" font-family="Times,serif" font-size="10.00" fill="#000000">prov:Person</text>
<text text-anchor="start" x="25.894" y="-119" font-family="Times,serif" font-size="10.00" fill="#000000">label:</text>
<text text-anchor="start" x="49.8657" y="-119" font-family="Times,serif" font-size="10.00" fill="#000000">Alex Rogers</text>
</g>
<!-- &#45;attrs7&#45;&gt;http://id.ecs.soton.ac.uk/person/5113 -->
<g id="edge8" class="edge">
<title>&#45;attrs7&#45;&gt;http://id.ecs.soton.ac.uk/person/5113</title>
<path fill="none" stroke="#c0c0c0" stroke-dasharray="5,2" d="M63,-146.1686C63,-158.1664 63,-173.6993 63,-184.9941"/>
</g>
</g>
</svg>
