<?xml version="1.0" encoding="UTF-8" standalone="no"?>
<!DOCTYPE svg PUBLIC "-//W3C//DTD SVG 1.1//EN"
 "http://www.w3.org/Graphics/SVG/1.1/DTD/svg11.dtd">
<!-- Generated by graphviz version 2.40.1 (20161225.0304)
 -->
<!-- Title: G Pages: 1 -->
<svg width="252pt" height="440pt"
 viewBox="0.00 0.00 252.00 440.00" xmlns="http://www.w3.org/2000/svg" xmlns:xlink="http://www.w3.org/1999/xlink">
<g id="graph0" class="graph" transform="scale(1 1) rotate(0) translate(4 436)">
<title>G</title>
<polygon fill="#ffffff" stroke="transparent" points="-4,4 -4,-436 248,-436 248,4 -4,4"/>
<g id="clust1" class="cluster">
<title>cluster_c1</title>
<g id="a_clust1"><a xlink:href="http://openprovenance.org/vargen#bundleId" xlink:title="vargen:bundleId">
<polygon fill="none" stroke="#000000" points="8,-8 8,-424 236,-424 236,-8 8,-8"/>
<text text-anchor="middle" x="122" y="-14.8" font-family="Times,serif" font-size="14.00" fill="#000000">vargen:bundleId</text>
</a>
</g>
</g>
<!-- n1 -->
<g id="node1" class="node">
<title>n1</title>
<g id="a_node1"><a xlink:href="http://openprovenance.org/var#cited_paper" xlink:title="var:cited_paper">
<ellipse fill="#fffc87" stroke="#808080" cx="120" cy="-398" rx="65.2044" ry="18"/>
<text text-anchor="middle" x="120" y="-393.8" font-family="Times,serif" font-size="14.00" fill="#000000">var:cited_paper</text>
</a>
</g>
</g>
<!-- ann1 -->
<g id="node2" class="node">
<title>ann1</title>
<polygon fill="none" stroke="#c0c0c0" points="220.5,-305 89.5,-305 89.5,-269 226.5,-269 226.5,-299 220.5,-305"/>
<polyline fill="none" stroke="#c0c0c0" points="220.5,-305 220.5,-299 "/>
<polyline fill="none" stroke="#c0c0c0" points="226.5,-299 220.5,-299 "/>
<g id="a_node2_0"><a xlink:href="http://www.w3.org/ns/prov#type" xlink:title="&lt;TABLE&gt;">
<text text-anchor="start" x="99.8374" y="-284" font-family="Times,serif" font-size="10.00" fill="#000000">prov:type</text>
</a>
</g>
<g id="a_node2_1"><a xlink:href="http://openprovenance.org/var#citedPaperType" xlink:title="&lt;TABLE&gt;">
<text text-anchor="start" x="139.7012" y="-284" font-family="Times,serif" font-size="10.00" fill="#000000">var:citedPaperType</text>
</a>
</g>
</g>
<!-- ann1&#45;&gt;n1 -->
<g id="edge1" class="edge">
<title>ann1&#45;&gt;n1</title>
<path fill="none" stroke="#c0c0c0" stroke-dasharray="5,2" d="M151.7251,-305.3294C144.6421,-326.0191 133.1927,-359.4634 126.1582,-380.0117"/>
</g>
<!-- n2 -->
<g id="node3" class="node">
<title>n2</title>
<g id="a_node3"><a xlink:href="http://openprovenance.org/var#paper" xlink:title="var:paper">
<ellipse fill="#fffc87" stroke="#808080" cx="185" cy="-167" rx="43.4887" ry="18"/>
<text text-anchor="middle" x="185" y="-162.8" font-family="Times,serif" font-size="14.00" fill="#000000">var:paper</text>
</a>
</g>
</g>
<!-- b1 -->
<g id="node5" class="node">
<title>b1</title>
<ellipse fill="#c0c0c0" stroke="#c0c0c0" cx="70" cy="-287" rx="1.8" ry="1.8"/>
</g>
<!-- n2&#45;&gt;b1 -->
<g id="edge3" class="edge">
<title>n2&#45;&gt;b1</title>
<path fill="none" stroke="#000000" d="M165.5619,-183.4267C143.5354,-202.6092 107.2875,-235.9437 81,-269 76.6234,-274.5036 72.6242,-281.8768 70.8981,-285.2194"/>
<text text-anchor="middle" x="157.7144" y="-224" font-family="Times,serif" font-size="10.00" fill="#000000">wasDerivedFrom</text>
</g>
<!-- ann2 -->
<g id="node4" class="node">
<title>ann2</title>
<polygon fill="none" stroke="#c0c0c0" points="221.5,-74 110.5,-74 110.5,-38 227.5,-38 227.5,-68 221.5,-74"/>
<polyline fill="none" stroke="#c0c0c0" points="221.5,-74 221.5,-68 "/>
<polyline fill="none" stroke="#c0c0c0" points="227.5,-68 221.5,-68 "/>
<g id="a_node4_2"><a xlink:href="http://www.w3.org/ns/prov#type" xlink:title="&lt;TABLE&gt;">
<text text-anchor="start" x="120.8374" y="-53" font-family="Times,serif" font-size="10.00" fill="#000000">prov:type</text>
</a>
</g>
<g id="a_node4_3"><a xlink:href="http://openprovenance.org/var#paperType" xlink:title="&lt;TABLE&gt;">
<text text-anchor="start" x="160.6987" y="-53" font-family="Times,serif" font-size="10.00" fill="#000000">var:paperType</text>
</a>
</g>
</g>
<!-- ann2&#45;&gt;n2 -->
<g id="edge2" class="edge">
<title>ann2&#45;&gt;n2</title>
<path fill="none" stroke="#c0c0c0" stroke-dasharray="5,2" d="M171.6421,-74.3294C174.6244,-95.0191 179.4452,-128.4634 182.4071,-149.0117"/>
</g>
<!-- b1&#45;&gt;n1 -->
<g id="edge4" class="edge">
<title>b1&#45;&gt;n1</title>
<path fill="none" stroke="#000000" d="M70.8678,-288.9266C75.1786,-298.4965 94.6029,-341.6185 107.6984,-370.6904"/>
<polygon fill="#000000" stroke="#000000" points="104.5675,-372.2619 111.8658,-379.9421 110.9499,-369.3869 104.5675,-372.2619"/>
</g>
<!-- ann3 -->
<g id="node6" class="node">
<title>ann3</title>
<polygon fill="none" stroke="#c0c0c0" points="117.5,-185 16.5,-185 16.5,-149 123.5,-149 123.5,-179 117.5,-185"/>
<polyline fill="none" stroke="#c0c0c0" points="117.5,-185 117.5,-179 "/>
<polyline fill="none" stroke="#c0c0c0" points="123.5,-179 117.5,-179 "/>
<g id="a_node6_4"><a xlink:href="http://www.w3.org/ns/prov#type" xlink:title="&lt;TABLE&gt;">
<text text-anchor="start" x="26.8374" y="-164" font-family="Times,serif" font-size="10.00" fill="#000000">prov:type</text>
</a>
</g>
<g id="a_node6_5"><a xlink:href="http://www.ipaw.info/ns/picaso#Citation" xlink:title="&lt;TABLE&gt;">
<text text-anchor="start" x="66.8916" y="-164" font-family="Times,serif" font-size="10.00" fill="#000000">pic:Citation</text>
</a>
</g>
</g>
<!-- ann3&#45;&gt;b1 -->
<g id="edge5" class="edge">
<title>ann3&#45;&gt;b1</title>
<path fill="none" stroke="#c0c0c0" stroke-dasharray="5,2" d="M70,-185.2254C70,-215.3856 70,-273.5031 70,-284.9971"/>
</g>
</g>
</svg>
