<?xml version="1.0" encoding="UTF-8" standalone="no"?>
<!DOCTYPE svg PUBLIC "-//W3C//DTD SVG 1.1//EN"
 "http://www.w3.org/Graphics/SVG/1.1/DTD/svg11.dtd">
<!-- Generated by graphviz version 2.40.1 (20161225.0304)
 -->
<!-- Title: PROV Pages: 1 -->
<svg width="342pt" height="314pt"
 viewBox="0.00 0.00 342.00 314.00" xmlns="http://www.w3.org/2000/svg" xmlns:xlink="http://www.w3.org/1999/xlink">
<g id="graph0" class="graph" transform="scale(1 1) rotate(0) translate(4 310)">
<title>PROV</title>
<polygon fill="#ffffff" stroke="transparent" points="-4,4 -4,-310 338,-310 338,4 -4,4"/>
<g id="clust1" class="cluster">
<title>clusterurn:uuid:04a0b96e&#45;816b&#45;4395&#45;a360&#45;5af5b05ba9ed</title>
<g id="a_clust1"><a xlink:href="urn:uuid:04a0b96e-816b-4395-a360-5af5b05ba9ed" xlink:title="04a0b96e&#45;816b&#45;4395&#45;a360&#45;5af5b05ba9ed">
<polygon fill="none" stroke="#000000" points="8,-8 8,-298 326,-298 326,-8 8,-8"/>
<text text-anchor="middle" x="167" y="-14.8" font-family="Times,serif" font-size="14.00" fill="#000000">04a0b96e&#45;816b&#45;4395&#45;a360&#45;5af5b05ba9ed</text>
</a>
</g>
</g>
<!-- urn:uuid:eaca7508&#45;7ecc&#45;443d&#45;9b55&#45;d5c4058c5975 -->
<g id="node1" class="node">
<title>urn:uuid:eaca7508&#45;7ecc&#45;443d&#45;9b55&#45;d5c4058c5975</title>
<g id="a_node1"><a xlink:href="urn:uuid:eaca7508-7ecc-443d-9b55-d5c4058c5975" xlink:title="eaca7508&#45;7ecc&#45;443d&#45;9b55&#45;d5c4058c5975">
<polygon fill="#9fb1fc" stroke="#0000ff" points="267.5736,-146 16.4264,-146 16.4264,-110 267.5736,-110 267.5736,-146"/>
<text text-anchor="middle" x="142" y="-123.8" font-family="Times,serif" font-size="14.00" fill="#000000">eaca7508&#45;7ecc&#45;443d&#45;9b55&#45;d5c4058c5975</text>
</a>
</g>
</g>
<!-- http://openprovenance.org/var#slides -->
<g id="node5" class="node">
<title>http://openprovenance.org/var#slides</title>
<g id="a_node5"><a xlink:href="http://openprovenance.org/var#slides" xlink:title="slides">
<ellipse fill="#fffc87" stroke="#808080" cx="46" cy="-272" rx="30.0035" ry="18"/>
<text text-anchor="middle" x="46" y="-267.8" font-family="Times,serif" font-size="14.00" fill="#000000">slides</text>
</a>
</g>
</g>
<!-- urn:uuid:eaca7508&#45;7ecc&#45;443d&#45;9b55&#45;d5c4058c5975&#45;&gt;http://openprovenance.org/var#slides -->
<g id="edge4" class="edge">
<title>urn:uuid:eaca7508&#45;7ecc&#45;443d&#45;9b55&#45;d5c4058c5975&#45;&gt;http://openprovenance.org/var#slides</title>
<path fill="none" stroke="#000000" d="M71.8701,-146.0761C54.2482,-154.115 37.4071,-165.6159 27,-182 14.7676,-201.2578 22.1052,-227.0504 30.9799,-246.0866"/>
<polygon fill="#000000" stroke="#000000" points="27.8939,-247.7404 35.5227,-255.0925 34.1438,-244.5878 27.8939,-247.7404"/>
<text text-anchor="middle" x="70.7147" y="-158.6315" font-family="Times,serif" font-size="8.00" fill="#000000">use</text>
</g>
<!-- bn0 -->
<g id="node8" class="node">
<title>bn0</title>
<ellipse fill="#000000" stroke="#000000" cx="170" cy="-200" rx="1.8" ry="1.8"/>
</g>
<!-- urn:uuid:eaca7508&#45;7ecc&#45;443d&#45;9b55&#45;d5c4058c5975&#45;&gt;bn0 -->
<g id="edge5" class="edge">
<title>urn:uuid:eaca7508&#45;7ecc&#45;443d&#45;9b55&#45;d5c4058c5975&#45;&gt;bn0</title>
<path fill="none" stroke="#000000" d="M149.0656,-146.1686C156.1939,-164.4986 166.531,-191.0798 169.2974,-198.1932"/>
</g>
<!-- bn1 -->
<g id="node9" class="node">
<title>bn1</title>
<ellipse fill="#000000" stroke="#000000" cx="38" cy="-200" rx="1.8" ry="1.8"/>
</g>
<!-- urn:uuid:eaca7508&#45;7ecc&#45;443d&#45;9b55&#45;d5c4058c5975&#45;&gt;bn1 -->
<g id="edge8" class="edge">
<title>urn:uuid:eaca7508&#45;7ecc&#45;443d&#45;9b55&#45;d5c4058c5975&#45;&gt;bn1</title>
<path fill="none" stroke="#000000" d="M101.0188,-146.1596C83.6211,-155.2178 63.9514,-167.3811 49,-182 43.9723,-186.9159 40.2986,-194.583 38.7761,-198.1092"/>
</g>
<!-- &#45;attrs0 -->
<g id="node2" class="node">
<title>&#45;attrs0</title>
<polygon fill="none" stroke="#c0c0c0" points="205,-74 73,-74 73,-38 211,-38 211,-68 205,-74"/>
<polyline fill="none" stroke="#c0c0c0" points="205,-74 205,-68 "/>
<polyline fill="none" stroke="#c0c0c0" points="211,-68 205,-68 "/>
<text text-anchor="start" x="82.5024" y="-53" font-family="Times,serif" font-size="10.00" fill="#000000">type:</text>
<text text-anchor="start" x="103.8989" y="-53" font-family="Times,serif" font-size="10.00" fill="#000000">pic:PresentationActivity</text>
</g>
<!-- &#45;attrs0&#45;&gt;urn:uuid:eaca7508&#45;7ecc&#45;443d&#45;9b55&#45;d5c4058c5975 -->
<g id="edge1" class="edge">
<title>&#45;attrs0&#45;&gt;urn:uuid:eaca7508&#45;7ecc&#45;443d&#45;9b55&#45;d5c4058c5975</title>
<path fill="none" stroke="#c0c0c0" stroke-dasharray="5,2" d="M142,-74.1686C142,-85 142,-98.7124 142,-109.5867"/>
</g>
<!-- http://www.ipaw.info/ipaw14/session4 -->
<g id="node3" class="node">
<title>http://www.ipaw.info/ipaw14/session4</title>
<g id="a_node3"><a xlink:href="http://www.ipaw.info/ipaw14/session4" xlink:title="session4">
<ellipse fill="#fffc87" stroke="#808080" cx="276" cy="-272" rx="40.1576" ry="18"/>
<text text-anchor="middle" x="276" y="-267.8" font-family="Times,serif" font-size="14.00" fill="#000000">session4</text>
</a>
</g>
</g>
<!-- &#45;attrs1 -->
<g id="node4" class="node">
<title>&#45;attrs1</title>
<polygon fill="none" stroke="#c0c0c0" points="312,-218 190,-218 190,-182 318,-182 318,-212 312,-218"/>
<polyline fill="none" stroke="#c0c0c0" points="312,-218 312,-212 "/>
<polyline fill="none" stroke="#c0c0c0" points="318,-212 312,-212 "/>
<text text-anchor="start" x="199.5024" y="-197" font-family="Times,serif" font-size="10.00" fill="#000000">type:</text>
<text text-anchor="start" x="220.894" y="-197" font-family="Times,serif" font-size="10.00" fill="#000000">pic:ScheduledSession</text>
</g>
<!-- &#45;attrs1&#45;&gt;http://www.ipaw.info/ipaw14/session4 -->
<g id="edge2" class="edge">
<title>&#45;attrs1&#45;&gt;http://www.ipaw.info/ipaw14/session4</title>
<path fill="none" stroke="#c0c0c0" stroke-dasharray="5,2" d="M259.5515,-218.1686C262.912,-229.1666 267.1801,-243.135 270.5265,-254.0866"/>
</g>
<!-- http://www.ipaw.info/data/people/PereraRoly -->
<g id="node6" class="node">
<title>http://www.ipaw.info/data/people/PereraRoly</title>
<g id="a_node6"><a xlink:href="http://www.ipaw.info/data/people/PereraRoly" xlink:title="PereraRoly">
<polygon fill="#fdb266" stroke="#000000" points="217.834,-277.5623 156,-290 94.166,-277.5623 94.2237,-257.4377 217.7763,-257.4377 217.834,-277.5623"/>
<text text-anchor="middle" x="156" y="-267.8" font-family="Times,serif" font-size="14.00" fill="#000000">PereraRoly</text>
</a>
</g>
</g>
<!-- &#45;attrs2 -->
<g id="node7" class="node">
<title>&#45;attrs2</title>
<polygon fill="none" stroke="#c0c0c0" points="144,-218 58,-218 58,-182 150,-182 150,-212 144,-218"/>
<polyline fill="none" stroke="#c0c0c0" points="144,-218 144,-212 "/>
<polyline fill="none" stroke="#c0c0c0" points="150,-212 144,-212 "/>
<text text-anchor="start" x="68" y="-203" font-family="Times,serif" font-size="10.00" fill="#000000">type:</text>
<text text-anchor="start" x="91.835" y="-203" font-family="Times,serif" font-size="10.00" fill="#000000">prov:Person</text>
<text text-anchor="start" x="67.894" y="-191" font-family="Times,serif" font-size="10.00" fill="#000000">label:</text>
<text text-anchor="start" x="92" y="-191" font-family="Times,serif" font-size="10.00" fill="#000000">Roly Perera</text>
</g>
<!-- &#45;attrs2&#45;&gt;http://www.ipaw.info/data/people/PereraRoly -->
<g id="edge3" class="edge">
<title>&#45;attrs2&#45;&gt;http://www.ipaw.info/data/people/PereraRoly</title>
<path fill="none" stroke="#c0c0c0" stroke-dasharray="5,2" d="M117.1218,-218.1686C125.7869,-230.1664 137.005,-245.6993 145.1624,-256.9941"/>
</g>
<!-- bn0&#45;&gt;http://www.ipaw.info/ipaw14/session4 -->
<g id="edge7" class="edge">
<title>bn0&#45;&gt;http://www.ipaw.info/ipaw14/session4</title>
<path fill="none" stroke="#000000" d="M170.7718,-201.8951C172.2874,-205.4286 175.9497,-213.1072 181,-218 197.0856,-233.584 218.5381,-246.2785 236.9869,-255.4344"/>
<polygon fill="#000000" stroke="#000000" points="235.5091,-258.6073 246.0401,-259.7689 238.532,-252.2936 235.5091,-258.6073"/>
</g>
<!-- bn0&#45;&gt;http://www.ipaw.info/data/people/PereraRoly -->
<g id="edge6" class="edge">
<title>bn0&#45;&gt;http://www.ipaw.info/data/people/PereraRoly</title>
<path fill="none" stroke="#000000" d="M169.6539,-201.7798C168.4405,-208.0205 164.2672,-229.4829 160.8506,-247.0543"/>
<polygon fill="#000000" stroke="#000000" points="157.3273,-246.837 158.8542,-257.3212 164.1986,-248.1731 157.3273,-246.837"/>
<text text-anchor="middle" x="180.974" y="-209.2214" font-family="Times,serif" font-size="8.00" fill="#000000">assoc</text>
</g>
<!-- bn1&#45;&gt;http://openprovenance.org/var#slides -->
<g id="edge10" class="edge">
<title>bn1&#45;&gt;http://openprovenance.org/var#slides</title>
<path fill="none" stroke="#000000" d="M38.2308,-202.0772C38.9159,-208.2431 41.0048,-227.0434 42.8442,-243.5978"/>
<polygon fill="#000000" stroke="#000000" points="39.4167,-244.4445 43.9996,-253.9968 46.3738,-243.6714 39.4167,-244.4445"/>
</g>
<!-- bn1&#45;&gt;http://www.ipaw.info/data/people/PereraRoly -->
<g id="edge9" class="edge">
<title>bn1&#45;&gt;http://www.ipaw.info/data/people/PereraRoly</title>
<path fill="none" stroke="#000000" d="M38.7494,-201.9188C40.2276,-205.4918 43.8302,-213.2337 49,-218 65.1051,-232.8482 86.0589,-244.6162 105.1501,-253.3264"/>
<polygon fill="#000000" stroke="#000000" points="103.7792,-256.5469 114.3431,-257.3568 106.5899,-250.136 103.7792,-256.5469"/>
<text text-anchor="middle" x="53.6397" y="-201.3301" font-family="Times,serif" font-size="8.00" fill="#000000">assoc</text>
</g>
</g>
</svg>
