<?xml version="1.0" encoding="UTF-8" standalone="no"?>
<!DOCTYPE svg PUBLIC "-//W3C//DTD SVG 1.1//EN"
 "http://www.w3.org/Graphics/SVG/1.1/DTD/svg11.dtd">
<!-- Generated by graphviz version 2.40.1 (20161225.0304)
 -->
<!-- Title: PROV Pages: 1 -->
<svg width="346pt" height="314pt"
 viewBox="0.00 0.00 346.00 314.00" xmlns="http://www.w3.org/2000/svg" xmlns:xlink="http://www.w3.org/1999/xlink">
<g id="graph0" class="graph" transform="scale(1 1) rotate(0) translate(4 310)">
<title>PROV</title>
<polygon fill="#ffffff" stroke="transparent" points="-4,4 -4,-310 342,-310 342,4 -4,4"/>
<g id="clust1" class="cluster">
<title>clusterurn:uuid:943a67b4&#45;c7a8&#45;47d7&#45;8548&#45;bdae3e078c4c</title>
<g id="a_clust1"><a xlink:href="urn:uuid:943a67b4-c7a8-47d7-8548-bdae3e078c4c" xlink:title="943a67b4&#45;c7a8&#45;47d7&#45;8548&#45;bdae3e078c4c">
<polygon fill="none" stroke="#000000" points="8,-8 8,-298 330,-298 330,-8 8,-8"/>
<text text-anchor="middle" x="169" y="-14.8" font-family="Times,serif" font-size="14.00" fill="#000000">943a67b4&#45;c7a8&#45;47d7&#45;8548&#45;bdae3e078c4c</text>
</a>
</g>
</g>
<!-- urn:uuid:7f8515bf&#45;63a5&#45;495e&#45;a015&#45;a70d17a873c2 -->
<g id="node1" class="node">
<title>urn:uuid:7f8515bf&#45;63a5&#45;495e&#45;a015&#45;a70d17a873c2</title>
<g id="a_node1"><a xlink:href="urn:uuid:7f8515bf-63a5-495e-a015-a70d17a873c2" xlink:title="7f8515bf&#45;63a5&#45;495e&#45;a015&#45;a70d17a873c2">
<polygon fill="#9fb1fc" stroke="#0000ff" points="265.756,-146 16.244,-146 16.244,-110 265.756,-110 265.756,-146"/>
<text text-anchor="middle" x="141" y="-123.8" font-family="Times,serif" font-size="14.00" fill="#000000">7f8515bf&#45;63a5&#45;495e&#45;a015&#45;a70d17a873c2</text>
</a>
</g>
</g>
<!-- http://openprovenance.org/var#slides -->
<g id="node5" class="node">
<title>http://openprovenance.org/var#slides</title>
<g id="a_node5"><a xlink:href="http://openprovenance.org/var#slides" xlink:title="slides">
<ellipse fill="#fffc87" stroke="#808080" cx="46" cy="-272" rx="30.0035" ry="18"/>
<text text-anchor="middle" x="46" y="-267.8" font-family="Times,serif" font-size="14.00" fill="#000000">slides</text>
</a>
</g>
</g>
<!-- urn:uuid:7f8515bf&#45;63a5&#45;495e&#45;a015&#45;a70d17a873c2&#45;&gt;http://openprovenance.org/var#slides -->
<g id="edge4" class="edge">
<title>urn:uuid:7f8515bf&#45;63a5&#45;495e&#45;a015&#45;a70d17a873c2&#45;&gt;http://openprovenance.org/var#slides</title>
<path fill="none" stroke="#000000" d="M75.2877,-146.0374C57.9117,-154.1234 41.1817,-165.6593 31,-182 19.1584,-201.0047 24.9679,-226.463 32.5458,-245.4529"/>
<polygon fill="#000000" stroke="#000000" points="29.3827,-246.9557 36.5856,-254.7254 35.8001,-244.1597 29.3827,-246.9557"/>
<text text-anchor="middle" x="74.2426" y="-158.6009" font-family="Times,serif" font-size="8.00" fill="#000000">use</text>
</g>
<!-- bn0 -->
<g id="node8" class="node">
<title>bn0</title>
<ellipse fill="#000000" stroke="#000000" cx="174" cy="-200" rx="1.8" ry="1.8"/>
</g>
<!-- urn:uuid:7f8515bf&#45;63a5&#45;495e&#45;a015&#45;a70d17a873c2&#45;&gt;bn0 -->
<g id="edge5" class="edge">
<title>urn:uuid:7f8515bf&#45;63a5&#45;495e&#45;a015&#45;a70d17a873c2&#45;&gt;bn0</title>
<path fill="none" stroke="#000000" d="M149.3273,-146.1686C157.7285,-164.4986 169.9116,-191.0798 173.1719,-198.1932"/>
</g>
<!-- bn1 -->
<g id="node9" class="node">
<title>bn1</title>
<ellipse fill="#000000" stroke="#000000" cx="42" cy="-200" rx="1.8" ry="1.8"/>
</g>
<!-- urn:uuid:7f8515bf&#45;63a5&#45;495e&#45;a015&#45;a70d17a873c2&#45;&gt;bn1 -->
<g id="edge8" class="edge">
<title>urn:uuid:7f8515bf&#45;63a5&#45;495e&#45;a015&#45;a70d17a873c2&#45;&gt;bn1</title>
<path fill="none" stroke="#000000" d="M101.5236,-146.1924C84.8265,-155.2567 66.0367,-167.4157 52,-182 47.2403,-186.9454 43.9952,-194.5977 42.6701,-198.1148"/>
</g>
<!-- &#45;attrs0 -->
<g id="node2" class="node">
<title>&#45;attrs0</title>
<polygon fill="none" stroke="#c0c0c0" points="204,-74 72,-74 72,-38 210,-38 210,-68 204,-74"/>
<polyline fill="none" stroke="#c0c0c0" points="204,-74 204,-68 "/>
<polyline fill="none" stroke="#c0c0c0" points="210,-68 204,-68 "/>
<text text-anchor="start" x="81.5024" y="-53" font-family="Times,serif" font-size="10.00" fill="#000000">type:</text>
<text text-anchor="start" x="102.8989" y="-53" font-family="Times,serif" font-size="10.00" fill="#000000">pic:PresentationActivity</text>
</g>
<!-- &#45;attrs0&#45;&gt;urn:uuid:7f8515bf&#45;63a5&#45;495e&#45;a015&#45;a70d17a873c2 -->
<g id="edge1" class="edge">
<title>&#45;attrs0&#45;&gt;urn:uuid:7f8515bf&#45;63a5&#45;495e&#45;a015&#45;a70d17a873c2</title>
<path fill="none" stroke="#c0c0c0" stroke-dasharray="5,2" d="M141,-74.1686C141,-85 141,-98.7124 141,-109.5867"/>
</g>
<!-- http://www.ipaw.info/ipaw14/session4 -->
<g id="node3" class="node">
<title>http://www.ipaw.info/ipaw14/session4</title>
<g id="a_node3"><a xlink:href="http://www.ipaw.info/ipaw14/session4" xlink:title="session4">
<ellipse fill="#fffc87" stroke="#808080" cx="282" cy="-272" rx="40.1576" ry="18"/>
<text text-anchor="middle" x="282" y="-267.8" font-family="Times,serif" font-size="14.00" fill="#000000">session4</text>
</a>
</g>
</g>
<!-- &#45;attrs1 -->
<g id="node4" class="node">
<title>&#45;attrs1</title>
<polygon fill="none" stroke="#c0c0c0" points="316,-218 194,-218 194,-182 322,-182 322,-212 316,-218"/>
<polyline fill="none" stroke="#c0c0c0" points="316,-218 316,-212 "/>
<polyline fill="none" stroke="#c0c0c0" points="322,-212 316,-212 "/>
<text text-anchor="start" x="203.5024" y="-197" font-family="Times,serif" font-size="10.00" fill="#000000">type:</text>
<text text-anchor="start" x="224.894" y="-197" font-family="Times,serif" font-size="10.00" fill="#000000">pic:ScheduledSession</text>
</g>
<!-- &#45;attrs1&#45;&gt;http://www.ipaw.info/ipaw14/session4 -->
<g id="edge2" class="edge">
<title>&#45;attrs1&#45;&gt;http://www.ipaw.info/ipaw14/session4</title>
<path fill="none" stroke="#c0c0c0" stroke-dasharray="5,2" d="M264.0562,-218.1686C267.7222,-229.1666 272.3783,-243.135 276.0289,-254.0866"/>
</g>
<!-- http://www.ipaw.info/data/people/AliMufajjul -->
<g id="node6" class="node">
<title>http://www.ipaw.info/data/people/AliMufajjul</title>
<g id="a_node6"><a xlink:href="http://www.ipaw.info/data/people/AliMufajjul" xlink:title="AliMufajjul">
<polygon fill="#fdb266" stroke="#000000" points="223.9296,-277.5623 159,-290 94.0704,-277.5623 94.131,-257.4377 223.869,-257.4377 223.9296,-277.5623"/>
<text text-anchor="middle" x="159" y="-267.8" font-family="Times,serif" font-size="14.00" fill="#000000">AliMufajjul</text>
</a>
</g>
</g>
<!-- &#45;attrs2 -->
<g id="node7" class="node">
<title>&#45;attrs2</title>
<polygon fill="none" stroke="#c0c0c0" points="148.5,-218 61.5,-218 61.5,-182 154.5,-182 154.5,-212 148.5,-218"/>
<polyline fill="none" stroke="#c0c0c0" points="148.5,-218 148.5,-212 "/>
<polyline fill="none" stroke="#c0c0c0" points="154.5,-212 148.5,-212 "/>
<text text-anchor="start" x="72" y="-203" font-family="Times,serif" font-size="10.00" fill="#000000">type:</text>
<text text-anchor="start" x="96" y="-203" font-family="Times,serif" font-size="10.00" fill="#000000">prov:Person</text>
<text text-anchor="start" x="71.894" y="-191" font-family="Times,serif" font-size="10.00" fill="#000000">label:</text>
<text text-anchor="start" x="95.6367" y="-191" font-family="Times,serif" font-size="10.00" fill="#000000">Mufajjul Ali</text>
</g>
<!-- &#45;attrs2&#45;&gt;http://www.ipaw.info/data/people/AliMufajjul -->
<g id="edge3" class="edge">
<title>&#45;attrs2&#45;&gt;http://www.ipaw.info/data/people/AliMufajjul</title>
<path fill="none" stroke="#c0c0c0" stroke-dasharray="5,2" d="M120.8695,-218.1686C129.3679,-230.1664 140.3703,-245.6993 148.3708,-256.9941"/>
</g>
<!-- bn0&#45;&gt;http://www.ipaw.info/ipaw14/session4 -->
<g id="edge7" class="edge">
<title>bn0&#45;&gt;http://www.ipaw.info/ipaw14/session4</title>
<path fill="none" stroke="#000000" d="M174.7678,-201.8993C176.2765,-205.4399 179.928,-213.1297 185,-218 201.5314,-233.8739 223.6335,-246.6518 242.5644,-255.7851"/>
<polygon fill="#000000" stroke="#000000" points="241.3023,-259.058 251.8458,-260.0995 244.2531,-252.7103 241.3023,-259.058"/>
</g>
<!-- bn0&#45;&gt;http://www.ipaw.info/data/people/AliMufajjul -->
<g id="edge6" class="edge">
<title>bn0&#45;&gt;http://www.ipaw.info/data/people/AliMufajjul</title>
<path fill="none" stroke="#000000" d="M173.6292,-201.7798C172.3291,-208.0205 167.8577,-229.4829 164.197,-247.0543"/>
<polygon fill="#000000" stroke="#000000" points="160.6713,-246.8175 162.0581,-257.3212 167.5241,-248.2453 160.6713,-246.8175"/>
<text text-anchor="middle" x="184.8169" y="-209.3716" font-family="Times,serif" font-size="8.00" fill="#000000">assoc</text>
</g>
<!-- bn1&#45;&gt;http://openprovenance.org/var#slides -->
<g id="edge10" class="edge">
<title>bn1&#45;&gt;http://openprovenance.org/var#slides</title>
<path fill="none" stroke="#000000" d="M42.1154,-202.0772C42.458,-208.2431 43.5024,-227.0434 44.4221,-243.5978"/>
<polygon fill="#000000" stroke="#000000" points="40.9504,-244.2064 44.9998,-253.9968 47.9396,-243.818 40.9504,-244.2064"/>
</g>
<!-- bn1&#45;&gt;http://www.ipaw.info/data/people/AliMufajjul -->
<g id="edge9" class="edge">
<title>bn1&#45;&gt;http://www.ipaw.info/data/people/AliMufajjul</title>
<path fill="none" stroke="#000000" d="M42.6346,-201.9207C43.9006,-205.497 47.0512,-213.2439 52,-218 67.5296,-232.9247 87.9944,-244.6087 106.8644,-253.2325"/>
<polygon fill="#000000" stroke="#000000" points="105.696,-256.5416 116.2606,-257.3423 108.5012,-250.1282 105.696,-256.5416"/>
<text text-anchor="middle" x="57.4121" y="-202.0946" font-family="Times,serif" font-size="8.00" fill="#000000">assoc</text>
</g>
</g>
</svg>
