<?xml version="1.0" encoding="UTF-8" standalone="no"?>
<!DOCTYPE svg PUBLIC "-//W3C//DTD SVG 1.1//EN"
 "http://www.w3.org/Graphics/SVG/1.1/DTD/svg11.dtd">
<!-- Generated by graphviz version 2.40.1 (20161225.0304)
 -->
<!-- Title: PROV Pages: 1 -->
<svg width="342pt" height="314pt"
 viewBox="0.00 0.00 342.00 314.00" xmlns="http://www.w3.org/2000/svg" xmlns:xlink="http://www.w3.org/1999/xlink">
<g id="graph0" class="graph" transform="scale(1 1) rotate(0) translate(4 310)">
<title>PROV</title>
<polygon fill="#ffffff" stroke="transparent" points="-4,4 -4,-310 338,-310 338,4 -4,4"/>
<g id="clust1" class="cluster">
<title>clusterurn:uuid:ad01a975&#45;11c1&#45;4642&#45;9d9b&#45;c5de893e0f84</title>
<g id="a_clust1"><a xlink:href="urn:uuid:ad01a975-11c1-4642-9d9b-c5de893e0f84" xlink:title="ad01a975&#45;11c1&#45;4642&#45;9d9b&#45;c5de893e0f84">
<polygon fill="none" stroke="#000000" points="8,-8 8,-298 326,-298 326,-8 8,-8"/>
<text text-anchor="middle" x="167" y="-14.8" font-family="Times,serif" font-size="14.00" fill="#000000">ad01a975&#45;11c1&#45;4642&#45;9d9b&#45;c5de893e0f84</text>
</a>
</g>
</g>
<!-- urn:uuid:f7f03374&#45;d088&#45;4e6a&#45;adb5&#45;ac740bc24ef2 -->
<g id="node1" class="node">
<title>urn:uuid:f7f03374&#45;d088&#45;4e6a&#45;adb5&#45;ac740bc24ef2</title>
<g id="a_node1"><a xlink:href="urn:uuid:f7f03374-d088-4e6a-adb5-ac740bc24ef2" xlink:title="f7f03374&#45;d088&#45;4e6a&#45;adb5&#45;ac740bc24ef2">
<polygon fill="#9fb1fc" stroke="#0000ff" points="262.1319,-146 15.8681,-146 15.8681,-110 262.1319,-110 262.1319,-146"/>
<text text-anchor="middle" x="139" y="-123.8" font-family="Times,serif" font-size="14.00" fill="#000000">f7f03374&#45;d088&#45;4e6a&#45;adb5&#45;ac740bc24ef2</text>
</a>
</g>
</g>
<!-- http://openprovenance.org/var#slides -->
<g id="node5" class="node">
<title>http://openprovenance.org/var#slides</title>
<g id="a_node5"><a xlink:href="http://openprovenance.org/var#slides" xlink:title="slides">
<ellipse fill="#fffc87" stroke="#808080" cx="46" cy="-272" rx="30.0035" ry="18"/>
<text text-anchor="middle" x="46" y="-267.8" font-family="Times,serif" font-size="14.00" fill="#000000">slides</text>
</a>
</g>
</g>
<!-- urn:uuid:f7f03374&#45;d088&#45;4e6a&#45;adb5&#45;ac740bc24ef2&#45;&gt;http://openprovenance.org/var#slides -->
<g id="edge4" class="edge">
<title>urn:uuid:f7f03374&#45;d088&#45;4e6a&#45;adb5&#45;ac740bc24ef2&#45;&gt;http://openprovenance.org/var#slides</title>
<path fill="none" stroke="#000000" d="M71.5356,-146.0518C54.055,-154.1177 37.275,-165.639 27,-182 14.9391,-201.2046 22.1055,-226.797 30.8791,-245.7809"/>
<polygon fill="#000000" stroke="#000000" points="27.7741,-247.3972 35.3786,-254.7743 34.0343,-244.2651 27.7741,-247.3972"/>
<text text-anchor="middle" x="70.4431" y="-158.6119" font-family="Times,serif" font-size="8.00" fill="#000000">use</text>
</g>
<!-- bn0 -->
<g id="node8" class="node">
<title>bn0</title>
<ellipse fill="#000000" stroke="#000000" cx="170" cy="-200" rx="1.8" ry="1.8"/>
</g>
<!-- urn:uuid:f7f03374&#45;d088&#45;4e6a&#45;adb5&#45;ac740bc24ef2&#45;&gt;bn0 -->
<g id="edge5" class="edge">
<title>urn:uuid:f7f03374&#45;d088&#45;4e6a&#45;adb5&#45;ac740bc24ef2&#45;&gt;bn0</title>
<path fill="none" stroke="#000000" d="M146.8226,-146.1686C154.7147,-164.4986 166.1593,-191.0798 169.2221,-198.1932"/>
</g>
<!-- bn1 -->
<g id="node9" class="node">
<title>bn1</title>
<ellipse fill="#000000" stroke="#000000" cx="38" cy="-200" rx="1.8" ry="1.8"/>
</g>
<!-- urn:uuid:f7f03374&#45;d088&#45;4e6a&#45;adb5&#45;ac740bc24ef2&#45;&gt;bn1 -->
<g id="edge8" class="edge">
<title>urn:uuid:f7f03374&#45;d088&#45;4e6a&#45;adb5&#45;ac740bc24ef2&#45;&gt;bn1</title>
<path fill="none" stroke="#000000" d="M99.8104,-146.1508C82.8675,-155.279 63.6188,-167.4996 49,-182 44.0077,-186.9519 40.3163,-194.6009 38.7827,-198.116"/>
</g>
<!-- &#45;attrs0 -->
<g id="node2" class="node">
<title>&#45;attrs0</title>
<polygon fill="none" stroke="#c0c0c0" points="202,-74 70,-74 70,-38 208,-38 208,-68 202,-74"/>
<polyline fill="none" stroke="#c0c0c0" points="202,-74 202,-68 "/>
<polyline fill="none" stroke="#c0c0c0" points="208,-68 202,-68 "/>
<text text-anchor="start" x="79.5024" y="-53" font-family="Times,serif" font-size="10.00" fill="#000000">type:</text>
<text text-anchor="start" x="100.8989" y="-53" font-family="Times,serif" font-size="10.00" fill="#000000">pic:PresentationActivity</text>
</g>
<!-- &#45;attrs0&#45;&gt;urn:uuid:f7f03374&#45;d088&#45;4e6a&#45;adb5&#45;ac740bc24ef2 -->
<g id="edge1" class="edge">
<title>&#45;attrs0&#45;&gt;urn:uuid:f7f03374&#45;d088&#45;4e6a&#45;adb5&#45;ac740bc24ef2</title>
<path fill="none" stroke="#c0c0c0" stroke-dasharray="5,2" d="M139,-74.1686C139,-85 139,-98.7124 139,-109.5867"/>
</g>
<!-- http://www.ipaw.info/ipaw14/session5 -->
<g id="node3" class="node">
<title>http://www.ipaw.info/ipaw14/session5</title>
<g id="a_node3"><a xlink:href="http://www.ipaw.info/ipaw14/session5" xlink:title="session5">
<ellipse fill="#fffc87" stroke="#808080" cx="268" cy="-272" rx="40.1576" ry="18"/>
<text text-anchor="middle" x="268" y="-267.8" font-family="Times,serif" font-size="14.00" fill="#000000">session5</text>
</a>
</g>
</g>
<!-- &#45;attrs1 -->
<g id="node4" class="node">
<title>&#45;attrs1</title>
<polygon fill="none" stroke="#c0c0c0" points="312,-218 190,-218 190,-182 318,-182 318,-212 312,-218"/>
<polyline fill="none" stroke="#c0c0c0" points="312,-218 312,-212 "/>
<polyline fill="none" stroke="#c0c0c0" points="318,-212 312,-212 "/>
<text text-anchor="start" x="199.5024" y="-197" font-family="Times,serif" font-size="10.00" fill="#000000">type:</text>
<text text-anchor="start" x="220.894" y="-197" font-family="Times,serif" font-size="10.00" fill="#000000">pic:ScheduledSession</text>
</g>
<!-- &#45;attrs1&#45;&gt;http://www.ipaw.info/ipaw14/session5 -->
<g id="edge2" class="edge">
<title>&#45;attrs1&#45;&gt;http://www.ipaw.info/ipaw14/session5</title>
<path fill="none" stroke="#c0c0c0" stroke-dasharray="5,2" d="M257.5328,-218.1686C259.6389,-229 262.3052,-242.7124 264.4196,-253.5867"/>
</g>
<!-- http://www.ipaw.info/data/people/GrothPaul -->
<g id="node6" class="node">
<title>http://www.ipaw.info/data/people/GrothPaul</title>
<g id="a_node6"><a xlink:href="http://www.ipaw.info/data/people/GrothPaul" xlink:title="GrothPaul">
<polygon fill="#fdb266" stroke="#000000" points="209.3577,-277.5623 152,-290 94.6423,-277.5623 94.6958,-257.4377 209.3042,-257.4377 209.3577,-277.5623"/>
<text text-anchor="middle" x="152" y="-267.8" font-family="Times,serif" font-size="14.00" fill="#000000">GrothPaul</text>
</a>
</g>
</g>
<!-- &#45;attrs2 -->
<g id="node7" class="node">
<title>&#45;attrs2</title>
<polygon fill="none" stroke="#c0c0c0" points="144,-218 58,-218 58,-182 150,-182 150,-212 144,-218"/>
<polyline fill="none" stroke="#c0c0c0" points="144,-218 144,-212 "/>
<polyline fill="none" stroke="#c0c0c0" points="150,-212 144,-212 "/>
<text text-anchor="start" x="68" y="-203" font-family="Times,serif" font-size="10.00" fill="#000000">type:</text>
<text text-anchor="start" x="91.835" y="-203" font-family="Times,serif" font-size="10.00" fill="#000000">prov:Person</text>
<text text-anchor="start" x="67.894" y="-191" font-family="Times,serif" font-size="10.00" fill="#000000">label:</text>
<text text-anchor="start" x="92" y="-191" font-family="Times,serif" font-size="10.00" fill="#000000">Paul Groth</text>
</g>
<!-- &#45;attrs2&#45;&gt;http://www.ipaw.info/data/people/GrothPaul -->
<g id="edge3" class="edge">
<title>&#45;attrs2&#45;&gt;http://www.ipaw.info/data/people/GrothPaul</title>
<path fill="none" stroke="#c0c0c0" stroke-dasharray="5,2" d="M116.1124,-218.1686C124.111,-230.1664 134.4662,-245.6993 141.9961,-256.9941"/>
</g>
<!-- bn0&#45;&gt;http://www.ipaw.info/ipaw14/session5 -->
<g id="edge7" class="edge">
<title>bn0&#45;&gt;http://www.ipaw.info/ipaw14/session5</title>
<path fill="none" stroke="#000000" d="M170.7897,-201.877C172.3351,-205.3803 176.0451,-213.0106 181,-218 195.3743,-232.4745 214.3424,-244.8225 230.8979,-254.0423"/>
<polygon fill="#000000" stroke="#000000" points="229.3385,-257.1777 239.8027,-258.8361 232.6567,-251.0141 229.3385,-257.1777"/>
</g>
<!-- bn0&#45;&gt;http://www.ipaw.info/data/people/GrothPaul -->
<g id="edge6" class="edge">
<title>bn0&#45;&gt;http://www.ipaw.info/data/people/GrothPaul</title>
<path fill="none" stroke="#000000" d="M169.5551,-201.7798C167.9802,-208.0794 162.5277,-229.8892 158.1124,-247.5505"/>
<polygon fill="#000000" stroke="#000000" points="154.6996,-246.7709 155.6697,-257.3212 161.4906,-248.4687 154.6996,-246.7709"/>
<text text-anchor="middle" x="180.3386" y="-209.8065" font-family="Times,serif" font-size="8.00" fill="#000000">assoc</text>
</g>
<!-- bn1&#45;&gt;http://openprovenance.org/var#slides -->
<g id="edge10" class="edge">
<title>bn1&#45;&gt;http://openprovenance.org/var#slides</title>
<path fill="none" stroke="#000000" d="M38.2308,-202.0772C38.9159,-208.2431 41.0048,-227.0434 42.8442,-243.5978"/>
<polygon fill="#000000" stroke="#000000" points="39.4167,-244.4445 43.9996,-253.9968 46.3738,-243.6714 39.4167,-244.4445"/>
</g>
<!-- bn1&#45;&gt;http://www.ipaw.info/data/people/GrothPaul -->
<g id="edge9" class="edge">
<title>bn1&#45;&gt;http://www.ipaw.info/data/people/GrothPaul</title>
<path fill="none" stroke="#000000" d="M38.7564,-201.9113C40.2461,-205.4719 43.8673,-213.1938 49,-218 64.6336,-232.6392 84.9963,-244.4182 103.4845,-253.1938"/>
<polygon fill="#000000" stroke="#000000" points="102.1125,-256.4149 112.6629,-257.3838 105.0195,-250.047 102.1125,-256.4149"/>
<text text-anchor="middle" x="53.6533" y="-201.2666" font-family="Times,serif" font-size="8.00" fill="#000000">assoc</text>
</g>
</g>
</svg>
