<?xml version="1.0" encoding="UTF-8" standalone="no"?>
<!DOCTYPE svg PUBLIC "-//W3C//DTD SVG 1.1//EN"
 "http://www.w3.org/Graphics/SVG/1.1/DTD/svg11.dtd">
<!-- Generated by graphviz version 2.40.1 (20161225.0304)
 -->
<!-- Title: PROV Pages: 1 -->
<svg width="440pt" height="314pt"
 viewBox="0.00 0.00 440.00 314.00" xmlns="http://www.w3.org/2000/svg" xmlns:xlink="http://www.w3.org/1999/xlink">
<g id="graph0" class="graph" transform="scale(1 1) rotate(0) translate(4 310)">
<title>PROV</title>
<polygon fill="#ffffff" stroke="transparent" points="-4,4 -4,-310 436,-310 436,4 -4,4"/>
<g id="clust1" class="cluster">
<title>clusterurn:uuid:0ad2ed74&#45;a2c9&#45;4096&#45;853a&#45;3cf7731a1f95</title>
<g id="a_clust1"><a xlink:href="urn:uuid:0ad2ed74-a2c9-4096-853a-3cf7731a1f95" xlink:title="0ad2ed74&#45;a2c9&#45;4096&#45;853a&#45;3cf7731a1f95">
<polygon fill="none" stroke="#000000" points="8,-8 8,-298 424,-298 424,-8 8,-8"/>
<text text-anchor="middle" x="216" y="-14.8" font-family="Times,serif" font-size="14.00" fill="#000000">0ad2ed74&#45;a2c9&#45;4096&#45;853a&#45;3cf7731a1f95</text>
</a>
</g>
</g>
<!-- urn:uuid:c38c535c&#45;ea9a&#45;4783&#45;8a6b&#45;ae69f8cf12ff -->
<g id="node1" class="node">
<title>urn:uuid:c38c535c&#45;ea9a&#45;4783&#45;8a6b&#45;ae69f8cf12ff</title>
<g id="a_node1"><a xlink:href="urn:uuid:c38c535c-ea9a-4783-8a6b-ae69f8cf12ff" xlink:title="c38c535c&#45;ea9a&#45;4783&#45;8a6b&#45;ae69f8cf12ff">
<polygon fill="#9fb1fc" stroke="#0000ff" points="257.6895,-146 16.3105,-146 16.3105,-110 257.6895,-110 257.6895,-146"/>
<text text-anchor="middle" x="137" y="-123.8" font-family="Times,serif" font-size="14.00" fill="#000000">c38c535c&#45;ea9a&#45;4783&#45;8a6b&#45;ae69f8cf12ff</text>
</a>
</g>
</g>
<!-- http://openprovenance.org/var#slides -->
<g id="node5" class="node">
<title>http://openprovenance.org/var#slides</title>
<g id="a_node5"><a xlink:href="http://openprovenance.org/var#slides" xlink:title="slides">
<ellipse fill="#fffc87" stroke="#808080" cx="46" cy="-272" rx="30.0035" ry="18"/>
<text text-anchor="middle" x="46" y="-267.8" font-family="Times,serif" font-size="14.00" fill="#000000">slides</text>
</a>
</g>
</g>
<!-- urn:uuid:c38c535c&#45;ea9a&#45;4783&#45;8a6b&#45;ae69f8cf12ff&#45;&gt;http://openprovenance.org/var#slides -->
<g id="edge4" class="edge">
<title>urn:uuid:c38c535c&#45;ea9a&#45;4783&#45;8a6b&#45;ae69f8cf12ff&#45;&gt;http://openprovenance.org/var#slides</title>
<path fill="none" stroke="#000000" d="M111.4503,-146.1375C99.5905,-155.6615 86.1295,-168.2117 77,-182 64.5104,-200.863 56.5138,-225.2879 51.7764,-243.9324"/>
<polygon fill="#000000" stroke="#000000" points="48.3171,-243.3515 49.4132,-253.8895 55.1279,-244.968 48.3171,-243.3515"/>
<text text-anchor="middle" x="113.8734" y="-158.5405" font-family="Times,serif" font-size="8.00" fill="#000000">use</text>
</g>
<!-- bn0 -->
<g id="node8" class="node">
<title>bn0</title>
<ellipse fill="#000000" stroke="#000000" cx="268" cy="-200" rx="1.8" ry="1.8"/>
</g>
<!-- urn:uuid:c38c535c&#45;ea9a&#45;4783&#45;8a6b&#45;ae69f8cf12ff&#45;&gt;bn0 -->
<g id="edge5" class="edge">
<title>urn:uuid:c38c535c&#45;ea9a&#45;4783&#45;8a6b&#45;ae69f8cf12ff&#45;&gt;bn0</title>
<path fill="none" stroke="#000000" d="M195.1339,-146.0109C216.2536,-154.5439 239.2633,-166.3635 257,-182 262.2746,-186.65 265.8248,-194.45 267.2702,-198.0594"/>
</g>
<!-- bn1 -->
<g id="node9" class="node">
<title>bn1</title>
<ellipse fill="#000000" stroke="#000000" cx="88" cy="-200" rx="1.8" ry="1.8"/>
</g>
<!-- urn:uuid:c38c535c&#45;ea9a&#45;4783&#45;8a6b&#45;ae69f8cf12ff&#45;&gt;bn1 -->
<g id="edge8" class="edge">
<title>urn:uuid:c38c535c&#45;ea9a&#45;4783&#45;8a6b&#45;ae69f8cf12ff&#45;&gt;bn1</title>
<path fill="none" stroke="#000000" d="M123.6867,-146.2913C116.2556,-156.6549 106.9263,-169.925 99,-182 95.1413,-187.8783 90.8832,-195.0642 88.9952,-198.2897"/>
</g>
<!-- &#45;attrs0 -->
<g id="node2" class="node">
<title>&#45;attrs0</title>
<polygon fill="none" stroke="#c0c0c0" points="200,-74 68,-74 68,-38 206,-38 206,-68 200,-74"/>
<polyline fill="none" stroke="#c0c0c0" points="200,-74 200,-68 "/>
<polyline fill="none" stroke="#c0c0c0" points="206,-68 200,-68 "/>
<text text-anchor="start" x="77.5024" y="-53" font-family="Times,serif" font-size="10.00" fill="#000000">type:</text>
<text text-anchor="start" x="98.8989" y="-53" font-family="Times,serif" font-size="10.00" fill="#000000">pic:PresentationActivity</text>
</g>
<!-- &#45;attrs0&#45;&gt;urn:uuid:c38c535c&#45;ea9a&#45;4783&#45;8a6b&#45;ae69f8cf12ff -->
<g id="edge1" class="edge">
<title>&#45;attrs0&#45;&gt;urn:uuid:c38c535c&#45;ea9a&#45;4783&#45;8a6b&#45;ae69f8cf12ff</title>
<path fill="none" stroke="#c0c0c0" stroke-dasharray="5,2" d="M137,-74.1686C137,-85 137,-98.7124 137,-109.5867"/>
</g>
<!-- http://www.ipaw.info/ipaw14/session5 -->
<g id="node3" class="node">
<title>http://www.ipaw.info/ipaw14/session5</title>
<g id="a_node3"><a xlink:href="http://www.ipaw.info/ipaw14/session5" xlink:title="session5">
<ellipse fill="#fffc87" stroke="#808080" cx="376" cy="-272" rx="40.1576" ry="18"/>
<text text-anchor="middle" x="376" y="-267.8" font-family="Times,serif" font-size="14.00" fill="#000000">session5</text>
</a>
</g>
</g>
<!-- &#45;attrs1 -->
<g id="node4" class="node">
<title>&#45;attrs1</title>
<polygon fill="none" stroke="#c0c0c0" points="410,-218 288,-218 288,-182 416,-182 416,-212 410,-218"/>
<polyline fill="none" stroke="#c0c0c0" points="410,-218 410,-212 "/>
<polyline fill="none" stroke="#c0c0c0" points="416,-212 410,-212 "/>
<text text-anchor="start" x="297.5024" y="-197" font-family="Times,serif" font-size="10.00" fill="#000000">type:</text>
<text text-anchor="start" x="318.894" y="-197" font-family="Times,serif" font-size="10.00" fill="#000000">pic:ScheduledSession</text>
</g>
<!-- &#45;attrs1&#45;&gt;http://www.ipaw.info/ipaw14/session5 -->
<g id="edge2" class="edge">
<title>&#45;attrs1&#45;&gt;http://www.ipaw.info/ipaw14/session5</title>
<path fill="none" stroke="#c0c0c0" stroke-dasharray="5,2" d="M358.0562,-218.1686C361.7222,-229.1666 366.3783,-243.135 370.0289,-254.0866"/>
</g>
<!-- http://www.ipaw.info/data/people/CuevasVicenttinVictor -->
<g id="node6" class="node">
<title>http://www.ipaw.info/data/people/CuevasVicenttinVictor</title>
<g id="a_node6"><a xlink:href="http://www.ipaw.info/data/people/CuevasVicenttinVictor" xlink:title="CuevasVicenttinVictor">
<polygon fill="#fdb266" stroke="#000000" points="317.9447,-277.5623 206,-290 94.0553,-277.5623 94.1598,-257.4377 317.8402,-257.4377 317.9447,-277.5623"/>
<text text-anchor="middle" x="206" y="-267.8" font-family="Times,serif" font-size="14.00" fill="#000000">CuevasVicenttinVictor</text>
</a>
</g>
</g>
<!-- &#45;attrs2 -->
<g id="node7" class="node">
<title>&#45;attrs2</title>
<polygon fill="none" stroke="#c0c0c0" points="242,-218 108,-218 108,-182 248,-182 248,-212 242,-218"/>
<polyline fill="none" stroke="#c0c0c0" points="242,-218 242,-212 "/>
<polyline fill="none" stroke="#c0c0c0" points="248,-212 242,-212 "/>
<text text-anchor="start" x="118" y="-203" font-family="Times,serif" font-size="10.00" fill="#000000">type:</text>
<text text-anchor="start" x="142" y="-203" font-family="Times,serif" font-size="10.00" fill="#000000">prov:Person</text>
<text text-anchor="start" x="117.894" y="-191" font-family="Times,serif" font-size="10.00" fill="#000000">label:</text>
<text text-anchor="start" x="141.582" y="-191" font-family="Times,serif" font-size="10.00" fill="#000000">Victor Cuevas&#45;Vicenttin</text>
</g>
<!-- &#45;attrs2&#45;&gt;http://www.ipaw.info/data/people/CuevasVicenttinVictor -->
<g id="edge3" class="edge">
<title>&#45;attrs2&#45;&gt;http://www.ipaw.info/data/people/CuevasVicenttinVictor</title>
<path fill="none" stroke="#c0c0c0" stroke-dasharray="5,2" d="M185.0656,-218.1686C189.7314,-230.1664 195.7719,-245.6993 200.1644,-256.9941"/>
</g>
<!-- bn0&#45;&gt;http://www.ipaw.info/ipaw14/session5 -->
<g id="edge7" class="edge">
<title>bn0&#45;&gt;http://www.ipaw.info/ipaw14/session5</title>
<path fill="none" stroke="#000000" d="M268.7678,-201.8993C270.2765,-205.4399 273.928,-213.1297 279,-218 295.5314,-233.8739 317.6335,-246.6518 336.5644,-255.7851"/>
<polygon fill="#000000" stroke="#000000" points="335.3023,-259.058 345.8458,-260.0995 338.2531,-252.7103 335.3023,-259.058"/>
</g>
<!-- bn0&#45;&gt;http://www.ipaw.info/data/people/CuevasVicenttinVictor -->
<g id="edge6" class="edge">
<title>bn0&#45;&gt;http://www.ipaw.info/data/people/CuevasVicenttinVictor</title>
<path fill="none" stroke="#000000" d="M267.082,-201.7651C265.3228,-205.0818 261.2705,-212.4137 257,-218 248.4721,-229.1554 237.9717,-240.5909 228.7198,-250.0498"/>
<polygon fill="#000000" stroke="#000000" points="226.2063,-247.6137 221.6291,-257.1688 231.1659,-252.5536 226.2063,-247.6137"/>
<text text-anchor="middle" x="274.9912" y="-212.1104" font-family="Times,serif" font-size="8.00" fill="#000000">assoc</text>
</g>
<!-- bn1&#45;&gt;http://openprovenance.org/var#slides -->
<g id="edge10" class="edge">
<title>bn1&#45;&gt;http://openprovenance.org/var#slides</title>
<path fill="none" stroke="#000000" d="M86.9618,-201.7798C83.3905,-207.9021 71.2736,-228.6738 61.1376,-246.0499"/>
<polygon fill="#000000" stroke="#000000" points="58.0889,-244.3299 56.0734,-254.7313 64.1354,-247.8571 58.0889,-244.3299"/>
</g>
<!-- bn1&#45;&gt;http://www.ipaw.info/data/people/CuevasVicenttinVictor -->
<g id="edge9" class="edge">
<title>bn1&#45;&gt;http://www.ipaw.info/data/people/CuevasVicenttinVictor</title>
<path fill="none" stroke="#000000" d="M88.7494,-201.9188C90.2276,-205.4918 93.8302,-213.2337 99,-218 115.1051,-232.8482 136.0589,-244.6162 155.1501,-253.3264"/>
<polygon fill="#000000" stroke="#000000" points="153.7792,-256.5469 164.3431,-257.3568 156.5899,-250.136 153.7792,-256.5469"/>
<text text-anchor="middle" x="103.6397" y="-201.3301" font-family="Times,serif" font-size="8.00" fill="#000000">assoc</text>
</g>
</g>
</svg>
