<?xml version="1.0" encoding="UTF-8" standalone="no"?>
<!DOCTYPE svg PUBLIC "-//W3C//DTD SVG 1.1//EN"
 "http://www.w3.org/Graphics/SVG/1.1/DTD/svg11.dtd">
<!-- Generated by graphviz version 2.40.1 (20161225.0304)
 -->
<!-- Title: PROV Pages: 1 -->
<svg width="818pt" height="314pt"
 viewBox="0.00 0.00 818.00 314.00" xmlns="http://www.w3.org/2000/svg" xmlns:xlink="http://www.w3.org/1999/xlink">
<g id="graph0" class="graph" transform="scale(1 1) rotate(0) translate(4 310)">
<title>PROV</title>
<polygon fill="#ffffff" stroke="transparent" points="-4,4 -4,-310 814,-310 814,4 -4,4"/>
<g id="clust1" class="cluster">
<title>clusterurn:uuid:8663e138&#45;751b&#45;450c&#45;b6f7&#45;38501b1b2357</title>
<g id="a_clust1"><a xlink:href="urn:uuid:8663e138-751b-450c-b6f7-38501b1b2357" xlink:title="8663e138&#45;751b&#45;450c&#45;b6f7&#45;38501b1b2357">
<polygon fill="none" stroke="#000000" points="8,-8 8,-298 802,-298 802,-8 8,-8"/>
<text text-anchor="middle" x="405" y="-14.8" font-family="Times,serif" font-size="14.00" fill="#000000">8663e138&#45;751b&#45;450c&#45;b6f7&#45;38501b1b2357</text>
</a>
</g>
</g>
<!-- urn:uuid:d4816cc5&#45;5e07&#45;448e&#45;9fef&#45;d9bb597f8b5f -->
<g id="node1" class="node">
<title>urn:uuid:d4816cc5&#45;5e07&#45;448e&#45;9fef&#45;d9bb597f8b5f</title>
<g id="a_node1"><a xlink:href="urn:uuid:d4816cc5-5e07-448e-9fef-d9bb597f8b5f" xlink:title="d4816cc5&#45;5e07&#45;448e&#45;9fef&#45;d9bb597f8b5f">
<polygon fill="#9fb1fc" stroke="#0000ff" points="497.8665,-146 252.1335,-146 252.1335,-110 497.8665,-110 497.8665,-146"/>
<text text-anchor="middle" x="375" y="-123.8" font-family="Times,serif" font-size="14.00" fill="#000000">d4816cc5&#45;5e07&#45;448e&#45;9fef&#45;d9bb597f8b5f</text>
</a>
</g>
</g>
<!-- http://provenanceweek.dlr.de/media/medialibrary/2014/06/Model&#45;Based&#45;Abstraction&#45;Probst&#45;final.pdf -->
<g id="node7" class="node">
<title>http://provenanceweek.dlr.de/media/medialibrary/2014/06/Model&#45;Based&#45;Abstraction&#45;Probst&#45;final.pdf</title>
<g id="a_node7"><a xlink:href="http://provenanceweek.dlr.de/media/medialibrary/2014/06/Model-Based-Abstraction-Probst-final.pdf" xlink:title="Model&#45;Based&#45;Abstraction&#45;Probst&#45;final.pdf">
<ellipse fill="#fffc87" stroke="#808080" cx="176" cy="-272" rx="160.3476" ry="18"/>
<text text-anchor="middle" x="176" y="-267.8" font-family="Times,serif" font-size="14.00" fill="#000000">Model&#45;Based&#45;Abstraction&#45;Probst&#45;final.pdf</text>
</a>
</g>
</g>
<!-- urn:uuid:d4816cc5&#45;5e07&#45;448e&#45;9fef&#45;d9bb597f8b5f&#45;&gt;http://provenanceweek.dlr.de/media/medialibrary/2014/06/Model&#45;Based&#45;Abstraction&#45;Probst&#45;final.pdf -->
<g id="edge6" class="edge">
<title>urn:uuid:d4816cc5&#45;5e07&#45;448e&#45;9fef&#45;d9bb597f8b5f&#45;&gt;http://provenanceweek.dlr.de/media/medialibrary/2014/06/Model&#45;Based&#45;Abstraction&#45;Probst&#45;final.pdf</title>
<path fill="none" stroke="#000000" d="M296.5259,-146.0268C259.4496,-155.9405 220.4054,-168.8695 207,-182 198.0417,-190.7746 188.8105,-220.7734 182.7781,-243.7494"/>
<polygon fill="#000000" stroke="#000000" points="179.3176,-243.156 180.244,-253.7102 186.1015,-244.8819 179.3176,-243.156"/>
<text text-anchor="middle" x="292.732" y="-158.1391" font-family="Times,serif" font-size="8.00" fill="#000000">use</text>
</g>
<!-- bn0 -->
<g id="node11" class="node">
<title>bn0</title>
<ellipse fill="#000000" stroke="#000000" cx="364" cy="-200" rx="1.8" ry="1.8"/>
</g>
<!-- urn:uuid:d4816cc5&#45;5e07&#45;448e&#45;9fef&#45;d9bb597f8b5f&#45;&gt;bn0 -->
<g id="edge7" class="edge">
<title>urn:uuid:d4816cc5&#45;5e07&#45;448e&#45;9fef&#45;d9bb597f8b5f&#45;&gt;bn0</title>
<path fill="none" stroke="#000000" d="M372.2242,-146.1686C369.4238,-164.4986 365.3628,-191.0798 364.276,-198.1932"/>
</g>
<!-- bn1 -->
<g id="node12" class="node">
<title>bn1</title>
<ellipse fill="#000000" stroke="#000000" cx="386" cy="-200" rx="1.8" ry="1.8"/>
</g>
<!-- urn:uuid:d4816cc5&#45;5e07&#45;448e&#45;9fef&#45;d9bb597f8b5f&#45;&gt;bn1 -->
<g id="edge10" class="edge">
<title>urn:uuid:d4816cc5&#45;5e07&#45;448e&#45;9fef&#45;d9bb597f8b5f&#45;&gt;bn1</title>
<path fill="none" stroke="#000000" d="M377.7758,-146.1686C380.5762,-164.4986 384.6372,-191.0798 385.724,-198.1932"/>
</g>
<!-- bn2 -->
<g id="node13" class="node">
<title>bn2</title>
<ellipse fill="#000000" stroke="#000000" cx="548" cy="-200" rx="1.8" ry="1.8"/>
</g>
<!-- urn:uuid:d4816cc5&#45;5e07&#45;448e&#45;9fef&#45;d9bb597f8b5f&#45;&gt;bn2 -->
<g id="edge13" class="edge">
<title>urn:uuid:d4816cc5&#45;5e07&#45;448e&#45;9fef&#45;d9bb597f8b5f&#45;&gt;bn2</title>
<path fill="none" stroke="#000000" d="M465.9337,-146.1235C490.7705,-154.172 516.4675,-165.6661 537,-182 542.5028,-186.3776 545.9389,-194.3138 547.313,-198.0083"/>
</g>
<!-- &#45;attrs0 -->
<g id="node2" class="node">
<title>&#45;attrs0</title>
<polygon fill="none" stroke="#c0c0c0" points="438,-74 306,-74 306,-38 444,-38 444,-68 438,-74"/>
<polyline fill="none" stroke="#c0c0c0" points="438,-74 438,-68 "/>
<polyline fill="none" stroke="#c0c0c0" points="444,-68 438,-68 "/>
<text text-anchor="start" x="315.5024" y="-53" font-family="Times,serif" font-size="10.00" fill="#000000">type:</text>
<text text-anchor="start" x="336.8989" y="-53" font-family="Times,serif" font-size="10.00" fill="#000000">pic:PresentationActivity</text>
</g>
<!-- &#45;attrs0&#45;&gt;urn:uuid:d4816cc5&#45;5e07&#45;448e&#45;9fef&#45;d9bb597f8b5f -->
<g id="edge1" class="edge">
<title>&#45;attrs0&#45;&gt;urn:uuid:d4816cc5&#45;5e07&#45;448e&#45;9fef&#45;d9bb597f8b5f</title>
<path fill="none" stroke="#c0c0c0" stroke-dasharray="5,2" d="M375,-74.1686C375,-85 375,-98.7124 375,-109.5867"/>
</g>
<!-- http://www.ipaw.info/data/paper/ProbstTAPP2014 -->
<g id="node3" class="node">
<title>http://www.ipaw.info/data/paper/ProbstTAPP2014</title>
<g id="a_node3"><a xlink:href="http://www.ipaw.info/data/paper/ProbstTAPP2014" xlink:title="ProbstTAPP2014">
<ellipse fill="#fffc87" stroke="#808080" cx="723" cy="-272" rx="71.1408" ry="18"/>
<text text-anchor="middle" x="723" y="-267.8" font-family="Times,serif" font-size="14.00" fill="#000000">ProbstTAPP2014</text>
</a>
</g>
</g>
<!-- &#45;attrs1 -->
<g id="node4" class="node">
<title>&#45;attrs1</title>
<polygon fill="none" stroke="#c0c0c0" points="788,-218 568,-218 568,-182 794,-182 794,-212 788,-218"/>
<polyline fill="none" stroke="#c0c0c0" points="788,-218 788,-212 "/>
<polyline fill="none" stroke="#c0c0c0" points="794,-212 788,-212 "/>
<text text-anchor="start" x="578" y="-203" font-family="Times,serif" font-size="10.00" fill="#000000">type:</text>
<text text-anchor="start" x="602" y="-203" font-family="Times,serif" font-size="10.00" fill="#000000">pic:Article</text>
<text text-anchor="start" x="577.894" y="-191" font-family="Times,serif" font-size="10.00" fill="#000000">label:</text>
<text text-anchor="start" x="601.916" y="-191" font-family="Times,serif" font-size="10.00" fill="#000000">Model&#45;based Abstraction of Data Provenance</text>
</g>
<!-- &#45;attrs1&#45;&gt;http://www.ipaw.info/data/paper/ProbstTAPP2014 -->
<g id="edge2" class="edge">
<title>&#45;attrs1&#45;&gt;http://www.ipaw.info/data/paper/ProbstTAPP2014</title>
<path fill="none" stroke="#c0c0c0" stroke-dasharray="5,2" d="M691.5984,-218.1686C698.0139,-229.1666 706.1621,-243.135 712.5505,-254.0866"/>
</g>
<!-- http://www.ipaw.info/tapp14/session1 -->
<g id="node5" class="node">
<title>http://www.ipaw.info/tapp14/session1</title>
<g id="a_node5"><a xlink:href="http://www.ipaw.info/tapp14/session1" xlink:title="session1">
<ellipse fill="#fffc87" stroke="#808080" cx="394" cy="-272" rx="40.1576" ry="18"/>
<text text-anchor="middle" x="394" y="-267.8" font-family="Times,serif" font-size="14.00" fill="#000000">session1</text>
</a>
</g>
</g>
<!-- &#45;attrs2 -->
<g id="node6" class="node">
<title>&#45;attrs2</title>
<polygon fill="none" stroke="#c0c0c0" points="338,-218 216,-218 216,-182 344,-182 344,-212 338,-218"/>
<polyline fill="none" stroke="#c0c0c0" points="338,-218 338,-212 "/>
<polyline fill="none" stroke="#c0c0c0" points="344,-212 338,-212 "/>
<text text-anchor="start" x="225.5024" y="-197" font-family="Times,serif" font-size="10.00" fill="#000000">type:</text>
<text text-anchor="start" x="246.894" y="-197" font-family="Times,serif" font-size="10.00" fill="#000000">pic:ScheduledSession</text>
</g>
<!-- &#45;attrs2&#45;&gt;http://www.ipaw.info/tapp14/session1 -->
<g id="edge3" class="edge">
<title>&#45;attrs2&#45;&gt;http://www.ipaw.info/tapp14/session1</title>
<path fill="none" stroke="#c0c0c0" stroke-dasharray="5,2" d="M308.767,-218.1686C327.8954,-230.2497 352.6991,-245.9152 370.6122,-257.2288"/>
</g>
<!-- &#45;attrs3 -->
<g id="node8" class="node">
<title>&#45;attrs3</title>
<polygon fill="none" stroke="#c0c0c0" points="172,-218 98,-218 98,-182 178,-182 178,-212 172,-218"/>
<polyline fill="none" stroke="#c0c0c0" points="172,-218 172,-212 "/>
<polyline fill="none" stroke="#c0c0c0" points="178,-212 172,-212 "/>
<text text-anchor="start" x="107.5024" y="-197" font-family="Times,serif" font-size="10.00" fill="#000000">type:</text>
<text text-anchor="start" x="128.7783" y="-197" font-family="Times,serif" font-size="10.00" fill="#000000">pic:Slides</text>
</g>
<!-- &#45;attrs3&#45;&gt;http://provenanceweek.dlr.de/media/medialibrary/2014/06/Model&#45;Based&#45;Abstraction&#45;Probst&#45;final.pdf -->
<g id="edge4" class="edge">
<title>&#45;attrs3&#45;&gt;http://provenanceweek.dlr.de/media/medialibrary/2014/06/Model&#45;Based&#45;Abstraction&#45;Probst&#45;final.pdf</title>
<path fill="none" stroke="#c0c0c0" stroke-dasharray="5,2" d="M147.589,-218.1686C153.3055,-229 160.5427,-242.7124 166.2819,-253.5867"/>
</g>
<!-- http://www.ipaw.info/data/people/ProbstChristianW -->
<g id="node9" class="node">
<title>http://www.ipaw.info/data/people/ProbstChristianW</title>
<g id="a_node9"><a xlink:href="http://www.ipaw.info/data/people/ProbstChristianW" xlink:title="ProbstChristianW">
<polygon fill="#fdb266" stroke="#000000" points="633.6617,-277.5623 543,-290 452.3383,-277.5623 452.423,-257.4377 633.577,-257.4377 633.6617,-277.5623"/>
<text text-anchor="middle" x="543" y="-267.8" font-family="Times,serif" font-size="14.00" fill="#000000">ProbstChristianW</text>
</a>
</g>
</g>
<!-- &#45;attrs4 -->
<g id="node10" class="node">
<title>&#45;attrs4</title>
<polygon fill="none" stroke="#c0c0c0" points="522,-218 406,-218 406,-182 528,-182 528,-212 522,-218"/>
<polyline fill="none" stroke="#c0c0c0" points="522,-218 522,-212 "/>
<polyline fill="none" stroke="#c0c0c0" points="528,-212 522,-212 "/>
<text text-anchor="start" x="416" y="-203" font-family="Times,serif" font-size="10.00" fill="#000000">type:</text>
<text text-anchor="start" x="440" y="-203" font-family="Times,serif" font-size="10.00" fill="#000000">prov:Person</text>
<text text-anchor="start" x="415.894" y="-191" font-family="Times,serif" font-size="10.00" fill="#000000">label:</text>
<text text-anchor="start" x="439.9644" y="-191" font-family="Times,serif" font-size="10.00" fill="#000000">Christian W. Probst</text>
</g>
<!-- &#45;attrs4&#45;&gt;http://www.ipaw.info/data/people/ProbstChristianW -->
<g id="edge5" class="edge">
<title>&#45;attrs4&#45;&gt;http://www.ipaw.info/data/people/ProbstChristianW</title>
<path fill="none" stroke="#c0c0c0" stroke-dasharray="5,2" d="M486.178,-218.1686C498.8423,-230.1664 515.2381,-245.6993 527.1604,-256.9941"/>
</g>
<!-- bn0&#45;&gt;http://provenanceweek.dlr.de/media/medialibrary/2014/06/Model&#45;Based&#45;Abstraction&#45;Probst&#45;final.pdf -->
<g id="edge9" class="edge">
<title>bn0&#45;&gt;http://provenanceweek.dlr.de/media/medialibrary/2014/06/Model&#45;Based&#45;Abstraction&#45;Probst&#45;final.pdf</title>
<path fill="none" stroke="#000000" d="M363.3235,-202.005C361.9667,-205.7217 358.5585,-213.6933 353,-218 331.2859,-234.8239 304.3326,-246.4334 278.0618,-254.435"/>
<polygon fill="#000000" stroke="#000000" points="277.0585,-251.0816 268.425,-257.2227 279.0037,-257.8059 277.0585,-251.0816"/>
</g>
<!-- bn0&#45;&gt;http://www.ipaw.info/data/people/ProbstChristianW -->
<g id="edge8" class="edge">
<title>bn0&#45;&gt;http://www.ipaw.info/data/people/ProbstChristianW</title>
<path fill="none" stroke="#000000" d="M364.6826,-201.9973C366.0494,-205.701 369.4737,-213.6521 375,-218 396.35,-234.7976 423.0657,-246.4373 448.8685,-254.477"/>
<polygon fill="#000000" stroke="#000000" points="448.1178,-257.9048 458.6998,-257.3853 450.1035,-251.1923 448.1178,-257.9048"/>
<text text-anchor="middle" x="379.4969" y="-201.9502" font-family="Times,serif" font-size="8.00" fill="#000000">assoc</text>
</g>
<!-- bn1&#45;&gt;http://www.ipaw.info/tapp14/session1 -->
<g id="edge12" class="edge">
<title>bn1&#45;&gt;http://www.ipaw.info/tapp14/session1</title>
<path fill="none" stroke="#000000" d="M386.2308,-202.0772C386.9159,-208.2431 389.0048,-227.0434 390.8442,-243.5978"/>
<polygon fill="#000000" stroke="#000000" points="387.4167,-244.4445 391.9996,-253.9968 394.3738,-243.6714 387.4167,-244.4445"/>
</g>
<!-- bn1&#45;&gt;http://www.ipaw.info/data/people/ProbstChristianW -->
<g id="edge11" class="edge">
<title>bn1&#45;&gt;http://www.ipaw.info/data/people/ProbstChristianW</title>
<path fill="none" stroke="#000000" d="M386.7004,-201.975C388.097,-205.6418 391.569,-213.5336 397,-218 416.905,-234.37 442.2396,-246.0372 466.1966,-254.2337"/>
<polygon fill="#000000" stroke="#000000" points="465.4102,-257.6585 476.0025,-257.4272 467.5779,-251.0026 465.4102,-257.6585"/>
<text text-anchor="middle" x="401.5371" y="-201.7828" font-family="Times,serif" font-size="8.00" fill="#000000">assoc</text>
</g>
<!-- bn2&#45;&gt;http://www.ipaw.info/data/paper/ProbstTAPP2014 -->
<g id="edge15" class="edge">
<title>bn2&#45;&gt;http://www.ipaw.info/data/paper/ProbstTAPP2014</title>
<path fill="none" stroke="#000000" d="M548.6855,-201.9936C550.0571,-205.6913 553.4892,-213.6325 559,-218 575.3513,-230.9588 622.4112,-245.7912 661.9487,-256.6279"/>
<polygon fill="#000000" stroke="#000000" points="661.2485,-260.0642 671.8153,-259.2934 663.0742,-253.3064 661.2485,-260.0642"/>
</g>
<!-- bn2&#45;&gt;http://www.ipaw.info/data/people/ProbstChristianW -->
<g id="edge14" class="edge">
<title>bn2&#45;&gt;http://www.ipaw.info/data/people/ProbstChristianW</title>
<path fill="none" stroke="#000000" d="M547.8558,-202.0772C547.397,-208.6837 545.9309,-229.7947 544.7287,-247.1068"/>
<polygon fill="#000000" stroke="#000000" points="541.2269,-247.013 544.0256,-257.2315 548.21,-247.498 541.2269,-247.013"/>
<text text-anchor="middle" x="560.2953" y="-208.0591" font-family="Times,serif" font-size="8.00" fill="#000000">assoc</text>
</g>
</g>
</svg>
