<?xml version="1.0" encoding="UTF-8" standalone="no"?>
<!DOCTYPE svg PUBLIC "-//W3C//DTD SVG 1.1//EN"
 "http://www.w3.org/Graphics/SVG/1.1/DTD/svg11.dtd">
<!-- Generated by graphviz version 2.40.1 (20161225.0304)
 -->
<!-- Title: PROV Pages: 1 -->
<svg width="884pt" height="314pt"
 viewBox="0.00 0.00 884.00 314.00" xmlns="http://www.w3.org/2000/svg" xmlns:xlink="http://www.w3.org/1999/xlink">
<g id="graph0" class="graph" transform="scale(1 1) rotate(0) translate(4 310)">
<title>PROV</title>
<polygon fill="#ffffff" stroke="transparent" points="-4,4 -4,-310 880,-310 880,4 -4,4"/>
<g id="clust1" class="cluster">
<title>clusterurn:uuid:c428b756&#45;e083&#45;4e81&#45;bb53&#45;8b34c6f5f320</title>
<g id="a_clust1"><a xlink:href="urn:uuid:c428b756-e083-4e81-bb53-8b34c6f5f320" xlink:title="c428b756&#45;e083&#45;4e81&#45;bb53&#45;8b34c6f5f320">
<polygon fill="none" stroke="#000000" points="8,-8 8,-298 868,-298 868,-8 8,-8"/>
<text text-anchor="middle" x="438" y="-14.8" font-family="Times,serif" font-size="14.00" fill="#000000">c428b756&#45;e083&#45;4e81&#45;bb53&#45;8b34c6f5f320</text>
</a>
</g>
</g>
<!-- urn:uuid:726f3014&#45;4707&#45;4b06&#45;9b3e&#45;e442e6e220a5 -->
<g id="node1" class="node">
<title>urn:uuid:726f3014&#45;4707&#45;4b06&#45;9b3e&#45;e442e6e220a5</title>
<g id="a_node1"><a xlink:href="urn:uuid:726f3014-4707-4b06-9b3e-e442e6e220a5" xlink:title="726f3014&#45;4707&#45;4b06&#45;9b3e&#45;e442e6e220a5">
<polygon fill="#9fb1fc" stroke="#0000ff" points="655.3802,-146 402.6198,-146 402.6198,-110 655.3802,-110 655.3802,-146"/>
<text text-anchor="middle" x="529" y="-123.8" font-family="Times,serif" font-size="14.00" fill="#000000">726f3014&#45;4707&#45;4b06&#45;9b3e&#45;e442e6e220a5</text>
</a>
</g>
</g>
<!-- http://openprovenance.org/var#slides -->
<g id="node7" class="node">
<title>http://openprovenance.org/var#slides</title>
<g id="a_node7"><a xlink:href="http://openprovenance.org/var#slides" xlink:title="slides">
<ellipse fill="#fffc87" stroke="#808080" cx="472" cy="-272" rx="30.0035" ry="18"/>
<text text-anchor="middle" x="472" y="-267.8" font-family="Times,serif" font-size="14.00" fill="#000000">slides</text>
</a>
</g>
</g>
<!-- urn:uuid:726f3014&#45;4707&#45;4b06&#45;9b3e&#45;e442e6e220a5&#45;&gt;http://openprovenance.org/var#slides -->
<g id="edge5" class="edge">
<title>urn:uuid:726f3014&#45;4707&#45;4b06&#45;9b3e&#45;e442e6e220a5&#45;&gt;http://openprovenance.org/var#slides</title>
<path fill="none" stroke="#000000" d="M521.3921,-146.4649C517.1211,-156.8828 511.7179,-170.1494 507,-182 498.6152,-203.061 489.3236,-226.9818 482.4223,-244.8659"/>
<polygon fill="#000000" stroke="#000000" points="479.0872,-243.7873 478.7578,-254.377 485.6191,-246.304 479.0872,-243.7873"/>
<text text-anchor="middle" x="530.5703" y="-155.9292" font-family="Times,serif" font-size="8.00" fill="#000000">use</text>
</g>
<!-- bn0 -->
<g id="node10" class="node">
<title>bn0</title>
<ellipse fill="#000000" stroke="#000000" cx="540" cy="-200" rx="1.8" ry="1.8"/>
</g>
<!-- urn:uuid:726f3014&#45;4707&#45;4b06&#45;9b3e&#45;e442e6e220a5&#45;&gt;bn0 -->
<g id="edge6" class="edge">
<title>urn:uuid:726f3014&#45;4707&#45;4b06&#45;9b3e&#45;e442e6e220a5&#45;&gt;bn0</title>
<path fill="none" stroke="#000000" d="M531.7758,-146.1686C534.5762,-164.4986 538.6372,-191.0798 539.724,-198.1932"/>
</g>
<!-- bn1 -->
<g id="node11" class="node">
<title>bn1</title>
<ellipse fill="#000000" stroke="#000000" cx="712" cy="-200" rx="1.8" ry="1.8"/>
</g>
<!-- urn:uuid:726f3014&#45;4707&#45;4b06&#45;9b3e&#45;e442e6e220a5&#45;&gt;bn1 -->
<g id="edge9" class="edge">
<title>urn:uuid:726f3014&#45;4707&#45;4b06&#45;9b3e&#45;e442e6e220a5&#45;&gt;bn1</title>
<path fill="none" stroke="#000000" d="M631.4859,-146.0674C656.4389,-154.044 681.7451,-165.5156 702,-182 707.3235,-186.3325 710.2868,-194.2913 711.4357,-197.9999"/>
</g>
<!-- bn2 -->
<g id="node12" class="node">
<title>bn2</title>
<ellipse fill="#000000" stroke="#000000" cx="518" cy="-200" rx="1.8" ry="1.8"/>
</g>
<!-- urn:uuid:726f3014&#45;4707&#45;4b06&#45;9b3e&#45;e442e6e220a5&#45;&gt;bn2 -->
<g id="edge12" class="edge">
<title>urn:uuid:726f3014&#45;4707&#45;4b06&#45;9b3e&#45;e442e6e220a5&#45;&gt;bn2</title>
<path fill="none" stroke="#000000" d="M526.2242,-146.1686C523.4238,-164.4986 519.3628,-191.0798 518.276,-198.1932"/>
</g>
<!-- &#45;attrs0 -->
<g id="node2" class="node">
<title>&#45;attrs0</title>
<polygon fill="none" stroke="#c0c0c0" points="592,-74 460,-74 460,-38 598,-38 598,-68 592,-74"/>
<polyline fill="none" stroke="#c0c0c0" points="592,-74 592,-68 "/>
<polyline fill="none" stroke="#c0c0c0" points="598,-68 592,-68 "/>
<text text-anchor="start" x="469.5024" y="-53" font-family="Times,serif" font-size="10.00" fill="#000000">type:</text>
<text text-anchor="start" x="490.8989" y="-53" font-family="Times,serif" font-size="10.00" fill="#000000">pic:PresentationActivity</text>
</g>
<!-- &#45;attrs0&#45;&gt;urn:uuid:726f3014&#45;4707&#45;4b06&#45;9b3e&#45;e442e6e220a5 -->
<g id="edge1" class="edge">
<title>&#45;attrs0&#45;&gt;urn:uuid:726f3014&#45;4707&#45;4b06&#45;9b3e&#45;e442e6e220a5</title>
<path fill="none" stroke="#c0c0c0" stroke-dasharray="5,2" d="M529,-74.1686C529,-85 529,-98.7124 529,-109.5867"/>
</g>
<!-- http://www.ipaw.info/data/paper/BythewayTAPP2014 -->
<g id="node3" class="node">
<title>http://www.ipaw.info/data/paper/BythewayTAPP2014</title>
<g id="a_node3"><a xlink:href="http://www.ipaw.info/data/paper/BythewayTAPP2014" xlink:title="BythewayTAPP2014">
<ellipse fill="#fffc87" stroke="#808080" cx="292" cy="-272" rx="84.6449" ry="18"/>
<text text-anchor="middle" x="292" y="-267.8" font-family="Times,serif" font-size="14.00" fill="#000000">BythewayTAPP2014</text>
</a>
</g>
</g>
<!-- &#45;attrs1 -->
<g id="node4" class="node">
<title>&#45;attrs1</title>
<polygon fill="none" stroke="#c0c0c0" points="471.5,-218 16.5,-218 16.5,-182 477.5,-182 477.5,-212 471.5,-218"/>
<polyline fill="none" stroke="#c0c0c0" points="471.5,-218 471.5,-212 "/>
<polyline fill="none" stroke="#c0c0c0" points="477.5,-212 471.5,-212 "/>
<text text-anchor="start" x="27" y="-203" font-family="Times,serif" font-size="10.00" fill="#000000">type:</text>
<text text-anchor="start" x="51" y="-203" font-family="Times,serif" font-size="10.00" fill="#000000">pic:Article</text>
<text text-anchor="start" x="26.894" y="-191" font-family="Times,serif" font-size="10.00" fill="#000000">label:</text>
<text text-anchor="start" x="50.7793" y="-191" font-family="Times,serif" font-size="10.00" fill="#000000">Report From the CoalFace: Lessons Learnt Building A General&#45;Purpose Always&#45;On Provenance System</text>
</g>
<!-- &#45;attrs1&#45;&gt;http://www.ipaw.info/data/paper/BythewayTAPP2014 -->
<g id="edge2" class="edge">
<title>&#45;attrs1&#45;&gt;http://www.ipaw.info/data/paper/BythewayTAPP2014</title>
<path fill="none" stroke="#c0c0c0" stroke-dasharray="5,2" d="M258.3554,-218.1686C265.2291,-229.1666 273.9594,-243.135 280.8041,-254.0866"/>
</g>
<!-- http://www.ipaw.info/tapp14/session4 -->
<g id="node5" class="node">
<title>http://www.ipaw.info/tapp14/session4</title>
<g id="a_node5"><a xlink:href="http://www.ipaw.info/tapp14/session4" xlink:title="session4">
<ellipse fill="#fffc87" stroke="#808080" cx="794" cy="-272" rx="40.1576" ry="18"/>
<text text-anchor="middle" x="794" y="-267.8" font-family="Times,serif" font-size="14.00" fill="#000000">session4</text>
</a>
</g>
</g>
<!-- &#45;attrs2 -->
<g id="node6" class="node">
<title>&#45;attrs2</title>
<polygon fill="none" stroke="#c0c0c0" points="854,-218 732,-218 732,-182 860,-182 860,-212 854,-218"/>
<polyline fill="none" stroke="#c0c0c0" points="854,-218 854,-212 "/>
<polyline fill="none" stroke="#c0c0c0" points="860,-212 854,-212 "/>
<text text-anchor="start" x="741.5024" y="-197" font-family="Times,serif" font-size="10.00" fill="#000000">type:</text>
<text text-anchor="start" x="762.894" y="-197" font-family="Times,serif" font-size="10.00" fill="#000000">pic:ScheduledSession</text>
</g>
<!-- &#45;attrs2&#45;&gt;http://www.ipaw.info/tapp14/session4 -->
<g id="edge3" class="edge">
<title>&#45;attrs2&#45;&gt;http://www.ipaw.info/tapp14/session4</title>
<path fill="none" stroke="#c0c0c0" stroke-dasharray="5,2" d="M795.4953,-218.1686C795.1944,-229 794.8135,-242.7124 794.5115,-253.5867"/>
</g>
<!-- http://www.ipaw.info/data/people/BalakrishnanNikilesh -->
<g id="node8" class="node">
<title>http://www.ipaw.info/data/people/BalakrishnanNikilesh</title>
<g id="a_node8"><a xlink:href="http://www.ipaw.info/data/people/BalakrishnanNikilesh" xlink:title="BalakrishnanNikilesh">
<polygon fill="#fdb266" stroke="#000000" points="734.4231,-277.5623 627,-290 519.5769,-277.5623 519.6772,-257.4377 734.3228,-257.4377 734.4231,-277.5623"/>
<text text-anchor="middle" x="627" y="-267.8" font-family="Times,serif" font-size="14.00" fill="#000000">BalakrishnanNikilesh</text>
</a>
</g>
</g>
<!-- &#45;attrs3 -->
<g id="node9" class="node">
<title>&#45;attrs3</title>
<polygon fill="none" stroke="#c0c0c0" points="686.5,-218 559.5,-218 559.5,-182 692.5,-182 692.5,-212 686.5,-218"/>
<polyline fill="none" stroke="#c0c0c0" points="686.5,-218 686.5,-212 "/>
<polyline fill="none" stroke="#c0c0c0" points="692.5,-212 686.5,-212 "/>
<text text-anchor="start" x="570" y="-203" font-family="Times,serif" font-size="10.00" fill="#000000">type:</text>
<text text-anchor="start" x="594" y="-203" font-family="Times,serif" font-size="10.00" fill="#000000">prov:Person</text>
<text text-anchor="start" x="569.894" y="-191" font-family="Times,serif" font-size="10.00" fill="#000000">label:</text>
<text text-anchor="start" x="593.9248" y="-191" font-family="Times,serif" font-size="10.00" fill="#000000">Nikilesh Balakrishnan</text>
</g>
<!-- &#45;attrs3&#45;&gt;http://www.ipaw.info/data/people/BalakrishnanNikilesh -->
<g id="edge4" class="edge">
<title>&#45;attrs3&#45;&gt;http://www.ipaw.info/data/people/BalakrishnanNikilesh</title>
<path fill="none" stroke="#c0c0c0" stroke-dasharray="5,2" d="M626.2523,-218.1686C626.419,-230.1664 626.6347,-245.6993 626.7916,-256.9941"/>
</g>
<!-- bn0&#45;&gt;http://openprovenance.org/var#slides -->
<g id="edge8" class="edge">
<title>bn0&#45;&gt;http://openprovenance.org/var#slides</title>
<path fill="none" stroke="#000000" d="M539.1108,-201.7877C537.3996,-205.1423 533.4241,-212.5345 529,-218 519.6368,-229.5671 507.8934,-241.0891 497.5027,-250.5009"/>
<polygon fill="#000000" stroke="#000000" points="495.0461,-248.0013 489.8824,-257.2526 499.6883,-253.2406 495.0461,-248.0013"/>
</g>
<!-- bn0&#45;&gt;http://www.ipaw.info/data/people/BalakrishnanNikilesh -->
<g id="edge7" class="edge">
<title>bn0&#45;&gt;http://www.ipaw.info/data/people/BalakrishnanNikilesh</title>
<path fill="none" stroke="#000000" d="M540.8193,-201.8485C542.4139,-205.3044 546.2028,-212.8588 551,-218 562.9568,-230.8143 578.3957,-242.4493 592.2319,-251.6102"/>
<polygon fill="#000000" stroke="#000000" points="590.7332,-254.807 601.04,-257.2603 594.5127,-248.915 590.7332,-254.807"/>
<text text-anchor="middle" x="555.767" y="-200.6997" font-family="Times,serif" font-size="8.00" fill="#000000">assoc</text>
</g>
<!-- bn1&#45;&gt;http://www.ipaw.info/tapp14/session4 -->
<g id="edge11" class="edge">
<title>bn1&#45;&gt;http://www.ipaw.info/tapp14/session4</title>
<path fill="none" stroke="#000000" d="M712.8351,-201.8341C714.456,-205.2658 718.2869,-212.7816 723,-218 734.4098,-230.6332 749.1115,-242.3734 762.1745,-251.6583"/>
<polygon fill="#000000" stroke="#000000" points="760.2541,-254.5856 770.4711,-257.39 764.2329,-248.8263 760.2541,-254.5856"/>
</g>
<!-- bn1&#45;&gt;http://www.ipaw.info/data/people/BalakrishnanNikilesh -->
<g id="edge10" class="edge">
<title>bn1&#45;&gt;http://www.ipaw.info/data/people/BalakrishnanNikilesh</title>
<path fill="none" stroke="#000000" d="M711.2928,-201.8509C709.9058,-205.3107 706.5615,-212.8713 702,-218 690.4539,-230.9817 675.2572,-242.6425 661.5638,-251.7773"/>
<polygon fill="#000000" stroke="#000000" points="659.3443,-249.0439 652.8358,-257.4039 663.1371,-254.9273 659.3443,-249.0439"/>
<text text-anchor="middle" x="720.4603" y="-211.3234" font-family="Times,serif" font-size="8.00" fill="#000000">assoc</text>
</g>
<!-- bn2&#45;&gt;http://www.ipaw.info/data/paper/BythewayTAPP2014 -->
<g id="edge14" class="edge">
<title>bn2&#45;&gt;http://www.ipaw.info/data/paper/BythewayTAPP2014</title>
<path fill="none" stroke="#000000" d="M516.3977,-201.1319C511.9395,-204.2353 498.9324,-212.9816 487,-218 447.0201,-234.8142 400.2461,-247.9704 362.531,-257.086"/>
<polygon fill="#000000" stroke="#000000" points="361.5693,-253.7169 352.6485,-259.4326 363.1866,-260.5276 361.5693,-253.7169"/>
</g>
<!-- bn2&#45;&gt;http://www.ipaw.info/data/people/BalakrishnanNikilesh -->
<g id="edge13" class="edge">
<title>bn2&#45;&gt;http://www.ipaw.info/data/people/BalakrishnanNikilesh</title>
<path fill="none" stroke="#000000" d="M518.7658,-201.9014C520.2712,-205.4454 523.9174,-213.1408 529,-218 543.9462,-232.2894 563.4064,-244.0318 581.0427,-252.8748"/>
<polygon fill="#000000" stroke="#000000" points="579.5386,-256.0352 590.0655,-257.233 582.5832,-249.7319 579.5386,-256.0352"/>
<text text-anchor="middle" x="533.6714" y="-201.1809" font-family="Times,serif" font-size="8.00" fill="#000000">assoc</text>
</g>
</g>
</svg>
