<?xml version="1.0" encoding="UTF-8" standalone="no"?>
<!DOCTYPE svg PUBLIC "-//W3C//DTD SVG 1.1//EN"
 "http://www.w3.org/Graphics/SVG/1.1/DTD/svg11.dtd">
<!-- Generated by graphviz version 2.40.1 (20161225.0304)
 -->
<!-- Title: PROV Pages: 1 -->
<svg width="542pt" height="314pt"
 viewBox="0.00 0.00 542.00 314.00" xmlns="http://www.w3.org/2000/svg" xmlns:xlink="http://www.w3.org/1999/xlink">
<g id="graph0" class="graph" transform="scale(1 1) rotate(0) translate(4 310)">
<title>PROV</title>
<polygon fill="#ffffff" stroke="transparent" points="-4,4 -4,-310 538,-310 538,4 -4,4"/>
<g id="clust1" class="cluster">
<title>clusterurn:uuid:b6a0dfa7&#45;c287&#45;4734&#45;8f2e&#45;de8d90577e8e</title>
<g id="a_clust1"><a xlink:href="urn:uuid:b6a0dfa7-c287-4734-8f2e-de8d90577e8e" xlink:title="b6a0dfa7&#45;c287&#45;4734&#45;8f2e&#45;de8d90577e8e">
<polygon fill="none" stroke="#000000" points="8,-8 8,-298 526,-298 526,-8 8,-8"/>
<text text-anchor="middle" x="267" y="-14.8" font-family="Times,serif" font-size="14.00" fill="#000000">b6a0dfa7&#45;c287&#45;4734&#45;8f2e&#45;de8d90577e8e</text>
</a>
</g>
</g>
<!-- urn:uuid:71c7d335&#45;a567&#45;41ad&#45;ac9a&#45;2a3978fc083a -->
<g id="node1" class="node">
<title>urn:uuid:71c7d335&#45;a567&#45;41ad&#45;ac9a&#45;2a3978fc083a</title>
<g id="a_node1"><a xlink:href="urn:uuid:71c7d335-a567-41ad-ac9a-2a3978fc083a" xlink:title="71c7d335&#45;a567&#45;41ad&#45;ac9a&#45;2a3978fc083a">
<polygon fill="#9fb1fc" stroke="#0000ff" points="341.7355,-146 92.2645,-146 92.2645,-110 341.7355,-110 341.7355,-146"/>
<text text-anchor="middle" x="217" y="-123.8" font-family="Times,serif" font-size="14.00" fill="#000000">71c7d335&#45;a567&#45;41ad&#45;ac9a&#45;2a3978fc083a</text>
</a>
</g>
</g>
<!-- http://openprovenance.org/var#slides -->
<g id="node7" class="node">
<title>http://openprovenance.org/var#slides</title>
<g id="a_node7"><a xlink:href="http://openprovenance.org/var#slides" xlink:title="slides">
<ellipse fill="#fffc87" stroke="#808080" cx="210" cy="-272" rx="30.0035" ry="18"/>
<text text-anchor="middle" x="210" y="-267.8" font-family="Times,serif" font-size="14.00" fill="#000000">slides</text>
</a>
</g>
</g>
<!-- urn:uuid:71c7d335&#45;a567&#45;41ad&#45;ac9a&#45;2a3978fc083a&#45;&gt;http://openprovenance.org/var#slides -->
<g id="edge5" class="edge">
<title>urn:uuid:71c7d335&#45;a567&#45;41ad&#45;ac9a&#45;2a3978fc083a&#45;&gt;http://openprovenance.org/var#slides</title>
<path fill="none" stroke="#000000" d="M207.4092,-146.4398C202.6501,-156.627 197.4131,-169.6814 195,-182 190.9017,-202.9215 195.2584,-226.72 200.3128,-244.588"/>
<polygon fill="#000000" stroke="#000000" points="197.0308,-245.8234 203.3107,-254.3565 203.7227,-243.7697 197.0308,-245.8234"/>
<text text-anchor="middle" x="216.0926" y="-156.2709" font-family="Times,serif" font-size="8.00" fill="#000000">use</text>
</g>
<!-- bn0 -->
<g id="node10" class="node">
<title>bn0</title>
<ellipse fill="#000000" stroke="#000000" cx="228" cy="-200" rx="1.8" ry="1.8"/>
</g>
<!-- urn:uuid:71c7d335&#45;a567&#45;41ad&#45;ac9a&#45;2a3978fc083a&#45;&gt;bn0 -->
<g id="edge6" class="edge">
<title>urn:uuid:71c7d335&#45;a567&#45;41ad&#45;ac9a&#45;2a3978fc083a&#45;&gt;bn0</title>
<path fill="none" stroke="#000000" d="M219.7758,-146.1686C222.5762,-164.4986 226.6372,-191.0798 227.724,-198.1932"/>
</g>
<!-- bn1 -->
<g id="node11" class="node">
<title>bn1</title>
<ellipse fill="#000000" stroke="#000000" cx="370" cy="-200" rx="1.8" ry="1.8"/>
</g>
<!-- urn:uuid:71c7d335&#45;a567&#45;41ad&#45;ac9a&#45;2a3978fc083a&#45;&gt;bn1 -->
<g id="edge9" class="edge">
<title>urn:uuid:71c7d335&#45;a567&#45;41ad&#45;ac9a&#45;2a3978fc083a&#45;&gt;bn1</title>
<path fill="none" stroke="#000000" d="M294.0083,-146.0471C317.0847,-154.2068 341.2217,-165.7815 360,-182 365.1945,-186.4864 368.2223,-194.3682 369.4115,-198.0287"/>
</g>
<!-- bn2 -->
<g id="node12" class="node">
<title>bn2</title>
<ellipse fill="#000000" stroke="#000000" cx="206" cy="-200" rx="1.8" ry="1.8"/>
</g>
<!-- urn:uuid:71c7d335&#45;a567&#45;41ad&#45;ac9a&#45;2a3978fc083a&#45;&gt;bn2 -->
<g id="edge12" class="edge">
<title>urn:uuid:71c7d335&#45;a567&#45;41ad&#45;ac9a&#45;2a3978fc083a&#45;&gt;bn2</title>
<path fill="none" stroke="#000000" d="M214.2242,-146.1686C211.4238,-164.4986 207.3628,-191.0798 206.276,-198.1932"/>
</g>
<!-- &#45;attrs0 -->
<g id="node2" class="node">
<title>&#45;attrs0</title>
<polygon fill="none" stroke="#c0c0c0" points="280,-74 148,-74 148,-38 286,-38 286,-68 280,-74"/>
<polyline fill="none" stroke="#c0c0c0" points="280,-74 280,-68 "/>
<polyline fill="none" stroke="#c0c0c0" points="286,-68 280,-68 "/>
<text text-anchor="start" x="157.5024" y="-53" font-family="Times,serif" font-size="10.00" fill="#000000">type:</text>
<text text-anchor="start" x="178.8989" y="-53" font-family="Times,serif" font-size="10.00" fill="#000000">pic:PresentationActivity</text>
</g>
<!-- &#45;attrs0&#45;&gt;urn:uuid:71c7d335&#45;a567&#45;41ad&#45;ac9a&#45;2a3978fc083a -->
<g id="edge1" class="edge">
<title>&#45;attrs0&#45;&gt;urn:uuid:71c7d335&#45;a567&#45;41ad&#45;ac9a&#45;2a3978fc083a</title>
<path fill="none" stroke="#c0c0c0" stroke-dasharray="5,2" d="M217,-74.1686C217,-85 217,-98.7124 217,-109.5867"/>
</g>
<!-- http://www.ipaw.info/data/paper/BrauerTAPP2014 -->
<g id="node3" class="node">
<title>http://www.ipaw.info/data/paper/BrauerTAPP2014</title>
<g id="a_node3"><a xlink:href="http://www.ipaw.info/data/paper/BrauerTAPP2014" xlink:title="BrauerTAPP2014">
<ellipse fill="#fffc87" stroke="#808080" cx="89" cy="-272" rx="72.5515" ry="18"/>
<text text-anchor="middle" x="89" y="-267.8" font-family="Times,serif" font-size="14.00" fill="#000000">BrauerTAPP2014</text>
</a>
</g>
</g>
<!-- &#45;attrs1 -->
<g id="node4" class="node">
<title>&#45;attrs1</title>
<polygon fill="none" stroke="#c0c0c0" points="160,-218 16,-218 16,-182 166,-182 166,-212 160,-218"/>
<polyline fill="none" stroke="#c0c0c0" points="160,-218 160,-212 "/>
<polyline fill="none" stroke="#c0c0c0" points="166,-212 160,-212 "/>
<text text-anchor="start" x="26" y="-203" font-family="Times,serif" font-size="10.00" fill="#000000">type:</text>
<text text-anchor="start" x="50" y="-203" font-family="Times,serif" font-size="10.00" fill="#000000">pic:Article</text>
<text text-anchor="start" x="25.894" y="-191" font-family="Times,serif" font-size="10.00" fill="#000000">label:</text>
<text text-anchor="start" x="49.9482" y="-191" font-family="Times,serif" font-size="10.00" fill="#000000">Start smart and finish wise</text>
</g>
<!-- &#45;attrs1&#45;&gt;http://www.ipaw.info/data/paper/BrauerTAPP2014 -->
<g id="edge2" class="edge">
<title>&#45;attrs1&#45;&gt;http://www.ipaw.info/data/paper/BrauerTAPP2014</title>
<path fill="none" stroke="#c0c0c0" stroke-dasharray="5,2" d="M90.4953,-218.1686C90.1944,-229 89.8135,-242.7124 89.5115,-253.5867"/>
</g>
<!-- http://www.ipaw.info/tapp14/session4 -->
<g id="node5" class="node">
<title>http://www.ipaw.info/tapp14/session4</title>
<g id="a_node5"><a xlink:href="http://www.ipaw.info/tapp14/session4" xlink:title="session4">
<ellipse fill="#fffc87" stroke="#808080" cx="454" cy="-272" rx="40.1576" ry="18"/>
<text text-anchor="middle" x="454" y="-267.8" font-family="Times,serif" font-size="14.00" fill="#000000">session4</text>
</a>
</g>
</g>
<!-- &#45;attrs2 -->
<g id="node6" class="node">
<title>&#45;attrs2</title>
<polygon fill="none" stroke="#c0c0c0" points="512,-218 390,-218 390,-182 518,-182 518,-212 512,-218"/>
<polyline fill="none" stroke="#c0c0c0" points="512,-218 512,-212 "/>
<polyline fill="none" stroke="#c0c0c0" points="518,-212 512,-212 "/>
<text text-anchor="start" x="399.5024" y="-197" font-family="Times,serif" font-size="10.00" fill="#000000">type:</text>
<text text-anchor="start" x="420.894" y="-197" font-family="Times,serif" font-size="10.00" fill="#000000">pic:ScheduledSession</text>
</g>
<!-- &#45;attrs2&#45;&gt;http://www.ipaw.info/tapp14/session4 -->
<g id="edge3" class="edge">
<title>&#45;attrs2&#45;&gt;http://www.ipaw.info/tapp14/session4</title>
<path fill="none" stroke="#c0c0c0" stroke-dasharray="5,2" d="M454,-218.1686C454,-229 454,-242.7124 454,-253.5867"/>
</g>
<!-- http://www.ipaw.info/data/people/BrauerPeerC -->
<g id="node8" class="node">
<title>http://www.ipaw.info/data/people/BrauerPeerC</title>
<g id="a_node8"><a xlink:href="http://www.ipaw.info/data/people/BrauerPeerC" xlink:title="BrauerPeerC">
<polygon fill="#fdb266" stroke="#000000" points="395.8942,-277.5623 327,-290 258.1058,-277.5623 258.1701,-257.4377 395.8299,-257.4377 395.8942,-277.5623"/>
<text text-anchor="middle" x="327" y="-267.8" font-family="Times,serif" font-size="14.00" fill="#000000">BrauerPeerC</text>
</a>
</g>
</g>
<!-- &#45;attrs3 -->
<g id="node9" class="node">
<title>&#45;attrs3</title>
<polygon fill="none" stroke="#c0c0c0" points="344.5,-218 247.5,-218 247.5,-182 350.5,-182 350.5,-212 344.5,-218"/>
<polyline fill="none" stroke="#c0c0c0" points="344.5,-218 344.5,-212 "/>
<polyline fill="none" stroke="#c0c0c0" points="350.5,-212 344.5,-212 "/>
<text text-anchor="start" x="258" y="-203" font-family="Times,serif" font-size="10.00" fill="#000000">type:</text>
<text text-anchor="start" x="282" y="-203" font-family="Times,serif" font-size="10.00" fill="#000000">prov:Person</text>
<text text-anchor="start" x="257.894" y="-191" font-family="Times,serif" font-size="10.00" fill="#000000">label:</text>
<text text-anchor="start" x="281.9272" y="-191" font-family="Times,serif" font-size="10.00" fill="#000000">Peer C. Brauer</text>
</g>
<!-- &#45;attrs3&#45;&gt;http://www.ipaw.info/data/people/BrauerPeerC -->
<g id="edge4" class="edge">
<title>&#45;attrs3&#45;&gt;http://www.ipaw.info/data/people/BrauerPeerC</title>
<path fill="none" stroke="#c0c0c0" stroke-dasharray="5,2" d="M306.0656,-218.1686C310.7314,-230.1664 316.7719,-245.6993 321.1644,-256.9941"/>
</g>
<!-- bn0&#45;&gt;http://openprovenance.org/var#slides -->
<g id="edge8" class="edge">
<title>bn0&#45;&gt;http://openprovenance.org/var#slides</title>
<path fill="none" stroke="#000000" d="M227.5551,-201.7798C226.0845,-207.6618 221.2334,-227.0662 217.0026,-243.9898"/>
<polygon fill="#000000" stroke="#000000" points="213.5141,-243.5131 214.4841,-254.0634 220.3051,-245.2109 213.5141,-243.5131"/>
</g>
<!-- bn0&#45;&gt;http://www.ipaw.info/data/people/BrauerPeerC -->
<g id="edge7" class="edge">
<title>bn0&#45;&gt;http://www.ipaw.info/data/people/BrauerPeerC</title>
<path fill="none" stroke="#000000" d="M228.7873,-201.8794C230.3287,-205.3866 234.0324,-213.0233 239,-218 252.6554,-231.6805 270.4212,-243.4173 286.4114,-252.4204"/>
<polygon fill="#000000" stroke="#000000" points="285.1187,-255.7013 295.5765,-257.3995 288.4603,-249.5503 285.1187,-255.7013"/>
<text text-anchor="middle" x="243.7115" y="-200.9857" font-family="Times,serif" font-size="8.00" fill="#000000">assoc</text>
</g>
<!-- bn1&#45;&gt;http://www.ipaw.info/tapp14/session4 -->
<g id="edge11" class="edge">
<title>bn1&#45;&gt;http://www.ipaw.info/tapp14/session4</title>
<path fill="none" stroke="#000000" d="M370.8285,-201.84C372.4386,-205.2816 376.2523,-212.8131 381,-218 392.7,-230.7821 407.8114,-242.5433 421.2475,-251.8037"/>
<polygon fill="#000000" stroke="#000000" points="419.5246,-254.8621 429.7823,-257.5136 423.417,-249.0441 419.5246,-254.8621"/>
</g>
<!-- bn1&#45;&gt;http://www.ipaw.info/data/people/BrauerPeerC -->
<g id="edge10" class="edge">
<title>bn1&#45;&gt;http://www.ipaw.info/data/people/BrauerPeerC</title>
<path fill="none" stroke="#000000" d="M369.0857,-201.7007C367.3535,-204.9102 363.457,-212.0704 360,-218 354.0453,-228.214 347.2658,-239.3825 341.4071,-248.8984"/>
<polygon fill="#000000" stroke="#000000" points="338.4135,-247.0847 336.1291,-257.4304 344.3665,-250.7674 338.4135,-247.0847"/>
<text text-anchor="middle" x="376.9446" y="-212.0771" font-family="Times,serif" font-size="8.00" fill="#000000">assoc</text>
</g>
<!-- bn2&#45;&gt;http://www.ipaw.info/data/paper/BrauerTAPP2014 -->
<g id="edge14" class="edge">
<title>bn2&#45;&gt;http://www.ipaw.info/data/paper/BrauerTAPP2014</title>
<path fill="none" stroke="#000000" d="M204.3461,-201.0178C195.7763,-206.2915 155.6468,-230.9866 125.1069,-249.7804"/>
<polygon fill="#000000" stroke="#000000" points="123.0651,-246.9272 116.3828,-255.149 126.7338,-252.8888 123.0651,-246.9272"/>
</g>
<!-- bn2&#45;&gt;http://www.ipaw.info/data/people/BrauerPeerC -->
<g id="edge13" class="edge">
<title>bn2&#45;&gt;http://www.ipaw.info/data/people/BrauerPeerC</title>
<path fill="none" stroke="#000000" d="M206.7445,-201.9242C208.2145,-205.5061 211.804,-213.2623 217,-218 233.4144,-232.9667 254.7381,-244.7077 274.2358,-253.3646"/>
<polygon fill="#000000" stroke="#000000" points="273.0595,-256.6678 283.6313,-257.3672 275.8031,-250.2278 273.0595,-256.6678"/>
<text text-anchor="middle" x="221.6299" y="-201.3751" font-family="Times,serif" font-size="8.00" fill="#000000">assoc</text>
</g>
</g>
</svg>
