<?xml version="1.0" encoding="UTF-8" standalone="no"?>
<!DOCTYPE svg PUBLIC "-//W3C//DTD SVG 1.1//EN"
 "http://www.w3.org/Graphics/SVG/1.1/DTD/svg11.dtd">
<!-- Generated by graphviz version 2.40.1 (20161225.0304)
 -->
<!-- Title: PROV Pages: 1 -->
<svg width="726pt" height="314pt"
 viewBox="0.00 0.00 726.00 314.00" xmlns="http://www.w3.org/2000/svg" xmlns:xlink="http://www.w3.org/1999/xlink">
<g id="graph0" class="graph" transform="scale(1 1) rotate(0) translate(4 310)">
<title>PROV</title>
<polygon fill="#ffffff" stroke="transparent" points="-4,4 -4,-310 722,-310 722,4 -4,4"/>
<g id="clust1" class="cluster">
<title>clusterurn:uuid:1c5122a8&#45;0c3e&#45;4db6&#45;b1a1&#45;a81d169a8382</title>
<g id="a_clust1"><a xlink:href="urn:uuid:1c5122a8-0c3e-4db6-b1a1-a81d169a8382" xlink:title="1c5122a8&#45;0c3e&#45;4db6&#45;b1a1&#45;a81d169a8382">
<polygon fill="none" stroke="#000000" points="8,-8 8,-298 710,-298 710,-8 8,-8"/>
<text text-anchor="middle" x="359" y="-14.8" font-family="Times,serif" font-size="14.00" fill="#000000">1c5122a8&#45;0c3e&#45;4db6&#45;b1a1&#45;a81d169a8382</text>
</a>
</g>
</g>
<!-- urn:uuid:da01668a&#45;27c4&#45;4b0b&#45;b9b7&#45;767fe0ce736e -->
<g id="node1" class="node">
<title>urn:uuid:da01668a&#45;27c4&#45;4b0b&#45;b9b7&#45;767fe0ce736e</title>
<g id="a_node1"><a xlink:href="urn:uuid:da01668a-27c4-4b0b-b9b7-767fe0ce736e" xlink:title="da01668a&#45;27c4&#45;4b0b&#45;b9b7&#45;767fe0ce736e">
<polygon fill="#9fb1fc" stroke="#0000ff" points="534.3077,-146 283.6923,-146 283.6923,-110 534.3077,-110 534.3077,-146"/>
<text text-anchor="middle" x="409" y="-123.8" font-family="Times,serif" font-size="14.00" fill="#000000">da01668a&#45;27c4&#45;4b0b&#45;b9b7&#45;767fe0ce736e</text>
</a>
</g>
</g>
<!-- http://openprovenance.org/var#slides -->
<g id="node7" class="node">
<title>http://openprovenance.org/var#slides</title>
<g id="a_node7"><a xlink:href="http://openprovenance.org/var#slides" xlink:title="slides">
<ellipse fill="#fffc87" stroke="#808080" cx="375" cy="-272" rx="30.0035" ry="18"/>
<text text-anchor="middle" x="375" y="-267.8" font-family="Times,serif" font-size="14.00" fill="#000000">slides</text>
</a>
</g>
</g>
<!-- urn:uuid:da01668a&#45;27c4&#45;4b0b&#45;b9b7&#45;767fe0ce736e&#45;&gt;http://openprovenance.org/var#slides -->
<g id="edge5" class="edge">
<title>urn:uuid:da01668a&#45;27c4&#45;4b0b&#45;b9b7&#45;767fe0ce736e&#45;&gt;http://openprovenance.org/var#slides</title>
<path fill="none" stroke="#000000" d="M400.2763,-146.096C395.6562,-156.3985 390.2756,-169.6726 387,-182 381.611,-202.2811 378.5817,-225.8069 376.9153,-243.7184"/>
<polygon fill="#000000" stroke="#000000" points="373.4173,-243.548 376.0644,-253.8068 380.3925,-244.1364 373.4173,-243.548"/>
<text text-anchor="middle" x="409.1188" y="-155.8125" font-family="Times,serif" font-size="8.00" fill="#000000">use</text>
</g>
<!-- bn0 -->
<g id="node10" class="node">
<title>bn0</title>
<ellipse fill="#000000" stroke="#000000" cx="420" cy="-200" rx="1.8" ry="1.8"/>
</g>
<!-- urn:uuid:da01668a&#45;27c4&#45;4b0b&#45;b9b7&#45;767fe0ce736e&#45;&gt;bn0 -->
<g id="edge6" class="edge">
<title>urn:uuid:da01668a&#45;27c4&#45;4b0b&#45;b9b7&#45;767fe0ce736e&#45;&gt;bn0</title>
<path fill="none" stroke="#000000" d="M411.7758,-146.1686C414.5762,-164.4986 418.6372,-191.0798 419.724,-198.1932"/>
</g>
<!-- bn1 -->
<g id="node11" class="node">
<title>bn1</title>
<ellipse fill="#000000" stroke="#000000" cx="554" cy="-200" rx="1.8" ry="1.8"/>
</g>
<!-- urn:uuid:da01668a&#45;27c4&#45;4b0b&#45;b9b7&#45;767fe0ce736e&#45;&gt;bn1 -->
<g id="edge9" class="edge">
<title>urn:uuid:da01668a&#45;27c4&#45;4b0b&#45;b9b7&#45;767fe0ce736e&#45;&gt;bn1</title>
<path fill="none" stroke="#000000" d="M477.3432,-146.0386C499.9634,-154.3599 524.1465,-166.034 543,-182 548.366,-186.5442 551.8705,-194.3971 553.2874,-198.0395"/>
</g>
<!-- bn2 -->
<g id="node12" class="node">
<title>bn2</title>
<ellipse fill="#000000" stroke="#000000" cx="398" cy="-200" rx="1.8" ry="1.8"/>
</g>
<!-- urn:uuid:da01668a&#45;27c4&#45;4b0b&#45;b9b7&#45;767fe0ce736e&#45;&gt;bn2 -->
<g id="edge12" class="edge">
<title>urn:uuid:da01668a&#45;27c4&#45;4b0b&#45;b9b7&#45;767fe0ce736e&#45;&gt;bn2</title>
<path fill="none" stroke="#000000" d="M406.2242,-146.1686C403.4238,-164.4986 399.3628,-191.0798 398.276,-198.1932"/>
</g>
<!-- &#45;attrs0 -->
<g id="node2" class="node">
<title>&#45;attrs0</title>
<polygon fill="none" stroke="#c0c0c0" points="472,-74 340,-74 340,-38 478,-38 478,-68 472,-74"/>
<polyline fill="none" stroke="#c0c0c0" points="472,-74 472,-68 "/>
<polyline fill="none" stroke="#c0c0c0" points="478,-68 472,-68 "/>
<text text-anchor="start" x="349.5024" y="-53" font-family="Times,serif" font-size="10.00" fill="#000000">type:</text>
<text text-anchor="start" x="370.8989" y="-53" font-family="Times,serif" font-size="10.00" fill="#000000">pic:PresentationActivity</text>
</g>
<!-- &#45;attrs0&#45;&gt;urn:uuid:da01668a&#45;27c4&#45;4b0b&#45;b9b7&#45;767fe0ce736e -->
<g id="edge1" class="edge">
<title>&#45;attrs0&#45;&gt;urn:uuid:da01668a&#45;27c4&#45;4b0b&#45;b9b7&#45;767fe0ce736e</title>
<path fill="none" stroke="#c0c0c0" stroke-dasharray="5,2" d="M409,-74.1686C409,-85 409,-98.7124 409,-109.5867"/>
</g>
<!-- http://www.ipaw.info/data/paper/ArabTAPP2014 -->
<g id="node3" class="node">
<title>http://www.ipaw.info/data/paper/ArabTAPP2014</title>
<g id="a_node3"><a xlink:href="http://www.ipaw.info/data/paper/ArabTAPP2014" xlink:title="ArabTAPP2014">
<ellipse fill="#fffc87" stroke="#808080" cx="222" cy="-272" rx="66.2866" ry="18"/>
<text text-anchor="middle" x="222" y="-267.8" font-family="Times,serif" font-size="14.00" fill="#000000">ArabTAPP2014</text>
</a>
</g>
</g>
<!-- &#45;attrs1 -->
<g id="node4" class="node">
<title>&#45;attrs1</title>
<polygon fill="none" stroke="#c0c0c0" points="352,-218 16,-218 16,-182 358,-182 358,-212 352,-218"/>
<polyline fill="none" stroke="#c0c0c0" points="352,-218 352,-212 "/>
<polyline fill="none" stroke="#c0c0c0" points="358,-212 352,-212 "/>
<text text-anchor="start" x="26" y="-203" font-family="Times,serif" font-size="10.00" fill="#000000">type:</text>
<text text-anchor="start" x="50" y="-203" font-family="Times,serif" font-size="10.00" fill="#000000">pic:Article</text>
<text text-anchor="start" x="25.894" y="-191" font-family="Times,serif" font-size="10.00" fill="#000000">label:</text>
<text text-anchor="start" x="49.5908" y="-191" font-family="Times,serif" font-size="10.00" fill="#000000">A Generic Provenance Middleware for Queries, Updates, and Transactions</text>
</g>
<!-- &#45;attrs1&#45;&gt;http://www.ipaw.info/data/paper/ArabTAPP2014 -->
<g id="edge2" class="edge">
<title>&#45;attrs1&#45;&gt;http://www.ipaw.info/data/paper/ArabTAPP2014</title>
<path fill="none" stroke="#c0c0c0" stroke-dasharray="5,2" d="M195.832,-218.1686C201.1782,-229.1666 207.9684,-243.135 213.2921,-254.0866"/>
</g>
<!-- http://www.ipaw.info/tapp14/session4 -->
<g id="node5" class="node">
<title>http://www.ipaw.info/tapp14/session4</title>
<g id="a_node5"><a xlink:href="http://www.ipaw.info/tapp14/session4" xlink:title="session4">
<ellipse fill="#fffc87" stroke="#808080" cx="626" cy="-272" rx="40.1576" ry="18"/>
<text text-anchor="middle" x="626" y="-267.8" font-family="Times,serif" font-size="14.00" fill="#000000">session4</text>
</a>
</g>
</g>
<!-- &#45;attrs2 -->
<g id="node6" class="node">
<title>&#45;attrs2</title>
<polygon fill="none" stroke="#c0c0c0" points="696,-218 574,-218 574,-182 702,-182 702,-212 696,-218"/>
<polyline fill="none" stroke="#c0c0c0" points="696,-218 696,-212 "/>
<polyline fill="none" stroke="#c0c0c0" points="702,-212 696,-212 "/>
<text text-anchor="start" x="583.5024" y="-197" font-family="Times,serif" font-size="10.00" fill="#000000">type:</text>
<text text-anchor="start" x="604.894" y="-197" font-family="Times,serif" font-size="10.00" fill="#000000">pic:ScheduledSession</text>
</g>
<!-- &#45;attrs2&#45;&gt;http://www.ipaw.info/tapp14/session4 -->
<g id="edge3" class="edge">
<title>&#45;attrs2&#45;&gt;http://www.ipaw.info/tapp14/session4</title>
<path fill="none" stroke="#c0c0c0" stroke-dasharray="5,2" d="M634.9719,-218.1686C633.1667,-229 630.8813,-242.7124 629.0689,-253.5867"/>
</g>
<!-- http://www.ipaw.info/data/people/GlavicBoris -->
<g id="node8" class="node">
<title>http://www.ipaw.info/data/people/GlavicBoris</title>
<g id="a_node8"><a xlink:href="http://www.ipaw.info/data/people/GlavicBoris" xlink:title="GlavicBoris">
<polygon fill="#fdb266" stroke="#000000" points="554.1357,-277.5623 489,-290 423.8643,-277.5623 423.9251,-257.4377 554.0749,-257.4377 554.1357,-277.5623"/>
<text text-anchor="middle" x="489" y="-267.8" font-family="Times,serif" font-size="14.00" fill="#000000">GlavicBoris</text>
</a>
</g>
</g>
<!-- &#45;attrs3 -->
<g id="node9" class="node">
<title>&#45;attrs3</title>
<polygon fill="none" stroke="#c0c0c0" points="528,-218 440,-218 440,-182 534,-182 534,-212 528,-218"/>
<polyline fill="none" stroke="#c0c0c0" points="528,-218 528,-212 "/>
<polyline fill="none" stroke="#c0c0c0" points="534,-212 528,-212 "/>
<text text-anchor="start" x="450" y="-203" font-family="Times,serif" font-size="10.00" fill="#000000">type:</text>
<text text-anchor="start" x="474" y="-203" font-family="Times,serif" font-size="10.00" fill="#000000">prov:Person</text>
<text text-anchor="start" x="449.894" y="-191" font-family="Times,serif" font-size="10.00" fill="#000000">label:</text>
<text text-anchor="start" x="473.5874" y="-191" font-family="Times,serif" font-size="10.00" fill="#000000">Boris Glavic</text>
</g>
<!-- &#45;attrs3&#45;&gt;http://www.ipaw.info/data/people/GlavicBoris -->
<g id="edge4" class="edge">
<title>&#45;attrs3&#45;&gt;http://www.ipaw.info/data/people/GlavicBoris</title>
<path fill="none" stroke="#c0c0c0" stroke-dasharray="5,2" d="M487.5047,-218.1686C487.838,-230.1664 488.2694,-245.6993 488.5832,-256.9941"/>
</g>
<!-- bn0&#45;&gt;http://openprovenance.org/var#slides -->
<g id="edge8" class="edge">
<title>bn0&#45;&gt;http://openprovenance.org/var#slides</title>
<path fill="none" stroke="#000000" d="M418.9763,-201.6921C417.0409,-204.8873 412.7067,-212.0246 409,-218 403.2184,-227.3201 396.8238,-237.5075 391.1549,-246.4975"/>
<polygon fill="#000000" stroke="#000000" points="388.1582,-244.688 385.7775,-255.0119 394.0766,-248.4259 388.1582,-244.688"/>
</g>
<!-- bn0&#45;&gt;http://www.ipaw.info/data/people/GlavicBoris -->
<g id="edge7" class="edge">
<title>bn0&#45;&gt;http://www.ipaw.info/data/people/GlavicBoris</title>
<path fill="none" stroke="#000000" d="M420.8848,-201.7913C422.5886,-205.1519 426.5522,-212.5538 431,-218 440.5007,-229.6334 452.4461,-241.1652 463.0234,-250.5663"/>
<polygon fill="#000000" stroke="#000000" points="460.9375,-253.3905 470.7821,-257.3065 465.5283,-248.106 460.9375,-253.3905"/>
<text text-anchor="middle" x="435.8668" y="-200.1261" font-family="Times,serif" font-size="8.00" fill="#000000">assoc</text>
</g>
<!-- bn1&#45;&gt;http://www.ipaw.info/tapp14/session4 -->
<g id="edge11" class="edge">
<title>bn1&#45;&gt;http://www.ipaw.info/tapp14/session4</title>
<path fill="none" stroke="#000000" d="M554.872,-201.8019C556.5546,-205.18 560.4842,-212.61 565,-218 574.5543,-229.404 586.5557,-240.5533 597.3802,-249.7318"/>
<polygon fill="#000000" stroke="#000000" points="595.4316,-252.6621 605.3683,-256.3381 599.8928,-247.2678 595.4316,-252.6621"/>
</g>
<!-- bn1&#45;&gt;http://www.ipaw.info/data/people/GlavicBoris -->
<g id="edge10" class="edge">
<title>bn1&#45;&gt;http://www.ipaw.info/data/people/GlavicBoris</title>
<path fill="none" stroke="#000000" d="M553.0969,-201.7766C551.3624,-205.1126 547.3499,-212.4752 543,-218 534.0691,-229.3431 522.9658,-240.8065 513.154,-250.2357"/>
<polygon fill="#000000" stroke="#000000" points="510.5104,-247.9175 505.6282,-257.3204 515.3085,-253.0143 510.5104,-247.9175"/>
<text text-anchor="middle" x="561.1036" y="-212.0609" font-family="Times,serif" font-size="8.00" fill="#000000">assoc</text>
</g>
<!-- bn2&#45;&gt;http://www.ipaw.info/data/paper/ArabTAPP2014 -->
<g id="edge14" class="edge">
<title>bn2&#45;&gt;http://www.ipaw.info/data/paper/ArabTAPP2014</title>
<path fill="none" stroke="#000000" d="M396.3736,-201.078C391.8541,-204.0439 378.7047,-212.4713 367,-218 337.1246,-232.1116 302.4849,-245.1286 274.5556,-254.8452"/>
<polygon fill="#000000" stroke="#000000" points="273.2929,-251.5782 264.9753,-258.1408 275.57,-258.1975 273.2929,-251.5782"/>
</g>
<!-- bn2&#45;&gt;http://www.ipaw.info/data/people/GlavicBoris -->
<g id="edge13" class="edge">
<title>bn2&#45;&gt;http://www.ipaw.info/data/people/GlavicBoris</title>
<path fill="none" stroke="#000000" d="M398.8078,-201.8594C400.3832,-205.3334 404.1415,-212.9168 409,-218 421.5604,-231.1414 437.8417,-242.8422 452.4348,-251.9635"/>
<polygon fill="#000000" stroke="#000000" points="450.8867,-255.1176 461.2545,-257.2993 454.5101,-249.1284 450.8867,-255.1176"/>
<text text-anchor="middle" x="413.7476" y="-200.8022" font-family="Times,serif" font-size="8.00" fill="#000000">assoc</text>
</g>
</g>
</svg>
