<?xml version="1.0" encoding="UTF-8" standalone="no"?>
<!DOCTYPE svg PUBLIC "-//W3C//DTD SVG 1.1//EN"
 "http://www.w3.org/Graphics/SVG/1.1/DTD/svg11.dtd">
<!-- Generated by graphviz version 2.40.1 (20161225.0304)
 -->
<!-- Title: PROV Pages: 1 -->
<svg width="414pt" height="242pt"
 viewBox="0.00 0.00 414.00 242.00" xmlns="http://www.w3.org/2000/svg" xmlns:xlink="http://www.w3.org/1999/xlink">
<g id="graph0" class="graph" transform="scale(1 1) rotate(0) translate(4 238)">
<title>PROV</title>
<polygon fill="#ffffff" stroke="transparent" points="-4,4 -4,-238 410,-238 410,4 -4,4"/>
<g id="clust1" class="cluster">
<title>clusterurn:uuid:1a904016&#45;8d9e&#45;4537&#45;8a96&#45;f9ade922226d</title>
<g id="a_clust1"><a xlink:href="urn:uuid:1a904016-8d9e-4537-8a96-f9ade922226d" xlink:title="1a904016&#45;8d9e&#45;4537&#45;8a96&#45;f9ade922226d">
<polygon fill="none" stroke="#000000" points="8,-8 8,-226 398,-226 398,-8 8,-8"/>
<text text-anchor="middle" x="203" y="-14.8" font-family="Times,serif" font-size="14.00" fill="#000000">1a904016&#45;8d9e&#45;4537&#45;8a96&#45;f9ade922226d</text>
</a>
</g>
</g>
<!-- http://www.w3.org/TR/2013/REC&#45;prov&#45;dm&#45;20130430/uml/essentials.png -->
<g id="node1" class="node">
<title>http://www.w3.org/TR/2013/REC&#45;prov&#45;dm&#45;20130430/uml/essentials.png</title>
<g id="a_node1"><a xlink:href="http://www.w3.org/TR/2013/REC-prov-dm-20130430/uml/essentials.png" xlink:title="essentials.png">
<ellipse fill="#fffc87" stroke="#808080" cx="177" cy="-200" rx="59.4513" ry="18"/>
<text text-anchor="middle" x="177" y="-195.8" font-family="Times,serif" font-size="14.00" fill="#000000">essentials.png</text>
</a>
</g>
</g>
<!-- &#45;attrs0 -->
<g id="node2" class="node">
<title>&#45;attrs0</title>
<polygon fill="none" stroke="#c0c0c0" points="384,-146 160,-146 160,-110 390,-110 390,-140 384,-146"/>
<polyline fill="none" stroke="#c0c0c0" points="384,-146 384,-140 "/>
<polyline fill="none" stroke="#c0c0c0" points="390,-140 384,-140 "/>
<text text-anchor="start" x="170" y="-131" font-family="Times,serif" font-size="10.00" fill="#000000">type:</text>
<text text-anchor="start" x="194" y="-131" font-family="Times,serif" font-size="10.00" fill="#000000">pic:Figure</text>
<text text-anchor="start" x="169.894" y="-119" font-family="Times,serif" font-size="10.00" fill="#000000">label:</text>
<text text-anchor="start" x="193.6333" y="-119" font-family="Times,serif" font-size="10.00" fill="#000000">Figure 1: PROV Core Structures (Informative)</text>
</g>
<!-- &#45;attrs0&#45;&gt;http://www.w3.org/TR/2013/REC&#45;prov&#45;dm&#45;20130430/uml/essentials.png -->
<g id="edge1" class="edge">
<title>&#45;attrs0&#45;&gt;http://www.w3.org/TR/2013/REC&#45;prov&#45;dm&#45;20130430/uml/essentials.png</title>
<path fill="none" stroke="#c0c0c0" stroke-dasharray="5,2" d="M250.2705,-146.1686C234.734,-157.5832 214.8423,-172.1975 199.7064,-183.3178"/>
</g>
<!-- http://eprints.soton.ac.uk/361113/13/Summary2.pdf -->
<g id="node3" class="node">
<title>http://eprints.soton.ac.uk/361113/13/Summary2.pdf</title>
<g id="a_node3"><a xlink:href="http://eprints.soton.ac.uk/361113/13/Summary2.pdf" xlink:title="Summary2.pdf">
<ellipse fill="#fffc87" stroke="#808080" cx="79" cy="-128" rx="62.8344" ry="18"/>
<text text-anchor="middle" x="79" y="-123.8" font-family="Times,serif" font-size="14.00" fill="#000000">Summary2.pdf</text>
</a>
</g>
</g>
<!-- http://eprints.soton.ac.uk/361113/13/Summary2.pdf&#45;&gt;http://www.w3.org/TR/2013/REC&#45;prov&#45;dm&#45;20130430/uml/essentials.png -->
<g id="edge3" class="edge">
<title>http://eprints.soton.ac.uk/361113/13/Summary2.pdf&#45;&gt;http://www.w3.org/TR/2013/REC&#45;prov&#45;dm&#45;20130430/uml/essentials.png</title>
<path fill="none" stroke="#000000" d="M102.2246,-145.063C115.2553,-154.6366 131.6858,-166.708 145.8241,-177.0953"/>
<polygon fill="#000000" stroke="#000000" points="144.149,-180.2077 154.2801,-183.3079 148.2936,-174.5665 144.149,-180.2077"/>
<text text-anchor="middle" x="115.96" y="-136.6349" font-family="Times,serif" font-size="8.00" fill="#000000">der</text>
</g>
<!-- &#45;attrs1 -->
<g id="node4" class="node">
<title>&#45;attrs1</title>
<polygon fill="none" stroke="#c0c0c0" points="124.5,-74 27.5,-74 27.5,-38 130.5,-38 130.5,-68 124.5,-74"/>
<polyline fill="none" stroke="#c0c0c0" points="124.5,-74 124.5,-68 "/>
<polyline fill="none" stroke="#c0c0c0" points="130.5,-68 124.5,-68 "/>
<text text-anchor="start" x="38" y="-59" font-family="Times,serif" font-size="10.00" fill="#000000">type:</text>
<text text-anchor="start" x="62" y="-59" font-family="Times,serif" font-size="10.00" fill="#000000">pic:Figure</text>
<text text-anchor="start" x="37.894" y="-47" font-family="Times,serif" font-size="10.00" fill="#000000">label:</text>
<text text-anchor="start" x="61.6416" y="-47" font-family="Times,serif" font-size="10.00" fill="#000000">Summary2.pdf</text>
</g>
<!-- &#45;attrs1&#45;&gt;http://eprints.soton.ac.uk/361113/13/Summary2.pdf -->
<g id="edge2" class="edge">
<title>&#45;attrs1&#45;&gt;http://eprints.soton.ac.uk/361113/13/Summary2.pdf</title>
<path fill="none" stroke="#c0c0c0" stroke-dasharray="5,2" d="M79,-74.1686C79,-85 79,-98.7124 79,-109.5867"/>
</g>
</g>
</svg>
