<?xml version="1.0" encoding="UTF-8" standalone="no"?>
<!DOCTYPE svg PUBLIC "-//W3C//DTD SVG 1.1//EN"
 "http://www.w3.org/Graphics/SVG/1.1/DTD/svg11.dtd">
<!-- Generated by graphviz version 2.40.1 (20161225.0304)
 -->
<!-- Title: PROV Pages: 1 -->
<svg width="471pt" height="242pt"
 viewBox="0.00 0.00 471.00 242.00" xmlns="http://www.w3.org/2000/svg" xmlns:xlink="http://www.w3.org/1999/xlink">
<g id="graph0" class="graph" transform="scale(1 1) rotate(0) translate(4 238)">
<title>PROV</title>
<polygon fill="#ffffff" stroke="transparent" points="-4,4 -4,-238 467,-238 467,4 -4,4"/>
<g id="clust1" class="cluster">
<title>clusterurn:uuid:99079a6b&#45;8f57&#45;414f&#45;a2e8&#45;d1c33b7ca013</title>
<g id="a_clust1"><a xlink:href="urn:uuid:99079a6b-8f57-414f-a2e8-d1c33b7ca013" xlink:title="99079a6b&#45;8f57&#45;414f&#45;a2e8&#45;d1c33b7ca013">
<polygon fill="none" stroke="#000000" points="8,-8 8,-226 455,-226 455,-8 8,-8"/>
<text text-anchor="middle" x="231.5" y="-14.8" font-family="Times,serif" font-size="14.00" fill="#000000">99079a6b&#45;8f57&#45;414f&#45;a2e8&#45;d1c33b7ca013</text>
</a>
</g>
</g>
<!-- https://github.com/lucmoreau/ProvToolbox -->
<g id="node1" class="node">
<title>https://github.com/lucmoreau/ProvToolbox</title>
<g id="a_node1"><a xlink:href="https://github.com/lucmoreau/ProvToolbox" xlink:title="ProvToolbox">
<ellipse fill="#fffc87" stroke="#808080" cx="217" cy="-200" rx="56.3278" ry="18"/>
<text text-anchor="middle" x="217" y="-195.8" font-family="Times,serif" font-size="14.00" fill="#000000">ProvToolbox</text>
</a>
</g>
</g>
<!-- &#45;attrs0 -->
<g id="node2" class="node">
<title>&#45;attrs0</title>
<polygon fill="none" stroke="#c0c0c0" points="440.5,-146 211.5,-146 211.5,-110 446.5,-110 446.5,-140 440.5,-146"/>
<polyline fill="none" stroke="#c0c0c0" points="440.5,-146 440.5,-140 "/>
<polyline fill="none" stroke="#c0c0c0" points="446.5,-140 440.5,-140 "/>
<text text-anchor="start" x="222" y="-131" font-family="Times,serif" font-size="10.00" fill="#000000">type:</text>
<text text-anchor="start" x="246" y="-131" font-family="Times,serif" font-size="10.00" fill="#000000">pic:Code</text>
<text text-anchor="start" x="221.894" y="-119" font-family="Times,serif" font-size="10.00" fill="#000000">label:</text>
<text text-anchor="start" x="245.7554" y="-119" font-family="Times,serif" font-size="10.00" fill="#000000">ProvToolbox GitHub repository (by lucmoreau)</text>
</g>
<!-- &#45;attrs0&#45;&gt;https://github.com/lucmoreau/ProvToolbox -->
<g id="edge1" class="edge">
<title>&#45;attrs0&#45;&gt;https://github.com/lucmoreau/ProvToolbox</title>
<path fill="none" stroke="#c0c0c0" stroke-dasharray="5,2" d="M300.7377,-146.1686C282.7225,-157.7498 259.5835,-172.6249 242.1961,-183.8025"/>
</g>
<!-- https://github.com/matthewgamble/wikipedia&#45;provenance -->
<g id="node3" class="node">
<title>https://github.com/matthewgamble/wikipedia&#45;provenance</title>
<g id="a_node3"><a xlink:href="https://github.com/matthewgamble/wikipedia-provenance" xlink:title="wikipedia&#45;provenance">
<ellipse fill="#fffc87" stroke="#808080" cx="105" cy="-128" rx="88.8583" ry="18"/>
<text text-anchor="middle" x="105" y="-123.8" font-family="Times,serif" font-size="14.00" fill="#000000">wikipedia&#45;provenance</text>
</a>
</g>
</g>
<!-- https://github.com/matthewgamble/wikipedia&#45;provenance&#45;&gt;https://github.com/lucmoreau/ProvToolbox -->
<g id="edge3" class="edge">
<title>https://github.com/matthewgamble/wikipedia&#45;provenance&#45;&gt;https://github.com/lucmoreau/ProvToolbox</title>
<path fill="none" stroke="#000000" d="M131.8268,-145.2458C147.225,-155.1446 166.706,-167.6681 183.1495,-178.239"/>
<polygon fill="#000000" stroke="#000000" points="181.6227,-181.4182 191.9271,-183.8817 185.408,-175.53 181.6227,-181.4182"/>
<text text-anchor="middle" x="145.1603" y="-135.9742" font-family="Times,serif" font-size="8.00" fill="#000000">der</text>
</g>
<!-- &#45;attrs1 -->
<g id="node4" class="node">
<title>&#45;attrs1</title>
<polygon fill="none" stroke="#c0c0c0" points="303.5,-74 16.5,-74 16.5,-38 309.5,-38 309.5,-68 303.5,-74"/>
<polyline fill="none" stroke="#c0c0c0" points="303.5,-74 303.5,-68 "/>
<polyline fill="none" stroke="#c0c0c0" points="309.5,-68 303.5,-68 "/>
<text text-anchor="start" x="27" y="-59" font-family="Times,serif" font-size="10.00" fill="#000000">type:</text>
<text text-anchor="start" x="51" y="-59" font-family="Times,serif" font-size="10.00" fill="#000000">pic:Code</text>
<text text-anchor="start" x="26.894" y="-47" font-family="Times,serif" font-size="10.00" fill="#000000">label:</text>
<text text-anchor="start" x="50.5391" y="-47" font-family="Times,serif" font-size="10.00" fill="#000000">wikipedia&#45;provenance GitHub repository (by matthewgamble)</text>
</g>
<!-- &#45;attrs1&#45;&gt;https://github.com/matthewgamble/wikipedia&#45;provenance -->
<g id="edge2" class="edge">
<title>&#45;attrs1&#45;&gt;https://github.com/matthewgamble/wikipedia&#45;provenance</title>
<path fill="none" stroke="#c0c0c0" stroke-dasharray="5,2" d="M148.3642,-74.1686C139.5047,-85.1666 128.2523,-99.135 119.4302,-110.0866"/>
</g>
</g>
</svg>
