<?xml version="1.0" encoding="UTF-8" standalone="no"?>
<!DOCTYPE svg PUBLIC "-//W3C//DTD SVG 1.1//EN"
 "http://www.w3.org/Graphics/SVG/1.1/DTD/svg11.dtd">
<!-- Generated by graphviz version 2.40.1 (20161225.0304)
 -->
<!-- Title: G Pages: 1 -->
<svg width="252pt" height="440pt"
 viewBox="0.00 0.00 252.00 440.00" xmlns="http://www.w3.org/2000/svg" xmlns:xlink="http://www.w3.org/1999/xlink">
<g id="graph0" class="graph" transform="scale(1 1) rotate(0) translate(4 436)">
<title>G</title>
<polygon fill="#ffffff" stroke="transparent" points="-4,4 -4,-436 248,-436 248,4 -4,4"/>
<g id="clust1" class="cluster">
<title>cluster_c1</title>
<g id="a_clust1"><a xlink:href="http://openprovenance.org/vargen#bundleId" xlink:title="vargen:bundleId">
<polygon fill="none" stroke="#000000" points="8,-8 8,-424 236,-424 236,-8 8,-8"/>
<text text-anchor="middle" x="122" y="-14.8" font-family="Times,serif" font-size="14.00" fill="#000000">vargen:bundleId</text>
</a>
</g>
</g>
<!-- n1 -->
<g id="node1" class="node">
<title>n1</title>
<g id="a_node1"><a xlink:href="http://openprovenance.org/var#tweet" xlink:title="var:tweet">
<ellipse fill="#fffc87" stroke="#808080" cx="185" cy="-167" rx="43.0128" ry="18"/>
<text text-anchor="middle" x="185" y="-162.8" font-family="Times,serif" font-size="14.00" fill="#000000">var:tweet</text>
</a>
</g>
</g>
<!-- b1 -->
<g id="node5" class="node">
<title>b1</title>
<ellipse fill="#c0c0c0" stroke="#c0c0c0" cx="87" cy="-287" rx="1.8" ry="1.8"/>
</g>
<!-- n1&#45;&gt;b1 -->
<g id="edge3" class="edge">
<title>n1&#45;&gt;b1</title>
<path fill="none" stroke="#000000" d="M169.039,-184.0028C150.888,-203.714 120.817,-237.5327 98,-269 93.8723,-274.6926 89.7486,-281.9713 87.9448,-285.2549"/>
<text text-anchor="middle" x="168.7144" y="-224" font-family="Times,serif" font-size="10.00" fill="#000000">wasDerivedFrom</text>
</g>
<!-- ann1 -->
<g id="node2" class="node">
<title>ann1</title>
<polygon fill="none" stroke="#c0c0c0" points="222,-74 98,-74 98,-38 228,-38 228,-68 222,-74"/>
<polyline fill="none" stroke="#c0c0c0" points="222,-74 222,-68 "/>
<polyline fill="none" stroke="#c0c0c0" points="228,-68 222,-68 "/>
<g id="a_node2_0"><a xlink:href="http://www.w3.org/ns/prov#type" xlink:title="&lt;TABLE&gt;">
<text text-anchor="start" x="108" y="-59" font-family="Times,serif" font-size="10.00" fill="#000000">prov:type</text>
</a>
</g>
<g id="a_node2_1"><a xlink:href="http://www.ipaw.info/ns/picaso#Tweet" xlink:title="&lt;TABLE&gt;">
<text text-anchor="start" x="150" y="-59" font-family="Times,serif" font-size="10.00" fill="#000000">pic:Tweet</text>
</a>
</g>
<g id="a_node2_2"><a xlink:href="http://openprovenance.org/tmpl#label" xlink:title="&lt;TABLE&gt;">
<text text-anchor="start" x="107.7266" y="-47" font-family="Times,serif" font-size="10.00" fill="#000000">tmpl:label</text>
</a>
</g>
<g id="a_node2_3"><a xlink:href="http://openprovenance.org/var#tweetContent" xlink:title="&lt;TABLE&gt;">
<text text-anchor="start" x="149.5664" y="-47" font-family="Times,serif" font-size="10.00" fill="#000000">var:tweetContent</text>
</a>
</g>
</g>
<!-- ann1&#45;&gt;n1 -->
<g id="edge1" class="edge">
<title>ann1&#45;&gt;n1</title>
<path fill="none" stroke="#c0c0c0" stroke-dasharray="5,2" d="M166.6329,-74.3294C170.7335,-95.0191 177.3621,-128.4634 181.4347,-149.0117"/>
</g>
<!-- n2 -->
<g id="node3" class="node">
<title>n2</title>
<g id="a_node3"><a xlink:href="http://openprovenance.org/var#work" xlink:title="var:work">
<ellipse fill="#fffc87" stroke="#808080" cx="125" cy="-398" rx="42.0611" ry="18"/>
<text text-anchor="middle" x="125" y="-393.8" font-family="Times,serif" font-size="14.00" fill="#000000">var:work</text>
</a>
</g>
</g>
<!-- ann2 -->
<g id="node4" class="node">
<title>ann2</title>
<polygon fill="none" stroke="#c0c0c0" points="215.5,-305 106.5,-305 106.5,-269 221.5,-269 221.5,-299 215.5,-305"/>
<polyline fill="none" stroke="#c0c0c0" points="215.5,-305 215.5,-299 "/>
<polyline fill="none" stroke="#c0c0c0" points="221.5,-299 215.5,-299 "/>
<g id="a_node4_4"><a xlink:href="http://www.w3.org/ns/prov#type" xlink:title="&lt;TABLE&gt;">
<text text-anchor="start" x="116.8374" y="-284" font-family="Times,serif" font-size="10.00" fill="#000000">prov:type</text>
</a>
</g>
<g id="a_node4_5"><a xlink:href="http://openprovenance.org/var#workType" xlink:title="&lt;TABLE&gt;">
<text text-anchor="start" x="156.5264" y="-284" font-family="Times,serif" font-size="10.00" fill="#000000">var:workType</text>
</a>
</g>
</g>
<!-- ann2&#45;&gt;n2 -->
<g id="edge2" class="edge">
<title>ann2&#45;&gt;n2</title>
<path fill="none" stroke="#c0c0c0" stroke-dasharray="5,2" d="M157.5599,-305.3294C150.2906,-326.0191 138.5399,-359.4634 131.3202,-380.0117"/>
</g>
<!-- b1&#45;&gt;n2 -->
<g id="edge4" class="edge">
<title>b1&#45;&gt;n2</title>
<path fill="none" stroke="#000000" d="M87.6596,-288.9266C90.9215,-298.4549 105.5701,-341.2442 115.5207,-370.3104"/>
<polygon fill="#000000" stroke="#000000" points="112.2677,-371.6148 118.818,-379.9421 118.8904,-369.3475 112.2677,-371.6148"/>
</g>
<!-- ann3 -->
<g id="node6" class="node">
<title>ann3</title>
<polygon fill="none" stroke="#c0c0c0" points="118,-185 16,-185 16,-149 124,-149 124,-179 118,-185"/>
<polyline fill="none" stroke="#c0c0c0" points="118,-185 118,-179 "/>
<polyline fill="none" stroke="#c0c0c0" points="124,-179 118,-179 "/>
<g id="a_node6_6"><a xlink:href="http://www.w3.org/ns/prov#type" xlink:title="&lt;TABLE&gt;">
<text text-anchor="start" x="25.8374" y="-164" font-family="Times,serif" font-size="10.00" fill="#000000">prov:type</text>
</a>
</g>
<g id="a_node6_7"><a xlink:href="http://www.ipaw.info/ns/picaso#Mention" xlink:title="&lt;TABLE&gt;">
<text text-anchor="start" x="65.5591" y="-164" font-family="Times,serif" font-size="10.00" fill="#000000">pic:Mention</text>
</a>
</g>
</g>
<!-- ann3&#45;&gt;b1 -->
<g id="edge5" class="edge">
<title>ann3&#45;&gt;b1</title>
<path fill="none" stroke="#c0c0c0" stroke-dasharray="5,2" d="M72.5819,-185.2254C76.8546,-215.3856 85.0879,-273.5031 86.7163,-284.9971"/>
</g>
</g>
</svg>
