<?xml version="1.0" encoding="UTF-8" standalone="no"?>
<!DOCTYPE svg PUBLIC "-//W3C//DTD SVG 1.1//EN"
 "http://www.w3.org/Graphics/SVG/1.1/DTD/svg11.dtd">
<!-- Generated by graphviz version 2.40.1 (20161225.0304)
 -->
<!-- Title: G Pages: 1 -->
<svg width="282pt" height="440pt"
 viewBox="0.00 0.00 282.00 440.00" xmlns="http://www.w3.org/2000/svg" xmlns:xlink="http://www.w3.org/1999/xlink">
<g id="graph0" class="graph" transform="scale(1 1) rotate(0) translate(4 436)">
<title>G</title>
<polygon fill="#ffffff" stroke="transparent" points="-4,4 -4,-436 278,-436 278,4 -4,4"/>
<g id="clust1" class="cluster">
<title>cluster_c1</title>
<g id="a_clust1"><a xlink:href="http://openprovenance.org/vargen#bundleId" xlink:title="vargen:bundleId">
<polygon fill="none" stroke="#000000" points="8,-8 8,-424 266,-424 266,-8 8,-8"/>
<text text-anchor="middle" x="137" y="-14.8" font-family="Times,serif" font-size="14.00" fill="#000000">vargen:bundleId</text>
</a>
</g>
</g>
<!-- n1 -->
<g id="node1" class="node">
<title>n1</title>
<g id="a_node1"><a xlink:href="http://openprovenance.org/var#author" xlink:title="var:author">
<polygon fill="#fed37f" stroke="#000000" points="204.3257,-403.5623 147,-416 89.6743,-403.5623 89.7278,-383.4377 204.2722,-383.4377 204.3257,-403.5623"/>
<text text-anchor="middle" x="147" y="-393.8" font-family="Times,serif" font-size="14.00" fill="#000000">var:author</text>
</a>
</g>
</g>
<!-- ann1 -->
<g id="node2" class="node">
<title>ann1</title>
<polygon fill="none" stroke="#c0c0c0" points="245,-305 125,-305 125,-269 251,-269 251,-299 245,-305"/>
<polyline fill="none" stroke="#c0c0c0" points="245,-305 245,-299 "/>
<polyline fill="none" stroke="#c0c0c0" points="251,-299 245,-299 "/>
<g id="a_node2_0"><a xlink:href="http://www.w3.org/ns/prov#type" xlink:title="&lt;TABLE&gt;">
<text text-anchor="start" x="135" y="-290" font-family="Times,serif" font-size="10.00" fill="#000000">prov:type</text>
</a>
</g>
<g id="a_node2_1"><a xlink:href="http://openprovenance.org/var#authorType" xlink:title="&lt;TABLE&gt;">
<text text-anchor="start" x="177" y="-290" font-family="Times,serif" font-size="10.00" fill="#000000">var:authorType</text>
</a>
</g>
<g id="a_node2_2"><a xlink:href="http://openprovenance.org/tmpl#label" xlink:title="&lt;TABLE&gt;">
<text text-anchor="start" x="134.7266" y="-278" font-family="Times,serif" font-size="10.00" fill="#000000">tmpl:label</text>
</a>
</g>
<g id="a_node2_3"><a xlink:href="http://openprovenance.org/var#authorName" xlink:title="&lt;TABLE&gt;">
<text text-anchor="start" x="176.5146" y="-278" font-family="Times,serif" font-size="10.00" fill="#000000">var:authorName</text>
</a>
</g>
</g>
<!-- ann1&#45;&gt;n1 -->
<g id="edge1" class="edge">
<title>ann1&#45;&gt;n1</title>
<path fill="none" stroke="#c0c0c0" stroke-dasharray="5,2" d="M181.2297,-305.3294C173.1782,-327.1274 159.8971,-363.0834 152.467,-383.1991"/>
</g>
<!-- n2 -->
<g id="node3" class="node">
<title>n2</title>
<g id="a_node3"><a xlink:href="http://openprovenance.org/var#paper" xlink:title="var:paper">
<ellipse fill="#fffc87" stroke="#808080" cx="215" cy="-167" rx="43.4887" ry="18"/>
<text text-anchor="middle" x="215" y="-162.8" font-family="Times,serif" font-size="14.00" fill="#000000">var:paper</text>
</a>
</g>
</g>
<!-- b1 -->
<g id="node5" class="node">
<title>b1</title>
<ellipse fill="#c0c0c0" stroke="#c0c0c0" cx="105" cy="-287" rx="1.8" ry="1.8"/>
</g>
<!-- n2&#45;&gt;b1 -->
<g id="edge3" class="edge">
<title>n2&#45;&gt;b1</title>
<path fill="none" stroke="#fed37f" d="M196.5792,-183.6032C175.6876,-202.9477 141.2519,-236.4305 116,-269 111.6915,-274.5571 107.6582,-281.9035 105.9109,-285.2295"/>
<text text-anchor="middle" x="188.5327" y="-224" font-family="Times,serif" font-size="10.00" fill="#000000">wasAttributedTo</text>
</g>
<!-- ann2 -->
<g id="node4" class="node">
<title>ann2</title>
<polygon fill="none" stroke="#c0c0c0" points="251.5,-74 138.5,-74 138.5,-38 257.5,-38 257.5,-68 251.5,-74"/>
<polyline fill="none" stroke="#c0c0c0" points="251.5,-74 251.5,-68 "/>
<polyline fill="none" stroke="#c0c0c0" points="257.5,-68 251.5,-68 "/>
<g id="a_node4_4"><a xlink:href="http://www.w3.org/ns/prov#type" xlink:title="&lt;TABLE&gt;">
<text text-anchor="start" x="149" y="-59" font-family="Times,serif" font-size="10.00" fill="#000000">prov:type</text>
</a>
</g>
<g id="a_node4_5"><a xlink:href="http://openprovenance.org/var#paperType" xlink:title="&lt;TABLE&gt;">
<text text-anchor="start" x="190.6987" y="-59" font-family="Times,serif" font-size="10.00" fill="#000000">var:paperType</text>
</a>
</g>
<g id="a_node4_6"><a xlink:href="http://openprovenance.org/tmpl#label" xlink:title="&lt;TABLE&gt;">
<text text-anchor="start" x="148.7266" y="-47" font-family="Times,serif" font-size="10.00" fill="#000000">tmpl:label</text>
</a>
</g>
<g id="a_node4_7"><a xlink:href="http://openprovenance.org/var#title" xlink:title="&lt;TABLE&gt;">
<text text-anchor="start" x="191" y="-47" font-family="Times,serif" font-size="10.00" fill="#000000">var:title</text>
</a>
</g>
</g>
<!-- ann2&#45;&gt;n2 -->
<g id="edge2" class="edge">
<title>ann2&#45;&gt;n2</title>
<path fill="none" stroke="#c0c0c0" stroke-dasharray="5,2" d="M200.8072,-74.3294C203.9759,-95.0191 209.098,-128.4634 212.245,-149.0117"/>
</g>
<!-- b1&#45;&gt;n1 -->
<g id="edge4" class="edge">
<title>b1&#45;&gt;n1</title>
<path fill="none" stroke="#fed37f" d="M105.729,-288.9266C109.4707,-298.8154 126.7681,-344.5299 137.748,-373.5483"/>
<polygon fill="#fed37f" stroke="#fed37f" points="134.5232,-374.9158 141.3357,-383.03 141.0702,-372.4385 134.5232,-374.9158"/>
</g>
<!-- ann3 -->
<g id="node6" class="node">
<title>ann3</title>
<polygon fill="none" stroke="#c0c0c0" points="147.5,-185 16.5,-185 16.5,-149 153.5,-149 153.5,-179 147.5,-185"/>
<polyline fill="none" stroke="#c0c0c0" points="147.5,-185 147.5,-179 "/>
<polyline fill="none" stroke="#c0c0c0" points="153.5,-179 147.5,-179 "/>
<g id="a_node6_8"><a xlink:href="http://www.w3.org/ns/prov#type" xlink:title="&lt;TABLE&gt;">
<text text-anchor="start" x="26.8374" y="-164" font-family="Times,serif" font-size="10.00" fill="#000000">prov:type</text>
</a>
</g>
<g id="a_node6_9"><a xlink:href="http://openprovenance.org/var#attributionType" xlink:title="&lt;TABLE&gt;">
<text text-anchor="start" x="66.9722" y="-164" font-family="Times,serif" font-size="10.00" fill="#000000">var:attributionType</text>
</a>
</g>
</g>
<!-- ann3&#45;&gt;b1 -->
<g id="edge5" class="edge">
<title>ann3&#45;&gt;b1</title>
<path fill="none" stroke="#c0c0c0" stroke-dasharray="5,2" d="M88.0376,-185.2254C93.0643,-215.3856 102.7505,-273.5031 104.6662,-284.9971"/>
</g>
</g>
</svg>
