<?xml version="1.0" encoding="UTF-8" standalone="no"?>
<!DOCTYPE svg PUBLIC "-//W3C//DTD SVG 1.1//EN"
 "http://www.w3.org/Graphics/SVG/1.1/DTD/svg11.dtd">
<!-- Generated by graphviz version 2.40.1 (20161225.0304)
 -->
<!-- Title: G Pages: 1 -->
<svg width="282pt" height="450pt"
 viewBox="0.00 0.00 282.00 450.00" xmlns="http://www.w3.org/2000/svg" xmlns:xlink="http://www.w3.org/1999/xlink">
<g id="graph0" class="graph" transform="scale(1 1) rotate(0) translate(4 446)">
<title>G</title>
<polygon fill="#ffffff" stroke="transparent" points="-4,4 -4,-446 278,-446 278,4 -4,4"/>
<g id="clust1" class="cluster">
<title>cluster_c1</title>
<g id="a_clust1"><a xlink:href="http://openprovenance.org/vargen#bundleId" xlink:title="vargen:bundleId">
<polygon fill="none" stroke="#000000" points="8,-8 8,-434 266,-434 266,-8 8,-8"/>
<text text-anchor="middle" x="137" y="-14.8" font-family="Times,serif" font-size="14.00" fill="#000000">vargen:bundleId</text>
</a>
</g>
</g>
<!-- n1 -->
<g id="node1" class="node">
<title>n1</title>
<g id="a_node1"><a xlink:href="http://openprovenance.org/var#author" xlink:title="var:author">
<polygon fill="#fed37f" stroke="#000000" points="204.3257,-413.5623 147,-426 89.6743,-413.5623 89.7278,-393.4377 204.2722,-393.4377 204.3257,-413.5623"/>
<text text-anchor="middle" x="147" y="-403.8" font-family="Times,serif" font-size="14.00" fill="#000000">var:author</text>
</a>
</g>
</g>
<!-- ann1 -->
<g id="node2" class="node">
<title>ann1</title>
<polygon fill="none" stroke="#c0c0c0" points="245,-315 125,-315 125,-279 251,-279 251,-309 245,-315"/>
<polyline fill="none" stroke="#c0c0c0" points="245,-315 245,-309 "/>
<polyline fill="none" stroke="#c0c0c0" points="251,-309 245,-309 "/>
<g id="a_node2_0"><a xlink:href="http://www.w3.org/ns/prov#type" xlink:title="&lt;TABLE&gt;">
<text text-anchor="start" x="135" y="-300" font-family="Times,serif" font-size="10.00" fill="#000000">prov:type</text>
</a>
</g>
<g id="a_node2_1"><a xlink:href="http://openprovenance.org/var#authorType" xlink:title="&lt;TABLE&gt;">
<text text-anchor="start" x="177" y="-300" font-family="Times,serif" font-size="10.00" fill="#000000">var:authorType</text>
</a>
</g>
<g id="a_node2_2"><a xlink:href="http://openprovenance.org/tmpl#label" xlink:title="&lt;TABLE&gt;">
<text text-anchor="start" x="134.7266" y="-288" font-family="Times,serif" font-size="10.00" fill="#000000">tmpl:label</text>
</a>
</g>
<g id="a_node2_3"><a xlink:href="http://openprovenance.org/var#authorName" xlink:title="&lt;TABLE&gt;">
<text text-anchor="start" x="176.5146" y="-288" font-family="Times,serif" font-size="10.00" fill="#000000">var:authorName</text>
</a>
</g>
</g>
<!-- ann1&#45;&gt;n1 -->
<g id="edge1" class="edge">
<title>ann1&#45;&gt;n1</title>
<path fill="none" stroke="#c0c0c0" stroke-dasharray="5,2" d="M181.2297,-315.3294C173.1782,-337.1274 159.8971,-373.0834 152.467,-393.1991"/>
</g>
<!-- n2 -->
<g id="node3" class="node">
<title>n2</title>
<g id="a_node3"><a xlink:href="http://openprovenance.org/var#paper" xlink:title="var:paper">
<ellipse fill="#fffc87" stroke="#808080" cx="215" cy="-177" rx="43.4887" ry="18"/>
<text text-anchor="middle" x="215" y="-172.8" font-family="Times,serif" font-size="14.00" fill="#000000">var:paper</text>
</a>
</g>
</g>
<!-- b1 -->
<g id="node5" class="node">
<title>b1</title>
<ellipse fill="#c0c0c0" stroke="#c0c0c0" cx="105" cy="-297" rx="1.8" ry="1.8"/>
</g>
<!-- n2&#45;&gt;b1 -->
<g id="edge3" class="edge">
<title>n2&#45;&gt;b1</title>
<path fill="none" stroke="#fed37f" d="M196.5792,-193.6032C175.6876,-212.9477 141.2519,-246.4305 116,-279 111.6915,-284.5571 107.6582,-291.9035 105.9109,-295.2295"/>
<text text-anchor="middle" x="188.5327" y="-234" font-family="Times,serif" font-size="10.00" fill="#000000">wasAttributedTo</text>
</g>
<!-- ann2 -->
<g id="node4" class="node">
<title>ann2</title>
<polygon fill="none" stroke="#c0c0c0" points="251.5,-84 138.5,-84 138.5,-38 257.5,-38 257.5,-78 251.5,-84"/>
<polyline fill="none" stroke="#c0c0c0" points="251.5,-84 251.5,-78 "/>
<polyline fill="none" stroke="#c0c0c0" points="257.5,-78 251.5,-78 "/>
<g id="a_node4_4"><a xlink:href="http://www.w3.org/ns/prov#type" xlink:title="&lt;TABLE&gt;">
<text text-anchor="start" x="149" y="-70" font-family="Times,serif" font-size="10.00" fill="#000000">prov:type</text>
</a>
</g>
<g id="a_node4_5"><a xlink:href="http://openprovenance.org/var#paperType" xlink:title="&lt;TABLE&gt;">
<text text-anchor="start" x="190.6987" y="-70" font-family="Times,serif" font-size="10.00" fill="#000000">var:paperType</text>
</a>
</g>
<g id="a_node4_6"><a xlink:href="http://www.ipaw.info/ns/picaso#year" xlink:title="&lt;TABLE&gt;">
<text text-anchor="start" x="149" y="-58" font-family="Times,serif" font-size="10.00" fill="#000000">pic:year</text>
</a>
</g>
<g id="a_node4_7"><a xlink:href="http://openprovenance.org/var#year" xlink:title="&lt;TABLE&gt;">
<text text-anchor="start" x="191" y="-58" font-family="Times,serif" font-size="10.00" fill="#000000">var:year</text>
</a>
</g>
<g id="a_node4_8"><a xlink:href="http://openprovenance.org/tmpl#label" xlink:title="&lt;TABLE&gt;">
<text text-anchor="start" x="148.7266" y="-46" font-family="Times,serif" font-size="10.00" fill="#000000">tmpl:label</text>
</a>
</g>
<g id="a_node4_9"><a xlink:href="http://openprovenance.org/var#title" xlink:title="&lt;TABLE&gt;">
<text text-anchor="start" x="191" y="-46" font-family="Times,serif" font-size="10.00" fill="#000000">var:title</text>
</a>
</g>
</g>
<!-- ann2&#45;&gt;n2 -->
<g id="edge2" class="edge">
<title>ann2&#45;&gt;n2</title>
<path fill="none" stroke="#c0c0c0" stroke-dasharray="5,2" d="M201.3993,-84.1955C204.6163,-106.1463 209.3799,-138.6513 212.3318,-158.7933"/>
</g>
<!-- b1&#45;&gt;n1 -->
<g id="edge4" class="edge">
<title>b1&#45;&gt;n1</title>
<path fill="none" stroke="#fed37f" d="M105.729,-298.9266C109.4707,-308.8154 126.7681,-354.5299 137.748,-383.5483"/>
<polygon fill="#fed37f" stroke="#fed37f" points="134.5232,-384.9158 141.3357,-393.03 141.0702,-382.4385 134.5232,-384.9158"/>
</g>
<!-- ann3 -->
<g id="node6" class="node">
<title>ann3</title>
<polygon fill="none" stroke="#c0c0c0" points="147.5,-195 16.5,-195 16.5,-159 153.5,-159 153.5,-189 147.5,-195"/>
<polyline fill="none" stroke="#c0c0c0" points="147.5,-195 147.5,-189 "/>
<polyline fill="none" stroke="#c0c0c0" points="153.5,-189 147.5,-189 "/>
<g id="a_node6_10"><a xlink:href="http://www.w3.org/ns/prov#type" xlink:title="&lt;TABLE&gt;">
<text text-anchor="start" x="26.8374" y="-174" font-family="Times,serif" font-size="10.00" fill="#000000">prov:type</text>
</a>
</g>
<g id="a_node6_11"><a xlink:href="http://openprovenance.org/var#attributionType" xlink:title="&lt;TABLE&gt;">
<text text-anchor="start" x="66.9722" y="-174" font-family="Times,serif" font-size="10.00" fill="#000000">var:attributionType</text>
</a>
</g>
</g>
<!-- ann3&#45;&gt;b1 -->
<g id="edge5" class="edge">
<title>ann3&#45;&gt;b1</title>
<path fill="none" stroke="#c0c0c0" stroke-dasharray="5,2" d="M88.0376,-195.2254C93.0643,-225.3856 102.7505,-283.5031 104.6662,-294.9971"/>
</g>
</g>
</svg>
