<?xml version="1.0" encoding="UTF-8" standalone="no"?>
<!DOCTYPE svg PUBLIC "-//W3C//DTD SVG 1.1//EN"
 "http://www.w3.org/Graphics/SVG/1.1/DTD/svg11.dtd">
<!-- Generated by graphviz version 2.40.1 (20161225.0304)
 -->
<!-- Title: G Pages: 1 -->
<svg width="578pt" height="440pt"
 viewBox="0.00 0.00 578.00 440.00" xmlns="http://www.w3.org/2000/svg" xmlns:xlink="http://www.w3.org/1999/xlink">
<g id="graph0" class="graph" transform="scale(1 1) rotate(0) translate(4 436)">
<title>G</title>
<polygon fill="#ffffff" stroke="transparent" points="-4,4 -4,-436 574,-436 574,4 -4,4"/>
<g id="clust1" class="cluster">
<title>cluster_c1</title>
<g id="a_clust1"><a xlink:href="http://openprovenance.org/vargen#bundleId" xlink:title="vargen:bundleId">
<polygon fill="none" stroke="#000000" points="8,-8 8,-424 562,-424 562,-8 8,-8"/>
<text text-anchor="middle" x="285" y="-14.8" font-family="Times,serif" font-size="14.00" fill="#000000">vargen:bundleId</text>
</a>
</g>
</g>
<!-- n1 -->
<g id="node1" class="node">
<title>n1</title>
<g id="a_node1"><a xlink:href="http://openprovenance.org/vargen#presenting" xlink:title="vargen:presenting">
<polygon fill="#9fb1fc" stroke="#0000ff" points="339.0508,-185 222.9492,-185 222.9492,-149 339.0508,-149 339.0508,-185"/>
<text text-anchor="middle" x="281" y="-162.8" font-family="Times,serif" font-size="14.00" fill="#000000">vargen:presenting</text>
</a>
</g>
</g>
<!-- n4 -->
<g id="node7" class="node">
<title>n4</title>
<g id="a_node7"><a xlink:href="http://openprovenance.org/var#slides" xlink:title="var:slides">
<ellipse fill="#fffc87" stroke="#808080" cx="291" cy="-398" rx="43.9992" ry="18"/>
<text text-anchor="middle" x="291" y="-393.8" font-family="Times,serif" font-size="14.00" fill="#000000">var:slides</text>
</a>
</g>
</g>
<!-- n1&#45;&gt;n4 -->
<g id="edge5" class="edge">
<title>n1&#45;&gt;n4</title>
<path fill="none" stroke="#8b0000" d="M231.0851,-185.0229C214.4163,-194.4678 200,-208.0997 200,-227 200,-227 200,-227 200,-342.5 200,-364.9063 220.3573,-378.533 241.8149,-386.6728"/>
<polygon fill="#8b0000" stroke="#8b0000" points="240.7562,-390.0097 251.3508,-389.9366 243.023,-383.3869 240.7562,-390.0097"/>
<text text-anchor="middle" x="209.165" y="-284" font-family="Times,serif" font-size="10.00" fill="#ff0000">used</text>
</g>
<!-- b1 -->
<g id="node9" class="node">
<title>b1</title>
<ellipse fill="#c0c0c0" stroke="#c0c0c0" cx="374" cy="-287" rx="1.8" ry="1.8"/>
</g>
<!-- n1&#45;&gt;b1 -->
<g id="edge6" class="edge">
<title>n1&#45;&gt;b1</title>
<path fill="none" stroke="#fed37f" d="M280.9312,-185.215C281.7532,-199.2612 284.8781,-218.5052 294.9717,-232 315.5861,-259.561 338.0576,-245.2842 363,-269 368.0959,-273.8453 371.7354,-281.5476 373.2367,-285.096"/>
<text text-anchor="middle" x="333.5142" y="-224" font-family="Times,serif" font-size="10.00" fill="#000000">wasAssociatedWith</text>
</g>
<!-- b2 -->
<g id="node10" class="node">
<title>b2</title>
<ellipse fill="#c0c0c0" stroke="#c0c0c0" cx="396" cy="-287" rx="1.8" ry="1.8"/>
</g>
<!-- n1&#45;&gt;b2 -->
<g id="edge9" class="edge">
<title>n1&#45;&gt;b2</title>
<path fill="none" stroke="#fed37f" d="M325.5127,-185.1177C342.691,-194.02 361.2372,-206.2671 374,-222 390.8122,-242.7247 395.0468,-276.9468 395.8428,-285.1785"/>
<text text-anchor="middle" x="419.5142" y="-224" font-family="Times,serif" font-size="10.00" fill="#000000">wasAssociatedWith</text>
</g>
<!-- ann1 -->
<g id="node2" class="node">
<title>ann1</title>
<polygon fill="none" stroke="#c0c0c0" points="353.5,-74 202.5,-74 202.5,-38 359.5,-38 359.5,-68 353.5,-74"/>
<polyline fill="none" stroke="#c0c0c0" points="353.5,-74 353.5,-68 "/>
<polyline fill="none" stroke="#c0c0c0" points="359.5,-68 353.5,-68 "/>
<g id="a_node2_0"><a xlink:href="http://www.w3.org/ns/prov#type" xlink:title="&lt;TABLE&gt;">
<text text-anchor="start" x="212.8374" y="-53" font-family="Times,serif" font-size="10.00" fill="#000000">prov:type</text>
</a>
</g>
<g id="a_node2_1"><a xlink:href="http://www.ipaw.info/ns/picaso#PresentationActivity" xlink:title="&lt;TABLE&gt;">
<text text-anchor="start" x="252.8989" y="-53" font-family="Times,serif" font-size="10.00" fill="#000000">pic:PresentationActivity</text>
</a>
</g>
</g>
<!-- ann1&#45;&gt;n1 -->
<g id="edge1" class="edge">
<title>ann1&#45;&gt;n1</title>
<path fill="none" stroke="#c0c0c0" stroke-dasharray="5,2" d="M281,-74.3294C281,-94.8959 281,-128.0657 281,-148.6434"/>
</g>
<!-- n2 -->
<g id="node3" class="node">
<title>n2</title>
<g id="a_node3"><a xlink:href="http://openprovenance.org/var#presenter" xlink:title="var:presenter">
<polygon fill="#fed37f" stroke="#000000" points="492.5898,-403.5623 423,-416 353.4102,-403.5623 353.4752,-383.4377 492.5248,-383.4377 492.5898,-403.5623"/>
<text text-anchor="middle" x="423" y="-393.8" font-family="Times,serif" font-size="14.00" fill="#000000">var:presenter</text>
</a>
</g>
</g>
<!-- ann2 -->
<g id="node4" class="node">
<title>ann2</title>
<polygon fill="none" stroke="#c0c0c0" points="548,-305 416,-305 416,-269 554,-269 554,-299 548,-305"/>
<polyline fill="none" stroke="#c0c0c0" points="548,-305 548,-299 "/>
<polyline fill="none" stroke="#c0c0c0" points="554,-299 548,-299 "/>
<g id="a_node4_2"><a xlink:href="http://www.w3.org/ns/prov#type" xlink:title="&lt;TABLE&gt;">
<text text-anchor="start" x="426" y="-290" font-family="Times,serif" font-size="10.00" fill="#000000">prov:type</text>
</a>
</g>
<g id="a_node4_3"><a xlink:href="http://openprovenance.org/var#presenterType" xlink:title="&lt;TABLE&gt;">
<text text-anchor="start" x="468" y="-290" font-family="Times,serif" font-size="10.00" fill="#000000">var:presenterType</text>
</a>
</g>
<g id="a_node4_4"><a xlink:href="http://openprovenance.org/tmpl#label" xlink:title="&lt;TABLE&gt;">
<text text-anchor="start" x="425.7266" y="-278" font-family="Times,serif" font-size="10.00" fill="#000000">tmpl:label</text>
</a>
</g>
<g id="a_node4_5"><a xlink:href="http://openprovenance.org/var#presenterName" xlink:title="&lt;TABLE&gt;">
<text text-anchor="start" x="467.9653" y="-278" font-family="Times,serif" font-size="10.00" fill="#000000">var:presenterName</text>
</a>
</g>
</g>
<!-- ann2&#45;&gt;n2 -->
<g id="edge2" class="edge">
<title>ann2&#45;&gt;n2</title>
<path fill="none" stroke="#c0c0c0" stroke-dasharray="5,2" d="M474.762,-305.3294C462.5865,-327.1274 442.503,-363.0834 431.2672,-383.1991"/>
</g>
<!-- n3 -->
<g id="node5" class="node">
<title>n3</title>
<g id="a_node5"><a xlink:href="http://openprovenance.org/var#session" xlink:title="var:session">
<ellipse fill="#fffc87" stroke="#808080" cx="135" cy="-398" rx="49.3119" ry="18"/>
<text text-anchor="middle" x="135" y="-393.8" font-family="Times,serif" font-size="14.00" fill="#000000">var:session</text>
</a>
</g>
</g>
<!-- ann3 -->
<g id="node6" class="node">
<title>ann3</title>
<polygon fill="none" stroke="#c0c0c0" points="157.5,-305 16.5,-305 16.5,-269 163.5,-269 163.5,-299 157.5,-305"/>
<polyline fill="none" stroke="#c0c0c0" points="157.5,-305 157.5,-299 "/>
<polyline fill="none" stroke="#c0c0c0" points="163.5,-299 157.5,-299 "/>
<g id="a_node6_6"><a xlink:href="http://www.w3.org/ns/prov#type" xlink:title="&lt;TABLE&gt;">
<text text-anchor="start" x="26.8374" y="-284" font-family="Times,serif" font-size="10.00" fill="#000000">prov:type</text>
</a>
</g>
<g id="a_node6_7"><a xlink:href="http://www.ipaw.info/ns/picaso#ScheduledSession" xlink:title="&lt;TABLE&gt;">
<text text-anchor="start" x="66.894" y="-284" font-family="Times,serif" font-size="10.00" fill="#000000">pic:ScheduledSession</text>
</a>
</g>
</g>
<!-- ann3&#45;&gt;n3 -->
<g id="edge3" class="edge">
<title>ann3&#45;&gt;n3</title>
<path fill="none" stroke="#c0c0c0" stroke-dasharray="5,2" d="M97.4308,-305.3294C105.8185,-326.0191 119.3771,-359.4634 127.7074,-380.0117"/>
</g>
<!-- ann4 -->
<g id="node8" class="node">
<title>ann4</title>
<polygon fill="none" stroke="#c0c0c0" points="348,-305 236,-305 236,-269 354,-269 354,-299 348,-305"/>
<polyline fill="none" stroke="#c0c0c0" points="348,-305 348,-299 "/>
<polyline fill="none" stroke="#c0c0c0" points="354,-299 348,-299 "/>
<g id="a_node8_8"><a xlink:href="http://www.w3.org/ns/prov#type" xlink:title="&lt;TABLE&gt;">
<text text-anchor="start" x="245.8374" y="-284" font-family="Times,serif" font-size="10.00" fill="#000000">prov:type</text>
</a>
</g>
<g id="a_node8_9"><a xlink:href="http://openprovenance.org/var#slidesType" xlink:title="&lt;TABLE&gt;">
<text text-anchor="start" x="285.9131" y="-284" font-family="Times,serif" font-size="10.00" fill="#000000">var:slidesType</text>
</a>
</g>
</g>
<!-- ann4&#45;&gt;n4 -->
<g id="edge4" class="edge">
<title>ann4&#45;&gt;n4</title>
<path fill="none" stroke="#c0c0c0" stroke-dasharray="5,2" d="M294.3395,-305.3294C293.5983,-325.8959 292.403,-359.0657 291.6615,-379.6434"/>
</g>
<!-- b1&#45;&gt;n2 -->
<g id="edge7" class="edge">
<title>b1&#45;&gt;n2</title>
<path fill="none" stroke="#fed37f" d="M374.7268,-288.6994C376.9766,-293.9561 384.0341,-310.4155 390,-324 397.3532,-340.7433 405.7481,-359.5643 412.2306,-374.0352"/>
<polygon fill="#fed37f" stroke="#fed37f" points="409.0908,-375.5875 416.3766,-383.2796 415.4779,-372.7229 409.0908,-375.5875"/>
</g>
<!-- b1&#45;&gt;n3 -->
<g id="edge8" class="edge">
<title>b1&#45;&gt;n3</title>
<path fill="none" stroke="#c0c0c0" d="M373.2856,-288.9583C371.8657,-292.5972 368.3565,-300.4445 363,-305 311.9694,-348.4003 237.982,-373.5146 188.2638,-386.4676"/>
<polygon fill="#c0c0c0" stroke="#c0c0c0" points="187.1864,-383.1298 178.349,-388.9736 188.9018,-389.9163 187.1864,-383.1298"/>
</g>
<!-- b2&#45;&gt;n2 -->
<g id="edge10" class="edge">
<title>b2&#45;&gt;n2</title>
<path fill="none" stroke="#fed37f" d="M396.4686,-288.9266C398.8635,-298.7722 409.8968,-344.1313 416.9596,-373.1672"/>
<polygon fill="#fed37f" stroke="#fed37f" points="413.5942,-374.1406 419.3587,-383.03 420.3959,-372.4861 413.5942,-374.1406"/>
</g>
<!-- b2&#45;&gt;n4 -->
<g id="edge11" class="edge">
<title>b2&#45;&gt;n4</title>
<path fill="none" stroke="#c0c0c0" d="M396.1587,-288.8552C396.5564,-294.5602 397.103,-312.1731 390,-324 375.5961,-347.9834 350.1864,-366.7313 328.7167,-379.3559"/>
<polygon fill="#c0c0c0" stroke="#c0c0c0" points="326.7882,-376.4253 319.8002,-384.389 330.2292,-382.5212 326.7882,-376.4253"/>
</g>
</g>
</svg>
