<?xml version="1.0" encoding="UTF-8" standalone="no"?>
<!DOCTYPE svg PUBLIC "-//W3C//DTD SVG 1.1//EN"
 "http://www.w3.org/Graphics/SVG/1.1/DTD/svg11.dtd">
<!-- Generated by graphviz version 2.40.1 (20161225.0304)
 -->
<!-- Title: G Pages: 1 -->
<svg width="735pt" height="440pt"
 viewBox="0.00 0.00 735.00 440.00" xmlns="http://www.w3.org/2000/svg" xmlns:xlink="http://www.w3.org/1999/xlink">
<g id="graph0" class="graph" transform="scale(1 1) rotate(0) translate(4 436)">
<title>G</title>
<polygon fill="#ffffff" stroke="transparent" points="-4,4 -4,-436 731,-436 731,4 -4,4"/>
<g id="clust1" class="cluster">
<title>cluster_c1</title>
<g id="a_clust1"><a xlink:href="http://openprovenance.org/vargen#bundleId" xlink:title="vargen:bundleId">
<polygon fill="none" stroke="#000000" points="8,-8 8,-424 719,-424 719,-8 8,-8"/>
<text text-anchor="middle" x="363.5" y="-14.8" font-family="Times,serif" font-size="14.00" fill="#000000">vargen:bundleId</text>
</a>
</g>
</g>
<!-- n1 -->
<g id="node1" class="node">
<title>n1</title>
<g id="a_node1"><a xlink:href="http://openprovenance.org/vargen#presenting" xlink:title="vargen:presenting">
<polygon fill="#9fb1fc" stroke="#0000ff" points="345.0508,-185 228.9492,-185 228.9492,-149 345.0508,-149 345.0508,-185"/>
<text text-anchor="middle" x="287" y="-162.8" font-family="Times,serif" font-size="14.00" fill="#000000">vargen:presenting</text>
</a>
</g>
</g>
<!-- n5 -->
<g id="node9" class="node">
<title>n5</title>
<g id="a_node9"><a xlink:href="http://openprovenance.org/var#slides" xlink:title="var:slides">
<ellipse fill="#fffc87" stroke="#808080" cx="170" cy="-398" rx="43.9992" ry="18"/>
<text text-anchor="middle" x="170" y="-393.8" font-family="Times,serif" font-size="14.00" fill="#000000">var:slides</text>
</a>
</g>
</g>
<!-- n1&#45;&gt;n5 -->
<g id="edge6" class="edge">
<title>n1&#45;&gt;n5</title>
<path fill="none" stroke="#8b0000" d="M228.8428,-174.9955C199.479,-182.6636 170,-197.6664 170,-227 170,-227 170,-227 170,-342.5 170,-351.2682 170,-360.8157 170,-369.4804"/>
<polygon fill="#8b0000" stroke="#8b0000" points="166.5001,-369.5 170,-379.5 173.5001,-369.5 166.5001,-369.5"/>
<text text-anchor="middle" x="179.165" y="-284" font-family="Times,serif" font-size="10.00" fill="#ff0000">used</text>
</g>
<!-- b1 -->
<g id="node11" class="node">
<title>b1</title>
<ellipse fill="#c0c0c0" stroke="#c0c0c0" cx="208" cy="-287" rx="1.8" ry="1.8"/>
</g>
<!-- n1&#45;&gt;b1 -->
<g id="edge7" class="edge">
<title>n1&#45;&gt;b1</title>
<path fill="none" stroke="#fed37f" d="M274.4957,-185.2831C260.6846,-205.5853 237.899,-239.4027 219,-269 215.2157,-274.9265 210.9203,-282.0883 209.0092,-285.2987"/>
<text text-anchor="middle" x="288.5142" y="-224" font-family="Times,serif" font-size="10.00" fill="#000000">wasAssociatedWith</text>
</g>
<!-- b2 -->
<g id="node12" class="node">
<title>b2</title>
<ellipse fill="#c0c0c0" stroke="#c0c0c0" cx="544" cy="-287" rx="1.8" ry="1.8"/>
</g>
<!-- n1&#45;&gt;b2 -->
<g id="edge10" class="edge">
<title>n1&#45;&gt;b2</title>
<path fill="none" stroke="#fed37f" d="M345.2075,-180.0564C398.853,-194.4709 478.2188,-222.0847 533,-269 538.3408,-273.5739 541.8579,-281.412 543.2826,-285.0451"/>
<text text-anchor="middle" x="517.5142" y="-224" font-family="Times,serif" font-size="10.00" fill="#000000">wasAssociatedWith</text>
</g>
<!-- b3 -->
<g id="node13" class="node">
<title>b3</title>
<ellipse fill="#c0c0c0" stroke="#c0c0c0" cx="366" cy="-287" rx="1.8" ry="1.8"/>
</g>
<!-- n1&#45;&gt;b3 -->
<g id="edge13" class="edge">
<title>n1&#45;&gt;b3</title>
<path fill="none" stroke="#fed37f" d="M303.3982,-185.1105C312.396,-195.5035 323.4311,-209.0299 332,-222 347.7249,-245.8017 361.9625,-277.7161 365.2762,-285.3227"/>
<text text-anchor="middle" x="376.5142" y="-224" font-family="Times,serif" font-size="10.00" fill="#000000">wasAssociatedWith</text>
</g>
<!-- ann1 -->
<g id="node2" class="node">
<title>ann1</title>
<polygon fill="none" stroke="#c0c0c0" points="359.5,-74 208.5,-74 208.5,-38 365.5,-38 365.5,-68 359.5,-74"/>
<polyline fill="none" stroke="#c0c0c0" points="359.5,-74 359.5,-68 "/>
<polyline fill="none" stroke="#c0c0c0" points="365.5,-68 359.5,-68 "/>
<g id="a_node2_0"><a xlink:href="http://www.w3.org/ns/prov#type" xlink:title="&lt;TABLE&gt;">
<text text-anchor="start" x="218.8374" y="-53" font-family="Times,serif" font-size="10.00" fill="#000000">prov:type</text>
</a>
</g>
<g id="a_node2_1"><a xlink:href="http://www.ipaw.info/ns/picaso#PresentationActivity" xlink:title="&lt;TABLE&gt;">
<text text-anchor="start" x="258.8989" y="-53" font-family="Times,serif" font-size="10.00" fill="#000000">pic:PresentationActivity</text>
</a>
</g>
</g>
<!-- ann1&#45;&gt;n1 -->
<g id="edge1" class="edge">
<title>ann1&#45;&gt;n1</title>
<path fill="none" stroke="#c0c0c0" stroke-dasharray="5,2" d="M287,-74.3294C287,-94.8959 287,-128.0657 287,-148.6434"/>
</g>
<!-- n2 -->
<g id="node3" class="node">
<title>n2</title>
<g id="a_node3"><a xlink:href="http://openprovenance.org/var#presenter" xlink:title="var:presenter">
<polygon fill="#fed37f" stroke="#000000" points="504.5898,-403.5623 435,-416 365.4102,-403.5623 365.4752,-383.4377 504.5248,-383.4377 504.5898,-403.5623"/>
<text text-anchor="middle" x="435" y="-393.8" font-family="Times,serif" font-size="14.00" fill="#000000">var:presenter</text>
</a>
</g>
</g>
<!-- ann2 -->
<g id="node4" class="node">
<title>ann2</title>
<polygon fill="none" stroke="#c0c0c0" points="518,-305 386,-305 386,-269 524,-269 524,-299 518,-305"/>
<polyline fill="none" stroke="#c0c0c0" points="518,-305 518,-299 "/>
<polyline fill="none" stroke="#c0c0c0" points="524,-299 518,-299 "/>
<g id="a_node4_2"><a xlink:href="http://www.w3.org/ns/prov#type" xlink:title="&lt;TABLE&gt;">
<text text-anchor="start" x="396" y="-290" font-family="Times,serif" font-size="10.00" fill="#000000">prov:type</text>
</a>
</g>
<g id="a_node4_3"><a xlink:href="http://openprovenance.org/var#presenterType" xlink:title="&lt;TABLE&gt;">
<text text-anchor="start" x="438" y="-290" font-family="Times,serif" font-size="10.00" fill="#000000">var:presenterType</text>
</a>
</g>
<g id="a_node4_4"><a xlink:href="http://openprovenance.org/tmpl#label" xlink:title="&lt;TABLE&gt;">
<text text-anchor="start" x="395.7266" y="-278" font-family="Times,serif" font-size="10.00" fill="#000000">tmpl:label</text>
</a>
</g>
<g id="a_node4_5"><a xlink:href="http://openprovenance.org/var#presenterName" xlink:title="&lt;TABLE&gt;">
<text text-anchor="start" x="437.9653" y="-278" font-family="Times,serif" font-size="10.00" fill="#000000">var:presenterName</text>
</a>
</g>
</g>
<!-- ann2&#45;&gt;n2 -->
<g id="edge2" class="edge">
<title>ann2&#45;&gt;n2</title>
<path fill="none" stroke="#c0c0c0" stroke-dasharray="5,2" d="M451.6974,-305.3294C447.7698,-327.1274 441.2913,-363.0834 437.6668,-383.1991"/>
</g>
<!-- n3 -->
<g id="node5" class="node">
<title>n3</title>
<g id="a_node5"><a xlink:href="http://openprovenance.org/var#paper" xlink:title="var:paper">
<ellipse fill="#fffc87" stroke="#808080" cx="297" cy="-398" rx="43.4887" ry="18"/>
<text text-anchor="middle" x="297" y="-393.8" font-family="Times,serif" font-size="14.00" fill="#000000">var:paper</text>
</a>
</g>
</g>
<!-- ann3 -->
<g id="node6" class="node">
<title>ann3</title>
<polygon fill="none" stroke="#c0c0c0" points="340.5,-305 227.5,-305 227.5,-269 346.5,-269 346.5,-299 340.5,-305"/>
<polyline fill="none" stroke="#c0c0c0" points="340.5,-305 340.5,-299 "/>
<polyline fill="none" stroke="#c0c0c0" points="346.5,-299 340.5,-299 "/>
<g id="a_node6_6"><a xlink:href="http://www.w3.org/ns/prov#type" xlink:title="&lt;TABLE&gt;">
<text text-anchor="start" x="238" y="-290" font-family="Times,serif" font-size="10.00" fill="#000000">prov:type</text>
</a>
</g>
<g id="a_node6_7"><a xlink:href="http://openprovenance.org/var#paperType" xlink:title="&lt;TABLE&gt;">
<text text-anchor="start" x="279.6987" y="-290" font-family="Times,serif" font-size="10.00" fill="#000000">var:paperType</text>
</a>
</g>
<g id="a_node6_8"><a xlink:href="http://openprovenance.org/tmpl#label" xlink:title="&lt;TABLE&gt;">
<text text-anchor="start" x="237.7266" y="-278" font-family="Times,serif" font-size="10.00" fill="#000000">tmpl:label</text>
</a>
</g>
<g id="a_node6_9"><a xlink:href="http://openprovenance.org/var#title" xlink:title="&lt;TABLE&gt;">
<text text-anchor="start" x="280" y="-278" font-family="Times,serif" font-size="10.00" fill="#000000">var:title</text>
</a>
</g>
</g>
<!-- ann3&#45;&gt;n3 -->
<g id="edge3" class="edge">
<title>ann3&#45;&gt;n3</title>
<path fill="none" stroke="#c0c0c0" stroke-dasharray="5,2" d="M288.6513,-305.3294C290.5152,-326.0191 293.5282,-359.4634 295.3794,-380.0117"/>
</g>
<!-- n4 -->
<g id="node7" class="node">
<title>n4</title>
<g id="a_node7"><a xlink:href="http://openprovenance.org/var#session" xlink:title="var:session">
<ellipse fill="#fffc87" stroke="#808080" cx="581" cy="-398" rx="49.3119" ry="18"/>
<text text-anchor="middle" x="581" y="-393.8" font-family="Times,serif" font-size="14.00" fill="#000000">var:session</text>
</a>
</g>
</g>
<!-- ann4 -->
<g id="node8" class="node">
<title>ann4</title>
<polygon fill="none" stroke="#c0c0c0" points="704.5,-305 563.5,-305 563.5,-269 710.5,-269 710.5,-299 704.5,-305"/>
<polyline fill="none" stroke="#c0c0c0" points="704.5,-305 704.5,-299 "/>
<polyline fill="none" stroke="#c0c0c0" points="710.5,-299 704.5,-299 "/>
<g id="a_node8_10"><a xlink:href="http://www.w3.org/ns/prov#type" xlink:title="&lt;TABLE&gt;">
<text text-anchor="start" x="573.8374" y="-284" font-family="Times,serif" font-size="10.00" fill="#000000">prov:type</text>
</a>
</g>
<g id="a_node8_11"><a xlink:href="http://www.ipaw.info/ns/picaso#ScheduledSession" xlink:title="&lt;TABLE&gt;">
<text text-anchor="start" x="613.894" y="-284" font-family="Times,serif" font-size="10.00" fill="#000000">pic:ScheduledSession</text>
</a>
</g>
</g>
<!-- ann4&#45;&gt;n4 -->
<g id="edge4" class="edge">
<title>ann4&#45;&gt;n4</title>
<path fill="none" stroke="#c0c0c0" stroke-dasharray="5,2" d="M627.7527,-305.3294C617.3147,-326.0191 600.4419,-359.4634 590.0752,-380.0117"/>
</g>
<!-- ann5 -->
<g id="node10" class="node">
<title>ann5</title>
<polygon fill="none" stroke="#c0c0c0" points="128,-305 16,-305 16,-269 134,-269 134,-299 128,-305"/>
<polyline fill="none" stroke="#c0c0c0" points="128,-305 128,-299 "/>
<polyline fill="none" stroke="#c0c0c0" points="134,-299 128,-299 "/>
<g id="a_node10_12"><a xlink:href="http://www.w3.org/ns/prov#type" xlink:title="&lt;TABLE&gt;">
<text text-anchor="start" x="25.8374" y="-284" font-family="Times,serif" font-size="10.00" fill="#000000">prov:type</text>
</a>
</g>
<g id="a_node10_13"><a xlink:href="http://openprovenance.org/var#slidesType" xlink:title="&lt;TABLE&gt;">
<text text-anchor="start" x="65.9131" y="-284" font-family="Times,serif" font-size="10.00" fill="#000000">var:slidesType</text>
</a>
</g>
</g>
<!-- ann5&#45;&gt;n5 -->
<g id="edge5" class="edge">
<title>ann5&#45;&gt;n5</title>
<path fill="none" stroke="#c0c0c0" stroke-dasharray="5,2" d="M90.6873,-305.3294C108.6055,-326.2654 137.7013,-360.2615 155.2279,-380.74"/>
</g>
<!-- b1&#45;&gt;n2 -->
<g id="edge8" class="edge">
<title>b1&#45;&gt;n2</title>
<path fill="none" stroke="#fed37f" d="M208.7227,-288.9487C210.1563,-292.5715 213.6877,-300.3931 219,-305 261.3862,-341.7582 320.5057,-365.8507 366.181,-380.2836"/>
<polygon fill="#fed37f" stroke="#fed37f" points="365.4192,-383.7111 376.0063,-383.3059 367.4773,-377.0205 365.4192,-383.7111"/>
</g>
<!-- b1&#45;&gt;n5 -->
<g id="edge9" class="edge">
<title>b1&#45;&gt;n5</title>
<path fill="none" stroke="#c0c0c0" d="M207.3404,-288.9266C204.0785,-298.4549 189.4299,-341.2442 179.4793,-370.3104"/>
<polygon fill="#c0c0c0" stroke="#c0c0c0" points="176.1096,-369.3475 176.182,-379.9421 182.7323,-371.6148 176.1096,-369.3475"/>
</g>
<!-- b2&#45;&gt;n2 -->
<g id="edge11" class="edge">
<title>b2&#45;&gt;n2</title>
<path fill="none" stroke="#fed37f" d="M543.1103,-288.7874C541.3984,-292.1413 537.4218,-299.5326 533,-305 511.2545,-331.8874 482.0529,-358.6502 461.1952,-376.5145"/>
<polygon fill="#fed37f" stroke="#fed37f" points="458.7405,-374.0066 453.367,-383.1377 463.2619,-379.3506 458.7405,-374.0066"/>
</g>
<!-- b2&#45;&gt;n4 -->
<g id="edge12" class="edge">
<title>b2&#45;&gt;n4</title>
<path fill="none" stroke="#c0c0c0" d="M544.6422,-288.9266C547.8183,-298.4549 562.0814,-341.2442 571.7701,-370.3104"/>
<polygon fill="#c0c0c0" stroke="#c0c0c0" points="568.498,-371.5621 574.9807,-379.9421 575.1387,-369.3484 568.498,-371.5621"/>
</g>
<!-- b3&#45;&gt;n2 -->
<g id="edge14" class="edge">
<title>b3&#45;&gt;n2</title>
<path fill="none" stroke="#fed37f" d="M367.0261,-288.6906C368.9656,-291.8834 373.3061,-299.0167 377,-305 391.6895,-328.7938 408.6264,-355.9157 420.39,-374.7043"/>
<polygon fill="#fed37f" stroke="#fed37f" points="417.4419,-376.591 425.7169,-383.2073 423.374,-372.8748 417.4419,-376.591"/>
</g>
<!-- b3&#45;&gt;n3 -->
<g id="edge15" class="edge">
<title>b3&#45;&gt;n3</title>
<path fill="none" stroke="#c0c0c0" d="M365.095,-288.7062C363.3783,-291.9248 359.5066,-299.0996 356,-305 342.4002,-327.8837 326.1433,-353.3822 314.1414,-371.8838"/>
<polygon fill="#c0c0c0" stroke="#c0c0c0" points="311.1444,-370.0721 308.6216,-380.3622 317.0108,-373.8914 311.1444,-370.0721"/>
</g>
</g>
</svg>
