<?xml version="1.0" encoding="UTF-8" standalone="no"?>
<!DOCTYPE svg PUBLIC "-//W3C//DTD SVG 1.1//EN"
 "http://www.w3.org/Graphics/SVG/1.1/DTD/svg11.dtd">
<!-- Generated by graphviz version 2.40.1 (20161225.0304)
 -->
<!-- Title: PROV Pages: 1 -->
<svg width="1152pt" height="223pt"
 viewBox="0.00 0.00 1152.00 223.03" xmlns="http://www.w3.org/2000/svg" xmlns:xlink="http://www.w3.org/1999/xlink">
<g id="graph0" class="graph" transform="scale(.9216 .9216) rotate(0) translate(4 238)">
<title>PROV</title>
<polygon fill="#ffffff" stroke="transparent" points="-4,4 -4,-238 1246,-238 1246,4 -4,4"/>
<g id="clust1" class="cluster">
<title>clusterurn:uuid:90cf8a31&#45;4b70&#45;4a91&#45;b9ef&#45;bd065e9c63a4</title>
<g id="a_clust1"><a xlink:href="urn:uuid:90cf8a31-4b70-4a91-b9ef-bd065e9c63a4" xlink:title="90cf8a31&#45;4b70&#45;4a91&#45;b9ef&#45;bd065e9c63a4">
<polygon fill="none" stroke="#000000" points="8,-8 8,-226 1234,-226 1234,-8 8,-8"/>
<text text-anchor="middle" x="621" y="-14.8" font-family="Times,serif" font-size="14.00" fill="#000000">90cf8a31&#45;4b70&#45;4a91&#45;b9ef&#45;bd065e9c63a4</text>
</a>
</g>
</g>
<!-- http://id.ecs.soton.ac.uk/project/765 -->
<g id="node1" class="node">
<title>http://id.ecs.soton.ac.uk/project/765</title>
<g id="a_node1"><a xlink:href="http://id.ecs.soton.ac.uk/project/765" xlink:title="765">
<polygon fill="#9fb1fc" stroke="#0000ff" points="682,-146 628,-146 628,-110 682,-110 682,-146"/>
<text text-anchor="middle" x="655" y="-123.8" font-family="Times,serif" font-size="14.00" fill="#000000">765</text>
</a>
</g>
</g>
<!-- http://id.ecs.soton.ac.uk/person/11170 -->
<g id="node3" class="node">
<title>http://id.ecs.soton.ac.uk/person/11170</title>
<g id="a_node3"><a xlink:href="http://id.ecs.soton.ac.uk/person/11170" xlink:title="11170">
<polygon fill="#fdb266" stroke="#000000" points="1179.0398,-205.5623 1140,-218 1100.9602,-205.5623 1100.9966,-185.4377 1179.0034,-185.4377 1179.0398,-205.5623"/>
<text text-anchor="middle" x="1140" y="-195.8" font-family="Times,serif" font-size="14.00" fill="#000000">11170</text>
</a>
</g>
</g>
<!-- http://id.ecs.soton.ac.uk/project/765&#45;&gt;http://id.ecs.soton.ac.uk/person/11170 -->
<g id="edge10" class="edge">
<title>http://id.ecs.soton.ac.uk/project/765&#45;&gt;http://id.ecs.soton.ac.uk/person/11170</title>
<path fill="none" stroke="#000000" d="M682.0556,-142.4748C685.3414,-143.8377 688.7029,-145.0588 692,-146 841.0937,-188.5624 885.4643,-160.3836 1039,-182 1055.9426,-184.3854 1074.3916,-187.5151 1090.8308,-190.4947"/>
<polygon fill="#000000" stroke="#000000" points="1090.3074,-193.957 1100.7754,-192.3225 1091.5729,-187.0723 1090.3074,-193.957"/>
<text text-anchor="middle" x="693.9186" y="-130.8949" font-family="Times,serif" font-size="8.00" fill="#000000">assoc</text>
</g>
<!-- http://id.ecs.soton.ac.uk/person/10022 -->
<g id="node5" class="node">
<title>http://id.ecs.soton.ac.uk/person/10022</title>
<g id="a_node5"><a xlink:href="http://id.ecs.soton.ac.uk/person/10022" xlink:title="10022">
<polygon fill="#fdb266" stroke="#000000" points="1029.6419,-205.5623 990,-218 950.3581,-205.5623 950.3951,-185.4377 1029.6049,-185.4377 1029.6419,-205.5623"/>
<text text-anchor="middle" x="990" y="-195.8" font-family="Times,serif" font-size="14.00" fill="#000000">10022</text>
</a>
</g>
</g>
<!-- http://id.ecs.soton.ac.uk/project/765&#45;&gt;http://id.ecs.soton.ac.uk/person/10022 -->
<g id="edge11" class="edge">
<title>http://id.ecs.soton.ac.uk/project/765&#45;&gt;http://id.ecs.soton.ac.uk/person/10022</title>
<path fill="none" stroke="#000000" d="M682.131,-142.2284C685.4033,-143.6355 688.741,-144.9344 692,-146 715.1964,-153.5847 861.4908,-178.5712 940.1285,-191.7286"/>
<polygon fill="#000000" stroke="#000000" points="939.8541,-195.2312 950.2941,-193.4267 941.0074,-188.3269 939.8541,-195.2312"/>
<text text-anchor="middle" x="694.1206" y="-130.8145" font-family="Times,serif" font-size="8.00" fill="#000000">assoc</text>
</g>
<!-- http://id.ecs.soton.ac.uk/person/6803 -->
<g id="node7" class="node">
<title>http://id.ecs.soton.ac.uk/person/6803</title>
<g id="a_node7"><a xlink:href="http://id.ecs.soton.ac.uk/person/6803" xlink:title="6803">
<polygon fill="#fdb266" stroke="#000000" points="873.2105,-205.5623 839,-218 804.7895,-205.5623 804.8214,-185.4377 873.1786,-185.4377 873.2105,-205.5623"/>
<text text-anchor="middle" x="839" y="-195.8" font-family="Times,serif" font-size="14.00" fill="#000000">6803</text>
</a>
</g>
</g>
<!-- http://id.ecs.soton.ac.uk/project/765&#45;&gt;http://id.ecs.soton.ac.uk/person/6803 -->
<g id="edge12" class="edge">
<title>http://id.ecs.soton.ac.uk/project/765&#45;&gt;http://id.ecs.soton.ac.uk/person/6803</title>
<path fill="none" stroke="#000000" d="M682.3372,-141.6794C685.5724,-143.185 688.8451,-144.6571 692,-146 726.1631,-160.5411 765.709,-174.935 795.1731,-185.2008"/>
<polygon fill="#000000" stroke="#000000" points="794.1617,-188.5544 804.7565,-188.5182 796.4516,-181.9395 794.1617,-188.5544"/>
<text text-anchor="middle" x="694.6067" y="-130.6504" font-family="Times,serif" font-size="8.00" fill="#000000">assoc</text>
</g>
<!-- http://id.ecs.soton.ac.uk/person/10467 -->
<g id="node9" class="node">
<title>http://id.ecs.soton.ac.uk/person/10467</title>
<g id="a_node9"><a xlink:href="http://id.ecs.soton.ac.uk/person/10467" xlink:title="10467">
<polygon fill="#fdb266" stroke="#000000" points="721.6419,-205.5623 682,-218 642.3581,-205.5623 642.3951,-185.4377 721.6049,-185.4377 721.6419,-205.5623"/>
<text text-anchor="middle" x="682" y="-195.8" font-family="Times,serif" font-size="14.00" fill="#000000">10467</text>
</a>
</g>
</g>
<!-- http://id.ecs.soton.ac.uk/project/765&#45;&gt;http://id.ecs.soton.ac.uk/person/10467 -->
<g id="edge13" class="edge">
<title>http://id.ecs.soton.ac.uk/project/765&#45;&gt;http://id.ecs.soton.ac.uk/person/10467</title>
<path fill="none" stroke="#000000" d="M661.8132,-146.1686C665.1525,-155.0733 669.2219,-165.9251 672.8299,-175.5464"/>
<polygon fill="#000000" stroke="#000000" points="669.5843,-176.8597 676.3728,-184.9941 676.1386,-174.4018 669.5843,-176.8597"/>
<text text-anchor="middle" x="676.6099" y="-146.2299" font-family="Times,serif" font-size="8.00" fill="#000000">assoc</text>
</g>
<!-- http://id.ecs.soton.ac.uk/person/7047 -->
<g id="node11" class="node">
<title>http://id.ecs.soton.ac.uk/person/7047</title>
<g id="a_node11"><a xlink:href="http://id.ecs.soton.ac.uk/person/7047" xlink:title="7047">
<polygon fill="#fdb266" stroke="#000000" points="599.2105,-205.5623 565,-218 530.7895,-205.5623 530.8214,-185.4377 599.1786,-185.4377 599.2105,-205.5623"/>
<text text-anchor="middle" x="565" y="-195.8" font-family="Times,serif" font-size="14.00" fill="#000000">7047</text>
</a>
</g>
</g>
<!-- http://id.ecs.soton.ac.uk/project/765&#45;&gt;http://id.ecs.soton.ac.uk/person/7047 -->
<g id="edge14" class="edge">
<title>http://id.ecs.soton.ac.uk/project/765&#45;&gt;http://id.ecs.soton.ac.uk/person/7047</title>
<path fill="none" stroke="#000000" d="M632.2892,-146.1686C619.9013,-156.0789 604.4986,-168.4012 591.5568,-178.7546"/>
<polygon fill="#000000" stroke="#000000" points="589.0863,-176.2487 583.464,-185.2288 593.4592,-181.7148 589.0863,-176.2487"/>
<text text-anchor="middle" x="634.5477" y="-158.5976" font-family="Times,serif" font-size="8.00" fill="#000000">assoc</text>
</g>
<!-- http://id.ecs.soton.ac.uk/person/2355 -->
<g id="node13" class="node">
<title>http://id.ecs.soton.ac.uk/person/2355</title>
<g id="a_node13"><a xlink:href="http://id.ecs.soton.ac.uk/person/2355" xlink:title="2355">
<polygon fill="#fdb266" stroke="#000000" points="459.2105,-205.5623 425,-218 390.7895,-205.5623 390.8214,-185.4377 459.1786,-185.4377 459.2105,-205.5623"/>
<text text-anchor="middle" x="425" y="-195.8" font-family="Times,serif" font-size="14.00" fill="#000000">2355</text>
</a>
</g>
</g>
<!-- http://id.ecs.soton.ac.uk/project/765&#45;&gt;http://id.ecs.soton.ac.uk/person/2355 -->
<g id="edge15" class="edge">
<title>http://id.ecs.soton.ac.uk/project/765&#45;&gt;http://id.ecs.soton.ac.uk/person/2355</title>
<path fill="none" stroke="#000000" d="M627.7279,-142.3145C624.8156,-143.6384 621.8692,-144.8952 619,-146 568.878,-165.3001 509.0484,-180.8828 469.2127,-190.2594"/>
<polygon fill="#000000" stroke="#000000" points="468.2328,-186.8937 459.2838,-192.5653 469.8164,-193.7122 468.2328,-186.8937"/>
<text text-anchor="middle" x="626.2405" y="-154.8406" font-family="Times,serif" font-size="8.00" fill="#000000">assoc</text>
</g>
<!-- http://id.ecs.soton.ac.uk/person/5113 -->
<g id="node15" class="node">
<title>http://id.ecs.soton.ac.uk/person/5113</title>
<g id="a_node15"><a xlink:href="http://id.ecs.soton.ac.uk/person/5113" xlink:title="5113">
<polygon fill="#fdb266" stroke="#000000" points="314.9094,-205.5623 281,-218 247.0906,-205.5623 247.1223,-185.4377 314.8777,-185.4377 314.9094,-205.5623"/>
<text text-anchor="middle" x="281" y="-195.8" font-family="Times,serif" font-size="14.00" fill="#000000">5113</text>
</a>
</g>
</g>
<!-- http://id.ecs.soton.ac.uk/project/765&#45;&gt;http://id.ecs.soton.ac.uk/person/5113 -->
<g id="edge16" class="edge">
<title>http://id.ecs.soton.ac.uk/project/765&#45;&gt;http://id.ecs.soton.ac.uk/person/5113</title>
<path fill="none" stroke="#000000" d="M627.8543,-142.6748C624.9174,-143.9284 621.9307,-145.0703 619,-146 517.4462,-178.2169 487.1197,-164.652 382,-182 363.3435,-185.0789 342.7909,-188.6998 325.1234,-191.8836"/>
<polygon fill="#000000" stroke="#000000" points="324.307,-188.4744 315.0906,-193.7002 325.5543,-195.3624 324.307,-188.4744"/>
<text text-anchor="middle" x="625.9984" y="-155.1595" font-family="Times,serif" font-size="8.00" fill="#000000">assoc</text>
</g>
<!-- http://id.ecs.soton.ac.uk/person/391 -->
<g id="node17" class="node">
<title>http://id.ecs.soton.ac.uk/person/391</title>
<g id="a_node17"><a xlink:href="http://id.ecs.soton.ac.uk/person/391" xlink:title="391">
<polygon fill="#fdb266" stroke="#000000" points="141.7792,-205.5623 113,-218 84.2208,-205.5623 84.2476,-185.4377 141.7524,-185.4377 141.7792,-205.5623"/>
<text text-anchor="middle" x="113" y="-195.8" font-family="Times,serif" font-size="14.00" fill="#000000">391</text>
</a>
</g>
</g>
<!-- http://id.ecs.soton.ac.uk/project/765&#45;&gt;http://id.ecs.soton.ac.uk/person/391 -->
<g id="edge17" class="edge">
<title>http://id.ecs.soton.ac.uk/project/765&#45;&gt;http://id.ecs.soton.ac.uk/person/391</title>
<path fill="none" stroke="#000000" d="M627.906,-142.846C624.959,-144.0662 621.9558,-145.1535 619,-146 455.4861,-192.8294 406.8925,-161.8727 238,-182 209.1396,-185.4394 176.6508,-190.1433 152.03,-193.8799"/>
<polygon fill="#000000" stroke="#000000" points="151.349,-190.4433 141.9934,-195.4156 152.4078,-197.3627 151.349,-190.4433"/>
<text text-anchor="middle" x="625.8779" y="-155.3082" font-family="Times,serif" font-size="8.00" fill="#000000">assoc</text>
</g>
<!-- &#45;attrs0 -->
<g id="node2" class="node">
<title>&#45;attrs0</title>
<polygon fill="none" stroke="#c0c0c0" points="817.5,-74 486.5,-74 486.5,-38 823.5,-38 823.5,-68 817.5,-74"/>
<polyline fill="none" stroke="#c0c0c0" points="817.5,-74 817.5,-68 "/>
<polyline fill="none" stroke="#c0c0c0" points="823.5,-68 817.5,-68 "/>
<text text-anchor="start" x="497" y="-59" font-family="Times,serif" font-size="10.00" fill="#000000">type:</text>
<text text-anchor="start" x="521" y="-59" font-family="Times,serif" font-size="10.00" fill="#000000">pic:Project</text>
<text text-anchor="start" x="496.894" y="-47" font-family="Times,serif" font-size="10.00" fill="#000000">label:</text>
<text text-anchor="start" x="520.7031" y="-47" font-family="Times,serif" font-size="10.00" fill="#000000">ORCHID: Human&#45;Agent Collectives &#45; From Foundations to Applications</text>
</g>
<!-- &#45;attrs0&#45;&gt;http://id.ecs.soton.ac.uk/project/765 -->
<g id="edge1" class="edge">
<title>&#45;attrs0&#45;&gt;http://id.ecs.soton.ac.uk/project/765</title>
<path fill="none" stroke="#c0c0c0" stroke-dasharray="5,2" d="M655,-74.1686C655,-85 655,-98.7124 655,-109.5867"/>
</g>
<!-- &#45;attrs1 -->
<g id="node4" class="node">
<title>&#45;attrs1</title>
<polygon fill="none" stroke="#c0c0c0" points="1220,-146 1108,-146 1108,-110 1226,-110 1226,-140 1220,-146"/>
<polyline fill="none" stroke="#c0c0c0" points="1220,-146 1220,-140 "/>
<polyline fill="none" stroke="#c0c0c0" points="1226,-140 1220,-140 "/>
<text text-anchor="start" x="1118" y="-131" font-family="Times,serif" font-size="10.00" fill="#000000">type:</text>
<text text-anchor="start" x="1142" y="-131" font-family="Times,serif" font-size="10.00" fill="#000000">prov:Person</text>
<text text-anchor="start" x="1117.894" y="-119" font-family="Times,serif" font-size="10.00" fill="#000000">label:</text>
<text text-anchor="start" x="1141.7832" y="-119" font-family="Times,serif" font-size="10.00" fill="#000000">Dr Sebastian Stein</text>
</g>
<!-- &#45;attrs1&#45;&gt;http://id.ecs.soton.ac.uk/person/11170 -->
<g id="edge2" class="edge">
<title>&#45;attrs1&#45;&gt;http://id.ecs.soton.ac.uk/person/11170</title>
<path fill="none" stroke="#c0c0c0" stroke-dasharray="5,2" d="M1160.1868,-146.1686C1155.6876,-158.1664 1149.8628,-173.6993 1145.6272,-184.9941"/>
</g>
<!-- &#45;attrs2 -->
<g id="node6" class="node">
<title>&#45;attrs2</title>
<polygon fill="none" stroke="#c0c0c0" points="1083.5,-146 954.5,-146 954.5,-110 1089.5,-110 1089.5,-140 1083.5,-146"/>
<polyline fill="none" stroke="#c0c0c0" points="1083.5,-146 1083.5,-140 "/>
<polyline fill="none" stroke="#c0c0c0" points="1089.5,-140 1083.5,-140 "/>
<text text-anchor="start" x="965" y="-131" font-family="Times,serif" font-size="10.00" fill="#000000">type:</text>
<text text-anchor="start" x="989" y="-131" font-family="Times,serif" font-size="10.00" fill="#000000">prov:Person</text>
<text text-anchor="start" x="964.894" y="-119" font-family="Times,serif" font-size="10.00" fill="#000000">label:</text>
<text text-anchor="start" x="988.7944" y="-119" font-family="Times,serif" font-size="10.00" fill="#000000">Dr Trung Dong Huynh</text>
</g>
<!-- &#45;attrs2&#45;&gt;http://id.ecs.soton.ac.uk/person/10022 -->
<g id="edge3" class="edge">
<title>&#45;attrs2&#45;&gt;http://id.ecs.soton.ac.uk/person/10022</title>
<path fill="none" stroke="#c0c0c0" stroke-dasharray="5,2" d="M1013.925,-146.1686C1008.5927,-158.1664 1001.6892,-173.6993 996.6693,-184.9941"/>
</g>
<!-- &#45;attrs3 -->
<g id="node8" class="node">
<title>&#45;attrs3</title>
<polygon fill="none" stroke="#c0c0c0" points="930,-146 818,-146 818,-110 936,-110 936,-140 930,-146"/>
<polyline fill="none" stroke="#c0c0c0" points="930,-146 930,-140 "/>
<polyline fill="none" stroke="#c0c0c0" points="936,-140 930,-140 "/>
<text text-anchor="start" x="828" y="-131" font-family="Times,serif" font-size="10.00" fill="#000000">type:</text>
<text text-anchor="start" x="852" y="-131" font-family="Times,serif" font-size="10.00" fill="#000000">prov:Person</text>
<text text-anchor="start" x="827.894" y="-119" font-family="Times,serif" font-size="10.00" fill="#000000">label:</text>
<text text-anchor="start" x="851.7832" y="-119" font-family="Times,serif" font-size="10.00" fill="#000000">Dr Sebastian Stein</text>
</g>
<!-- &#45;attrs3&#45;&gt;http://id.ecs.soton.ac.uk/person/6803 -->
<g id="edge4" class="edge">
<title>&#45;attrs3&#45;&gt;http://id.ecs.soton.ac.uk/person/6803</title>
<path fill="none" stroke="#c0c0c0" stroke-dasharray="5,2" d="M867.411,-146.1686C861.0788,-158.1664 852.8809,-173.6993 846.9198,-184.9941"/>
</g>
<!-- &#45;attrs4 -->
<g id="node10" class="node">
<title>&#45;attrs4</title>
<polygon fill="none" stroke="#c0c0c0" points="793.5,-146 700.5,-146 700.5,-110 799.5,-110 799.5,-140 793.5,-146"/>
<polyline fill="none" stroke="#c0c0c0" points="793.5,-146 793.5,-140 "/>
<polyline fill="none" stroke="#c0c0c0" points="799.5,-140 793.5,-140 "/>
<text text-anchor="start" x="711" y="-131" font-family="Times,serif" font-size="10.00" fill="#000000">type:</text>
<text text-anchor="start" x="735" y="-131" font-family="Times,serif" font-size="10.00" fill="#000000">prov:Person</text>
<text text-anchor="start" x="710.894" y="-119" font-family="Times,serif" font-size="10.00" fill="#000000">label:</text>
<text text-anchor="start" x="734.9438" y="-119" font-family="Times,serif" font-size="10.00" fill="#000000">Talal Rahwan</text>
</g>
<!-- &#45;attrs4&#45;&gt;http://id.ecs.soton.ac.uk/person/10467 -->
<g id="edge5" class="edge">
<title>&#45;attrs4&#45;&gt;http://id.ecs.soton.ac.uk/person/10467</title>
<path fill="none" stroke="#c0c0c0" stroke-dasharray="5,2" d="M732.8407,-146.1686C721.5095,-158.1664 706.8396,-173.6993 696.1723,-184.9941"/>
</g>
<!-- &#45;attrs5 -->
<g id="node12" class="node">
<title>&#45;attrs5</title>
<polygon fill="none" stroke="#c0c0c0" points="604,-146 470,-146 470,-110 610,-110 610,-140 604,-146"/>
<polyline fill="none" stroke="#c0c0c0" points="604,-146 604,-140 "/>
<polyline fill="none" stroke="#c0c0c0" points="610,-140 604,-140 "/>
<text text-anchor="start" x="480" y="-131" font-family="Times,serif" font-size="10.00" fill="#000000">type:</text>
<text text-anchor="start" x="504" y="-131" font-family="Times,serif" font-size="10.00" fill="#000000">prov:Person</text>
<text text-anchor="start" x="479.894" y="-119" font-family="Times,serif" font-size="10.00" fill="#000000">label:</text>
<text text-anchor="start" x="503.5381" y="-119" font-family="Times,serif" font-size="10.00" fill="#000000">Dr. Sarvapali Ramchurn</text>
</g>
<!-- &#45;attrs5&#45;&gt;http://id.ecs.soton.ac.uk/person/7047 -->
<g id="edge6" class="edge">
<title>&#45;attrs5&#45;&gt;http://id.ecs.soton.ac.uk/person/7047</title>
<path fill="none" stroke="#c0c0c0" stroke-dasharray="5,2" d="M546.3086,-146.1686C550.4745,-158.1664 555.8678,-173.6993 559.7896,-184.9941"/>
</g>
<!-- &#45;attrs6 -->
<g id="node14" class="node">
<title>&#45;attrs6</title>
<polygon fill="none" stroke="#c0c0c0" points="445.5,-146 294.5,-146 294.5,-110 451.5,-110 451.5,-140 445.5,-146"/>
<polyline fill="none" stroke="#c0c0c0" points="445.5,-146 445.5,-140 "/>
<polyline fill="none" stroke="#c0c0c0" points="451.5,-140 445.5,-140 "/>
<text text-anchor="start" x="305" y="-131" font-family="Times,serif" font-size="10.00" fill="#000000">type:</text>
<text text-anchor="start" x="329" y="-131" font-family="Times,serif" font-size="10.00" fill="#000000">prov:Person</text>
<text text-anchor="start" x="304.894" y="-119" font-family="Times,serif" font-size="10.00" fill="#000000">label:</text>
<text text-anchor="start" x="328.8398" y="-119" font-family="Times,serif" font-size="10.00" fill="#000000">Professor Nicholas Jennings</text>
</g>
<!-- &#45;attrs6&#45;&gt;http://id.ecs.soton.ac.uk/person/2355 -->
<g id="edge7" class="edge">
<title>&#45;attrs6&#45;&gt;http://id.ecs.soton.ac.uk/person/2355</title>
<path fill="none" stroke="#c0c0c0" stroke-dasharray="5,2" d="M386.1218,-146.1686C394.7869,-158.1664 406.005,-173.6993 414.1624,-184.9941"/>
</g>
<!-- &#45;attrs7 -->
<g id="node16" class="node">
<title>&#45;attrs7</title>
<polygon fill="none" stroke="#c0c0c0" points="270,-146 170,-146 170,-110 276,-110 276,-140 270,-146"/>
<polyline fill="none" stroke="#c0c0c0" points="270,-146 270,-140 "/>
<polyline fill="none" stroke="#c0c0c0" points="276,-140 270,-140 "/>
<text text-anchor="start" x="180" y="-131" font-family="Times,serif" font-size="10.00" fill="#000000">type:</text>
<text text-anchor="start" x="204" y="-131" font-family="Times,serif" font-size="10.00" fill="#000000">prov:Person</text>
<text text-anchor="start" x="179.894" y="-119" font-family="Times,serif" font-size="10.00" fill="#000000">label:</text>
<text text-anchor="start" x="203.6133" y="-119" font-family="Times,serif" font-size="10.00" fill="#000000">Dr Alex Rogers</text>
</g>
<!-- &#45;attrs7&#45;&gt;http://id.ecs.soton.ac.uk/person/5113 -->
<g id="edge8" class="edge">
<title>&#45;attrs7&#45;&gt;http://id.ecs.soton.ac.uk/person/5113</title>
<path fill="none" stroke="#c0c0c0" stroke-dasharray="5,2" d="M237.6358,-146.1686C247.3007,-158.1664 259.8133,-173.6993 268.9119,-184.9941"/>
</g>
<!-- &#45;attrs8 -->
<g id="node18" class="node">
<title>&#45;attrs8</title>
<polygon fill="none" stroke="#c0c0c0" points="145.5,-146 16.5,-146 16.5,-110 151.5,-110 151.5,-140 145.5,-146"/>
<polyline fill="none" stroke="#c0c0c0" points="145.5,-146 145.5,-140 "/>
<polyline fill="none" stroke="#c0c0c0" points="151.5,-140 145.5,-140 "/>
<text text-anchor="start" x="27" y="-131" font-family="Times,serif" font-size="10.00" fill="#000000">type:</text>
<text text-anchor="start" x="51" y="-131" font-family="Times,serif" font-size="10.00" fill="#000000">prov:Person</text>
<text text-anchor="start" x="26.894" y="-119" font-family="Times,serif" font-size="10.00" fill="#000000">label:</text>
<text text-anchor="start" x="50.5405" y="-119" font-family="Times,serif" font-size="10.00" fill="#000000">Professor &#160;Luc Moreau</text>
</g>
<!-- &#45;attrs8&#45;&gt;http://id.ecs.soton.ac.uk/person/391 -->
<g id="edge9" class="edge">
<title>&#45;attrs8&#45;&gt;http://id.ecs.soton.ac.uk/person/391</title>
<path fill="none" stroke="#c0c0c0" stroke-dasharray="5,2" d="M91.3179,-146.1686C96.1504,-158.1664 102.4067,-173.6993 106.9559,-184.9941"/>
</g>
</g>
</svg>
