<?xml version="1.0" encoding="UTF-8" standalone="no"?>
<!DOCTYPE svg PUBLIC "-//W3C//DTD SVG 1.1//EN"
 "http://www.w3.org/Graphics/SVG/1.1/DTD/svg11.dtd">
<!-- Generated by graphviz version 2.40.1 (20161225.0304)
 -->
<!-- Title: PROV Pages: 1 -->
<svg width="616pt" height="242pt"
 viewBox="0.00 0.00 616.00 242.00" xmlns="http://www.w3.org/2000/svg" xmlns:xlink="http://www.w3.org/1999/xlink">
<g id="graph0" class="graph" transform="scale(1 1) rotate(0) translate(4 238)">
<title>PROV</title>
<polygon fill="#ffffff" stroke="transparent" points="-4,4 -4,-238 612,-238 612,4 -4,4"/>
<g id="clust1" class="cluster">
<title>clusterurn:uuid:94fa4b20&#45;e02e&#45;4733&#45;812d&#45;2c7ce2f39b9a</title>
<g id="a_clust1"><a xlink:href="urn:uuid:94fa4b20-e02e-4733-812d-2c7ce2f39b9a" xlink:title="94fa4b20&#45;e02e&#45;4733&#45;812d&#45;2c7ce2f39b9a">
<polygon fill="none" stroke="#000000" points="8,-8 8,-226 600,-226 600,-8 8,-8"/>
<text text-anchor="middle" x="304" y="-14.8" font-family="Times,serif" font-size="14.00" fill="#000000">94fa4b20&#45;e02e&#45;4733&#45;812d&#45;2c7ce2f39b9a</text>
</a>
</g>
</g>
<!-- http://id.ecs.soton.ac.uk/project/755 -->
<g id="node1" class="node">
<title>http://id.ecs.soton.ac.uk/project/755</title>
<g id="a_node1"><a xlink:href="http://id.ecs.soton.ac.uk/project/755" xlink:title="755">
<polygon fill="#9fb1fc" stroke="#0000ff" points="310,-146 256,-146 256,-110 310,-110 310,-146"/>
<text text-anchor="middle" x="283" y="-123.8" font-family="Times,serif" font-size="14.00" fill="#000000">755</text>
</a>
</g>
</g>
<!-- http://id.ecs.soton.ac.uk/person/6268 -->
<g id="node3" class="node">
<title>http://id.ecs.soton.ac.uk/person/6268</title>
<g id="a_node3"><a xlink:href="http://id.ecs.soton.ac.uk/person/6268" xlink:title="6268">
<polygon fill="#fdb266" stroke="#000000" points="527.2105,-205.5623 493,-218 458.7895,-205.5623 458.8214,-185.4377 527.1786,-185.4377 527.2105,-205.5623"/>
<text text-anchor="middle" x="493" y="-195.8" font-family="Times,serif" font-size="14.00" fill="#000000">6268</text>
</a>
</g>
</g>
<!-- http://id.ecs.soton.ac.uk/project/755&#45;&gt;http://id.ecs.soton.ac.uk/person/6268 -->
<g id="edge6" class="edge">
<title>http://id.ecs.soton.ac.uk/project/755&#45;&gt;http://id.ecs.soton.ac.uk/person/6268</title>
<path fill="none" stroke="#000000" d="M310.3062,-142.2279C313.2118,-143.5686 316.1473,-144.8531 319,-146 362.1364,-163.3436 413.1016,-178.5734 448.6839,-188.3989"/>
<polygon fill="#000000" stroke="#000000" points="448.1803,-191.8894 458.7491,-191.1474 450.0243,-185.1367 448.1803,-191.8894"/>
<text text-anchor="middle" x="322.5413" y="-131.1503" font-family="Times,serif" font-size="8.00" fill="#000000">assoc</text>
</g>
<!-- http://id.ecs.soton.ac.uk/person/387 -->
<g id="node5" class="node">
<title>http://id.ecs.soton.ac.uk/person/387</title>
<g id="a_node5"><a xlink:href="http://id.ecs.soton.ac.uk/person/387" xlink:title="387">
<polygon fill="#fdb266" stroke="#000000" points="354.7792,-205.5623 326,-218 297.2208,-205.5623 297.2476,-185.4377 354.7524,-185.4377 354.7792,-205.5623"/>
<text text-anchor="middle" x="326" y="-195.8" font-family="Times,serif" font-size="14.00" fill="#000000">387</text>
</a>
</g>
</g>
<!-- http://id.ecs.soton.ac.uk/project/755&#45;&gt;http://id.ecs.soton.ac.uk/person/387 -->
<g id="edge7" class="edge">
<title>http://id.ecs.soton.ac.uk/project/755&#45;&gt;http://id.ecs.soton.ac.uk/person/387</title>
<path fill="none" stroke="#000000" d="M293.8507,-146.1686C299.2807,-155.2607 305.9231,-166.3829 311.7577,-176.1524"/>
<polygon fill="#000000" stroke="#000000" points="308.9058,-178.2032 317.0381,-184.9941 314.9156,-174.614 308.9058,-178.2032"/>
<text text-anchor="middle" x="308.8491" y="-143.547" font-family="Times,serif" font-size="8.00" fill="#000000">assoc</text>
</g>
<!-- http://id.ecs.soton.ac.uk/person/9455 -->
<g id="node7" class="node">
<title>http://id.ecs.soton.ac.uk/person/9455</title>
<g id="a_node7"><a xlink:href="http://id.ecs.soton.ac.uk/person/9455" xlink:title="9455">
<polygon fill="#fdb266" stroke="#000000" points="247.2105,-205.5623 213,-218 178.7895,-205.5623 178.8214,-185.4377 247.1786,-185.4377 247.2105,-205.5623"/>
<text text-anchor="middle" x="213" y="-195.8" font-family="Times,serif" font-size="14.00" fill="#000000">9455</text>
</a>
</g>
</g>
<!-- http://id.ecs.soton.ac.uk/project/755&#45;&gt;http://id.ecs.soton.ac.uk/person/9455 -->
<g id="edge8" class="edge">
<title>http://id.ecs.soton.ac.uk/project/755&#45;&gt;http://id.ecs.soton.ac.uk/person/9455</title>
<path fill="none" stroke="#000000" d="M265.336,-146.1686C256.0409,-155.7294 244.5633,-167.5349 234.7273,-177.6519"/>
<polygon fill="#000000" stroke="#000000" points="232.0504,-175.3843 227.5891,-184.9941 237.0694,-180.2639 232.0504,-175.3843"/>
<text text-anchor="middle" x="269.422" y="-158.2014" font-family="Times,serif" font-size="8.00" fill="#000000">assoc</text>
</g>
<!-- http://id.ecs.soton.ac.uk/person/60 -->
<g id="node9" class="node">
<title>http://id.ecs.soton.ac.uk/person/60</title>
<g id="a_node9"><a xlink:href="http://id.ecs.soton.ac.uk/person/60" xlink:title="60">
<polygon fill="#fdb266" stroke="#000000" points="109,-205.5623 82,-218 55,-205.5623 55.0252,-185.4377 108.9748,-185.4377 109,-205.5623"/>
<text text-anchor="middle" x="82" y="-195.8" font-family="Times,serif" font-size="14.00" fill="#000000">60</text>
</a>
</g>
</g>
<!-- http://id.ecs.soton.ac.uk/project/755&#45;&gt;http://id.ecs.soton.ac.uk/person/60 -->
<g id="edge9" class="edge">
<title>http://id.ecs.soton.ac.uk/project/755&#45;&gt;http://id.ecs.soton.ac.uk/person/60</title>
<path fill="none" stroke="#000000" d="M255.6755,-142.1828C252.7735,-143.5324 249.8438,-144.8312 247,-146 203.9242,-163.7049 152.7372,-179.7097 118.9232,-189.6167"/>
<polygon fill="#000000" stroke="#000000" points="117.6442,-186.3434 109.0151,-192.4907 119.5943,-193.0663 117.6442,-186.3434"/>
<text text-anchor="middle" x="254.3251" y="-154.7219" font-family="Times,serif" font-size="8.00" fill="#000000">assoc</text>
</g>
<!-- &#45;attrs0 -->
<g id="node2" class="node">
<title>&#45;attrs0</title>
<polygon fill="none" stroke="#c0c0c0" points="322.5,-74 237.5,-74 237.5,-38 328.5,-38 328.5,-68 322.5,-74"/>
<polyline fill="none" stroke="#c0c0c0" points="322.5,-74 322.5,-68 "/>
<polyline fill="none" stroke="#c0c0c0" points="328.5,-68 322.5,-68 "/>
<text text-anchor="start" x="248" y="-59" font-family="Times,serif" font-size="10.00" fill="#000000">type:</text>
<text text-anchor="start" x="272" y="-59" font-family="Times,serif" font-size="10.00" fill="#000000">pic:Project</text>
<text text-anchor="start" x="247.894" y="-47" font-family="Times,serif" font-size="10.00" fill="#000000">label:</text>
<text text-anchor="start" x="271.8892" y="-47" font-family="Times,serif" font-size="10.00" fill="#000000">DepositMO</text>
</g>
<!-- &#45;attrs0&#45;&gt;http://id.ecs.soton.ac.uk/project/755 -->
<g id="edge1" class="edge">
<title>&#45;attrs0&#45;&gt;http://id.ecs.soton.ac.uk/project/755</title>
<path fill="none" stroke="#c0c0c0" stroke-dasharray="5,2" d="M283,-74.1686C283,-85 283,-98.7124 283,-109.5867"/>
</g>
<!-- &#45;attrs1 -->
<g id="node4" class="node">
<title>&#45;attrs1</title>
<polygon fill="none" stroke="#c0c0c0" points="586,-146 480,-146 480,-110 592,-110 592,-140 586,-146"/>
<polyline fill="none" stroke="#c0c0c0" points="586,-146 586,-140 "/>
<polyline fill="none" stroke="#c0c0c0" points="592,-140 586,-140 "/>
<text text-anchor="start" x="490" y="-131" font-family="Times,serif" font-size="10.00" fill="#000000">type:</text>
<text text-anchor="start" x="514" y="-131" font-family="Times,serif" font-size="10.00" fill="#000000">prov:Person</text>
<text text-anchor="start" x="489.894" y="-119" font-family="Times,serif" font-size="10.00" fill="#000000">label:</text>
<text text-anchor="start" x="513.73" y="-119" font-family="Times,serif" font-size="10.00" fill="#000000">Dr David Tarrant</text>
</g>
<!-- &#45;attrs1&#45;&gt;http://id.ecs.soton.ac.uk/person/6268 -->
<g id="edge2" class="edge">
<title>&#45;attrs1&#45;&gt;http://id.ecs.soton.ac.uk/person/6268</title>
<path fill="none" stroke="#c0c0c0" stroke-dasharray="5,2" d="M525.1493,-146.1686C517.9839,-158.1664 508.7074,-173.6993 501.9619,-184.9941"/>
</g>
<!-- &#45;attrs2 -->
<g id="node6" class="node">
<title>&#45;attrs2</title>
<polygon fill="none" stroke="#c0c0c0" points="456,-146 328,-146 328,-110 462,-110 462,-140 456,-146"/>
<polyline fill="none" stroke="#c0c0c0" points="456,-146 456,-140 "/>
<polyline fill="none" stroke="#c0c0c0" points="462,-140 456,-140 "/>
<text text-anchor="start" x="338" y="-131" font-family="Times,serif" font-size="10.00" fill="#000000">type:</text>
<text text-anchor="start" x="362" y="-131" font-family="Times,serif" font-size="10.00" fill="#000000">prov:Person</text>
<text text-anchor="start" x="337.894" y="-119" font-family="Times,serif" font-size="10.00" fill="#000000">label:</text>
<text text-anchor="start" x="361.873" y="-119" font-family="Times,serif" font-size="10.00" fill="#000000">Dr Steve M Hitchcock</text>
</g>
<!-- &#45;attrs2&#45;&gt;http://id.ecs.soton.ac.uk/person/387 -->
<g id="edge3" class="edge">
<title>&#45;attrs2&#45;&gt;http://id.ecs.soton.ac.uk/person/387</title>
<path fill="none" stroke="#c0c0c0" stroke-dasharray="5,2" d="M377.5884,-146.1686C366.0905,-158.1664 351.2049,-173.6993 340.3807,-184.9941"/>
</g>
<!-- &#45;attrs3 -->
<g id="node8" class="node">
<title>&#45;attrs3</title>
<polygon fill="none" stroke="#c0c0c0" points="232,-146 126,-146 126,-110 238,-110 238,-140 232,-146"/>
<polyline fill="none" stroke="#c0c0c0" points="232,-146 232,-140 "/>
<polyline fill="none" stroke="#c0c0c0" points="238,-140 232,-140 "/>
<text text-anchor="start" x="136" y="-131" font-family="Times,serif" font-size="10.00" fill="#000000">type:</text>
<text text-anchor="start" x="160" y="-131" font-family="Times,serif" font-size="10.00" fill="#000000">prov:Person</text>
<text text-anchor="start" x="135.894" y="-119" font-family="Times,serif" font-size="10.00" fill="#000000">label:</text>
<text text-anchor="start" x="159.73" y="-119" font-family="Times,serif" font-size="10.00" fill="#000000">Dr David Tarrant</text>
</g>
<!-- &#45;attrs3&#45;&gt;http://id.ecs.soton.ac.uk/person/9455 -->
<g id="edge4" class="edge">
<title>&#45;attrs3&#45;&gt;http://id.ecs.soton.ac.uk/person/9455</title>
<path fill="none" stroke="#c0c0c0" stroke-dasharray="5,2" d="M189.8226,-146.1686C194.9883,-158.1664 201.6761,-173.6993 206.5391,-184.9941"/>
</g>
<!-- &#45;attrs4 -->
<g id="node10" class="node">
<title>&#45;attrs4</title>
<polygon fill="none" stroke="#c0c0c0" points="102,-146 16,-146 16,-110 108,-110 108,-140 102,-146"/>
<polyline fill="none" stroke="#c0c0c0" points="102,-146 102,-140 "/>
<polyline fill="none" stroke="#c0c0c0" points="108,-140 102,-140 "/>
<text text-anchor="start" x="26" y="-131" font-family="Times,serif" font-size="10.00" fill="#000000">type:</text>
<text text-anchor="start" x="49.835" y="-131" font-family="Times,serif" font-size="10.00" fill="#000000">prov:Person</text>
<text text-anchor="start" x="25.894" y="-119" font-family="Times,serif" font-size="10.00" fill="#000000">label:</text>
<text text-anchor="start" x="50" y="-119" font-family="Times,serif" font-size="10.00" fill="#000000">Leslie Carr</text>
</g>
<!-- &#45;attrs4&#45;&gt;http://id.ecs.soton.ac.uk/person/60 -->
<g id="edge5" class="edge">
<title>&#45;attrs4&#45;&gt;http://id.ecs.soton.ac.uk/person/60</title>
<path fill="none" stroke="#c0c0c0" stroke-dasharray="5,2" d="M67.0468,-146.1686C70.3796,-158.1664 74.6942,-173.6993 77.8317,-184.9941"/>
</g>
</g>
</svg>
