<?xml version="1.0" encoding="UTF-8" standalone="no"?>
<!DOCTYPE svg PUBLIC "-//W3C//DTD SVG 1.1//EN"
 "http://www.w3.org/Graphics/SVG/1.1/DTD/svg11.dtd">
<!-- Generated by graphviz version 2.40.1 (20161225.0304)
 -->
<!-- Title: PROV Pages: 1 -->
<svg width="763pt" height="242pt"
 viewBox="0.00 0.00 763.00 242.00" xmlns="http://www.w3.org/2000/svg" xmlns:xlink="http://www.w3.org/1999/xlink">
<g id="graph0" class="graph" transform="scale(1 1) rotate(0) translate(4 238)">
<title>PROV</title>
<polygon fill="#ffffff" stroke="transparent" points="-4,4 -4,-238 759,-238 759,4 -4,4"/>
<g id="clust1" class="cluster">
<title>clusterurn:uuid:e5401dce&#45;9651&#45;4fd5&#45;8143&#45;55567d100c78</title>
<g id="a_clust1"><a xlink:href="urn:uuid:e5401dce-9651-4fd5-8143-55567d100c78" xlink:title="e5401dce&#45;9651&#45;4fd5&#45;8143&#45;55567d100c78">
<polygon fill="none" stroke="#000000" points="8,-8 8,-226 747,-226 747,-8 8,-8"/>
<text text-anchor="middle" x="377.5" y="-14.8" font-family="Times,serif" font-size="14.00" fill="#000000">e5401dce&#45;9651&#45;4fd5&#45;8143&#45;55567d100c78</text>
</a>
</g>
</g>
<!-- http://id.ecs.soton.ac.uk/project/308 -->
<g id="node1" class="node">
<title>http://id.ecs.soton.ac.uk/project/308</title>
<g id="a_node1"><a xlink:href="http://id.ecs.soton.ac.uk/project/308" xlink:title="308">
<polygon fill="#9fb1fc" stroke="#0000ff" points="480,-146 426,-146 426,-110 480,-110 480,-146"/>
<text text-anchor="middle" x="453" y="-123.8" font-family="Times,serif" font-size="14.00" fill="#000000">308</text>
</a>
</g>
</g>
<!-- http://id.ecs.soton.ac.uk/person/1615 -->
<g id="node3" class="node">
<title>http://id.ecs.soton.ac.uk/person/1615</title>
<g id="a_node3"><a xlink:href="http://id.ecs.soton.ac.uk/person/1615" xlink:title="1615">
<polygon fill="#fdb266" stroke="#000000" points="679.2105,-205.5623 645,-218 610.7895,-205.5623 610.8214,-185.4377 679.1786,-185.4377 679.2105,-205.5623"/>
<text text-anchor="middle" x="645" y="-195.8" font-family="Times,serif" font-size="14.00" fill="#000000">1615</text>
</a>
</g>
</g>
<!-- http://id.ecs.soton.ac.uk/project/308&#45;&gt;http://id.ecs.soton.ac.uk/person/1615 -->
<g id="edge7" class="edge">
<title>http://id.ecs.soton.ac.uk/project/308&#45;&gt;http://id.ecs.soton.ac.uk/person/1615</title>
<path fill="none" stroke="#000000" d="M480.3151,-141.732C483.5543,-143.2282 486.8339,-144.6837 490,-146 526.8017,-161.3002 569.6565,-176.0005 600.9655,-186.1895"/>
<polygon fill="#000000" stroke="#000000" points="600.111,-189.5915 610.7027,-189.3342 602.2623,-182.9303 600.111,-189.5915"/>
<text text-anchor="middle" x="492.5578" y="-130.6651" font-family="Times,serif" font-size="8.00" fill="#000000">assoc</text>
</g>
<!-- http://id.ecs.soton.ac.uk/person/395 -->
<g id="node5" class="node">
<title>http://id.ecs.soton.ac.uk/person/395</title>
<g id="a_node5"><a xlink:href="http://id.ecs.soton.ac.uk/person/395" xlink:title="395">
<polygon fill="#fdb266" stroke="#000000" points="518.7792,-205.5623 490,-218 461.2208,-205.5623 461.2476,-185.4377 518.7524,-185.4377 518.7792,-205.5623"/>
<text text-anchor="middle" x="490" y="-195.8" font-family="Times,serif" font-size="14.00" fill="#000000">395</text>
</a>
</g>
</g>
<!-- http://id.ecs.soton.ac.uk/project/308&#45;&gt;http://id.ecs.soton.ac.uk/person/395 -->
<g id="edge8" class="edge">
<title>http://id.ecs.soton.ac.uk/project/308&#45;&gt;http://id.ecs.soton.ac.uk/person/395</title>
<path fill="none" stroke="#000000" d="M462.3367,-146.1686C466.9608,-155.167 472.6068,-166.1538 477.5895,-175.8498"/>
<polygon fill="#000000" stroke="#000000" points="474.6049,-177.6995 482.2886,-184.9941 480.8309,-174.5 474.6049,-177.6995"/>
<text text-anchor="middle" x="477.3187" y="-144.5019" font-family="Times,serif" font-size="8.00" fill="#000000">assoc</text>
</g>
<!-- http://id.ecs.soton.ac.uk/person/3513 -->
<g id="node7" class="node">
<title>http://id.ecs.soton.ac.uk/person/3513</title>
<g id="a_node7"><a xlink:href="http://id.ecs.soton.ac.uk/person/3513" xlink:title="3513">
<polygon fill="#fdb266" stroke="#000000" points="414.2105,-205.5623 380,-218 345.7895,-205.5623 345.8214,-185.4377 414.1786,-185.4377 414.2105,-205.5623"/>
<text text-anchor="middle" x="380" y="-195.8" font-family="Times,serif" font-size="14.00" fill="#000000">3513</text>
</a>
</g>
</g>
<!-- http://id.ecs.soton.ac.uk/project/308&#45;&gt;http://id.ecs.soton.ac.uk/person/3513 -->
<g id="edge9" class="edge">
<title>http://id.ecs.soton.ac.uk/project/308&#45;&gt;http://id.ecs.soton.ac.uk/person/3513</title>
<path fill="none" stroke="#000000" d="M434.579,-146.1686C424.7905,-155.8231 412.6811,-167.7666 402.3573,-177.9489"/>
<polygon fill="#000000" stroke="#000000" points="399.8763,-175.48 395.2143,-184.9941 404.7918,-180.4638 399.8763,-175.48"/>
<text text-anchor="middle" x="438.3613" y="-158.284" font-family="Times,serif" font-size="8.00" fill="#000000">assoc</text>
</g>
<!-- http://id.ecs.soton.ac.uk/person/5741 -->
<g id="node9" class="node">
<title>http://id.ecs.soton.ac.uk/person/5741</title>
<g id="a_node9"><a xlink:href="http://id.ecs.soton.ac.uk/person/5741" xlink:title="5741">
<polygon fill="#fdb266" stroke="#000000" points="294.2105,-205.5623 260,-218 225.7895,-205.5623 225.8214,-185.4377 294.1786,-185.4377 294.2105,-205.5623"/>
<text text-anchor="middle" x="260" y="-195.8" font-family="Times,serif" font-size="14.00" fill="#000000">5741</text>
</a>
</g>
</g>
<!-- http://id.ecs.soton.ac.uk/project/308&#45;&gt;http://id.ecs.soton.ac.uk/person/5741 -->
<g id="edge10" class="edge">
<title>http://id.ecs.soton.ac.uk/project/308&#45;&gt;http://id.ecs.soton.ac.uk/person/5741</title>
<path fill="none" stroke="#000000" d="M425.6573,-142.1391C422.7588,-143.4971 419.8349,-144.8099 417,-146 379.7083,-161.6552 336.1305,-176.3716 304.3605,-186.4752"/>
<polygon fill="#000000" stroke="#000000" points="302.9685,-183.2442 294.4835,-189.5889 305.0731,-189.9203 302.9685,-183.2442"/>
<text text-anchor="middle" x="424.3528" y="-154.6822" font-family="Times,serif" font-size="8.00" fill="#000000">assoc</text>
</g>
<!-- http://id.ecs.soton.ac.uk/person/46 -->
<g id="node11" class="node">
<title>http://id.ecs.soton.ac.uk/person/46</title>
<g id="a_node11"><a xlink:href="http://id.ecs.soton.ac.uk/person/46" xlink:title="46">
<polygon fill="#fdb266" stroke="#000000" points="145,-205.5623 118,-218 91,-205.5623 91.0252,-185.4377 144.9748,-185.4377 145,-205.5623"/>
<text text-anchor="middle" x="118" y="-195.8" font-family="Times,serif" font-size="14.00" fill="#000000">46</text>
</a>
</g>
</g>
<!-- http://id.ecs.soton.ac.uk/project/308&#45;&gt;http://id.ecs.soton.ac.uk/person/46 -->
<g id="edge11" class="edge">
<title>http://id.ecs.soton.ac.uk/project/308&#45;&gt;http://id.ecs.soton.ac.uk/person/46</title>
<path fill="none" stroke="#000000" d="M425.8276,-142.5925C422.8959,-143.8622 419.9177,-145.0303 417,-146 331.2923,-174.4854 305.8748,-165.9218 217,-182 196.549,-185.6998 173.7254,-189.8482 155.1511,-193.2293"/>
<polygon fill="#000000" stroke="#000000" points="154.5225,-189.7861 145.3113,-195.021 155.7765,-196.6729 154.5225,-189.7861"/>
<text text-anchor="middle" x="424.055" y="-155.0874" font-family="Times,serif" font-size="8.00" fill="#000000">assoc</text>
</g>
<!-- &#45;attrs0 -->
<g id="node2" class="node">
<title>&#45;attrs0</title>
<polygon fill="none" stroke="#c0c0c0" points="602.5,-74 297.5,-74 297.5,-38 608.5,-38 608.5,-68 602.5,-74"/>
<polyline fill="none" stroke="#c0c0c0" points="602.5,-74 602.5,-68 "/>
<polyline fill="none" stroke="#c0c0c0" points="608.5,-68 602.5,-68 "/>
<text text-anchor="start" x="308" y="-59" font-family="Times,serif" font-size="10.00" fill="#000000">type:</text>
<text text-anchor="start" x="332" y="-59" font-family="Times,serif" font-size="10.00" fill="#000000">pic:Project</text>
<text text-anchor="start" x="307.894" y="-47" font-family="Times,serif" font-size="10.00" fill="#000000">label:</text>
<text text-anchor="start" x="331.9209" y="-47" font-family="Times,serif" font-size="10.00" fill="#000000">FREMA: e&#45;Learning Framework Reference Model for Assessment</text>
</g>
<!-- &#45;attrs0&#45;&gt;http://id.ecs.soton.ac.uk/project/308 -->
<g id="edge1" class="edge">
<title>&#45;attrs0&#45;&gt;http://id.ecs.soton.ac.uk/project/308</title>
<path fill="none" stroke="#c0c0c0" stroke-dasharray="5,2" d="M453,-74.1686C453,-85 453,-98.7124 453,-109.5867"/>
</g>
<!-- &#45;attrs1 -->
<g id="node4" class="node">
<title>&#45;attrs1</title>
<polygon fill="none" stroke="#c0c0c0" points="732.5,-146 625.5,-146 625.5,-110 738.5,-110 738.5,-140 732.5,-146"/>
<polyline fill="none" stroke="#c0c0c0" points="732.5,-146 732.5,-140 "/>
<polyline fill="none" stroke="#c0c0c0" points="738.5,-140 732.5,-140 "/>
<text text-anchor="start" x="636" y="-131" font-family="Times,serif" font-size="10.00" fill="#000000">type:</text>
<text text-anchor="start" x="660" y="-131" font-family="Times,serif" font-size="10.00" fill="#000000">prov:Person</text>
<text text-anchor="start" x="635.894" y="-119" font-family="Times,serif" font-size="10.00" fill="#000000">label:</text>
<text text-anchor="start" x="659.5073" y="-119" font-family="Times,serif" font-size="10.00" fill="#000000">Dr David Millard</text>
</g>
<!-- &#45;attrs1&#45;&gt;http://id.ecs.soton.ac.uk/person/1615 -->
<g id="edge2" class="edge">
<title>&#45;attrs1&#45;&gt;http://id.ecs.soton.ac.uk/person/1615</title>
<path fill="none" stroke="#c0c0c0" stroke-dasharray="5,2" d="M672.6633,-146.1686C666.4978,-158.1664 658.5156,-173.6993 652.7114,-184.9941"/>
</g>
<!-- &#45;attrs2 -->
<g id="node6" class="node">
<title>&#45;attrs2</title>
<polygon fill="none" stroke="#c0c0c0" points="601.5,-146 498.5,-146 498.5,-110 607.5,-110 607.5,-140 601.5,-146"/>
<polyline fill="none" stroke="#c0c0c0" points="601.5,-146 601.5,-140 "/>
<polyline fill="none" stroke="#c0c0c0" points="607.5,-140 601.5,-140 "/>
<text text-anchor="start" x="509" y="-131" font-family="Times,serif" font-size="10.00" fill="#000000">type:</text>
<text text-anchor="start" x="533" y="-131" font-family="Times,serif" font-size="10.00" fill="#000000">prov:Person</text>
<text text-anchor="start" x="508.894" y="-119" font-family="Times,serif" font-size="10.00" fill="#000000">label:</text>
<text text-anchor="start" x="532.5972" y="-119" font-family="Times,serif" font-size="10.00" fill="#000000">Dr Gary B Wills</text>
</g>
<!-- &#45;attrs2&#45;&gt;http://id.ecs.soton.ac.uk/person/395 -->
<g id="edge3" class="edge">
<title>&#45;attrs2&#45;&gt;http://id.ecs.soton.ac.uk/person/395</title>
<path fill="none" stroke="#c0c0c0" stroke-dasharray="5,2" d="M537.1024,-146.1686C526.6044,-158.1664 513.0131,-173.6993 503.1302,-184.9941"/>
</g>
<!-- &#45;attrs3 -->
<g id="node8" class="node">
<title>&#45;attrs3</title>
<polygon fill="none" stroke="#c0c0c0" points="401.5,-146 294.5,-146 294.5,-110 407.5,-110 407.5,-140 401.5,-146"/>
<polyline fill="none" stroke="#c0c0c0" points="401.5,-146 401.5,-140 "/>
<polyline fill="none" stroke="#c0c0c0" points="407.5,-140 401.5,-140 "/>
<text text-anchor="start" x="305" y="-131" font-family="Times,serif" font-size="10.00" fill="#000000">type:</text>
<text text-anchor="start" x="329" y="-131" font-family="Times,serif" font-size="10.00" fill="#000000">prov:Person</text>
<text text-anchor="start" x="304.894" y="-119" font-family="Times,serif" font-size="10.00" fill="#000000">label:</text>
<text text-anchor="start" x="328.5073" y="-119" font-family="Times,serif" font-size="10.00" fill="#000000">Dr David Millard</text>
</g>
<!-- &#45;attrs3&#45;&gt;http://id.ecs.soton.ac.uk/person/3513 -->
<g id="edge4" class="edge">
<title>&#45;attrs3&#45;&gt;http://id.ecs.soton.ac.uk/person/3513</title>
<path fill="none" stroke="#c0c0c0" stroke-dasharray="5,2" d="M358.3179,-146.1686C363.1504,-158.1664 369.4067,-173.6993 373.9559,-184.9941"/>
</g>
<!-- &#45;attrs4 -->
<g id="node10" class="node">
<title>&#45;attrs4</title>
<polygon fill="none" stroke="#c0c0c0" points="270.5,-146 177.5,-146 177.5,-110 276.5,-110 276.5,-140 270.5,-146"/>
<polyline fill="none" stroke="#c0c0c0" points="270.5,-146 270.5,-140 "/>
<polyline fill="none" stroke="#c0c0c0" points="276.5,-140 270.5,-140 "/>
<text text-anchor="start" x="188" y="-131" font-family="Times,serif" font-size="10.00" fill="#000000">type:</text>
<text text-anchor="start" x="212" y="-131" font-family="Times,serif" font-size="10.00" fill="#000000">prov:Person</text>
<text text-anchor="start" x="187.894" y="-119" font-family="Times,serif" font-size="10.00" fill="#000000">label:</text>
<text text-anchor="start" x="211.5947" y="-119" font-family="Times,serif" font-size="10.00" fill="#000000">Lester Gilbert</text>
</g>
<!-- &#45;attrs4&#45;&gt;http://id.ecs.soton.ac.uk/person/5741 -->
<g id="edge5" class="edge">
<title>&#45;attrs4&#45;&gt;http://id.ecs.soton.ac.uk/person/5741</title>
<path fill="none" stroke="#c0c0c0" stroke-dasharray="5,2" d="M235.3273,-146.1686C240.8263,-158.1664 247.9455,-173.6993 253.1223,-184.9941"/>
</g>
<!-- &#45;attrs5 -->
<g id="node12" class="node">
<title>&#45;attrs5</title>
<polygon fill="none" stroke="#c0c0c0" points="153.5,-146 16.5,-146 16.5,-110 159.5,-110 159.5,-140 153.5,-146"/>
<polyline fill="none" stroke="#c0c0c0" points="153.5,-146 153.5,-140 "/>
<polyline fill="none" stroke="#c0c0c0" points="159.5,-140 153.5,-140 "/>
<text text-anchor="start" x="27" y="-131" font-family="Times,serif" font-size="10.00" fill="#000000">type:</text>
<text text-anchor="start" x="51" y="-131" font-family="Times,serif" font-size="10.00" fill="#000000">prov:Person</text>
<text text-anchor="start" x="26.894" y="-119" font-family="Times,serif" font-size="10.00" fill="#000000">label:</text>
<text text-anchor="start" x="50.5024" y="-119" font-family="Times,serif" font-size="10.00" fill="#000000">Professor Hugh C. Davis</text>
</g>
<!-- &#45;attrs5&#45;&gt;http://id.ecs.soton.ac.uk/person/46 -->
<g id="edge6" class="edge">
<title>&#45;attrs5&#45;&gt;http://id.ecs.soton.ac.uk/person/46</title>
<path fill="none" stroke="#c0c0c0" stroke-dasharray="5,2" d="M95.5703,-146.1686C100.5693,-158.1664 107.0414,-173.6993 111.7475,-184.9941"/>
</g>
</g>
</svg>
