<?xml version="1.0" encoding="UTF-8" standalone="no"?>
<!DOCTYPE svg PUBLIC "-//W3C//DTD SVG 1.1//EN"
 "http://www.w3.org/Graphics/SVG/1.1/DTD/svg11.dtd">
<!-- Generated by graphviz version 2.40.1 (20161225.0304)
 -->
<!-- Title: PROV Pages: 1 -->
<svg width="270pt" height="242pt"
 viewBox="0.00 0.00 270.00 242.00" xmlns="http://www.w3.org/2000/svg" xmlns:xlink="http://www.w3.org/1999/xlink">
<g id="graph0" class="graph" transform="scale(1 1) rotate(0) translate(4 238)">
<title>PROV</title>
<polygon fill="#ffffff" stroke="transparent" points="-4,4 -4,-238 266,-238 266,4 -4,4"/>
<g id="clust1" class="cluster">
<title>clusterurn:uuid:416093e3&#45;4aa8&#45;4c44&#45;a2f9&#45;77240f5e3fba</title>
<g id="a_clust1"><a xlink:href="urn:uuid:416093e3-4aa8-4c44-a2f9-77240f5e3fba" xlink:title="416093e3&#45;4aa8&#45;4c44&#45;a2f9&#45;77240f5e3fba">
<polygon fill="none" stroke="#000000" points="8,-8 8,-226 254,-226 254,-8 8,-8"/>
<text text-anchor="middle" x="131" y="-14.8" font-family="Times,serif" font-size="14.00" fill="#000000">416093e3&#45;4aa8&#45;4c44&#45;a2f9&#45;77240f5e3fba</text>
</a>
</g>
</g>
<!-- http://id.ecs.soton.ac.uk/project/782 -->
<g id="node1" class="node">
<title>http://id.ecs.soton.ac.uk/project/782</title>
<g id="a_node1"><a xlink:href="http://id.ecs.soton.ac.uk/project/782" xlink:title="782">
<polygon fill="#9fb1fc" stroke="#0000ff" points="212,-146 158,-146 158,-110 212,-110 212,-146"/>
<text text-anchor="middle" x="185" y="-123.8" font-family="Times,serif" font-size="14.00" fill="#000000">782</text>
</a>
</g>
</g>
<!-- http://id.ecs.soton.ac.uk/person/3518 -->
<g id="node3" class="node">
<title>http://id.ecs.soton.ac.uk/person/3518</title>
<g id="a_node3"><a xlink:href="http://id.ecs.soton.ac.uk/person/3518" xlink:title="3518">
<polygon fill="#fdb266" stroke="#000000" points="169.2105,-205.5623 135,-218 100.7895,-205.5623 100.8214,-185.4377 169.1786,-185.4377 169.2105,-205.5623"/>
<text text-anchor="middle" x="135" y="-195.8" font-family="Times,serif" font-size="14.00" fill="#000000">3518</text>
</a>
</g>
</g>
<!-- http://id.ecs.soton.ac.uk/project/782&#45;&gt;http://id.ecs.soton.ac.uk/person/3518 -->
<g id="edge3" class="edge">
<title>http://id.ecs.soton.ac.uk/project/782&#45;&gt;http://id.ecs.soton.ac.uk/person/3518</title>
<path fill="none" stroke="#000000" d="M172.3829,-146.1686C165.9388,-155.4482 158.0261,-166.8424 151.1424,-176.7549"/>
<polygon fill="#000000" stroke="#000000" points="148.25,-174.784 145.4208,-184.9941 153.9996,-178.7768 148.25,-174.784"/>
<text text-anchor="middle" x="178.7748" y="-157.3386" font-family="Times,serif" font-size="8.00" fill="#000000">assoc</text>
</g>
<!-- &#45;attrs0 -->
<g id="node2" class="node">
<title>&#45;attrs0</title>
<polygon fill="none" stroke="#c0c0c0" points="222.5,-74 141.5,-74 141.5,-38 228.5,-38 228.5,-68 222.5,-74"/>
<polyline fill="none" stroke="#c0c0c0" points="222.5,-74 222.5,-68 "/>
<polyline fill="none" stroke="#c0c0c0" points="228.5,-68 222.5,-68 "/>
<text text-anchor="start" x="152" y="-59" font-family="Times,serif" font-size="10.00" fill="#000000">type:</text>
<text text-anchor="start" x="175.8398" y="-59" font-family="Times,serif" font-size="10.00" fill="#000000">pic:Project</text>
<text text-anchor="start" x="151.894" y="-47" font-family="Times,serif" font-size="10.00" fill="#000000">label:</text>
<text text-anchor="start" x="176" y="-47" font-family="Times,serif" font-size="10.00" fill="#000000">UBHave</text>
</g>
<!-- &#45;attrs0&#45;&gt;http://id.ecs.soton.ac.uk/project/782 -->
<g id="edge1" class="edge">
<title>&#45;attrs0&#45;&gt;http://id.ecs.soton.ac.uk/project/782</title>
<path fill="none" stroke="#c0c0c0" stroke-dasharray="5,2" d="M185,-74.1686C185,-85 185,-98.7124 185,-109.5867"/>
</g>
<!-- &#45;attrs1 -->
<g id="node4" class="node">
<title>&#45;attrs1</title>
<polygon fill="none" stroke="#c0c0c0" points="133.5,-146 32.5,-146 32.5,-110 139.5,-110 139.5,-140 133.5,-146"/>
<polyline fill="none" stroke="#c0c0c0" points="133.5,-146 133.5,-140 "/>
<polyline fill="none" stroke="#c0c0c0" points="139.5,-140 133.5,-140 "/>
<text text-anchor="start" x="43" y="-131" font-family="Times,serif" font-size="10.00" fill="#000000">type:</text>
<text text-anchor="start" x="67" y="-131" font-family="Times,serif" font-size="10.00" fill="#000000">prov:Person</text>
<text text-anchor="start" x="42.894" y="-119" font-family="Times,serif" font-size="10.00" fill="#000000">label:</text>
<text text-anchor="start" x="66.6372" y="-119" font-family="Times,serif" font-size="10.00" fill="#000000">Dr Mark J Weal</text>
</g>
<!-- &#45;attrs1&#45;&gt;http://id.ecs.soton.ac.uk/person/3518 -->
<g id="edge2" class="edge">
<title>&#45;attrs1&#45;&gt;http://id.ecs.soton.ac.uk/person/3518</title>
<path fill="none" stroke="#c0c0c0" stroke-dasharray="5,2" d="M98.3648,-146.1686C106.5299,-158.1664 117.1009,-173.6993 124.7876,-184.9941"/>
</g>
</g>
</svg>
