<?xml version="1.0" encoding="UTF-8" standalone="no"?>
<!DOCTYPE svg PUBLIC "-//W3C//DTD SVG 1.1//EN"
 "http://www.w3.org/Graphics/SVG/1.1/DTD/svg11.dtd">
<!-- Generated by graphviz version 2.40.1 (20161225.0304)
 -->
<!-- Title: G Pages: 1 -->
<svg width="224pt" height="462pt"
 viewBox="0.00 0.00 224.00 462.00" xmlns="http://www.w3.org/2000/svg" xmlns:xlink="http://www.w3.org/1999/xlink">
<g id="graph0" class="graph" transform="scale(1 1) rotate(0) translate(4 458)">
<title>G</title>
<polygon fill="#ffffff" stroke="transparent" points="-4,4 -4,-458 220,-458 220,4 -4,4"/>
<g id="clust1" class="cluster">
<title>cluster_c1</title>
<g id="a_clust1"><a xlink:href="http://openprovenance.org/vargen#bundleId" xlink:title="vargen:bundleId">
<polygon fill="none" stroke="#000000" points="8,-8 8,-446 208,-446 208,-8 8,-8"/>
<text text-anchor="middle" x="108" y="-14.8" font-family="Times,serif" font-size="14.00" fill="#000000">vargen:bundleId</text>
</a>
</g>
</g>
<!-- n1 -->
<g id="node1" class="node">
<title>n1</title>
<g id="a_node1"><a xlink:href="http://openprovenance.org/var#project" xlink:title="var:project">
<polygon fill="#9fb1fc" stroke="#0000ff" points="200.1356,-207 123.8644,-207 123.8644,-171 200.1356,-171 200.1356,-207"/>
<text text-anchor="middle" x="162" y="-184.8" font-family="Times,serif" font-size="14.00" fill="#000000">var:project</text>
</a>
</g>
</g>
<!-- b1 -->
<g id="node5" class="node">
<title>b1</title>
<ellipse fill="#c0c0c0" stroke="#c0c0c0" cx="52" cy="-309" rx="1.8" ry="1.8"/>
</g>
<!-- n1&#45;&gt;b1 -->
<g id="edge3" class="edge">
<title>n1&#45;&gt;b1</title>
<path fill="none" stroke="#fed37f" d="M142.055,-207.0173C121.0433,-226.5511 87.647,-259.2106 63,-291 58.6915,-296.5571 54.6582,-303.9035 52.9109,-307.2295"/>
<text text-anchor="middle" x="141.5142" y="-246" font-family="Times,serif" font-size="10.00" fill="#000000">wasAssociatedWith</text>
</g>
<!-- ann1 -->
<g id="node2" class="node">
<title>ann1</title>
<polygon fill="none" stroke="#c0c0c0" points="194,-96 58,-96 58,-38 200,-38 200,-90 194,-96"/>
<polyline fill="none" stroke="#c0c0c0" points="194,-96 194,-90 "/>
<polyline fill="none" stroke="#c0c0c0" points="200,-90 194,-90 "/>
<g id="a_node2_0"><a xlink:href="http://www.w3.org/ns/prov#type" xlink:title="&lt;TABLE&gt;">
<text text-anchor="start" x="68" y="-82" font-family="Times,serif" font-size="10.00" fill="#000000">prov:type</text>
</a>
</g>
<g id="a_node2_1"><a xlink:href="http://www.ipaw.info/ns/picaso#Project" xlink:title="&lt;TABLE&gt;">
<text text-anchor="start" x="129" y="-82" font-family="Times,serif" font-size="10.00" fill="#000000">pic:Project</text>
</a>
</g>
<g id="a_node2_2"><a xlink:href="http://openprovenance.org/tmpl#endTime" xlink:title="&lt;TABLE&gt;">
<text text-anchor="start" x="68" y="-70" font-family="Times,serif" font-size="10.00" fill="#000000">tmpl:endTime</text>
</a>
</g>
<g id="a_node2_3"><a xlink:href="http://openprovenance.org/var#endTime" xlink:title="&lt;TABLE&gt;">
<text text-anchor="start" x="129" y="-70" font-family="Times,serif" font-size="10.00" fill="#000000">var:endTime</text>
</a>
</g>
<g id="a_node2_4"><a xlink:href="http://openprovenance.org/tmpl#label" xlink:title="&lt;TABLE&gt;">
<text text-anchor="start" x="68" y="-58" font-family="Times,serif" font-size="10.00" fill="#000000">tmpl:label</text>
</a>
</g>
<g id="a_node2_5"><a xlink:href="http://openprovenance.org/var#projectTitle" xlink:title="&lt;TABLE&gt;">
<text text-anchor="start" x="128.5771" y="-58" font-family="Times,serif" font-size="10.00" fill="#000000">var:projectTitle</text>
</a>
</g>
<g id="a_node2_6"><a xlink:href="http://openprovenance.org/tmpl#startTime" xlink:title="&lt;TABLE&gt;">
<text text-anchor="start" x="67.9565" y="-46" font-family="Times,serif" font-size="10.00" fill="#000000">tmpl:startTime</text>
</a>
</g>
<g id="a_node2_7"><a xlink:href="http://openprovenance.org/var#startTime" xlink:title="&lt;TABLE&gt;">
<text text-anchor="start" x="129" y="-46" font-family="Times,serif" font-size="10.00" fill="#000000">var:startTime</text>
</a>
</g>
</g>
<!-- ann1&#45;&gt;n1 -->
<g id="edge1" class="edge">
<title>ann1&#45;&gt;n1</title>
<path fill="none" stroke="#c0c0c0" stroke-dasharray="5,2" d="M136.9043,-96.222C143.1967,-119.4849 151.8031,-151.3023 157.1266,-170.9831"/>
</g>
<!-- n2 -->
<g id="node3" class="node">
<title>n2</title>
<g id="a_node3"><a xlink:href="http://openprovenance.org/var#person" xlink:title="var:person">
<polygon fill="#fed37f" stroke="#000000" points="163.7598,-425.5623 105,-438 46.2402,-425.5623 46.2951,-405.4377 163.7049,-405.4377 163.7598,-425.5623"/>
<text text-anchor="middle" x="105" y="-415.8" font-family="Times,serif" font-size="14.00" fill="#000000">var:person</text>
</a>
</g>
</g>
<!-- ann2 -->
<g id="node4" class="node">
<title>ann2</title>
<polygon fill="none" stroke="#c0c0c0" points="194,-327 72,-327 72,-291 200,-291 200,-321 194,-327"/>
<polyline fill="none" stroke="#c0c0c0" points="194,-327 194,-321 "/>
<polyline fill="none" stroke="#c0c0c0" points="200,-321 194,-321 "/>
<g id="a_node4_8"><a xlink:href="http://www.w3.org/ns/prov#type" xlink:title="&lt;TABLE&gt;">
<text text-anchor="start" x="82" y="-312" font-family="Times,serif" font-size="10.00" fill="#000000">prov:type</text>
</a>
</g>
<g id="a_node4_9"><a xlink:href="http://www.w3.org/ns/prov#Person" xlink:title="&lt;TABLE&gt;">
<text text-anchor="start" x="124" y="-312" font-family="Times,serif" font-size="10.00" fill="#000000">prov:Person</text>
</a>
</g>
<g id="a_node4_10"><a xlink:href="http://openprovenance.org/tmpl#label" xlink:title="&lt;TABLE&gt;">
<text text-anchor="start" x="81.7266" y="-300" font-family="Times,serif" font-size="10.00" fill="#000000">tmpl:label</text>
</a>
</g>
<g id="a_node4_11"><a xlink:href="http://openprovenance.org/var#personName" xlink:title="&lt;TABLE&gt;">
<text text-anchor="start" x="123.958" y="-300" font-family="Times,serif" font-size="10.00" fill="#000000">var:personName</text>
</a>
</g>
</g>
<!-- ann2&#45;&gt;n2 -->
<g id="edge2" class="edge">
<title>ann2&#45;&gt;n2</title>
<path fill="none" stroke="#c0c0c0" stroke-dasharray="5,2" d="M130.881,-327.3294C124.7932,-349.1274 114.7515,-385.0834 109.1336,-405.1991"/>
</g>
<!-- b1&#45;&gt;n2 -->
<g id="edge4" class="edge">
<title>b1&#45;&gt;n2</title>
<path fill="none" stroke="#fed37f" d="M52.9199,-310.9266C57.6622,-320.8586 79.6602,-366.9298 93.5059,-395.9275"/>
<polygon fill="#fed37f" stroke="#fed37f" points="90.3849,-397.514 97.8522,-405.03 96.7018,-394.4978 90.3849,-397.514"/>
</g>
<!-- ann3 -->
<g id="node6" class="node">
<title>ann3</title>
<polygon fill="none" stroke="#c0c0c0" points="99.5,-207 16.5,-207 16.5,-171 105.5,-171 105.5,-201 99.5,-207"/>
<polyline fill="none" stroke="#c0c0c0" points="99.5,-207 99.5,-201 "/>
<polyline fill="none" stroke="#c0c0c0" points="105.5,-201 99.5,-201 "/>
<g id="a_node6_12"><a xlink:href="http://www.w3.org/ns/prov#role" xlink:title="&lt;TABLE&gt;">
<text text-anchor="start" x="26.6724" y="-186" font-family="Times,serif" font-size="10.00" fill="#000000">prov:role</text>
</a>
</g>
<g id="a_node6_13"><a xlink:href="http://openprovenance.org/var#role" xlink:title="&lt;TABLE&gt;">
<text text-anchor="start" x="64.9531" y="-186" font-family="Times,serif" font-size="10.00" fill="#000000">var:role</text>
</a>
</g>
</g>
<!-- ann3&#45;&gt;b1 -->
<g id="edge5" class="edge">
<title>ann3&#45;&gt;b1</title>
<path fill="none" stroke="#c0c0c0" stroke-dasharray="5,2" d="M59.6331,-207.2254C57.3711,-237.3856 53.0123,-295.5031 52.1502,-306.9971"/>
</g>
</g>
</svg>
