<?xml version="1.0" encoding="UTF-8" standalone="no"?>
<!DOCTYPE svg PUBLIC "-//W3C//DTD SVG 1.1//EN"
 "http://www.w3.org/Graphics/SVG/1.1/DTD/svg11.dtd">
<!-- Generated by graphviz version 2.40.1 (20161225.0304)
 -->
<!-- Title: G Pages: 1 -->
<svg width="168pt" height="440pt"
 viewBox="0.00 0.00 168.00 440.00" xmlns="http://www.w3.org/2000/svg" xmlns:xlink="http://www.w3.org/1999/xlink">
<g id="graph0" class="graph" transform="scale(1 1) rotate(0) translate(4 436)">
<title>G</title>
<polygon fill="#ffffff" stroke="transparent" points="-4,4 -4,-436 164,-436 164,4 -4,4"/>
<g id="clust1" class="cluster">
<title>cluster_c1</title>
<g id="a_clust1"><a xlink:href="http://openprovenance.org/vargen#bundleId" xlink:title="vargen:bundleId">
<polygon fill="none" stroke="#000000" points="8,-8 8,-424 152,-424 152,-8 8,-8"/>
<text text-anchor="middle" x="80" y="-14.8" font-family="Times,serif" font-size="14.00" fill="#000000">vargen:bundleId</text>
</a>
</g>
</g>
<!-- n1 -->
<g id="node1" class="node">
<title>n1</title>
<g id="a_node1"><a xlink:href="http://openprovenance.org/var#e1" xlink:title="var:e1">
<ellipse fill="#fffc87" stroke="#808080" cx="69" cy="-398" rx="32.4063" ry="18"/>
<text text-anchor="middle" x="69" y="-393.8" font-family="Times,serif" font-size="14.00" fill="#000000">var:e1</text>
</a>
</g>
</g>
<!-- ann1 -->
<g id="node2" class="node">
<title>ann1</title>
<polygon fill="none" stroke="#c0c0c0" points="138,-305 38,-305 38,-269 144,-269 144,-299 138,-305"/>
<polyline fill="none" stroke="#c0c0c0" points="138,-305 138,-299 "/>
<polyline fill="none" stroke="#c0c0c0" points="144,-299 138,-299 "/>
<g id="a_node2_0"><a xlink:href="http://www.w3.org/ns/prov#type" xlink:title="&lt;TABLE&gt;">
<text text-anchor="start" x="48" y="-290" font-family="Times,serif" font-size="10.00" fill="#000000">prov:type</text>
</a>
</g>
<g id="a_node2_1"><a xlink:href="http://openprovenance.org/var#e1Type" xlink:title="&lt;TABLE&gt;">
<text text-anchor="start" x="89.583" y="-290" font-family="Times,serif" font-size="10.00" fill="#000000">var:e1Type</text>
</a>
</g>
<g id="a_node2_2"><a xlink:href="http://openprovenance.org/tmpl#label" xlink:title="&lt;TABLE&gt;">
<text text-anchor="start" x="47.7266" y="-278" font-family="Times,serif" font-size="10.00" fill="#000000">tmpl:label</text>
</a>
</g>
<g id="a_node2_3"><a xlink:href="http://openprovenance.org/var#e1Title" xlink:title="&lt;TABLE&gt;">
<text text-anchor="start" x="90" y="-278" font-family="Times,serif" font-size="10.00" fill="#000000">var:e1Title</text>
</a>
</g>
</g>
<!-- ann1&#45;&gt;n1 -->
<g id="edge1" class="edge">
<title>ann1&#45;&gt;n1</title>
<path fill="none" stroke="#c0c0c0" stroke-dasharray="5,2" d="M87.3671,-305.3294C83.2665,-326.0191 76.6379,-359.4634 72.5653,-380.0117"/>
</g>
<!-- n2 -->
<g id="node3" class="node">
<title>n2</title>
<g id="a_node3"><a xlink:href="http://openprovenance.org/var#e2" xlink:title="var:e2">
<ellipse fill="#fffc87" stroke="#808080" cx="58" cy="-167" rx="32.4063" ry="18"/>
<text text-anchor="middle" x="58" y="-162.8" font-family="Times,serif" font-size="14.00" fill="#000000">var:e2</text>
</a>
</g>
</g>
<!-- b1 -->
<g id="node5" class="node">
<title>b1</title>
<ellipse fill="#c0c0c0" stroke="#c0c0c0" cx="18" cy="-287" rx="1.8" ry="1.8"/>
</g>
<!-- n2&#45;&gt;b1 -->
<g id="edge3" class="edge">
<title>n2&#45;&gt;b1</title>
<path fill="none" stroke="#000000" d="M52.0979,-184.7064C42.0143,-214.957 22.203,-274.391 18.577,-285.269"/>
<text text-anchor="middle" x="73.7144" y="-224" font-family="Times,serif" font-size="10.00" fill="#000000">wasDerivedFrom</text>
</g>
<!-- ann2 -->
<g id="node4" class="node">
<title>ann2</title>
<polygon fill="none" stroke="#c0c0c0" points="116,-74 16,-74 16,-38 122,-38 122,-68 116,-74"/>
<polyline fill="none" stroke="#c0c0c0" points="116,-74 116,-68 "/>
<polyline fill="none" stroke="#c0c0c0" points="122,-68 116,-68 "/>
<g id="a_node4_4"><a xlink:href="http://www.w3.org/ns/prov#type" xlink:title="&lt;TABLE&gt;">
<text text-anchor="start" x="26" y="-59" font-family="Times,serif" font-size="10.00" fill="#000000">prov:type</text>
</a>
</g>
<g id="a_node4_5"><a xlink:href="http://openprovenance.org/var#e2Type" xlink:title="&lt;TABLE&gt;">
<text text-anchor="start" x="67.583" y="-59" font-family="Times,serif" font-size="10.00" fill="#000000">var:e2Type</text>
</a>
</g>
<g id="a_node4_6"><a xlink:href="http://openprovenance.org/tmpl#label" xlink:title="&lt;TABLE&gt;">
<text text-anchor="start" x="25.7266" y="-47" font-family="Times,serif" font-size="10.00" fill="#000000">tmpl:label</text>
</a>
</g>
<g id="a_node4_7"><a xlink:href="http://openprovenance.org/var#e2Title" xlink:title="&lt;TABLE&gt;">
<text text-anchor="start" x="68" y="-47" font-family="Times,serif" font-size="10.00" fill="#000000">var:e2Title</text>
</a>
</g>
</g>
<!-- ann2&#45;&gt;n2 -->
<g id="edge2" class="edge">
<title>ann2&#45;&gt;n2</title>
<path fill="none" stroke="#c0c0c0" stroke-dasharray="5,2" d="M67.1836,-74.3294C65.1332,-95.0191 61.8189,-128.4634 59.7826,-149.0117"/>
</g>
<!-- b1&#45;&gt;n1 -->
<g id="edge4" class="edge">
<title>b1&#45;&gt;n1</title>
<path fill="none" stroke="#000000" d="M18.8852,-288.9266C23.3059,-298.5482 43.3096,-342.0857 56.6684,-371.1606"/>
<polygon fill="#000000" stroke="#000000" points="53.5564,-372.7709 60.9119,-380.3964 59.9172,-369.8483 53.5564,-372.7709"/>
</g>
</g>
</svg>
