<?xml version="1.0" encoding="UTF-8" standalone="no"?>
<!DOCTYPE svg PUBLIC "-//W3C//DTD SVG 1.1//EN"
 "http://www.w3.org/Graphics/SVG/1.1/DTD/svg11.dtd">
<!-- Generated by graphviz version 2.40.1 (20161225.0304)
 -->
<!-- Title: PROV Pages: 1 -->
<svg width="820pt" height="242pt"
 viewBox="0.00 0.00 820.00 242.00" xmlns="http://www.w3.org/2000/svg" xmlns:xlink="http://www.w3.org/1999/xlink">
<g id="graph0" class="graph" transform="scale(1 1) rotate(0) translate(4 238)">
<title>PROV</title>
<polygon fill="#ffffff" stroke="transparent" points="-4,4 -4,-238 816,-238 816,4 -4,4"/>
<g id="clust1" class="cluster">
<title>clusterurn:uuid:4b0f1199&#45;3f40&#45;4a7d&#45;8a30&#45;e91d34ec0a7f</title>
<g id="a_clust1"><a xlink:href="urn:uuid:4b0f1199-3f40-4a7d-8a30-e91d34ec0a7f" xlink:title="4b0f1199&#45;3f40&#45;4a7d&#45;8a30&#45;e91d34ec0a7f">
<polygon fill="none" stroke="#000000" points="8,-8 8,-226 804,-226 804,-8 8,-8"/>
<text text-anchor="middle" x="406" y="-14.8" font-family="Times,serif" font-size="14.00" fill="#000000">4b0f1199&#45;3f40&#45;4a7d&#45;8a30&#45;e91d34ec0a7f</text>
</a>
</g>
</g>
<!-- http://acm.rkbexplorer.com/ -->
<g id="node1" class="node">
<title>http://acm.rkbexplorer.com/</title>
<g id="a_node1"><a xlink:href="http://acm.rkbexplorer.com/" xlink:title="acm.rkbexplorer.com/">
<ellipse fill="#fffc87" stroke="#808080" cx="708" cy="-200" rx="87.9152" ry="18"/>
<text text-anchor="middle" x="708" y="-195.8" font-family="Times,serif" font-size="14.00" fill="#000000">acm.rkbexplorer.com/</text>
</a>
</g>
</g>
<!-- &#45;attrs0 -->
<g id="node2" class="node">
<title>&#45;attrs0</title>
<polygon fill="none" stroke="#c0c0c0" points="764,-146 646,-146 646,-110 770,-110 770,-140 764,-146"/>
<polyline fill="none" stroke="#c0c0c0" points="764,-146 764,-140 "/>
<polyline fill="none" stroke="#c0c0c0" points="770,-140 764,-140 "/>
<text text-anchor="start" x="656" y="-131" font-family="Times,serif" font-size="10.00" fill="#000000">type:</text>
<text text-anchor="start" x="680" y="-131" font-family="Times,serif" font-size="10.00" fill="#000000">pic:Dataset</text>
<text text-anchor="start" x="655.894" y="-119" font-family="Times,serif" font-size="10.00" fill="#000000">label:</text>
<text text-anchor="start" x="679.585" y="-119" font-family="Times,serif" font-size="10.00" fill="#000000">ACM RKBExplorer</text>
</g>
<!-- &#45;attrs0&#45;&gt;http://acm.rkbexplorer.com/ -->
<g id="edge1" class="edge">
<title>&#45;attrs0&#45;&gt;http://acm.rkbexplorer.com/</title>
<path fill="none" stroke="#c0c0c0" stroke-dasharray="5,2" d="M708,-146.1686C708,-157 708,-170.7124 708,-181.5867"/>
</g>
<!-- http://ieee.rkbexplorer.com/ -->
<g id="node3" class="node">
<title>http://ieee.rkbexplorer.com/</title>
<g id="a_node3"><a xlink:href="http://ieee.rkbexplorer.com/" xlink:title="ieee.rkbexplorer.com/">
<ellipse fill="#fffc87" stroke="#808080" cx="515" cy="-200" rx="87.4221" ry="18"/>
<text text-anchor="middle" x="515" y="-195.8" font-family="Times,serif" font-size="14.00" fill="#000000">ieee.rkbexplorer.com/</text>
</a>
</g>
</g>
<!-- &#45;attrs1 -->
<g id="node4" class="node">
<title>&#45;attrs1</title>
<polygon fill="none" stroke="#c0c0c0" points="590.5,-146 473.5,-146 473.5,-110 596.5,-110 596.5,-140 590.5,-146"/>
<polyline fill="none" stroke="#c0c0c0" points="590.5,-146 590.5,-140 "/>
<polyline fill="none" stroke="#c0c0c0" points="596.5,-140 590.5,-140 "/>
<text text-anchor="start" x="484" y="-131" font-family="Times,serif" font-size="10.00" fill="#000000">type:</text>
<text text-anchor="start" x="508" y="-131" font-family="Times,serif" font-size="10.00" fill="#000000">pic:Dataset</text>
<text text-anchor="start" x="483.894" y="-119" font-family="Times,serif" font-size="10.00" fill="#000000">label:</text>
<text text-anchor="start" x="507.6489" y="-119" font-family="Times,serif" font-size="10.00" fill="#000000">IEEE RKBExplorer</text>
</g>
<!-- &#45;attrs1&#45;&gt;http://ieee.rkbexplorer.com/ -->
<g id="edge2" class="edge">
<title>&#45;attrs1&#45;&gt;http://ieee.rkbexplorer.com/</title>
<path fill="none" stroke="#c0c0c0" stroke-dasharray="5,2" d="M529.9532,-146.1686C526.9445,-157 523.1354,-170.7124 520.1148,-181.5867"/>
</g>
<!-- http://dblp.rkbexplorer.com/ -->
<g id="node5" class="node">
<title>http://dblp.rkbexplorer.com/</title>
<g id="a_node5"><a xlink:href="http://dblp.rkbexplorer.com/" xlink:title="dblp.rkbexplorer.com/">
<ellipse fill="#fffc87" stroke="#808080" cx="321" cy="-200" rx="88.9015" ry="18"/>
<text text-anchor="middle" x="321" y="-195.8" font-family="Times,serif" font-size="14.00" fill="#000000">dblp.rkbexplorer.com/</text>
</a>
</g>
</g>
<!-- &#45;attrs2 -->
<g id="node6" class="node">
<title>&#45;attrs2</title>
<polygon fill="none" stroke="#c0c0c0" points="358.5,-146 237.5,-146 237.5,-110 364.5,-110 364.5,-140 358.5,-146"/>
<polyline fill="none" stroke="#c0c0c0" points="358.5,-146 358.5,-140 "/>
<polyline fill="none" stroke="#c0c0c0" points="364.5,-140 358.5,-140 "/>
<text text-anchor="start" x="248" y="-131" font-family="Times,serif" font-size="10.00" fill="#000000">type:</text>
<text text-anchor="start" x="272" y="-131" font-family="Times,serif" font-size="10.00" fill="#000000">pic:Dataset</text>
<text text-anchor="start" x="247.894" y="-119" font-family="Times,serif" font-size="10.00" fill="#000000">label:</text>
<text text-anchor="start" x="271.8789" y="-119" font-family="Times,serif" font-size="10.00" fill="#000000">DBLP RKBExplorer</text>
</g>
<!-- &#45;attrs2&#45;&gt;http://dblp.rkbexplorer.com/ -->
<g id="edge3" class="edge">
<title>&#45;attrs2&#45;&gt;http://dblp.rkbexplorer.com/</title>
<path fill="none" stroke="#c0c0c0" stroke-dasharray="5,2" d="M306.0468,-146.1686C309.0555,-157 312.8646,-170.7124 315.8852,-181.5867"/>
</g>
<!-- http://citeseer.rkbexplorer.com/ -->
<g id="node7" class="node">
<title>http://citeseer.rkbexplorer.com/</title>
<g id="a_node7"><a xlink:href="http://citeseer.rkbexplorer.com/" xlink:title="citeseer.rkbexplorer.com/">
<ellipse fill="#fffc87" stroke="#808080" cx="115" cy="-200" rx="99.4916" ry="18"/>
<text text-anchor="middle" x="115" y="-195.8" font-family="Times,serif" font-size="14.00" fill="#000000">citeseer.rkbexplorer.com/</text>
</a>
</g>
</g>
<!-- &#45;attrs3 -->
<g id="node8" class="node">
<title>&#45;attrs3</title>
<polygon fill="none" stroke="#c0c0c0" points="176,-146 48,-146 48,-110 182,-110 182,-140 176,-146"/>
<polyline fill="none" stroke="#c0c0c0" points="176,-146 176,-140 "/>
<polyline fill="none" stroke="#c0c0c0" points="182,-140 176,-140 "/>
<text text-anchor="start" x="58" y="-131" font-family="Times,serif" font-size="10.00" fill="#000000">type:</text>
<text text-anchor="start" x="82" y="-131" font-family="Times,serif" font-size="10.00" fill="#000000">pic:Dataset</text>
<text text-anchor="start" x="57.894" y="-119" font-family="Times,serif" font-size="10.00" fill="#000000">label:</text>
<text text-anchor="start" x="81.5947" y="-119" font-family="Times,serif" font-size="10.00" fill="#000000">Citeseer RKBExplorer</text>
</g>
<!-- &#45;attrs3&#45;&gt;http://citeseer.rkbexplorer.com/ -->
<g id="edge4" class="edge">
<title>&#45;attrs3&#45;&gt;http://citeseer.rkbexplorer.com/</title>
<path fill="none" stroke="#c0c0c0" stroke-dasharray="5,2" d="M115,-146.1686C115,-157 115,-170.7124 115,-181.5867"/>
</g>
<!-- http://eprints.soton.ac.uk/id/eprint/264361 -->
<g id="node9" class="node">
<title>http://eprints.soton.ac.uk/id/eprint/264361</title>
<g id="a_node9"><a xlink:href="http://eprints.soton.ac.uk/id/eprint/264361" xlink:title="264361">
<ellipse fill="#fffc87" stroke="#808080" cx="419" cy="-128" rx="36.775" ry="18"/>
<text text-anchor="middle" x="419" y="-123.8" font-family="Times,serif" font-size="14.00" fill="#000000">264361</text>
</a>
</g>
</g>
<!-- http://eprints.soton.ac.uk/id/eprint/264361&#45;&gt;http://acm.rkbexplorer.com/ -->
<g id="edge6" class="edge">
<title>http://eprints.soton.ac.uk/id/eprint/264361&#45;&gt;http://acm.rkbexplorer.com/</title>
<path fill="none" stroke="#000000" d="M446.9771,-139.7396C452.871,-141.9886 459.0937,-144.1999 465,-146 496.3606,-155.5578 575.9031,-172.7541 635.5003,-185.1776"/>
<polygon fill="#000000" stroke="#000000" points="635.1271,-188.6747 645.6302,-187.2834 636.5519,-181.8213 635.1271,-188.6747"/>
<text text-anchor="middle" x="458.5919" y="-127.8478" font-family="Times,serif" font-size="8.00" fill="#000000">der</text>
</g>
<!-- http://eprints.soton.ac.uk/id/eprint/264361&#45;&gt;http://ieee.rkbexplorer.com/ -->
<g id="edge7" class="edge">
<title>http://eprints.soton.ac.uk/id/eprint/264361&#45;&gt;http://ieee.rkbexplorer.com/</title>
<path fill="none" stroke="#000000" d="M439.3591,-143.2693C452.1497,-152.8622 468.9124,-165.4343 483.4063,-176.3048"/>
<polygon fill="#000000" stroke="#000000" points="481.5308,-179.2731 491.6308,-182.4731 485.7308,-173.6731 481.5308,-179.2731"/>
<text text-anchor="middle" x="453.1534" y="-134.977" font-family="Times,serif" font-size="8.00" fill="#000000">der</text>
</g>
<!-- http://eprints.soton.ac.uk/id/eprint/264361&#45;&gt;http://dblp.rkbexplorer.com/ -->
<g id="edge8" class="edge">
<title>http://eprints.soton.ac.uk/id/eprint/264361&#45;&gt;http://dblp.rkbexplorer.com/</title>
<path fill="none" stroke="#000000" d="M398.2167,-143.2693C385.1597,-152.8622 368.0478,-165.4343 353.2519,-176.3048"/>
<polygon fill="#000000" stroke="#000000" points="350.8426,-173.7317 344.856,-182.4731 354.9871,-179.3729 350.8426,-173.7317"/>
<text text-anchor="middle" x="399.8639" y="-155.7786" font-family="Times,serif" font-size="8.00" fill="#000000">der</text>
</g>
<!-- http://eprints.soton.ac.uk/id/eprint/264361&#45;&gt;http://citeseer.rkbexplorer.com/ -->
<g id="edge9" class="edge">
<title>http://eprints.soton.ac.uk/id/eprint/264361&#45;&gt;http://citeseer.rkbexplorer.com/</title>
<path fill="none" stroke="#000000" d="M391.184,-140.0041C385.5587,-142.1819 379.639,-144.2987 374,-146 316.696,-163.2894 250.6206,-176.9692 199.5519,-186.2343"/>
<polygon fill="#000000" stroke="#000000" points="198.7707,-182.8185 189.5453,-188.0283 200.006,-189.7087 198.7707,-182.8185"/>
<text text-anchor="middle" x="388.8388" y="-152.4197" font-family="Times,serif" font-size="8.00" fill="#000000">der</text>
</g>
<!-- &#45;attrs4 -->
<g id="node10" class="node">
<title>&#45;attrs4</title>
<polygon fill="none" stroke="#c0c0c0" points="454.5,-74 377.5,-74 377.5,-38 460.5,-38 460.5,-68 454.5,-74"/>
<polyline fill="none" stroke="#c0c0c0" points="454.5,-74 454.5,-68 "/>
<polyline fill="none" stroke="#c0c0c0" points="460.5,-68 454.5,-68 "/>
<text text-anchor="start" x="387.5024" y="-53" font-family="Times,serif" font-size="10.00" fill="#000000">type:</text>
<text text-anchor="start" x="408.6206" y="-53" font-family="Times,serif" font-size="10.00" fill="#000000">pic:Article</text>
</g>
<!-- &#45;attrs4&#45;&gt;http://eprints.soton.ac.uk/id/eprint/264361 -->
<g id="edge5" class="edge">
<title>&#45;attrs4&#45;&gt;http://eprints.soton.ac.uk/id/eprint/264361</title>
<path fill="none" stroke="#c0c0c0" stroke-dasharray="5,2" d="M419,-74.1686C419,-85 419,-98.7124 419,-109.5867"/>
</g>
</g>
</svg>
