<?xml version="1.0" encoding="UTF-8" standalone="no"?>
<!DOCTYPE svg PUBLIC "-//W3C//DTD SVG 1.1//EN"
 "http://www.w3.org/Graphics/SVG/1.1/DTD/svg11.dtd">
<!-- Generated by graphviz version 2.40.1 (20161225.0304)
 -->
<!-- Title: PROV Pages: 1 -->
<svg width="371pt" height="242pt"
 viewBox="0.00 0.00 371.00 242.00" xmlns="http://www.w3.org/2000/svg" xmlns:xlink="http://www.w3.org/1999/xlink">
<g id="graph0" class="graph" transform="scale(1 1) rotate(0) translate(4 238)">
<title>PROV</title>
<polygon fill="#ffffff" stroke="transparent" points="-4,4 -4,-238 367,-238 367,4 -4,4"/>
<g id="clust1" class="cluster">
<title>clusterurn:uuid:4735f8b5&#45;7db0&#45;4f9d&#45;9bfa&#45;20762d208414</title>
<g id="a_clust1"><a xlink:href="urn:uuid:4735f8b5-7db0-4f9d-9bfa-20762d208414" xlink:title="4735f8b5&#45;7db0&#45;4f9d&#45;9bfa&#45;20762d208414">
<polygon fill="none" stroke="#000000" points="8,-8 8,-226 355,-226 355,-8 8,-8"/>
<text text-anchor="middle" x="181.5" y="-14.8" font-family="Times,serif" font-size="14.00" fill="#000000">4735f8b5&#45;7db0&#45;4f9d&#45;9bfa&#45;20762d208414</text>
</a>
</g>
</g>
<!-- http://data.usewod.org/prov/dataset/dbpedia2_0 -->
<g id="node1" class="node">
<title>http://data.usewod.org/prov/dataset/dbpedia2_0</title>
<g id="a_node1"><a xlink:href="http://data.usewod.org/prov/dataset/dbpedia2_0" xlink:title="dbpedia2_0">
<ellipse fill="#fffc87" stroke="#808080" cx="287" cy="-200" rx="51.2329" ry="18"/>
<text text-anchor="middle" x="287" y="-195.8" font-family="Times,serif" font-size="14.00" fill="#000000">dbpedia2_0</text>
</a>
</g>
</g>
<!-- &#45;attrs0 -->
<g id="node2" class="node">
<title>&#45;attrs0</title>
<polygon fill="none" stroke="#c0c0c0" points="341,-146 253,-146 253,-110 347,-110 347,-140 341,-146"/>
<polyline fill="none" stroke="#c0c0c0" points="341,-146 341,-140 "/>
<polyline fill="none" stroke="#c0c0c0" points="347,-140 341,-140 "/>
<text text-anchor="start" x="263" y="-131" font-family="Times,serif" font-size="10.00" fill="#000000">type:</text>
<text text-anchor="start" x="287" y="-131" font-family="Times,serif" font-size="10.00" fill="#000000">pic:Dataset</text>
<text text-anchor="start" x="262.894" y="-119" font-family="Times,serif" font-size="10.00" fill="#000000">label:</text>
<text text-anchor="start" x="286.7266" y="-119" font-family="Times,serif" font-size="10.00" fill="#000000">DBpedia 2.0</text>
</g>
<!-- &#45;attrs0&#45;&gt;http://data.usewod.org/prov/dataset/dbpedia2_0 -->
<g id="edge1" class="edge">
<title>&#45;attrs0&#45;&gt;http://data.usewod.org/prov/dataset/dbpedia2_0</title>
<path fill="none" stroke="#c0c0c0" stroke-dasharray="5,2" d="M296.7196,-146.1686C294.7639,-157 292.288,-170.7124 290.3246,-181.5867"/>
</g>
<!-- http://dblp.rkbexplorer.com/ -->
<g id="node3" class="node">
<title>http://dblp.rkbexplorer.com/</title>
<g id="a_node3"><a xlink:href="http://dblp.rkbexplorer.com/" xlink:title="dblp.rkbexplorer.com/">
<ellipse fill="#fffc87" stroke="#808080" cx="121" cy="-200" rx="88.9015" ry="18"/>
<text text-anchor="middle" x="121" y="-195.8" font-family="Times,serif" font-size="14.00" fill="#000000">dblp.rkbexplorer.com/</text>
</a>
</g>
</g>
<!-- &#45;attrs1 -->
<g id="node4" class="node">
<title>&#45;attrs1</title>
<polygon fill="none" stroke="#c0c0c0" points="137.5,-146 16.5,-146 16.5,-110 143.5,-110 143.5,-140 137.5,-146"/>
<polyline fill="none" stroke="#c0c0c0" points="137.5,-146 137.5,-140 "/>
<polyline fill="none" stroke="#c0c0c0" points="143.5,-140 137.5,-140 "/>
<text text-anchor="start" x="27" y="-131" font-family="Times,serif" font-size="10.00" fill="#000000">type:</text>
<text text-anchor="start" x="51" y="-131" font-family="Times,serif" font-size="10.00" fill="#000000">pic:Dataset</text>
<text text-anchor="start" x="26.894" y="-119" font-family="Times,serif" font-size="10.00" fill="#000000">label:</text>
<text text-anchor="start" x="50.8789" y="-119" font-family="Times,serif" font-size="10.00" fill="#000000">DBLP RKBExplorer</text>
</g>
<!-- &#45;attrs1&#45;&gt;http://dblp.rkbexplorer.com/ -->
<g id="edge2" class="edge">
<title>&#45;attrs1&#45;&gt;http://dblp.rkbexplorer.com/</title>
<path fill="none" stroke="#c0c0c0" stroke-dasharray="5,2" d="M90.346,-146.1686C96.6088,-157.1666 104.563,-171.135 110.7993,-182.0866"/>
</g>
<!-- http://eprints.soton.ac.uk/id/eprint/265181 -->
<g id="node5" class="node">
<title>http://eprints.soton.ac.uk/id/eprint/265181</title>
<g id="a_node5"><a xlink:href="http://eprints.soton.ac.uk/id/eprint/265181" xlink:title="265181">
<ellipse fill="#fffc87" stroke="#808080" cx="198" cy="-128" rx="36.775" ry="18"/>
<text text-anchor="middle" x="198" y="-123.8" font-family="Times,serif" font-size="14.00" fill="#000000">265181</text>
</a>
</g>
</g>
<!-- http://eprints.soton.ac.uk/id/eprint/265181&#45;&gt;http://data.usewod.org/prov/dataset/dbpedia2_0 -->
<g id="edge4" class="edge">
<title>http://eprints.soton.ac.uk/id/eprint/265181&#45;&gt;http://data.usewod.org/prov/dataset/dbpedia2_0</title>
<path fill="none" stroke="#000000" d="M217.3117,-143.6229C229.3355,-153.35 245.0174,-166.0366 258.4597,-176.9112"/>
<polygon fill="#000000" stroke="#000000" points="256.5115,-179.837 266.4873,-183.4055 260.9141,-174.3949 256.5115,-179.837"/>
<text text-anchor="middle" x="231.3128" y="-135.8407" font-family="Times,serif" font-size="8.00" fill="#000000">der</text>
</g>
<!-- http://eprints.soton.ac.uk/id/eprint/265181&#45;&gt;http://dblp.rkbexplorer.com/ -->
<g id="edge5" class="edge">
<title>http://eprints.soton.ac.uk/id/eprint/265181&#45;&gt;http://dblp.rkbexplorer.com/</title>
<path fill="none" stroke="#000000" d="M180.9112,-143.9791C171.0475,-153.2023 158.4345,-164.9963 147.328,-175.3816"/>
<polygon fill="#000000" stroke="#000000" points="144.8456,-172.911 139.9319,-182.2975 149.6266,-178.024 144.8456,-172.911"/>
<text text-anchor="middle" x="184.3054" y="-156.1901" font-family="Times,serif" font-size="8.00" fill="#000000">der</text>
</g>
<!-- &#45;attrs2 -->
<g id="node6" class="node">
<title>&#45;attrs2</title>
<polygon fill="none" stroke="#c0c0c0" points="233.5,-74 156.5,-74 156.5,-38 239.5,-38 239.5,-68 233.5,-74"/>
<polyline fill="none" stroke="#c0c0c0" points="233.5,-74 233.5,-68 "/>
<polyline fill="none" stroke="#c0c0c0" points="239.5,-68 233.5,-68 "/>
<text text-anchor="start" x="166.5024" y="-53" font-family="Times,serif" font-size="10.00" fill="#000000">type:</text>
<text text-anchor="start" x="187.6206" y="-53" font-family="Times,serif" font-size="10.00" fill="#000000">pic:Article</text>
</g>
<!-- &#45;attrs2&#45;&gt;http://eprints.soton.ac.uk/id/eprint/265181 -->
<g id="edge3" class="edge">
<title>&#45;attrs2&#45;&gt;http://eprints.soton.ac.uk/id/eprint/265181</title>
<path fill="none" stroke="#c0c0c0" stroke-dasharray="5,2" d="M198,-74.1686C198,-85 198,-98.7124 198,-109.5867"/>
</g>
</g>
</svg>
