<?xml version="1.0" encoding="UTF-8" standalone="no"?>
<!DOCTYPE svg PUBLIC "-//W3C//DTD SVG 1.1//EN"
 "http://www.w3.org/Graphics/SVG/1.1/DTD/svg11.dtd">
<!-- Generated by graphviz version 2.40.1 (20161225.0304)
 -->
<!-- Title: PROV Pages: 1 -->
<svg width="399pt" height="242pt"
 viewBox="0.00 0.00 399.00 242.00" xmlns="http://www.w3.org/2000/svg" xmlns:xlink="http://www.w3.org/1999/xlink">
<g id="graph0" class="graph" transform="scale(1 1) rotate(0) translate(4 238)">
<title>PROV</title>
<polygon fill="#ffffff" stroke="transparent" points="-4,4 -4,-238 395,-238 395,4 -4,4"/>
<g id="clust1" class="cluster">
<title>clusterurn:uuid:4858fd69&#45;53e3&#45;47f2&#45;86cc&#45;b003047a74c8</title>
<g id="a_clust1"><a xlink:href="urn:uuid:4858fd69-53e3-47f2-86cc-b003047a74c8" xlink:title="4858fd69&#45;53e3&#45;47f2&#45;86cc&#45;b003047a74c8">
<polygon fill="none" stroke="#000000" points="8,-8 8,-226 383,-226 383,-8 8,-8"/>
<text text-anchor="middle" x="195.5" y="-14.8" font-family="Times,serif" font-size="14.00" fill="#000000">4858fd69&#45;53e3&#45;47f2&#45;86cc&#45;b003047a74c8</text>
</a>
</g>
</g>
<!-- http://www.orchid.ac.uk/eprints/id/eprint/57 -->
<g id="node1" class="node">
<title>http://www.orchid.ac.uk/eprints/id/eprint/57</title>
<g id="a_node1"><a xlink:href="http://www.orchid.ac.uk/eprints/id/eprint/57" xlink:title="57">
<ellipse fill="#fffc87" stroke="#808080" cx="304" cy="-200" rx="27" ry="18"/>
<text text-anchor="middle" x="304" y="-195.8" font-family="Times,serif" font-size="14.00" fill="#000000">57</text>
</a>
</g>
</g>
<!-- &#45;attrs0 -->
<g id="node2" class="node">
<title>&#45;attrs0</title>
<polygon fill="none" stroke="#c0c0c0" points="368.5,-146 291.5,-146 291.5,-110 374.5,-110 374.5,-140 368.5,-146"/>
<polyline fill="none" stroke="#c0c0c0" points="368.5,-146 368.5,-140 "/>
<polyline fill="none" stroke="#c0c0c0" points="374.5,-140 368.5,-140 "/>
<text text-anchor="start" x="301.5024" y="-125" font-family="Times,serif" font-size="10.00" fill="#000000">type:</text>
<text text-anchor="start" x="322.6206" y="-125" font-family="Times,serif" font-size="10.00" fill="#000000">pic:Article</text>
</g>
<!-- &#45;attrs0&#45;&gt;http://www.orchid.ac.uk/eprints/id/eprint/57 -->
<g id="edge1" class="edge">
<title>&#45;attrs0&#45;&gt;http://www.orchid.ac.uk/eprints/id/eprint/57</title>
<path fill="none" stroke="#c0c0c0" stroke-dasharray="5,2" d="M325.6821,-146.1686C321.1852,-157.3333 315.4554,-171.559 311.0155,-182.5823"/>
</g>
<!-- http://www.orchid.ac.uk/eprints/id/eprint/98 -->
<g id="node3" class="node">
<title>http://www.orchid.ac.uk/eprints/id/eprint/98</title>
<g id="a_node3"><a xlink:href="http://www.orchid.ac.uk/eprints/id/eprint/98" xlink:title="98">
<ellipse fill="#fffc87" stroke="#808080" cx="174" cy="-200" rx="27" ry="18"/>
<text text-anchor="middle" x="174" y="-195.8" font-family="Times,serif" font-size="14.00" fill="#000000">98</text>
</a>
</g>
</g>
<!-- &#45;attrs1 -->
<g id="node4" class="node">
<title>&#45;attrs1</title>
<polygon fill="none" stroke="#c0c0c0" points="267.5,-146 190.5,-146 190.5,-110 273.5,-110 273.5,-140 267.5,-146"/>
<polyline fill="none" stroke="#c0c0c0" points="267.5,-146 267.5,-140 "/>
<polyline fill="none" stroke="#c0c0c0" points="273.5,-140 267.5,-140 "/>
<text text-anchor="start" x="200.5024" y="-125" font-family="Times,serif" font-size="10.00" fill="#000000">type:</text>
<text text-anchor="start" x="221.6206" y="-125" font-family="Times,serif" font-size="10.00" fill="#000000">pic:Article</text>
</g>
<!-- &#45;attrs1&#45;&gt;http://www.orchid.ac.uk/eprints/id/eprint/98 -->
<g id="edge2" class="edge">
<title>&#45;attrs1&#45;&gt;http://www.orchid.ac.uk/eprints/id/eprint/98</title>
<path fill="none" stroke="#c0c0c0" stroke-dasharray="5,2" d="M217.3642,-146.1686C207.9677,-157.8332 195.8796,-172.8391 186.8541,-184.0432"/>
</g>
<!-- http://www.orchid.ac.uk/eprints/id/eprint/87 -->
<g id="node5" class="node">
<title>http://www.orchid.ac.uk/eprints/id/eprint/87</title>
<g id="a_node5"><a xlink:href="http://www.orchid.ac.uk/eprints/id/eprint/87" xlink:title="87">
<ellipse fill="#fffc87" stroke="#808080" cx="65" cy="-200" rx="27" ry="18"/>
<text text-anchor="middle" x="65" y="-195.8" font-family="Times,serif" font-size="14.00" fill="#000000">87</text>
</a>
</g>
</g>
<!-- &#45;attrs2 -->
<g id="node6" class="node">
<title>&#45;attrs2</title>
<polygon fill="none" stroke="#c0c0c0" points="93.5,-146 16.5,-146 16.5,-110 99.5,-110 99.5,-140 93.5,-146"/>
<polyline fill="none" stroke="#c0c0c0" points="93.5,-146 93.5,-140 "/>
<polyline fill="none" stroke="#c0c0c0" points="99.5,-140 93.5,-140 "/>
<text text-anchor="start" x="26.5024" y="-125" font-family="Times,serif" font-size="10.00" fill="#000000">type:</text>
<text text-anchor="start" x="47.6206" y="-125" font-family="Times,serif" font-size="10.00" fill="#000000">pic:Article</text>
</g>
<!-- &#45;attrs2&#45;&gt;http://www.orchid.ac.uk/eprints/id/eprint/87 -->
<g id="edge3" class="edge">
<title>&#45;attrs2&#45;&gt;http://www.orchid.ac.uk/eprints/id/eprint/87</title>
<path fill="none" stroke="#c0c0c0" stroke-dasharray="5,2" d="M59.7664,-146.1686C60.8194,-157 62.1526,-170.7124 63.2098,-181.5867"/>
</g>
<!-- http://www.orchid.ac.uk/eprints/id/eprint/205 -->
<g id="node7" class="node">
<title>http://www.orchid.ac.uk/eprints/id/eprint/205</title>
<g id="a_node7"><a xlink:href="http://www.orchid.ac.uk/eprints/id/eprint/205" xlink:title="205">
<ellipse fill="#fffc87" stroke="#808080" cx="145" cy="-128" rx="27" ry="18"/>
<text text-anchor="middle" x="145" y="-123.8" font-family="Times,serif" font-size="14.00" fill="#000000">205</text>
</a>
</g>
</g>
<!-- http://www.orchid.ac.uk/eprints/id/eprint/205&#45;&gt;http://www.orchid.ac.uk/eprints/id/eprint/57 -->
<g id="edge5" class="edge">
<title>http://www.orchid.ac.uk/eprints/id/eprint/205&#45;&gt;http://www.orchid.ac.uk/eprints/id/eprint/57</title>
<path fill="none" stroke="#000000" d="M166.8502,-138.7913C171.8147,-141.1981 177.076,-143.7134 182,-146 212.2302,-160.038 247.0225,-175.3563 271.6967,-186.08"/>
<polygon fill="#000000" stroke="#000000" points="270.3865,-189.3267 280.9535,-190.0939 273.1713,-182.9045 270.3865,-189.3267"/>
<text text-anchor="middle" x="179.2609" y="-127.9667" font-family="Times,serif" font-size="8.00" fill="#000000">der</text>
</g>
<!-- http://www.orchid.ac.uk/eprints/id/eprint/205&#45;&gt;http://www.orchid.ac.uk/eprints/id/eprint/98 -->
<g id="edge6" class="edge">
<title>http://www.orchid.ac.uk/eprints/id/eprint/205&#45;&gt;http://www.orchid.ac.uk/eprints/id/eprint/98</title>
<path fill="none" stroke="#000000" d="M152.0201,-145.4292C155.3439,-153.6813 159.3897,-163.7262 163.0999,-172.9377"/>
<polygon fill="#000000" stroke="#000000" points="159.9613,-174.5136 166.944,-182.4818 166.4544,-171.8982 159.9613,-174.5136"/>
<text text-anchor="middle" x="166.8719" y="-145.1327" font-family="Times,serif" font-size="8.00" fill="#000000">der</text>
</g>
<!-- http://www.orchid.ac.uk/eprints/id/eprint/205&#45;&gt;http://www.orchid.ac.uk/eprints/id/eprint/87 -->
<g id="edge7" class="edge">
<title>http://www.orchid.ac.uk/eprints/id/eprint/205&#45;&gt;http://www.orchid.ac.uk/eprints/id/eprint/87</title>
<path fill="none" stroke="#000000" d="M128.8108,-142.5703C117.3167,-152.9149 101.6985,-166.9714 88.7907,-178.5884"/>
<polygon fill="#000000" stroke="#000000" points="86.2567,-176.1602 81.1651,-185.4514 90.9395,-181.3633 86.2567,-176.1602"/>
<text text-anchor="middle" x="131.9262" y="-154.8432" font-family="Times,serif" font-size="8.00" fill="#000000">der</text>
</g>
<!-- &#45;attrs3 -->
<g id="node8" class="node">
<title>&#45;attrs3</title>
<polygon fill="none" stroke="#c0c0c0" points="180.5,-74 103.5,-74 103.5,-38 186.5,-38 186.5,-68 180.5,-74"/>
<polyline fill="none" stroke="#c0c0c0" points="180.5,-74 180.5,-68 "/>
<polyline fill="none" stroke="#c0c0c0" points="186.5,-68 180.5,-68 "/>
<text text-anchor="start" x="113.5024" y="-53" font-family="Times,serif" font-size="10.00" fill="#000000">type:</text>
<text text-anchor="start" x="134.6206" y="-53" font-family="Times,serif" font-size="10.00" fill="#000000">pic:Article</text>
</g>
<!-- &#45;attrs3&#45;&gt;http://www.orchid.ac.uk/eprints/id/eprint/205 -->
<g id="edge4" class="edge">
<title>&#45;attrs3&#45;&gt;http://www.orchid.ac.uk/eprints/id/eprint/205</title>
<path fill="none" stroke="#c0c0c0" stroke-dasharray="5,2" d="M145,-74.1686C145,-85 145,-98.7124 145,-109.5867"/>
</g>
</g>
</svg>
