<?xml version="1.0" encoding="UTF-8" standalone="no"?>
<!DOCTYPE svg PUBLIC "-//W3C//DTD SVG 1.1//EN"
 "http://www.w3.org/Graphics/SVG/1.1/DTD/svg11.dtd">
<!-- Generated by graphviz version 2.40.1 (20161225.0304)
 -->
<!-- Title: PROV Pages: 1 -->
<svg width="494pt" height="242pt"
 viewBox="0.00 0.00 494.00 242.00" xmlns="http://www.w3.org/2000/svg" xmlns:xlink="http://www.w3.org/1999/xlink">
<g id="graph0" class="graph" transform="scale(1 1) rotate(0) translate(4 238)">
<title>PROV</title>
<polygon fill="#ffffff" stroke="transparent" points="-4,4 -4,-238 490,-238 490,4 -4,4"/>
<g id="clust1" class="cluster">
<title>clusterurn:uuid:07d524f7&#45;68f2&#45;4cc6&#45;bcdd&#45;8442e719bf11</title>
<g id="a_clust1"><a xlink:href="urn:uuid:07d524f7-68f2-4cc6-bcdd-8442e719bf11" xlink:title="07d524f7&#45;68f2&#45;4cc6&#45;bcdd&#45;8442e719bf11">
<polygon fill="none" stroke="#000000" points="8,-8 8,-226 478,-226 478,-8 8,-8"/>
<text text-anchor="middle" x="243" y="-14.8" font-family="Times,serif" font-size="14.00" fill="#000000">07d524f7&#45;68f2&#45;4cc6&#45;bcdd&#45;8442e719bf11</text>
</a>
</g>
</g>
<!-- http://www.orchid.ac.uk/eprints/id/eprint/71 -->
<g id="node1" class="node">
<title>http://www.orchid.ac.uk/eprints/id/eprint/71</title>
<g id="a_node1"><a xlink:href="http://www.orchid.ac.uk/eprints/id/eprint/71" xlink:title="71">
<ellipse fill="#fffc87" stroke="#808080" cx="426" cy="-200" rx="27" ry="18"/>
<text text-anchor="middle" x="426" y="-195.8" font-family="Times,serif" font-size="14.00" fill="#000000">71</text>
</a>
</g>
</g>
<!-- &#45;attrs0 -->
<g id="node2" class="node">
<title>&#45;attrs0</title>
<polygon fill="none" stroke="#c0c0c0" points="463.5,-146 386.5,-146 386.5,-110 469.5,-110 469.5,-140 463.5,-146"/>
<polyline fill="none" stroke="#c0c0c0" points="463.5,-146 463.5,-140 "/>
<polyline fill="none" stroke="#c0c0c0" points="469.5,-140 463.5,-140 "/>
<text text-anchor="start" x="396.5024" y="-125" font-family="Times,serif" font-size="10.00" fill="#000000">type:</text>
<text text-anchor="start" x="417.6206" y="-125" font-family="Times,serif" font-size="10.00" fill="#000000">pic:Article</text>
</g>
<!-- &#45;attrs0&#45;&gt;http://www.orchid.ac.uk/eprints/id/eprint/71 -->
<g id="edge1" class="edge">
<title>&#45;attrs0&#45;&gt;http://www.orchid.ac.uk/eprints/id/eprint/71</title>
<path fill="none" stroke="#c0c0c0" stroke-dasharray="5,2" d="M427.4953,-146.1686C427.1944,-157 426.8135,-170.7124 426.5115,-181.5867"/>
</g>
<!-- http://www.orchid.ac.uk/eprints/id/eprint/159 -->
<g id="node3" class="node">
<title>http://www.orchid.ac.uk/eprints/id/eprint/159</title>
<g id="a_node3"><a xlink:href="http://www.orchid.ac.uk/eprints/id/eprint/159" xlink:title="159">
<ellipse fill="#fffc87" stroke="#808080" cx="353" cy="-200" rx="27" ry="18"/>
<text text-anchor="middle" x="353" y="-195.8" font-family="Times,serif" font-size="14.00" fill="#000000">159</text>
</a>
</g>
</g>
<!-- &#45;attrs1 -->
<g id="node4" class="node">
<title>&#45;attrs1</title>
<polygon fill="none" stroke="#c0c0c0" points="362.5,-146 291.5,-146 291.5,-110 368.5,-110 368.5,-140 362.5,-146"/>
<polyline fill="none" stroke="#c0c0c0" points="362.5,-146 362.5,-140 "/>
<polyline fill="none" stroke="#c0c0c0" points="368.5,-140 362.5,-140 "/>
<text text-anchor="start" x="301.5024" y="-125" font-family="Times,serif" font-size="10.00" fill="#000000">type:</text>
<text text-anchor="start" x="322.6675" y="-125" font-family="Times,serif" font-size="10.00" fill="#000000">pic:Book</text>
</g>
<!-- &#45;attrs1&#45;&gt;http://www.orchid.ac.uk/eprints/id/eprint/159 -->
<g id="edge2" class="edge">
<title>&#45;attrs1&#45;&gt;http://www.orchid.ac.uk/eprints/id/eprint/159</title>
<path fill="none" stroke="#c0c0c0" stroke-dasharray="5,2" d="M335.8039,-146.1686C339.3171,-157.1666 343.7792,-171.135 347.2777,-182.0866"/>
</g>
<!-- http://www.w3.org/TR/2013/REC&#45;prov&#45;dm&#45;20130430 -->
<g id="node5" class="node">
<title>http://www.w3.org/TR/2013/REC&#45;prov&#45;dm&#45;20130430</title>
<g id="a_node5"><a xlink:href="http://www.w3.org/TR/2013/REC-prov-dm-20130430" xlink:title="REC&#45;prov&#45;dm&#45;20130430">
<ellipse fill="#fffc87" stroke="#808080" cx="209" cy="-200" rx="99.0502" ry="18"/>
<text text-anchor="middle" x="209" y="-195.8" font-family="Times,serif" font-size="14.00" fill="#000000">REC&#45;prov&#45;dm&#45;20130430</text>
</a>
</g>
</g>
<!-- &#45;attrs2 -->
<g id="node6" class="node">
<title>&#45;attrs2</title>
<polygon fill="none" stroke="#c0c0c0" points="194.5,-146 117.5,-146 117.5,-110 200.5,-110 200.5,-140 194.5,-146"/>
<polyline fill="none" stroke="#c0c0c0" points="194.5,-146 194.5,-140 "/>
<polyline fill="none" stroke="#c0c0c0" points="200.5,-140 194.5,-140 "/>
<text text-anchor="start" x="127.5024" y="-125" font-family="Times,serif" font-size="10.00" fill="#000000">type:</text>
<text text-anchor="start" x="148.6206" y="-125" font-family="Times,serif" font-size="10.00" fill="#000000">pic:Article</text>
</g>
<!-- &#45;attrs2&#45;&gt;http://www.w3.org/TR/2013/REC&#45;prov&#45;dm&#45;20130430 -->
<g id="edge3" class="edge">
<title>&#45;attrs2&#45;&gt;http://www.w3.org/TR/2013/REC&#45;prov&#45;dm&#45;20130430</title>
<path fill="none" stroke="#c0c0c0" stroke-dasharray="5,2" d="M171.6171,-146.1686C179.2546,-157.1666 188.9549,-171.135 196.5601,-182.0866"/>
</g>
<!-- http://eprints.soton.ac.uk/id/eprint/352665 -->
<g id="node7" class="node">
<title>http://eprints.soton.ac.uk/id/eprint/352665</title>
<g id="a_node7"><a xlink:href="http://eprints.soton.ac.uk/id/eprint/352665" xlink:title="352665">
<ellipse fill="#fffc87" stroke="#808080" cx="55" cy="-200" rx="36.775" ry="18"/>
<text text-anchor="middle" x="55" y="-195.8" font-family="Times,serif" font-size="14.00" fill="#000000">352665</text>
</a>
</g>
</g>
<!-- &#45;attrs3 -->
<g id="node8" class="node">
<title>&#45;attrs3</title>
<polygon fill="none" stroke="#c0c0c0" points="93.5,-146 16.5,-146 16.5,-110 99.5,-110 99.5,-140 93.5,-146"/>
<polyline fill="none" stroke="#c0c0c0" points="93.5,-146 93.5,-140 "/>
<polyline fill="none" stroke="#c0c0c0" points="99.5,-140 93.5,-140 "/>
<text text-anchor="start" x="26.5024" y="-125" font-family="Times,serif" font-size="10.00" fill="#000000">type:</text>
<text text-anchor="start" x="47.6206" y="-125" font-family="Times,serif" font-size="10.00" fill="#000000">pic:Article</text>
</g>
<!-- &#45;attrs3&#45;&gt;http://eprints.soton.ac.uk/id/eprint/352665 -->
<g id="edge4" class="edge">
<title>&#45;attrs3&#45;&gt;http://eprints.soton.ac.uk/id/eprint/352665</title>
<path fill="none" stroke="#c0c0c0" stroke-dasharray="5,2" d="M57.243,-146.1686C56.7917,-157 56.2203,-170.7124 55.7672,-181.5867"/>
</g>
<!-- http://www.orchid.ac.uk/eprints/id/eprint/215 -->
<g id="node9" class="node">
<title>http://www.orchid.ac.uk/eprints/id/eprint/215</title>
<g id="a_node9"><a xlink:href="http://www.orchid.ac.uk/eprints/id/eprint/215" xlink:title="215">
<ellipse fill="#fffc87" stroke="#808080" cx="246" cy="-128" rx="27" ry="18"/>
<text text-anchor="middle" x="246" y="-123.8" font-family="Times,serif" font-size="14.00" fill="#000000">215</text>
</a>
</g>
</g>
<!-- http://www.orchid.ac.uk/eprints/id/eprint/215&#45;&gt;http://www.orchid.ac.uk/eprints/id/eprint/71 -->
<g id="edge6" class="edge">
<title>http://www.orchid.ac.uk/eprints/id/eprint/215&#45;&gt;http://www.orchid.ac.uk/eprints/id/eprint/71</title>
<path fill="none" stroke="#000000" d="M267.7061,-139.1207C272.678,-141.5104 277.9789,-143.9355 283,-146 329.0162,-164.92 342.9838,-163.08 389,-182 391.0398,-182.8387 393.1258,-183.7369 395.2172,-184.6681"/>
<polygon fill="#000000" stroke="#000000" points="393.7496,-187.8455 404.2939,-188.8793 396.6957,-181.4956 393.7496,-187.8455"/>
<text text-anchor="middle" x="280.0759" y="-128.2361" font-family="Times,serif" font-size="8.00" fill="#000000">der</text>
</g>
<!-- http://www.orchid.ac.uk/eprints/id/eprint/215&#45;&gt;http://www.orchid.ac.uk/eprints/id/eprint/159 -->
<g id="edge7" class="edge">
<title>http://www.orchid.ac.uk/eprints/id/eprint/215&#45;&gt;http://www.orchid.ac.uk/eprints/id/eprint/159</title>
<path fill="none" stroke="#000000" d="M265.1295,-140.8722C281.839,-152.116 306.3057,-168.5796 325.1812,-181.2808"/>
<polygon fill="#000000" stroke="#000000" points="323.4248,-184.3176 333.6754,-186.9965 327.3328,-178.5099 323.4248,-184.3176"/>
<text text-anchor="middle" x="278.6041" y="-131.8817" font-family="Times,serif" font-size="8.00" fill="#000000">der</text>
</g>
<!-- http://www.orchid.ac.uk/eprints/id/eprint/215&#45;&gt;http://www.w3.org/TR/2013/REC&#45;prov&#45;dm&#45;20130430 -->
<g id="edge8" class="edge">
<title>http://www.orchid.ac.uk/eprints/id/eprint/215&#45;&gt;http://www.w3.org/TR/2013/REC&#45;prov&#45;dm&#45;20130430</title>
<path fill="none" stroke="#000000" d="M237.2315,-145.063C232.9362,-153.4215 227.6624,-163.6841 222.8403,-173.0675"/>
<polygon fill="#000000" stroke="#000000" points="219.6796,-171.5607 218.2219,-182.0547 225.9056,-174.7602 219.6796,-171.5607"/>
<text text-anchor="middle" x="245.3576" y="-155.2712" font-family="Times,serif" font-size="8.00" fill="#000000">der</text>
</g>
<!-- http://www.orchid.ac.uk/eprints/id/eprint/215&#45;&gt;http://eprints.soton.ac.uk/id/eprint/352665 -->
<g id="edge9" class="edge">
<title>http://www.orchid.ac.uk/eprints/id/eprint/215&#45;&gt;http://eprints.soton.ac.uk/id/eprint/352665</title>
<path fill="none" stroke="#000000" d="M224.5331,-139.3669C219.8046,-141.6917 214.78,-144.0278 210,-146 162.8384,-165.4589 148.9949,-164.6982 101,-182 98.4411,-182.9225 95.8101,-183.8927 93.1642,-184.8846"/>
<polygon fill="#000000" stroke="#000000" points="91.7153,-181.6913 83.6194,-188.5255 94.2102,-188.2316 91.7153,-181.6913"/>
<text text-anchor="middle" x="223.4991" y="-151.9313" font-family="Times,serif" font-size="8.00" fill="#000000">der</text>
</g>
<!-- &#45;attrs4 -->
<g id="node10" class="node">
<title>&#45;attrs4</title>
<polygon fill="none" stroke="#c0c0c0" points="281.5,-74 204.5,-74 204.5,-38 287.5,-38 287.5,-68 281.5,-74"/>
<polyline fill="none" stroke="#c0c0c0" points="281.5,-74 281.5,-68 "/>
<polyline fill="none" stroke="#c0c0c0" points="287.5,-68 281.5,-68 "/>
<text text-anchor="start" x="214.5024" y="-53" font-family="Times,serif" font-size="10.00" fill="#000000">type:</text>
<text text-anchor="start" x="235.6206" y="-53" font-family="Times,serif" font-size="10.00" fill="#000000">pic:Article</text>
</g>
<!-- &#45;attrs4&#45;&gt;http://www.orchid.ac.uk/eprints/id/eprint/215 -->
<g id="edge5" class="edge">
<title>&#45;attrs4&#45;&gt;http://www.orchid.ac.uk/eprints/id/eprint/215</title>
<path fill="none" stroke="#c0c0c0" stroke-dasharray="5,2" d="M246,-74.1686C246,-85 246,-98.7124 246,-109.5867"/>
</g>
</g>
</svg>
