<?xml version="1.0" encoding="UTF-8" standalone="no"?>
<!DOCTYPE svg PUBLIC "-//W3C//DTD SVG 1.1//EN"
 "http://www.w3.org/Graphics/SVG/1.1/DTD/svg11.dtd">
<!-- Generated by graphviz version 2.40.1 (20161225.0304)
 -->
<!-- Title: PROV Pages: 1 -->
<svg width="266pt" height="242pt"
 viewBox="0.00 0.00 266.00 242.00" xmlns="http://www.w3.org/2000/svg" xmlns:xlink="http://www.w3.org/1999/xlink">
<g id="graph0" class="graph" transform="scale(1 1) rotate(0) translate(4 238)">
<title>PROV</title>
<polygon fill="#ffffff" stroke="transparent" points="-4,4 -4,-238 262,-238 262,4 -4,4"/>
<g id="clust1" class="cluster">
<title>clusterurn:uuid:f17afa7a&#45;ef3b&#45;4e91&#45;bb0e&#45;518638ba2fee</title>
<g id="a_clust1"><a xlink:href="urn:uuid:f17afa7a-ef3b-4e91-bb0e-518638ba2fee" xlink:title="f17afa7a&#45;ef3b&#45;4e91&#45;bb0e&#45;518638ba2fee">
<polygon fill="none" stroke="#000000" points="8,-8 8,-226 250,-226 250,-8 8,-8"/>
<text text-anchor="middle" x="129" y="-14.8" font-family="Times,serif" font-size="14.00" fill="#000000">f17afa7a&#45;ef3b&#45;4e91&#45;bb0e&#45;518638ba2fee</text>
</a>
</g>
</g>
<!-- http://www.orchid.ac.uk/eprints/id/eprint/106 -->
<g id="node1" class="node">
<title>http://www.orchid.ac.uk/eprints/id/eprint/106</title>
<g id="a_node1"><a xlink:href="http://www.orchid.ac.uk/eprints/id/eprint/106" xlink:title="106">
<ellipse fill="#fffc87" stroke="#808080" cx="128" cy="-200" rx="27" ry="18"/>
<text text-anchor="middle" x="128" y="-195.8" font-family="Times,serif" font-size="14.00" fill="#000000">106</text>
</a>
</g>
</g>
<!-- &#45;attrs0 -->
<g id="node2" class="node">
<title>&#45;attrs0</title>
<polygon fill="none" stroke="#c0c0c0" points="207.5,-146 130.5,-146 130.5,-110 213.5,-110 213.5,-140 207.5,-146"/>
<polyline fill="none" stroke="#c0c0c0" points="207.5,-146 207.5,-140 "/>
<polyline fill="none" stroke="#c0c0c0" points="213.5,-140 207.5,-140 "/>
<text text-anchor="start" x="140.5024" y="-125" font-family="Times,serif" font-size="10.00" fill="#000000">type:</text>
<text text-anchor="start" x="161.6206" y="-125" font-family="Times,serif" font-size="10.00" fill="#000000">pic:Article</text>
</g>
<!-- &#45;attrs0&#45;&gt;http://www.orchid.ac.uk/eprints/id/eprint/106 -->
<g id="edge1" class="edge">
<title>&#45;attrs0&#45;&gt;http://www.orchid.ac.uk/eprints/id/eprint/106</title>
<path fill="none" stroke="#c0c0c0" stroke-dasharray="5,2" d="M160.8969,-146.1686C153.9723,-157.4999 145.1207,-171.9843 138.3438,-183.0737"/>
</g>
<!-- http://www.orchid.ac.uk/eprints/id/eprint/181 -->
<g id="node3" class="node">
<title>http://www.orchid.ac.uk/eprints/id/eprint/181</title>
<g id="a_node3"><a xlink:href="http://www.orchid.ac.uk/eprints/id/eprint/181" xlink:title="181">
<ellipse fill="#fffc87" stroke="#808080" cx="85" cy="-128" rx="27" ry="18"/>
<text text-anchor="middle" x="85" y="-123.8" font-family="Times,serif" font-size="14.00" fill="#000000">181</text>
</a>
</g>
</g>
<!-- http://www.orchid.ac.uk/eprints/id/eprint/181&#45;&gt;http://www.orchid.ac.uk/eprints/id/eprint/106 -->
<g id="edge3" class="edge">
<title>http://www.orchid.ac.uk/eprints/id/eprint/181&#45;&gt;http://www.orchid.ac.uk/eprints/id/eprint/106</title>
<path fill="none" stroke="#000000" d="M95.1904,-145.063C100.3849,-153.7607 106.8106,-164.5201 112.5948,-174.2052"/>
<polygon fill="#000000" stroke="#000000" points="109.7504,-176.2686 117.8827,-183.0595 115.7602,-172.6794 109.7504,-176.2686"/>
<text text-anchor="middle" x="110.1888" y="-142.4414" font-family="Times,serif" font-size="8.00" fill="#000000">der</text>
</g>
<!-- &#45;attrs1 -->
<g id="node4" class="node">
<title>&#45;attrs1</title>
<polygon fill="none" stroke="#c0c0c0" points="120.5,-74 43.5,-74 43.5,-38 126.5,-38 126.5,-68 120.5,-74"/>
<polyline fill="none" stroke="#c0c0c0" points="120.5,-74 120.5,-68 "/>
<polyline fill="none" stroke="#c0c0c0" points="126.5,-68 120.5,-68 "/>
<text text-anchor="start" x="53.5024" y="-53" font-family="Times,serif" font-size="10.00" fill="#000000">type:</text>
<text text-anchor="start" x="74.6206" y="-53" font-family="Times,serif" font-size="10.00" fill="#000000">pic:Article</text>
</g>
<!-- &#45;attrs1&#45;&gt;http://www.orchid.ac.uk/eprints/id/eprint/181 -->
<g id="edge2" class="edge">
<title>&#45;attrs1&#45;&gt;http://www.orchid.ac.uk/eprints/id/eprint/181</title>
<path fill="none" stroke="#c0c0c0" stroke-dasharray="5,2" d="M85,-74.1686C85,-85 85,-98.7124 85,-109.5867"/>
</g>
</g>
</svg>
