<?xml version="1.0" encoding="UTF-8" standalone="no"?>
<!DOCTYPE svg PUBLIC "-//W3C//DTD SVG 1.1//EN"
 "http://www.w3.org/Graphics/SVG/1.1/DTD/svg11.dtd">
<!-- Generated by graphviz version 2.40.1 (20161225.0304)
 -->
<!-- Title: PROV Pages: 1 -->
<svg width="276pt" height="242pt"
 viewBox="0.00 0.00 276.00 242.00" xmlns="http://www.w3.org/2000/svg" xmlns:xlink="http://www.w3.org/1999/xlink">
<g id="graph0" class="graph" transform="scale(1 1) rotate(0) translate(4 238)">
<title>PROV</title>
<polygon fill="#ffffff" stroke="transparent" points="-4,4 -4,-238 272,-238 272,4 -4,4"/>
<g id="clust1" class="cluster">
<title>clusterurn:uuid:4652c955&#45;76ce&#45;401e&#45;a4d2&#45;ee591738b9c8</title>
<g id="a_clust1"><a xlink:href="urn:uuid:4652c955-76ce-401e-a4d2-ee591738b9c8" xlink:title="4652c955&#45;76ce&#45;401e&#45;a4d2&#45;ee591738b9c8">
<polygon fill="none" stroke="#000000" points="8,-8 8,-226 260,-226 260,-8 8,-8"/>
<text text-anchor="middle" x="134" y="-14.8" font-family="Times,serif" font-size="14.00" fill="#000000">4652c955&#45;76ce&#45;401e&#45;a4d2&#45;ee591738b9c8</text>
</a>
</g>
</g>
<!-- http://www.orchid.ac.uk/eprints/id/eprint/155 -->
<g id="node1" class="node">
<title>http://www.orchid.ac.uk/eprints/id/eprint/155</title>
<g id="a_node1"><a xlink:href="http://www.orchid.ac.uk/eprints/id/eprint/155" xlink:title="155">
<ellipse fill="#fffc87" stroke="#808080" cx="133" cy="-200" rx="27" ry="18"/>
<text text-anchor="middle" x="133" y="-195.8" font-family="Times,serif" font-size="14.00" fill="#000000">155</text>
</a>
</g>
</g>
<!-- &#45;attrs0 -->
<g id="node2" class="node">
<title>&#45;attrs0</title>
<polygon fill="none" stroke="#c0c0c0" points="212.5,-146 135.5,-146 135.5,-110 218.5,-110 218.5,-140 212.5,-146"/>
<polyline fill="none" stroke="#c0c0c0" points="212.5,-146 212.5,-140 "/>
<polyline fill="none" stroke="#c0c0c0" points="218.5,-140 212.5,-140 "/>
<text text-anchor="start" x="145.5024" y="-125" font-family="Times,serif" font-size="10.00" fill="#000000">type:</text>
<text text-anchor="start" x="166.6206" y="-125" font-family="Times,serif" font-size="10.00" fill="#000000">pic:Article</text>
</g>
<!-- &#45;attrs0&#45;&gt;http://www.orchid.ac.uk/eprints/id/eprint/155 -->
<g id="edge1" class="edge">
<title>&#45;attrs0&#45;&gt;http://www.orchid.ac.uk/eprints/id/eprint/155</title>
<path fill="none" stroke="#c0c0c0" stroke-dasharray="5,2" d="M165.8969,-146.1686C158.9723,-157.4999 150.1207,-171.9843 143.3438,-183.0737"/>
</g>
<!-- http://www.orchid.ac.uk/eprints/id/eprint/191 -->
<g id="node3" class="node">
<title>http://www.orchid.ac.uk/eprints/id/eprint/191</title>
<g id="a_node3"><a xlink:href="http://www.orchid.ac.uk/eprints/id/eprint/191" xlink:title="191">
<ellipse fill="#fffc87" stroke="#808080" cx="90" cy="-128" rx="27" ry="18"/>
<text text-anchor="middle" x="90" y="-123.8" font-family="Times,serif" font-size="14.00" fill="#000000">191</text>
</a>
</g>
</g>
<!-- http://www.orchid.ac.uk/eprints/id/eprint/191&#45;&gt;http://www.orchid.ac.uk/eprints/id/eprint/155 -->
<g id="edge3" class="edge">
<title>http://www.orchid.ac.uk/eprints/id/eprint/191&#45;&gt;http://www.orchid.ac.uk/eprints/id/eprint/155</title>
<path fill="none" stroke="#000000" d="M100.1904,-145.063C105.3849,-153.7607 111.8106,-164.5201 117.5948,-174.2052"/>
<polygon fill="#000000" stroke="#000000" points="114.7504,-176.2686 122.8827,-183.0595 120.7602,-172.6794 114.7504,-176.2686"/>
<text text-anchor="middle" x="115.1888" y="-142.4414" font-family="Times,serif" font-size="8.00" fill="#000000">der</text>
</g>
<!-- &#45;attrs1 -->
<g id="node4" class="node">
<title>&#45;attrs1</title>
<polygon fill="none" stroke="#c0c0c0" points="125.5,-74 48.5,-74 48.5,-38 131.5,-38 131.5,-68 125.5,-74"/>
<polyline fill="none" stroke="#c0c0c0" points="125.5,-74 125.5,-68 "/>
<polyline fill="none" stroke="#c0c0c0" points="131.5,-68 125.5,-68 "/>
<text text-anchor="start" x="58.5024" y="-53" font-family="Times,serif" font-size="10.00" fill="#000000">type:</text>
<text text-anchor="start" x="79.6206" y="-53" font-family="Times,serif" font-size="10.00" fill="#000000">pic:Article</text>
</g>
<!-- &#45;attrs1&#45;&gt;http://www.orchid.ac.uk/eprints/id/eprint/191 -->
<g id="edge2" class="edge">
<title>&#45;attrs1&#45;&gt;http://www.orchid.ac.uk/eprints/id/eprint/191</title>
<path fill="none" stroke="#c0c0c0" stroke-dasharray="5,2" d="M90,-74.1686C90,-85 90,-98.7124 90,-109.5867"/>
</g>
</g>
</svg>
