<?xml version="1.0" encoding="UTF-8" standalone="no"?>
<!DOCTYPE svg PUBLIC "-//W3C//DTD SVG 1.1//EN"
 "http://www.w3.org/Graphics/SVG/1.1/DTD/svg11.dtd">
<!-- Generated by graphviz version 2.40.1 (20161225.0304)
 -->
<!-- Title: PROV Pages: 1 -->
<svg width="1152pt" height="198pt"
 viewBox="0.00 0.00 1152.00 197.72" xmlns="http://www.w3.org/2000/svg" xmlns:xlink="http://www.w3.org/1999/xlink">
<g id="graph0" class="graph" transform="scale(.817 .817) rotate(0) translate(4 238)">
<title>PROV</title>
<polygon fill="#ffffff" stroke="transparent" points="-4,4 -4,-238 1406,-238 1406,4 -4,4"/>
<g id="clust1" class="cluster">
<title>clusterurn:uuid:48922008&#45;e68b&#45;4544&#45;9be8&#45;75d797c3bb02</title>
<g id="a_clust1"><a xlink:href="urn:uuid:48922008-e68b-4544-9be8-75d797c3bb02" xlink:title="48922008&#45;e68b&#45;4544&#45;9be8&#45;75d797c3bb02">
<polygon fill="none" stroke="#000000" points="8,-8 8,-226 1394,-226 1394,-8 8,-8"/>
<text text-anchor="middle" x="701" y="-14.8" font-family="Times,serif" font-size="14.00" fill="#000000">48922008&#45;e68b&#45;4544&#45;9be8&#45;75d797c3bb02</text>
</a>
</g>
</g>
<!-- https://twitter.com/timrdf/status/477018651452010496 -->
<g id="node1" class="node">
<title>https://twitter.com/timrdf/status/477018651452010496</title>
<g id="a_node1"><a xlink:href="https://twitter.com/timrdf/status/477018651452010496" xlink:title="477018651452010496">
<ellipse fill="#fffc87" stroke="#808080" cx="965" cy="-128" rx="89.8965" ry="18"/>
<text text-anchor="middle" x="965" y="-123.8" font-family="Times,serif" font-size="14.00" fill="#000000">477018651452010496</text>
</a>
</g>
</g>
<!-- https://github.com/matthewgamble/wikipedia&#45;provenance -->
<g id="node5" class="node">
<title>https://github.com/matthewgamble/wikipedia&#45;provenance</title>
<g id="a_node5"><a xlink:href="https://github.com/matthewgamble/wikipedia-provenance" xlink:title="wikipedia&#45;provenance">
<ellipse fill="#fffc87" stroke="#808080" cx="520" cy="-200" rx="88.8583" ry="18"/>
<text text-anchor="middle" x="520" y="-195.8" font-family="Times,serif" font-size="14.00" fill="#000000">wikipedia&#45;provenance</text>
</a>
</g>
</g>
<!-- https://twitter.com/timrdf/status/477018651452010496&#45;&gt;https://github.com/matthewgamble/wikipedia&#45;provenance -->
<g id="edge4" class="edge">
<title>https://twitter.com/timrdf/status/477018651452010496&#45;&gt;https://github.com/matthewgamble/wikipedia&#45;provenance</title>
<path fill="none" stroke="#000000" d="M894.9792,-139.3292C814.7757,-152.306 683.6414,-173.5232 599.6189,-187.1178"/>
<polygon fill="#000000" stroke="#000000" points="598.925,-183.6845 589.6124,-188.7369 600.0431,-190.5946 598.925,-183.6845"/>
<text text-anchor="middle" x="889.6503" y="-150.9507" font-family="Times,serif" font-size="8.00" fill="#000000">der</text>
</g>
<!-- &#45;attrs0 -->
<g id="node2" class="node">
<title>&#45;attrs0</title>
<polygon fill="none" stroke="#c0c0c0" points="1380,-74 794,-74 794,-38 1386,-38 1386,-68 1380,-74"/>
<polyline fill="none" stroke="#c0c0c0" points="1380,-74 1380,-68 "/>
<polyline fill="none" stroke="#c0c0c0" points="1386,-68 1380,-68 "/>
<text text-anchor="start" x="804" y="-59" font-family="Times,serif" font-size="10.00" fill="#000000">type:</text>
<text text-anchor="start" x="828" y="-59" font-family="Times,serif" font-size="10.00" fill="#000000">pic:Tweet</text>
<text text-anchor="start" x="803.894" y="-47" font-family="Times,serif" font-size="10.00" fill="#000000">label:</text>
<text text-anchor="start" x="827.6567" y="-47" font-family="Times,serif" font-size="10.00" fill="#000000">PB @PMissier http://bit.ly/1kpTjOr &#160;http://bit.ly/1oRpP24 &#160;(though #git2prov should tell us...) cc @matthew_gamble @provenanceweek</text>
</g>
<!-- &#45;attrs0&#45;&gt;https://twitter.com/timrdf/status/477018651452010496 -->
<g id="edge1" class="edge">
<title>&#45;attrs0&#45;&gt;https://twitter.com/timrdf/status/477018651452010496</title>
<path fill="none" stroke="#c0c0c0" stroke-dasharray="5,2" d="M1058.4572,-74.1686C1038.9296,-85.4166 1014.0078,-99.7715 994.8116,-110.8285"/>
</g>
<!-- https://twitter.com/pgroth/status/477019982103322624 -->
<g id="node3" class="node">
<title>https://twitter.com/pgroth/status/477019982103322624</title>
<g id="a_node3"><a xlink:href="https://twitter.com/pgroth/status/477019982103322624" xlink:title="477019982103322624">
<ellipse fill="#fffc87" stroke="#808080" cx="520" cy="-128" rx="89.8965" ry="18"/>
<text text-anchor="middle" x="520" y="-123.8" font-family="Times,serif" font-size="14.00" fill="#000000">477019982103322624</text>
</a>
</g>
</g>
<!-- https://twitter.com/pgroth/status/477019982103322624&#45;&gt;https://github.com/matthewgamble/wikipedia&#45;provenance -->
<g id="edge5" class="edge">
<title>https://twitter.com/pgroth/status/477019982103322624&#45;&gt;https://github.com/matthewgamble/wikipedia&#45;provenance</title>
<path fill="none" stroke="#000000" d="M520,-146.1686C520,-153.869 520,-163.0257 520,-171.5834"/>
<polygon fill="#000000" stroke="#000000" points="516.5001,-171.5867 520,-181.5867 523.5001,-171.5868 516.5001,-171.5867"/>
<text text-anchor="middle" x="532.9904" y="-151.2686" font-family="Times,serif" font-size="8.00" fill="#000000">der</text>
</g>
<!-- &#45;attrs1 -->
<g id="node4" class="node">
<title>&#45;attrs1</title>
<polygon fill="none" stroke="#c0c0c0" points="770,-74 16,-74 16,-38 776,-38 776,-68 770,-74"/>
<polyline fill="none" stroke="#c0c0c0" points="770,-74 770,-68 "/>
<polyline fill="none" stroke="#c0c0c0" points="776,-68 770,-68 "/>
<text text-anchor="start" x="26" y="-59" font-family="Times,serif" font-size="10.00" fill="#000000">type:</text>
<text text-anchor="start" x="50" y="-59" font-family="Times,serif" font-size="10.00" fill="#000000">pic:Tweet</text>
<text text-anchor="start" x="25.894" y="-47" font-family="Times,serif" font-size="10.00" fill="#000000">label:</text>
<text text-anchor="start" x="49.9702" y="-47" font-family="Times,serif" font-size="10.00" fill="#000000">Nice: code for generating #prov from wikipedia &#45; now supports RDF https://github.com/matthewgamble/wikipedia&#45;provenance @matthew_gamble @PMissier @provenanceweek</text>
</g>
<!-- &#45;attrs1&#45;&gt;https://twitter.com/pgroth/status/477019982103322624 -->
<g id="edge2" class="edge">
<title>&#45;attrs1&#45;&gt;https://twitter.com/pgroth/status/477019982103322624</title>
<path fill="none" stroke="#c0c0c0" stroke-dasharray="5,2" d="M427.2904,-74.1686C446.6619,-85.4166 471.3842,-99.7715 490.4269,-110.8285"/>
</g>
<!-- &#45;attrs2 -->
<g id="node6" class="node">
<title>&#45;attrs2</title>
<polygon fill="none" stroke="#c0c0c0" points="406.5,-146 335.5,-146 335.5,-110 412.5,-110 412.5,-140 406.5,-146"/>
<polyline fill="none" stroke="#c0c0c0" points="406.5,-146 406.5,-140 "/>
<polyline fill="none" stroke="#c0c0c0" points="412.5,-140 406.5,-140 "/>
<text text-anchor="start" x="345.5024" y="-125" font-family="Times,serif" font-size="10.00" fill="#000000">type:</text>
<text text-anchor="start" x="366.9482" y="-125" font-family="Times,serif" font-size="10.00" fill="#000000">pic:Code</text>
</g>
<!-- &#45;attrs2&#45;&gt;https://github.com/matthewgamble/wikipedia&#45;provenance -->
<g id="edge3" class="edge">
<title>&#45;attrs2&#45;&gt;https://github.com/matthewgamble/wikipedia&#45;provenance</title>
<path fill="none" stroke="#c0c0c0" stroke-dasharray="5,2" d="M410.842,-146.1686C433.9882,-157.5832 463.6227,-172.1975 486.1722,-183.3178"/>
</g>
</g>
</svg>
