<?xml version="1.0" encoding="UTF-8" standalone="no"?>
<!DOCTYPE svg PUBLIC "-//W3C//DTD SVG 1.1//EN"
 "http://www.w3.org/Graphics/SVG/1.1/DTD/svg11.dtd">
<!-- Generated by graphviz version 2.40.1 (20161225.0304)
 -->
<!-- Title: PROV Pages: 1 -->
<svg width="532pt" height="242pt"
 viewBox="0.00 0.00 532.00 242.00" xmlns="http://www.w3.org/2000/svg" xmlns:xlink="http://www.w3.org/1999/xlink">
<g id="graph0" class="graph" transform="scale(1 1) rotate(0) translate(4 238)">
<title>PROV</title>
<polygon fill="#ffffff" stroke="transparent" points="-4,4 -4,-238 528,-238 528,4 -4,4"/>
<g id="clust1" class="cluster">
<title>clusterurn:uuid:41d7f54a&#45;05b3&#45;41a6&#45;a542&#45;5ac88d5222f5</title>
<g id="a_clust1"><a xlink:href="urn:uuid:41d7f54a-05b3-41a6-a542-5ac88d5222f5" xlink:title="41d7f54a&#45;05b3&#45;41a6&#45;a542&#45;5ac88d5222f5">
<polygon fill="none" stroke="#000000" points="8,-8 8,-226 516,-226 516,-8 8,-8"/>
<text text-anchor="middle" x="262" y="-14.8" font-family="Times,serif" font-size="14.00" fill="#000000">41d7f54a&#45;05b3&#45;41a6&#45;a542&#45;5ac88d5222f5</text>
</a>
</g>
</g>
<!-- https://twitter.com/pgroth/status/477350595511480320 -->
<g id="node1" class="node">
<title>https://twitter.com/pgroth/status/477350595511480320</title>
<g id="a_node1"><a xlink:href="https://twitter.com/pgroth/status/477350595511480320" xlink:title="477350595511480320">
<ellipse fill="#fffc87" stroke="#808080" cx="262" cy="-128" rx="89.2485" ry="18"/>
<text text-anchor="middle" x="262" y="-123.8" font-family="Times,serif" font-size="14.00" fill="#000000">477350595511480320</text>
</a>
</g>
</g>
<!-- https://code.google.com/p/data&#45;provenance/ -->
<g id="node3" class="node">
<title>https://code.google.com/p/data&#45;provenance/</title>
<g id="a_node3"><a xlink:href="https://code.google.com/p/data-provenance/" xlink:title="data&#45;provenance/">
<ellipse fill="#fffc87" stroke="#808080" cx="189" cy="-200" rx="70.984" ry="18"/>
<text text-anchor="middle" x="189" y="-195.8" font-family="Times,serif" font-size="14.00" fill="#000000">data&#45;provenance/</text>
</a>
</g>
</g>
<!-- https://twitter.com/pgroth/status/477350595511480320&#45;&gt;https://code.google.com/p/data&#45;provenance/ -->
<g id="edge3" class="edge">
<title>https://twitter.com/pgroth/status/477350595511480320&#45;&gt;https://code.google.com/p/data&#45;provenance/</title>
<path fill="none" stroke="#000000" d="M243.9551,-145.7978C234.9381,-154.6912 223.8821,-165.5958 214.0568,-175.2865"/>
<polygon fill="#000000" stroke="#000000" points="211.4993,-172.8929 206.8374,-182.407 216.4148,-177.8767 211.4993,-172.8929"/>
<text text-anchor="middle" x="247.7373" y="-157.9131" font-family="Times,serif" font-size="8.00" fill="#000000">der</text>
</g>
<!-- &#45;attrs0 -->
<g id="node2" class="node">
<title>&#45;attrs0</title>
<polygon fill="none" stroke="#c0c0c0" points="501.5,-74 16.5,-74 16.5,-38 507.5,-38 507.5,-68 501.5,-74"/>
<polyline fill="none" stroke="#c0c0c0" points="501.5,-74 501.5,-68 "/>
<polyline fill="none" stroke="#c0c0c0" points="507.5,-68 501.5,-68 "/>
<text text-anchor="start" x="27" y="-59" font-family="Times,serif" font-size="10.00" fill="#000000">type:</text>
<text text-anchor="start" x="51" y="-59" font-family="Times,serif" font-size="10.00" fill="#000000">pic:Tweet</text>
<text text-anchor="start" x="26.894" y="-47" font-family="Times,serif" font-size="10.00" fill="#000000">label:</text>
<text text-anchor="start" x="50.5425" y="-47" font-family="Times,serif" font-size="10.00" fill="#000000">Nice &#45; Data Provenance infrastructure from SRI &#45; &#160;http://data&#45;provenance.googlecode.com &#160;&#45; @provenanceweek</text>
</g>
<!-- &#45;attrs0&#45;&gt;https://twitter.com/pgroth/status/477350595511480320 -->
<g id="edge1" class="edge">
<title>&#45;attrs0&#45;&gt;https://twitter.com/pgroth/status/477350595511480320</title>
<path fill="none" stroke="#c0c0c0" stroke-dasharray="5,2" d="M262,-74.1686C262,-85 262,-98.7124 262,-109.5867"/>
</g>
<!-- &#45;attrs1 -->
<g id="node4" class="node">
<title>&#45;attrs1</title>
<polygon fill="none" stroke="#c0c0c0" points="148.5,-146 77.5,-146 77.5,-110 154.5,-110 154.5,-140 148.5,-146"/>
<polyline fill="none" stroke="#c0c0c0" points="148.5,-146 148.5,-140 "/>
<polyline fill="none" stroke="#c0c0c0" points="154.5,-140 148.5,-140 "/>
<text text-anchor="start" x="87.5024" y="-125" font-family="Times,serif" font-size="10.00" fill="#000000">type:</text>
<text text-anchor="start" x="108.9482" y="-125" font-family="Times,serif" font-size="10.00" fill="#000000">pic:Code</text>
</g>
<!-- &#45;attrs1&#45;&gt;https://code.google.com/p/data&#45;provenance/ -->
<g id="edge2" class="edge">
<title>&#45;attrs1&#45;&gt;https://code.google.com/p/data&#45;provenance/</title>
<path fill="none" stroke="#c0c0c0" stroke-dasharray="5,2" d="M134.421,-146.1686C145.6562,-157.2499 159.9489,-171.3468 171.0896,-182.335"/>
</g>
</g>
</svg>
