<?xml version="1.0" encoding="UTF-8" standalone="no"?>
<!DOCTYPE svg PUBLIC "-//W3C//DTD SVG 1.1//EN"
 "http://www.w3.org/Graphics/SVG/1.1/DTD/svg11.dtd">
<!-- Generated by graphviz version 2.40.1 (20161225.0304)
 -->
<!-- Title: PROV Pages: 1 -->
<svg width="698pt" height="242pt"
 viewBox="0.00 0.00 698.00 242.00" xmlns="http://www.w3.org/2000/svg" xmlns:xlink="http://www.w3.org/1999/xlink">
<g id="graph0" class="graph" transform="scale(1 1) rotate(0) translate(4 238)">
<title>PROV</title>
<polygon fill="#ffffff" stroke="transparent" points="-4,4 -4,-238 694,-238 694,4 -4,4"/>
<g id="clust1" class="cluster">
<title>clusterurn:uuid:681d047d&#45;2c17&#45;4716&#45;8807&#45;de1c8c1a672f</title>
<g id="a_clust1"><a xlink:href="urn:uuid:681d047d-2c17-4716-8807-de1c8c1a672f" xlink:title="681d047d&#45;2c17&#45;4716&#45;8807&#45;de1c8c1a672f">
<polygon fill="none" stroke="#000000" points="8,-8 8,-226 682,-226 682,-8 8,-8"/>
<text text-anchor="middle" x="345" y="-14.8" font-family="Times,serif" font-size="14.00" fill="#000000">681d047d&#45;2c17&#45;4716&#45;8807&#45;de1c8c1a672f</text>
</a>
</g>
</g>
<!-- https://twitter.com/timrdf/status/476693293410304000 -->
<g id="node1" class="node">
<title>https://twitter.com/timrdf/status/476693293410304000</title>
<g id="a_node1"><a xlink:href="https://twitter.com/timrdf/status/476693293410304000" xlink:title="476693293410304000">
<ellipse fill="#fffc87" stroke="#808080" cx="345" cy="-128" rx="89.8965" ry="18"/>
<text text-anchor="middle" x="345" y="-123.8" font-family="Times,serif" font-size="14.00" fill="#000000">476693293410304000</text>
</a>
</g>
</g>
<!-- https://github.com/m000/dtracker -->
<g id="node3" class="node">
<title>https://github.com/m000/dtracker</title>
<g id="a_node3"><a xlink:href="https://github.com/m000/dtracker" xlink:title="dtracker">
<ellipse fill="#fffc87" stroke="#808080" cx="272" cy="-200" rx="39.1454" ry="18"/>
<text text-anchor="middle" x="272" y="-195.8" font-family="Times,serif" font-size="14.00" fill="#000000">dtracker</text>
</a>
</g>
</g>
<!-- https://twitter.com/timrdf/status/476693293410304000&#45;&gt;https://github.com/m000/dtracker -->
<g id="edge3" class="edge">
<title>https://twitter.com/timrdf/status/476693293410304000&#45;&gt;https://github.com/m000/dtracker</title>
<path fill="none" stroke="#000000" d="M326.9551,-145.7978C317.669,-154.9566 306.2202,-166.2486 296.1803,-176.151"/>
<polygon fill="#000000" stroke="#000000" points="293.4984,-173.8801 288.8365,-183.3942 298.4139,-178.8639 293.4984,-173.8801"/>
<text text-anchor="middle" x="330.7373" y="-157.9131" font-family="Times,serif" font-size="8.00" fill="#000000">der</text>
</g>
<!-- &#45;attrs0 -->
<g id="node2" class="node">
<title>&#45;attrs0</title>
<polygon fill="none" stroke="#c0c0c0" points="667.5,-74 16.5,-74 16.5,-38 673.5,-38 673.5,-68 667.5,-74"/>
<polyline fill="none" stroke="#c0c0c0" points="667.5,-74 667.5,-68 "/>
<polyline fill="none" stroke="#c0c0c0" points="673.5,-68 667.5,-68 "/>
<text text-anchor="start" x="27" y="-59" font-family="Times,serif" font-size="10.00" fill="#000000">type:</text>
<text text-anchor="start" x="51" y="-59" font-family="Times,serif" font-size="10.00" fill="#000000">pic:Tweet</text>
<text text-anchor="start" x="26.894" y="-47" font-family="Times,serif" font-size="10.00" fill="#000000">label:</text>
<text text-anchor="start" x="50.9741" y="-47" font-family="Times,serif" font-size="10.00" fill="#000000">Stand&#45;off provenance capture on the unix command line. On GitHub https://github.com/m000/dtracker/blob/master/README.md … @provenanceweek</text>
</g>
<!-- &#45;attrs0&#45;&gt;https://twitter.com/timrdf/status/476693293410304000 -->
<g id="edge1" class="edge">
<title>&#45;attrs0&#45;&gt;https://twitter.com/timrdf/status/476693293410304000</title>
<path fill="none" stroke="#c0c0c0" stroke-dasharray="5,2" d="M345,-74.1686C345,-85 345,-98.7124 345,-109.5867"/>
</g>
<!-- &#45;attrs1 -->
<g id="node4" class="node">
<title>&#45;attrs1</title>
<polygon fill="none" stroke="#c0c0c0" points="231.5,-146 160.5,-146 160.5,-110 237.5,-110 237.5,-140 231.5,-146"/>
<polyline fill="none" stroke="#c0c0c0" points="231.5,-146 231.5,-140 "/>
<polyline fill="none" stroke="#c0c0c0" points="237.5,-140 231.5,-140 "/>
<text text-anchor="start" x="170.5024" y="-125" font-family="Times,serif" font-size="10.00" fill="#000000">type:</text>
<text text-anchor="start" x="191.9482" y="-125" font-family="Times,serif" font-size="10.00" fill="#000000">pic:Code</text>
</g>
<!-- &#45;attrs1&#45;&gt;https://github.com/m000/dtracker -->
<g id="edge2" class="edge">
<title>&#45;attrs1&#45;&gt;https://github.com/m000/dtracker</title>
<path fill="none" stroke="#c0c0c0" stroke-dasharray="5,2" d="M217.421,-146.1686C229.0786,-157.6665 244.0278,-172.411 255.3324,-183.5607"/>
</g>
</g>
</svg>
