<?xml version="1.0" encoding="UTF-8" standalone="no"?>
<!DOCTYPE svg PUBLIC "-//W3C//DTD SVG 1.1//EN"
 "http://www.w3.org/Graphics/SVG/1.1/DTD/svg11.dtd">
<!-- Generated by graphviz version 2.40.1 (20161225.0304)
 -->
<!-- Title: PROV Pages: 1 -->
<svg width="321pt" height="242pt"
 viewBox="0.00 0.00 321.00 242.00" xmlns="http://www.w3.org/2000/svg" xmlns:xlink="http://www.w3.org/1999/xlink">
<g id="graph0" class="graph" transform="scale(1 1) rotate(0) translate(4 238)">
<title>PROV</title>
<polygon fill="#ffffff" stroke="transparent" points="-4,4 -4,-238 317,-238 317,4 -4,4"/>
<g id="clust1" class="cluster">
<title>clusterurn:uuid:d11d551a&#45;f04a&#45;40e7&#45;af9d&#45;ac8e747be5fd</title>
<g id="a_clust1"><a xlink:href="urn:uuid:d11d551a-f04a-40e7-af9d-ac8e747be5fd" xlink:title="d11d551a&#45;f04a&#45;40e7&#45;af9d&#45;ac8e747be5fd">
<polygon fill="none" stroke="#000000" points="8,-8 8,-226 305,-226 305,-8 8,-8"/>
<text text-anchor="middle" x="156.5" y="-14.8" font-family="Times,serif" font-size="14.00" fill="#000000">d11d551a&#45;f04a&#45;40e7&#45;af9d&#45;ac8e747be5fd</text>
</a>
</g>
</g>
<!-- https://twitter.com/lucmoreau/status/476625652599492608 -->
<g id="node1" class="node">
<title>https://twitter.com/lucmoreau/status/476625652599492608</title>
<g id="a_node1"><a xlink:href="https://twitter.com/lucmoreau/status/476625652599492608" xlink:title="476625652599492608">
<ellipse fill="#fffc87" stroke="#808080" cx="207" cy="-128" rx="89.8965" ry="18"/>
<text text-anchor="middle" x="207" y="-123.8" font-family="Times,serif" font-size="14.00" fill="#000000">476625652599492608</text>
</a>
</g>
</g>
<!-- http://www.ipaw.info/data/paper/CheneyIPAW2014 -->
<g id="node3" class="node">
<title>http://www.ipaw.info/data/paper/CheneyIPAW2014</title>
<g id="a_node3"><a xlink:href="http://www.ipaw.info/data/paper/CheneyIPAW2014" xlink:title="CheneyIPAW2014">
<ellipse fill="#fffc87" stroke="#808080" cx="149" cy="-200" rx="75.7776" ry="18"/>
<text text-anchor="middle" x="149" y="-195.8" font-family="Times,serif" font-size="14.00" fill="#000000">CheneyIPAW2014</text>
</a>
</g>
</g>
<!-- https://twitter.com/lucmoreau/status/476625652599492608&#45;&gt;http://www.ipaw.info/data/paper/CheneyIPAW2014 -->
<g id="edge3" class="edge">
<title>https://twitter.com/lucmoreau/status/476625652599492608&#45;&gt;http://www.ipaw.info/data/paper/CheneyIPAW2014</title>
<path fill="none" stroke="#000000" d="M192.6629,-145.7978C185.7614,-154.3652 177.3563,-164.7991 169.7704,-174.2161"/>
<polygon fill="#000000" stroke="#000000" points="166.9208,-172.1742 163.3732,-182.1575 172.3721,-176.5656 166.9208,-172.1742"/>
<text text-anchor="middle" x="198.0743" y="-157.3877" font-family="Times,serif" font-size="8.00" fill="#000000">der</text>
</g>
<!-- &#45;attrs0 -->
<g id="node2" class="node">
<title>&#45;attrs0</title>
<polygon fill="none" stroke="#c0c0c0" points="290.5,-74 17.5,-74 17.5,-38 296.5,-38 296.5,-68 290.5,-74"/>
<polyline fill="none" stroke="#c0c0c0" points="290.5,-74 290.5,-68 "/>
<polyline fill="none" stroke="#c0c0c0" points="296.5,-68 290.5,-68 "/>
<text text-anchor="start" x="28" y="-59" font-family="Times,serif" font-size="10.00" fill="#000000">type:</text>
<text text-anchor="start" x="52" y="-59" font-family="Times,serif" font-size="10.00" fill="#000000">pic:Tweet</text>
<text text-anchor="start" x="27.894" y="-47" font-family="Times,serif" font-size="10.00" fill="#000000">label:</text>
<text text-anchor="start" x="51.6802" y="-47" font-family="Times,serif" font-size="10.00" fill="#000000">Tweet on An Analytical Survey of Provenance Sanitization</text>
</g>
<!-- &#45;attrs0&#45;&gt;https://twitter.com/lucmoreau/status/476625652599492608 -->
<g id="edge1" class="edge">
<title>&#45;attrs0&#45;&gt;https://twitter.com/lucmoreau/status/476625652599492608</title>
<path fill="none" stroke="#c0c0c0" stroke-dasharray="5,2" d="M169.6171,-74.1686C177.2546,-85.1666 186.9549,-99.135 194.5601,-110.0866"/>
</g>
<!-- &#45;attrs1 -->
<g id="node4" class="node">
<title>&#45;attrs1</title>
<polygon fill="none" stroke="#c0c0c0" points="93.5,-146 16.5,-146 16.5,-110 99.5,-110 99.5,-140 93.5,-146"/>
<polyline fill="none" stroke="#c0c0c0" points="93.5,-146 93.5,-140 "/>
<polyline fill="none" stroke="#c0c0c0" points="99.5,-140 93.5,-140 "/>
<text text-anchor="start" x="26.5024" y="-125" font-family="Times,serif" font-size="10.00" fill="#000000">type:</text>
<text text-anchor="start" x="47.6206" y="-125" font-family="Times,serif" font-size="10.00" fill="#000000">pic:Article</text>
</g>
<!-- &#45;attrs1&#45;&gt;http://www.ipaw.info/data/paper/CheneyIPAW2014 -->
<g id="edge2" class="edge">
<title>&#45;attrs1&#45;&gt;http://www.ipaw.info/data/paper/CheneyIPAW2014</title>
<path fill="none" stroke="#c0c0c0" stroke-dasharray="5,2" d="M80.9631,-146.1686C95.074,-157.3333 113.0537,-171.559 126.9859,-182.5823"/>
</g>
</g>
</svg>
