<?xml version="1.0" encoding="UTF-8" standalone="no"?>
<!DOCTYPE svg PUBLIC "-//W3C//DTD SVG 1.1//EN"
 "http://www.w3.org/Graphics/SVG/1.1/DTD/svg11.dtd">
<!-- Generated by graphviz version 2.40.1 (20161225.0304)
 -->
<!-- Title: PROV Pages: 1 -->
<svg width="1152pt" height="152pt"
 viewBox="0.00 0.00 1152.00 151.67" xmlns="http://www.w3.org/2000/svg" xmlns:xlink="http://www.w3.org/1999/xlink">
<g id="graph0" class="graph" transform="scale(.5789 .5789) rotate(0) translate(4 258)">
<title>PROV</title>
<polygon fill="#ffffff" stroke="transparent" points="-4,4 -4,-258 1986,-258 1986,4 -4,4"/>
<g id="clust1" class="cluster">
<title>clusterurn:uuid:152fc308&#45;5d04&#45;4a8a&#45;8442&#45;3006cd9b626e</title>
<g id="a_clust1"><a xlink:href="urn:uuid:152fc308-5d04-4a8a-8442-3006cd9b626e" xlink:title="152fc308&#45;5d04&#45;4a8a&#45;8442&#45;3006cd9b626e">
<polygon fill="none" stroke="#000000" points="8,-8 8,-246 1974,-246 1974,-8 8,-8"/>
<text text-anchor="middle" x="991" y="-14.8" font-family="Times,serif" font-size="14.00" fill="#000000">152fc308&#45;5d04&#45;4a8a&#45;8442&#45;3006cd9b626e</text>
</a>
</g>
</g>
<!-- http://www.ipaw.info/ipaw14/program -->
<g id="node1" class="node">
<title>http://www.ipaw.info/ipaw14/program</title>
<g id="a_node1"><a xlink:href="http://www.ipaw.info/ipaw14/program" xlink:title="ipaw14/program">
<ellipse fill="#fffc87" stroke="#808080" cx="974" cy="-143" rx="68.6133" ry="18"/>
<text text-anchor="middle" x="974" y="-138.8" font-family="Times,serif" font-size="14.00" fill="#000000">ipaw14/program</text>
</a>
</g>
</g>
<!-- http://www.ipaw.info/ipaw14/session1 -->
<g id="node3" class="node">
<title>http://www.ipaw.info/ipaw14/session1</title>
<g id="a_node3"><a xlink:href="http://www.ipaw.info/ipaw14/session1" xlink:title="ipaw14/session1">
<ellipse fill="#fffc87" stroke="#808080" cx="1776" cy="-220" rx="68.6392" ry="18"/>
<text text-anchor="middle" x="1776" y="-215.8" font-family="Times,serif" font-size="14.00" fill="#000000">ipaw14/session1</text>
</a>
</g>
</g>
<!-- http://www.ipaw.info/ipaw14/program&#45;&gt;http://www.ipaw.info/ipaw14/session1 -->
<g id="edge8" class="edge">
<title>http://www.ipaw.info/ipaw14/program&#45;&gt;http://www.ipaw.info/ipaw14/session1</title>
<path fill="none" stroke="#000000" d="M1016.5182,-157.3114C1027.9254,-160.6613 1040.3337,-163.8699 1052,-166 1067.7821,-168.8816 1516.6251,-201.3515 1699.5352,-214.5107"/>
<polygon fill="#000000" stroke="#000000" points="1699.394,-218.0094 1709.6193,-215.236 1699.8962,-211.0275 1699.394,-218.0094"/>
</g>
<!-- http://www.ipaw.info/ipaw14/session2 -->
<g id="node5" class="node">
<title>http://www.ipaw.info/ipaw14/session2</title>
<g id="a_node5"><a xlink:href="http://www.ipaw.info/ipaw14/session2" xlink:title="ipaw14/session2">
<ellipse fill="#fffc87" stroke="#808080" cx="1440" cy="-220" rx="68.6392" ry="18"/>
<text text-anchor="middle" x="1440" y="-215.8" font-family="Times,serif" font-size="14.00" fill="#000000">ipaw14/session2</text>
</a>
</g>
</g>
<!-- http://www.ipaw.info/ipaw14/program&#45;&gt;http://www.ipaw.info/ipaw14/session2 -->
<g id="edge9" class="edge">
<title>http://www.ipaw.info/ipaw14/program&#45;&gt;http://www.ipaw.info/ipaw14/session2</title>
<path fill="none" stroke="#000000" d="M1017.4347,-157.0482C1028.6139,-160.3209 1040.6836,-163.5582 1052,-166 1159.6832,-189.2353 1286.4309,-204.6859 1365.008,-212.9009"/>
<polygon fill="#000000" stroke="#000000" points="1364.9877,-216.4173 1375.2945,-213.9637 1365.7072,-209.4544 1364.9877,-216.4173"/>
</g>
<!-- http://www.ipaw.info/ipaw14/session3 -->
<g id="node7" class="node">
<title>http://www.ipaw.info/ipaw14/session3</title>
<g id="a_node7"><a xlink:href="http://www.ipaw.info/ipaw14/session3" xlink:title="ipaw14/session3">
<ellipse fill="#fffc87" stroke="#808080" cx="1065" cy="-220" rx="68.6392" ry="18"/>
<text text-anchor="middle" x="1065" y="-215.8" font-family="Times,serif" font-size="14.00" fill="#000000">ipaw14/session3</text>
</a>
</g>
</g>
<!-- http://www.ipaw.info/ipaw14/program&#45;&gt;http://www.ipaw.info/ipaw14/session3 -->
<g id="edge10" class="edge">
<title>http://www.ipaw.info/ipaw14/program&#45;&gt;http://www.ipaw.info/ipaw14/session3</title>
<path fill="none" stroke="#000000" d="M994.6493,-160.4725C1007.0987,-171.0066 1023.1285,-184.5703 1036.7417,-196.0892"/>
<polygon fill="#000000" stroke="#000000" points="1034.5377,-198.8091 1044.4324,-202.5967 1039.0593,-193.4653 1034.5377,-198.8091"/>
</g>
<!-- http://www.ipaw.info/ipaw14/session4 -->
<g id="node9" class="node">
<title>http://www.ipaw.info/ipaw14/session4</title>
<g id="a_node9"><a xlink:href="http://www.ipaw.info/ipaw14/session4" xlink:title="ipaw14/session4">
<ellipse fill="#fffc87" stroke="#808080" cx="827" cy="-220" rx="68.6392" ry="18"/>
<text text-anchor="middle" x="827" y="-215.8" font-family="Times,serif" font-size="14.00" fill="#000000">ipaw14/session4</text>
</a>
</g>
</g>
<!-- http://www.ipaw.info/ipaw14/program&#45;&gt;http://www.ipaw.info/ipaw14/session4 -->
<g id="edge11" class="edge">
<title>http://www.ipaw.info/ipaw14/program&#45;&gt;http://www.ipaw.info/ipaw14/session4</title>
<path fill="none" stroke="#000000" d="M943.184,-159.1417C920.9375,-170.7946 890.7073,-186.6295 866.6597,-199.2259"/>
<polygon fill="#000000" stroke="#000000" points="865.0097,-196.139 857.7754,-203.8795 868.2578,-202.3398 865.0097,-196.139"/>
</g>
<!-- http://www.ipaw.info/ipaw14/session5 -->
<g id="node11" class="node">
<title>http://www.ipaw.info/ipaw14/session5</title>
<g id="a_node11"><a xlink:href="http://www.ipaw.info/ipaw14/session5" xlink:title="ipaw14/session5">
<ellipse fill="#fffc87" stroke="#808080" cx="560" cy="-220" rx="68.6392" ry="18"/>
<text text-anchor="middle" x="560" y="-215.8" font-family="Times,serif" font-size="14.00" fill="#000000">ipaw14/session5</text>
</a>
</g>
</g>
<!-- http://www.ipaw.info/ipaw14/program&#45;&gt;http://www.ipaw.info/ipaw14/session5 -->
<g id="edge12" class="edge">
<title>http://www.ipaw.info/ipaw14/program&#45;&gt;http://www.ipaw.info/ipaw14/session5</title>
<path fill="none" stroke="#000000" d="M930.6928,-157.0213C919.7711,-160.2567 908.0171,-163.4834 897,-166 806.8905,-186.5836 701.4681,-202.1324 632.8522,-211.1396"/>
<polygon fill="#000000" stroke="#000000" points="632.0483,-207.7146 622.5831,-212.4748 632.951,-214.6562 632.0483,-207.7146"/>
</g>
<!-- http://www.ipaw.info/ipaw14/session6 -->
<g id="node13" class="node">
<title>http://www.ipaw.info/ipaw14/session6</title>
<g id="a_node13"><a xlink:href="http://www.ipaw.info/ipaw14/session6" xlink:title="ipaw14/session6">
<ellipse fill="#fffc87" stroke="#808080" cx="280" cy="-220" rx="68.6392" ry="18"/>
<text text-anchor="middle" x="280" y="-215.8" font-family="Times,serif" font-size="14.00" fill="#000000">ipaw14/session6</text>
</a>
</g>
</g>
<!-- http://www.ipaw.info/ipaw14/program&#45;&gt;http://www.ipaw.info/ipaw14/session6 -->
<g id="edge13" class="edge">
<title>http://www.ipaw.info/ipaw14/program&#45;&gt;http://www.ipaw.info/ipaw14/session6</title>
<path fill="none" stroke="#000000" d="M931.6179,-157.3433C920.4681,-160.6511 908.375,-163.8313 897,-166 715.1388,-200.6734 666.4256,-185.7839 482,-202 439.9842,-205.6944 393.0577,-209.8727 355.0169,-213.2732"/>
<polygon fill="#000000" stroke="#000000" points="354.6899,-209.7884 345.0414,-214.1653 355.3135,-216.7605 354.6899,-209.7884"/>
</g>
<!-- &#45;attrs0 -->
<g id="node2" class="node">
<title>&#45;attrs0</title>
<polygon fill="none" stroke="#c0c0c0" points="1034,-84 908,-84 908,-38 1040,-38 1040,-78 1034,-84"/>
<polyline fill="none" stroke="#c0c0c0" points="1034,-84 1034,-78 "/>
<polyline fill="none" stroke="#c0c0c0" points="1040,-78 1034,-78 "/>
<text text-anchor="start" x="917.5024" y="-70" font-family="Times,serif" font-size="10.00" fill="#000000">type:</text>
<text text-anchor="start" x="938.9556" y="-70" font-family="Times,serif" font-size="10.00" fill="#000000">pic:ScheduledProgram</text>
<text text-anchor="start" x="917.5024" y="-58" font-family="Times,serif" font-size="10.00" fill="#000000">type:</text>
<text text-anchor="start" x="939" y="-58" font-family="Times,serif" font-size="10.00" fill="#000000">prov:Collection</text>
<text text-anchor="start" x="917.5024" y="-46" font-family="Times,serif" font-size="10.00" fill="#000000">type:</text>
<text text-anchor="start" x="939" y="-46" font-family="Times,serif" font-size="10.00" fill="#000000">prov:Plan</text>
</g>
<!-- &#45;attrs0&#45;&gt;http://www.ipaw.info/ipaw14/program -->
<g id="edge1" class="edge">
<title>&#45;attrs0&#45;&gt;http://www.ipaw.info/ipaw14/program</title>
<path fill="none" stroke="#c0c0c0" stroke-dasharray="5,2" d="M974,-84.2786C974,-97.1576 974,-112.9254 974,-124.8778"/>
</g>
<!-- &#45;attrs1 -->
<g id="node4" class="node">
<title>&#45;attrs1</title>
<polygon fill="none" stroke="#c0c0c0" points="1959.5,-166 1768.5,-166 1768.5,-120 1965.5,-120 1965.5,-160 1959.5,-166"/>
<polyline fill="none" stroke="#c0c0c0" points="1959.5,-166 1959.5,-160 "/>
<polyline fill="none" stroke="#c0c0c0" points="1965.5,-160 1959.5,-160 "/>
<text text-anchor="start" x="1779" y="-152" font-family="Times,serif" font-size="10.00" fill="#000000">type:</text>
<text text-anchor="start" x="1803" y="-152" font-family="Times,serif" font-size="10.00" fill="#000000">pic:ScheduledSession</text>
<text text-anchor="start" x="1778.894" y="-140" font-family="Times,serif" font-size="10.00" fill="#000000">label:</text>
<text text-anchor="start" x="1802.9839" y="-140" font-family="Times,serif" font-size="10.00" fill="#000000">Session&#45;I: Applications of Provenance</text>
<text text-anchor="start" x="1779" y="-128" font-family="Times,serif" font-size="10.00" fill="#000000">type:</text>
<text text-anchor="start" x="1803" y="-128" font-family="Times,serif" font-size="10.00" fill="#000000">prov:Plan</text>
</g>
<!-- &#45;attrs1&#45;&gt;http://www.ipaw.info/ipaw14/session1 -->
<g id="edge2" class="edge">
<title>&#45;attrs1&#45;&gt;http://www.ipaw.info/ipaw14/session1</title>
<path fill="none" stroke="#c0c0c0" stroke-dasharray="5,2" d="M1839.697,-166.1025C1825.7712,-177.8859 1809.1225,-191.9733 1796.339,-202.7901"/>
</g>
<!-- &#45;attrs2 -->
<g id="node6" class="node">
<title>&#45;attrs2</title>
<polygon fill="none" stroke="#c0c0c0" points="1744.5,-166 1387.5,-166 1387.5,-120 1750.5,-120 1750.5,-160 1744.5,-166"/>
<polyline fill="none" stroke="#c0c0c0" points="1744.5,-166 1744.5,-160 "/>
<polyline fill="none" stroke="#c0c0c0" points="1750.5,-160 1744.5,-160 "/>
<text text-anchor="start" x="1398" y="-152" font-family="Times,serif" font-size="10.00" fill="#000000">type:</text>
<text text-anchor="start" x="1422" y="-152" font-family="Times,serif" font-size="10.00" fill="#000000">pic:ScheduledSession</text>
<text text-anchor="start" x="1397.894" y="-140" font-family="Times,serif" font-size="10.00" fill="#000000">label:</text>
<text text-anchor="start" x="1421.9663" y="-140" font-family="Times,serif" font-size="10.00" fill="#000000">Session&#45;II: Standardization of provenance models, services, and representations</text>
<text text-anchor="start" x="1398" y="-128" font-family="Times,serif" font-size="10.00" fill="#000000">type:</text>
<text text-anchor="start" x="1422" y="-128" font-family="Times,serif" font-size="10.00" fill="#000000">prov:Plan</text>
</g>
<!-- &#45;attrs2&#45;&gt;http://www.ipaw.info/ipaw14/session2 -->
<g id="edge3" class="edge">
<title>&#45;attrs2&#45;&gt;http://www.ipaw.info/ipaw14/session2</title>
<path fill="none" stroke="#c0c0c0" stroke-dasharray="5,2" d="M1530.2957,-166.1025C1510.1094,-178.1517 1485.8872,-192.61 1467.6144,-203.517"/>
</g>
<!-- &#45;attrs3 -->
<g id="node8" class="node">
<title>&#45;attrs3</title>
<polygon fill="none" stroke="#c0c0c0" points="1363.5,-166 1060.5,-166 1060.5,-120 1369.5,-120 1369.5,-160 1363.5,-166"/>
<polyline fill="none" stroke="#c0c0c0" points="1363.5,-166 1363.5,-160 "/>
<polyline fill="none" stroke="#c0c0c0" points="1369.5,-160 1363.5,-160 "/>
<text text-anchor="start" x="1071" y="-152" font-family="Times,serif" font-size="10.00" fill="#000000">type:</text>
<text text-anchor="start" x="1095" y="-152" font-family="Times,serif" font-size="10.00" fill="#000000">pic:ScheduledSession</text>
<text text-anchor="start" x="1070.894" y="-140" font-family="Times,serif" font-size="10.00" fill="#000000">label:</text>
<text text-anchor="start" x="1094.9121" y="-140" font-family="Times,serif" font-size="10.00" fill="#000000">Session&#45;III: Provenance management architectures and techniques</text>
<text text-anchor="start" x="1071" y="-128" font-family="Times,serif" font-size="10.00" fill="#000000">type:</text>
<text text-anchor="start" x="1095" y="-128" font-family="Times,serif" font-size="10.00" fill="#000000">prov:Plan</text>
</g>
<!-- &#45;attrs3&#45;&gt;http://www.ipaw.info/ipaw14/session3 -->
<g id="edge4" class="edge">
<title>&#45;attrs3&#45;&gt;http://www.ipaw.info/ipaw14/session3</title>
<path fill="none" stroke="#c0c0c0" stroke-dasharray="5,2" d="M1169.9951,-166.1025C1146.35,-178.2403 1117.9428,-192.8227 1096.6422,-203.757"/>
</g>
<!-- &#45;attrs4 -->
<g id="node10" class="node">
<title>&#45;attrs4</title>
<polygon fill="none" stroke="#c0c0c0" points="881.5,-166 600.5,-166 600.5,-120 887.5,-120 887.5,-160 881.5,-166"/>
<polyline fill="none" stroke="#c0c0c0" points="881.5,-166 881.5,-160 "/>
<polyline fill="none" stroke="#c0c0c0" points="887.5,-160 881.5,-160 "/>
<text text-anchor="start" x="611" y="-152" font-family="Times,serif" font-size="10.00" fill="#000000">type:</text>
<text text-anchor="start" x="635" y="-152" font-family="Times,serif" font-size="10.00" fill="#000000">pic:ScheduledSession</text>
<text text-anchor="start" x="610.894" y="-140" font-family="Times,serif" font-size="10.00" fill="#000000">label:</text>
<text text-anchor="start" x="634.957" y="-140" font-family="Times,serif" font-size="10.00" fill="#000000">Session&#45;IV: Security and privacy implications of provenance</text>
<text text-anchor="start" x="611" y="-128" font-family="Times,serif" font-size="10.00" fill="#000000">type:</text>
<text text-anchor="start" x="635" y="-128" font-family="Times,serif" font-size="10.00" fill="#000000">prov:Plan</text>
</g>
<!-- &#45;attrs4&#45;&gt;http://www.ipaw.info/ipaw14/session4 -->
<g id="edge5" class="edge">
<title>&#45;attrs4&#45;&gt;http://www.ipaw.info/ipaw14/session4</title>
<path fill="none" stroke="#c0c0c0" stroke-dasharray="5,2" d="M768.9027,-166.1025C781.5088,-177.7973 796.5612,-191.7616 808.1855,-202.5456"/>
</g>
<!-- &#45;attrs5 -->
<g id="node12" class="node">
<title>&#45;attrs5</title>
<polygon fill="none" stroke="#c0c0c0" points="576,-166 314,-166 314,-120 582,-120 582,-160 576,-166"/>
<polyline fill="none" stroke="#c0c0c0" points="576,-166 576,-160 "/>
<polyline fill="none" stroke="#c0c0c0" points="582,-160 576,-160 "/>
<text text-anchor="start" x="324" y="-152" font-family="Times,serif" font-size="10.00" fill="#000000">type:</text>
<text text-anchor="start" x="348" y="-152" font-family="Times,serif" font-size="10.00" fill="#000000">pic:ScheduledSession</text>
<text text-anchor="start" x="323.894" y="-140" font-family="Times,serif" font-size="10.00" fill="#000000">label:</text>
<text text-anchor="start" x="347.7856" y="-140" font-family="Times,serif" font-size="10.00" fill="#000000">Session&#45;V: Demo Test Drive and Poster Lightning Talks</text>
<text text-anchor="start" x="324" y="-128" font-family="Times,serif" font-size="10.00" fill="#000000">type:</text>
<text text-anchor="start" x="348" y="-128" font-family="Times,serif" font-size="10.00" fill="#000000">prov:Plan</text>
</g>
<!-- &#45;attrs5&#45;&gt;http://www.ipaw.info/ipaw14/session5 -->
<g id="edge6" class="edge">
<title>&#45;attrs5&#45;&gt;http://www.ipaw.info/ipaw14/session5</title>
<path fill="none" stroke="#c0c0c0" stroke-dasharray="5,2" d="M481.6037,-166.1025C498.8721,-177.9745 519.5422,-192.1852 535.3215,-203.0335"/>
</g>
<!-- &#45;attrs6 -->
<g id="node14" class="node">
<title>&#45;attrs6</title>
<polygon fill="none" stroke="#c0c0c0" points="289.5,-166 16.5,-166 16.5,-120 295.5,-120 295.5,-160 289.5,-166"/>
<polyline fill="none" stroke="#c0c0c0" points="289.5,-166 289.5,-160 "/>
<polyline fill="none" stroke="#c0c0c0" points="295.5,-160 289.5,-160 "/>
<text text-anchor="start" x="27" y="-152" font-family="Times,serif" font-size="10.00" fill="#000000">type:</text>
<text text-anchor="start" x="51" y="-152" font-family="Times,serif" font-size="10.00" fill="#000000">pic:ScheduledSession</text>
<text text-anchor="start" x="26.894" y="-140" font-family="Times,serif" font-size="10.00" fill="#000000">label:</text>
<text text-anchor="start" x="50.6167" y="-140" font-family="Times,serif" font-size="10.00" fill="#000000">Session&#45;VI: Provenance discovery and data reproducibility</text>
<text text-anchor="start" x="27" y="-128" font-family="Times,serif" font-size="10.00" fill="#000000">type:</text>
<text text-anchor="start" x="51" y="-128" font-family="Times,serif" font-size="10.00" fill="#000000">prov:Plan</text>
</g>
<!-- &#45;attrs6&#45;&gt;http://www.ipaw.info/ipaw14/session6 -->
<g id="edge7" class="edge">
<title>&#45;attrs6&#45;&gt;http://www.ipaw.info/ipaw14/session6</title>
<path fill="none" stroke="#c0c0c0" stroke-dasharray="5,2" d="M193.2041,-166.1025C212.4653,-178.0631 235.5492,-192.3975 253.0676,-203.2758"/>
</g>
</g>
</svg>
