<?xml version="1.0" encoding="UTF-8" standalone="no"?>
<!DOCTYPE svg PUBLIC "-//W3C//DTD SVG 1.1//EN"
 "http://www.w3.org/Graphics/SVG/1.1/DTD/svg11.dtd">
<!-- Generated by graphviz version 2.40.1 (20161225.0304)
 -->
<!-- Title: PROV Pages: 1 -->
<svg width="1152pt" height="102pt"
 viewBox="0.00 0.00 1152.00 101.93" xmlns="http://www.w3.org/2000/svg" xmlns:xlink="http://www.w3.org/1999/xlink">
<g id="graph0" class="graph" transform="scale(.3891 .3891) rotate(0) translate(4 258)">
<title>PROV</title>
<polygon fill="#ffffff" stroke="transparent" points="-4,4 -4,-258 2957,-258 2957,4 -4,4"/>
<g id="clust1" class="cluster">
<title>clusterurn:uuid:1c6f11bb&#45;68ad&#45;49aa&#45;b575&#45;e98eafde4b0d</title>
<g id="a_clust1"><a xlink:href="urn:uuid:1c6f11bb-68ad-49aa-b575-e98eafde4b0d" xlink:title="1c6f11bb&#45;68ad&#45;49aa&#45;b575&#45;e98eafde4b0d">
<polygon fill="none" stroke="#000000" points="8,-8 8,-246 2945,-246 2945,-8 8,-8"/>
<text text-anchor="middle" x="1476.5" y="-14.8" font-family="Times,serif" font-size="14.00" fill="#000000">1c6f11bb&#45;68ad&#45;49aa&#45;b575&#45;e98eafde4b0d</text>
</a>
</g>
</g>
<!-- http://www.orchid.ac.uk/ahm2014/program -->
<g id="node1" class="node">
<title>http://www.orchid.ac.uk/ahm2014/program</title>
<g id="a_node1"><a xlink:href="http://www.orchid.ac.uk/ahm2014/program" xlink:title="ahm2014/program">
<ellipse fill="#fffc87" stroke="#808080" cx="1548" cy="-143" rx="75.3707" ry="18"/>
<text text-anchor="middle" x="1548" y="-138.8" font-family="Times,serif" font-size="14.00" fill="#000000">ahm2014/program</text>
</a>
</g>
</g>
<!-- http://www.orchid.ac.uk/ahm2014/session1 -->
<g id="node3" class="node">
<title>http://www.orchid.ac.uk/ahm2014/session1</title>
<g id="a_node3"><a xlink:href="http://www.orchid.ac.uk/ahm2014/session1" xlink:title="ahm2014/session1">
<ellipse fill="#fffc87" stroke="#808080" cx="2821" cy="-220" rx="75.3966" ry="18"/>
<text text-anchor="middle" x="2821" y="-215.8" font-family="Times,serif" font-size="14.00" fill="#000000">ahm2014/session1</text>
</a>
</g>
</g>
<!-- http://www.orchid.ac.uk/ahm2014/program&#45;&gt;http://www.orchid.ac.uk/ahm2014/session1 -->
<g id="edge15" class="edge">
<title>http://www.orchid.ac.uk/ahm2014/program&#45;&gt;http://www.orchid.ac.uk/ahm2014/session1</title>
<path fill="none" stroke="#000000" d="M1593.468,-157.367C1606.1407,-160.8042 1619.9992,-164.0422 1633,-166 2089.4642,-234.7376 2210.7588,-166.4687 2671,-202 2695.2548,-203.8725 2721.624,-206.7509 2745.3917,-209.6606"/>
<polygon fill="#000000" stroke="#000000" points="2745.0492,-213.1449 2755.4049,-210.9067 2745.9137,-206.1985 2745.0492,-213.1449"/>
</g>
<!-- http://www.orchid.ac.uk/ahm2014/session2 -->
<g id="node5" class="node">
<title>http://www.orchid.ac.uk/ahm2014/session2</title>
<g id="a_node5"><a xlink:href="http://www.orchid.ac.uk/ahm2014/session2" xlink:title="ahm2014/session2">
<ellipse fill="#fffc87" stroke="#808080" cx="2587" cy="-220" rx="75.3966" ry="18"/>
<text text-anchor="middle" x="2587" y="-215.8" font-family="Times,serif" font-size="14.00" fill="#000000">ahm2014/session2</text>
</a>
</g>
</g>
<!-- http://www.orchid.ac.uk/ahm2014/program&#45;&gt;http://www.orchid.ac.uk/ahm2014/session2 -->
<g id="edge16" class="edge">
<title>http://www.orchid.ac.uk/ahm2014/program&#45;&gt;http://www.orchid.ac.uk/ahm2014/session2</title>
<path fill="none" stroke="#000000" d="M1593.925,-157.3929C1606.4773,-160.7856 1620.1611,-163.9948 1633,-166 1979.8271,-220.1673 2072.0121,-174.9523 2422,-202 2450.6583,-204.2148 2482.0345,-207.4364 2509.6596,-210.5441"/>
<polygon fill="#000000" stroke="#000000" points="2509.3238,-214.0284 2519.6555,-211.6818 2510.1155,-207.0733 2509.3238,-214.0284"/>
</g>
<!-- http://www.orchid.ac.uk/ahm2014/session3 -->
<g id="node7" class="node">
<title>http://www.orchid.ac.uk/ahm2014/session3</title>
<g id="a_node7"><a xlink:href="http://www.orchid.ac.uk/ahm2014/session3" xlink:title="ahm2014/session3">
<ellipse fill="#fffc87" stroke="#808080" cx="2338" cy="-220" rx="75.3966" ry="18"/>
<text text-anchor="middle" x="2338" y="-215.8" font-family="Times,serif" font-size="14.00" fill="#000000">ahm2014/session3</text>
</a>
</g>
</g>
<!-- http://www.orchid.ac.uk/ahm2014/program&#45;&gt;http://www.orchid.ac.uk/ahm2014/session3 -->
<g id="edge17" class="edge">
<title>http://www.orchid.ac.uk/ahm2014/program&#45;&gt;http://www.orchid.ac.uk/ahm2014/session3</title>
<path fill="none" stroke="#000000" d="M1594.3935,-157.3568C1606.824,-160.7064 1620.3307,-163.9034 1633,-166 1880.8065,-207.009 1946.9643,-178.0846 2197,-202 2218.4192,-204.0487 2241.6044,-206.7899 2262.8679,-209.5142"/>
<polygon fill="#000000" stroke="#000000" points="2262.4439,-212.9885 2272.8112,-210.8045 2263.3448,-206.0467 2262.4439,-212.9885"/>
</g>
<!-- http://www.orchid.ac.uk/ahm2014/session4 -->
<g id="node9" class="node">
<title>http://www.orchid.ac.uk/ahm2014/session4</title>
<g id="a_node9"><a xlink:href="http://www.orchid.ac.uk/ahm2014/session4" xlink:title="ahm2014/session4">
<ellipse fill="#fffc87" stroke="#808080" cx="2113" cy="-220" rx="75.3966" ry="18"/>
<text text-anchor="middle" x="2113" y="-215.8" font-family="Times,serif" font-size="14.00" fill="#000000">ahm2014/session4</text>
</a>
</g>
</g>
<!-- http://www.orchid.ac.uk/ahm2014/program&#45;&gt;http://www.orchid.ac.uk/ahm2014/session4 -->
<g id="edge18" class="edge">
<title>http://www.orchid.ac.uk/ahm2014/program&#45;&gt;http://www.orchid.ac.uk/ahm2014/session4</title>
<path fill="none" stroke="#000000" d="M1594.899,-157.1294C1607.2057,-160.4401 1620.5261,-163.6751 1633,-166 1784.1214,-194.166 1824.3439,-183.9134 1977,-202 1996.6373,-204.3266 2017.8423,-207.0374 2037.5325,-209.6385"/>
<polygon fill="#000000" stroke="#000000" points="2037.3009,-213.1384 2047.6748,-210.9861 2038.2229,-206.1994 2037.3009,-213.1384"/>
</g>
<!-- http://www.orchid.ac.uk/ahm2014/session5 -->
<g id="node11" class="node">
<title>http://www.orchid.ac.uk/ahm2014/session5</title>
<g id="a_node11"><a xlink:href="http://www.orchid.ac.uk/ahm2014/session5" xlink:title="ahm2014/session5">
<ellipse fill="#fffc87" stroke="#808080" cx="1893" cy="-220" rx="75.3966" ry="18"/>
<text text-anchor="middle" x="1893" y="-215.8" font-family="Times,serif" font-size="14.00" fill="#000000">ahm2014/session5</text>
</a>
</g>
</g>
<!-- http://www.orchid.ac.uk/ahm2014/program&#45;&gt;http://www.orchid.ac.uk/ahm2014/session5 -->
<g id="edge19" class="edge">
<title>http://www.orchid.ac.uk/ahm2014/program&#45;&gt;http://www.orchid.ac.uk/ahm2014/session5</title>
<path fill="none" stroke="#000000" d="M1596.866,-156.7561C1608.6621,-159.9289 1621.2534,-163.1935 1633,-166 1697.4516,-181.3986 1771.4926,-196.5289 1824.0363,-206.8378"/>
<polygon fill="#000000" stroke="#000000" points="1823.4336,-210.2862 1833.9193,-208.7697 1824.7765,-203.4162 1823.4336,-210.2862"/>
</g>
<!-- http://www.orchid.ac.uk/ahm2014/session6 -->
<g id="node13" class="node">
<title>http://www.orchid.ac.uk/ahm2014/session6</title>
<g id="a_node13"><a xlink:href="http://www.orchid.ac.uk/ahm2014/session6" xlink:title="ahm2014/session6">
<ellipse fill="#fffc87" stroke="#808080" cx="1667" cy="-220" rx="75.3966" ry="18"/>
<text text-anchor="middle" x="1667" y="-215.8" font-family="Times,serif" font-size="14.00" fill="#000000">ahm2014/session6</text>
</a>
</g>
</g>
<!-- http://www.orchid.ac.uk/ahm2014/program&#45;&gt;http://www.orchid.ac.uk/ahm2014/session6 -->
<g id="edge20" class="edge">
<title>http://www.orchid.ac.uk/ahm2014/program&#45;&gt;http://www.orchid.ac.uk/ahm2014/session6</title>
<path fill="none" stroke="#000000" d="M1574.1151,-159.898C1591.1253,-170.9046 1613.5179,-185.3939 1632.0545,-197.3882"/>
<polygon fill="#000000" stroke="#000000" points="1630.2375,-200.3813 1640.5346,-202.8753 1634.0403,-194.5043 1630.2375,-200.3813"/>
</g>
<!-- http://www.orchid.ac.uk/ahm2014/session7 -->
<g id="node15" class="node">
<title>http://www.orchid.ac.uk/ahm2014/session7</title>
<g id="a_node15"><a xlink:href="http://www.orchid.ac.uk/ahm2014/session7" xlink:title="ahm2014/session7">
<ellipse fill="#fffc87" stroke="#808080" cx="1414" cy="-220" rx="75.3966" ry="18"/>
<text text-anchor="middle" x="1414" y="-215.8" font-family="Times,serif" font-size="14.00" fill="#000000">ahm2014/session7</text>
</a>
</g>
</g>
<!-- http://www.orchid.ac.uk/ahm2014/program&#45;&gt;http://www.orchid.ac.uk/ahm2014/session7 -->
<g id="edge21" class="edge">
<title>http://www.orchid.ac.uk/ahm2014/program&#45;&gt;http://www.orchid.ac.uk/ahm2014/session7</title>
<path fill="none" stroke="#000000" d="M1518.924,-159.7079C1499.2572,-171.0089 1473.0902,-186.0452 1451.808,-198.2745"/>
<polygon fill="#000000" stroke="#000000" points="1449.9459,-195.3078 1443.0193,-203.3248 1453.4335,-201.3771 1449.9459,-195.3078"/>
</g>
<!-- http://www.orchid.ac.uk/ahm2014/session8 -->
<g id="node17" class="node">
<title>http://www.orchid.ac.uk/ahm2014/session8</title>
<g id="a_node17"><a xlink:href="http://www.orchid.ac.uk/ahm2014/session8" xlink:title="ahm2014/session8">
<ellipse fill="#fffc87" stroke="#808080" cx="1226" cy="-220" rx="75.3966" ry="18"/>
<text text-anchor="middle" x="1226" y="-215.8" font-family="Times,serif" font-size="14.00" fill="#000000">ahm2014/session8</text>
</a>
</g>
</g>
<!-- http://www.orchid.ac.uk/ahm2014/program&#45;&gt;http://www.orchid.ac.uk/ahm2014/session8 -->
<g id="edge22" class="edge">
<title>http://www.orchid.ac.uk/ahm2014/program&#45;&gt;http://www.orchid.ac.uk/ahm2014/session8</title>
<path fill="none" stroke="#000000" d="M1499.2361,-156.7435C1487.7082,-159.8838 1475.441,-163.1372 1464,-166 1406.2486,-180.4506 1340.1965,-195.3055 1292.3523,-205.768"/>
<polygon fill="#000000" stroke="#000000" points="1291.4534,-202.3817 1282.4288,-207.9321 1292.945,-209.2209 1291.4534,-202.3817"/>
</g>
<!-- http://www.orchid.ac.uk/ahm2014/session9 -->
<g id="node19" class="node">
<title>http://www.orchid.ac.uk/ahm2014/session9</title>
<g id="a_node19"><a xlink:href="http://www.orchid.ac.uk/ahm2014/session9" xlink:title="ahm2014/session9">
<ellipse fill="#fffc87" stroke="#808080" cx="1015" cy="-220" rx="75.3966" ry="18"/>
<text text-anchor="middle" x="1015" y="-215.8" font-family="Times,serif" font-size="14.00" fill="#000000">ahm2014/session9</text>
</a>
</g>
</g>
<!-- http://www.orchid.ac.uk/ahm2014/program&#45;&gt;http://www.orchid.ac.uk/ahm2014/session9 -->
<g id="edge23" class="edge">
<title>http://www.orchid.ac.uk/ahm2014/program&#45;&gt;http://www.orchid.ac.uk/ahm2014/session9</title>
<path fill="none" stroke="#000000" d="M1501.2105,-157.1989C1489.1715,-160.4687 1476.177,-163.667 1464,-166 1322.5697,-193.0971 1284.86,-183.8941 1142,-202 1124.9173,-204.165 1106.5677,-206.6644 1089.2749,-209.0985"/>
<polygon fill="#000000" stroke="#000000" points="1088.643,-205.653 1079.2328,-210.5212 1089.625,-212.5838 1088.643,-205.653"/>
</g>
<!-- http://www.orchid.ac.uk/ahm2014/session10 -->
<g id="node21" class="node">
<title>http://www.orchid.ac.uk/ahm2014/session10</title>
<g id="a_node21"><a xlink:href="http://www.orchid.ac.uk/ahm2014/session10" xlink:title="ahm2014/session10">
<ellipse fill="#fffc87" stroke="#808080" cx="792" cy="-220" rx="79.7403" ry="18"/>
<text text-anchor="middle" x="792" y="-215.8" font-family="Times,serif" font-size="14.00" fill="#000000">ahm2014/session10</text>
</a>
</g>
</g>
<!-- http://www.orchid.ac.uk/ahm2014/program&#45;&gt;http://www.orchid.ac.uk/ahm2014/session10 -->
<g id="edge24" class="edge">
<title>http://www.orchid.ac.uk/ahm2014/program&#45;&gt;http://www.orchid.ac.uk/ahm2014/session10</title>
<path fill="none" stroke="#000000" d="M1502.1566,-157.3311C1489.8724,-160.6809 1476.5235,-163.8844 1464,-166 1229.8883,-205.5483 1167.2868,-178.7433 931,-202 911.1123,-203.9575 889.6796,-206.5115 869.74,-209.0778"/>
<polygon fill="#000000" stroke="#000000" points="869.2396,-205.6133 859.7761,-210.3768 870.1446,-212.5546 869.2396,-205.6133"/>
</g>
<!-- http://www.orchid.ac.uk/ahm2014/session11 -->
<g id="node23" class="node">
<title>http://www.orchid.ac.uk/ahm2014/session11</title>
<g id="a_node23"><a xlink:href="http://www.orchid.ac.uk/ahm2014/session11" xlink:title="ahm2014/session11">
<ellipse fill="#fffc87" stroke="#808080" cx="584" cy="-220" rx="79.5924" ry="18"/>
<text text-anchor="middle" x="584" y="-215.8" font-family="Times,serif" font-size="14.00" fill="#000000">ahm2014/session11</text>
</a>
</g>
</g>
<!-- http://www.orchid.ac.uk/ahm2014/program&#45;&gt;http://www.orchid.ac.uk/ahm2014/session11 -->
<g id="edge25" class="edge">
<title>http://www.orchid.ac.uk/ahm2014/program&#45;&gt;http://www.orchid.ac.uk/ahm2014/session11</title>
<path fill="none" stroke="#000000" d="M1502.6229,-157.3826C1490.2183,-160.7753 1476.6935,-163.9871 1464,-166 1129.5781,-219.0308 1039.9526,-168.6355 703,-202 688.3864,-203.447 672.8277,-205.4562 657.9442,-207.6098"/>
<polygon fill="#000000" stroke="#000000" points="657.1465,-204.1897 647.768,-209.1186 658.1733,-211.114 657.1465,-204.1897"/>
</g>
<!-- http://www.orchid.ac.uk/ahm2014/session12 -->
<g id="node25" class="node">
<title>http://www.orchid.ac.uk/ahm2014/session12</title>
<g id="a_node25"><a xlink:href="http://www.orchid.ac.uk/ahm2014/session12" xlink:title="ahm2014/session12">
<ellipse fill="#fffc87" stroke="#808080" cx="383" cy="-220" rx="79.7403" ry="18"/>
<text text-anchor="middle" x="383" y="-215.8" font-family="Times,serif" font-size="14.00" fill="#000000">ahm2014/session12</text>
</a>
</g>
</g>
<!-- http://www.orchid.ac.uk/ahm2014/program&#45;&gt;http://www.orchid.ac.uk/ahm2014/session12 -->
<g id="edge26" class="edge">
<title>http://www.orchid.ac.uk/ahm2014/program&#45;&gt;http://www.orchid.ac.uk/ahm2014/session12</title>
<path fill="none" stroke="#000000" d="M1502.6364,-157.4688C1490.2317,-160.8613 1476.7035,-164.0515 1464,-166 1038.018,-231.3384 923.8857,-159.7288 495,-202 482.0371,-203.2776 468.2963,-205.0966 455.045,-207.0919"/>
<polygon fill="#000000" stroke="#000000" points="454.3731,-203.6542 445.0279,-208.646 455.4463,-210.5714 454.3731,-203.6542"/>
</g>
<!-- http://www.orchid.ac.uk/ahm2014/session13 -->
<g id="node27" class="node">
<title>http://www.orchid.ac.uk/ahm2014/session13</title>
<g id="a_node27"><a xlink:href="http://www.orchid.ac.uk/ahm2014/session13" xlink:title="ahm2014/session13">
<ellipse fill="#fffc87" stroke="#808080" cx="166" cy="-220" rx="79.7403" ry="18"/>
<text text-anchor="middle" x="166" y="-215.8" font-family="Times,serif" font-size="14.00" fill="#000000">ahm2014/session13</text>
</a>
</g>
</g>
<!-- http://www.orchid.ac.uk/ahm2014/program&#45;&gt;http://www.orchid.ac.uk/ahm2014/session13 -->
<g id="edge27" class="edge">
<title>http://www.orchid.ac.uk/ahm2014/program&#45;&gt;http://www.orchid.ac.uk/ahm2014/session13</title>
<path fill="none" stroke="#000000" d="M1502.6446,-157.523C1490.2399,-160.9154 1476.7097,-164.092 1464,-166 949.5189,-243.235 812.3575,-157.7109 294,-202 276.8042,-203.4692 258.3883,-205.6802 241.0372,-208.0546"/>
<polygon fill="#000000" stroke="#000000" points="240.3787,-204.6126 230.9615,-209.4672 241.3506,-211.5448 240.3787,-204.6126"/>
</g>
<!-- &#45;attrs0 -->
<g id="node2" class="node">
<title>&#45;attrs0</title>
<polygon fill="none" stroke="#c0c0c0" points="1608,-84 1482,-84 1482,-38 1614,-38 1614,-78 1608,-84"/>
<polyline fill="none" stroke="#c0c0c0" points="1608,-84 1608,-78 "/>
<polyline fill="none" stroke="#c0c0c0" points="1614,-78 1608,-78 "/>
<text text-anchor="start" x="1491.5024" y="-70" font-family="Times,serif" font-size="10.00" fill="#000000">type:</text>
<text text-anchor="start" x="1512.9556" y="-70" font-family="Times,serif" font-size="10.00" fill="#000000">pic:ScheduledProgram</text>
<text text-anchor="start" x="1491.5024" y="-58" font-family="Times,serif" font-size="10.00" fill="#000000">type:</text>
<text text-anchor="start" x="1513" y="-58" font-family="Times,serif" font-size="10.00" fill="#000000">prov:Collection</text>
<text text-anchor="start" x="1491.5024" y="-46" font-family="Times,serif" font-size="10.00" fill="#000000">type:</text>
<text text-anchor="start" x="1513" y="-46" font-family="Times,serif" font-size="10.00" fill="#000000">prov:Plan</text>
</g>
<!-- &#45;attrs0&#45;&gt;http://www.orchid.ac.uk/ahm2014/program -->
<g id="edge1" class="edge">
<title>&#45;attrs0&#45;&gt;http://www.orchid.ac.uk/ahm2014/program</title>
<path fill="none" stroke="#c0c0c0" stroke-dasharray="5,2" d="M1548,-84.2786C1548,-97.1576 1548,-112.9254 1548,-124.8778"/>
</g>
<!-- &#45;attrs1 -->
<g id="node4" class="node">
<title>&#45;attrs1</title>
<polygon fill="none" stroke="#c0c0c0" points="2930.5,-166 2801.5,-166 2801.5,-120 2936.5,-120 2936.5,-160 2930.5,-166"/>
<polyline fill="none" stroke="#c0c0c0" points="2930.5,-166 2930.5,-160 "/>
<polyline fill="none" stroke="#c0c0c0" points="2936.5,-160 2930.5,-160 "/>
<text text-anchor="start" x="2812" y="-152" font-family="Times,serif" font-size="10.00" fill="#000000">type:</text>
<text text-anchor="start" x="2836" y="-152" font-family="Times,serif" font-size="10.00" fill="#000000">pic:ScheduledSession</text>
<text text-anchor="start" x="2811.894" y="-140" font-family="Times,serif" font-size="10.00" fill="#000000">label:</text>
<text text-anchor="start" x="2835.5332" y="-140" font-family="Times,serif" font-size="10.00" fill="#000000">Session&#45;I: Introduction</text>
<text text-anchor="start" x="2812" y="-128" font-family="Times,serif" font-size="10.00" fill="#000000">type:</text>
<text text-anchor="start" x="2836" y="-128" font-family="Times,serif" font-size="10.00" fill="#000000">prov:Plan</text>
</g>
<!-- &#45;attrs1&#45;&gt;http://www.orchid.ac.uk/ahm2014/session1 -->
<g id="edge2" class="edge">
<title>&#45;attrs1&#45;&gt;http://www.orchid.ac.uk/ahm2014/session1</title>
<path fill="none" stroke="#c0c0c0" stroke-dasharray="5,2" d="M2854.5984,-166.1025C2847.4186,-177.6201 2838.8667,-191.3389 2832.1876,-202.0532"/>
</g>
<!-- &#45;attrs2 -->
<g id="node6" class="node">
<title>&#45;attrs2</title>
<polygon fill="none" stroke="#c0c0c0" points="2777.5,-166 2500.5,-166 2500.5,-120 2783.5,-120 2783.5,-160 2777.5,-166"/>
<polyline fill="none" stroke="#c0c0c0" points="2777.5,-166 2777.5,-160 "/>
<polyline fill="none" stroke="#c0c0c0" points="2783.5,-160 2777.5,-160 "/>
<text text-anchor="start" x="2511" y="-152" font-family="Times,serif" font-size="10.00" fill="#000000">type:</text>
<text text-anchor="start" x="2535" y="-152" font-family="Times,serif" font-size="10.00" fill="#000000">pic:ScheduledSession</text>
<text text-anchor="start" x="2510.894" y="-140" font-family="Times,serif" font-size="10.00" fill="#000000">label:</text>
<text text-anchor="start" x="2534.7954" y="-140" font-family="Times,serif" font-size="10.00" fill="#000000">Session&#45;II: Human Agent Collectives for Disaster Response</text>
<text text-anchor="start" x="2511" y="-128" font-family="Times,serif" font-size="10.00" fill="#000000">type:</text>
<text text-anchor="start" x="2535" y="-128" font-family="Times,serif" font-size="10.00" fill="#000000">prov:Plan</text>
</g>
<!-- &#45;attrs2&#45;&gt;http://www.orchid.ac.uk/ahm2014/session2 -->
<g id="edge3" class="edge">
<title>&#45;attrs2&#45;&gt;http://www.orchid.ac.uk/ahm2014/session2</title>
<path fill="none" stroke="#c0c0c0" stroke-dasharray="5,2" d="M2625.4982,-166.1025C2617.2713,-177.6201 2607.4722,-191.3389 2599.8191,-202.0532"/>
</g>
<!-- &#45;attrs3 -->
<g id="node8" class="node">
<title>&#45;attrs3</title>
<polygon fill="none" stroke="#c0c0c0" points="2476,-166 2256,-166 2256,-120 2482,-120 2482,-160 2476,-166"/>
<polyline fill="none" stroke="#c0c0c0" points="2476,-166 2476,-160 "/>
<polyline fill="none" stroke="#c0c0c0" points="2482,-160 2476,-160 "/>
<text text-anchor="start" x="2266" y="-152" font-family="Times,serif" font-size="10.00" fill="#000000">type:</text>
<text text-anchor="start" x="2290" y="-152" font-family="Times,serif" font-size="10.00" fill="#000000">pic:ScheduledSession</text>
<text text-anchor="start" x="2265.894" y="-140" font-family="Times,serif" font-size="10.00" fill="#000000">label:</text>
<text text-anchor="start" x="2289.7231" y="-140" font-family="Times,serif" font-size="10.00" fill="#000000">Session&#45;III: Experiences from Angel Thunder</text>
<text text-anchor="start" x="2266" y="-128" font-family="Times,serif" font-size="10.00" fill="#000000">type:</text>
<text text-anchor="start" x="2290" y="-128" font-family="Times,serif" font-size="10.00" fill="#000000">prov:Plan</text>
</g>
<!-- &#45;attrs3&#45;&gt;http://www.orchid.ac.uk/ahm2014/session3 -->
<g id="edge4" class="edge">
<title>&#45;attrs3&#45;&gt;http://www.orchid.ac.uk/ahm2014/session3</title>
<path fill="none" stroke="#c0c0c0" stroke-dasharray="5,2" d="M2359.699,-166.1025C2355.062,-177.6201 2349.5389,-191.3389 2345.2253,-202.0532"/>
</g>
<!-- &#45;attrs4 -->
<g id="node10" class="node">
<title>&#45;attrs4</title>
<polygon fill="none" stroke="#c0c0c0" points="2232,-166 2040,-166 2040,-120 2238,-120 2238,-160 2232,-166"/>
<polyline fill="none" stroke="#c0c0c0" points="2232,-166 2232,-160 "/>
<polyline fill="none" stroke="#c0c0c0" points="2238,-160 2232,-160 "/>
<text text-anchor="start" x="2050" y="-152" font-family="Times,serif" font-size="10.00" fill="#000000">type:</text>
<text text-anchor="start" x="2074" y="-152" font-family="Times,serif" font-size="10.00" fill="#000000">pic:ScheduledSession</text>
<text text-anchor="start" x="2049.894" y="-140" font-family="Times,serif" font-size="10.00" fill="#000000">label:</text>
<text text-anchor="start" x="2073.7295" y="-140" font-family="Times,serif" font-size="10.00" fill="#000000">Session&#45;IV: Doing a PhD on ORCHID</text>
<text text-anchor="start" x="2050" y="-128" font-family="Times,serif" font-size="10.00" fill="#000000">type:</text>
<text text-anchor="start" x="2074" y="-128" font-family="Times,serif" font-size="10.00" fill="#000000">prov:Plan</text>
</g>
<!-- &#45;attrs4&#45;&gt;http://www.orchid.ac.uk/ahm2014/session4 -->
<g id="edge5" class="edge">
<title>&#45;attrs4&#45;&gt;http://www.orchid.ac.uk/ahm2014/session4</title>
<path fill="none" stroke="#c0c0c0" stroke-dasharray="5,2" d="M2131.1991,-166.1025C2127.3101,-177.6201 2122.6778,-191.3389 2119.06,-202.0532"/>
</g>
<!-- &#45;attrs5 -->
<g id="node12" class="node">
<title>&#45;attrs5</title>
<polygon fill="none" stroke="#c0c0c0" points="2015.5,-166 1830.5,-166 1830.5,-120 2021.5,-120 2021.5,-160 2015.5,-166"/>
<polyline fill="none" stroke="#c0c0c0" points="2015.5,-166 2015.5,-160 "/>
<polyline fill="none" stroke="#c0c0c0" points="2021.5,-160 2015.5,-160 "/>
<text text-anchor="start" x="1841" y="-152" font-family="Times,serif" font-size="10.00" fill="#000000">type:</text>
<text text-anchor="start" x="1865" y="-152" font-family="Times,serif" font-size="10.00" fill="#000000">pic:ScheduledSession</text>
<text text-anchor="start" x="1840.894" y="-140" font-family="Times,serif" font-size="10.00" fill="#000000">label:</text>
<text text-anchor="start" x="1864.7036" y="-140" font-family="Times,serif" font-size="10.00" fill="#000000">Session&#45;V: Poster and Demo Session</text>
<text text-anchor="start" x="1841" y="-128" font-family="Times,serif" font-size="10.00" fill="#000000">type:</text>
<text text-anchor="start" x="1865" y="-128" font-family="Times,serif" font-size="10.00" fill="#000000">prov:Plan</text>
</g>
<!-- &#45;attrs5&#45;&gt;http://www.orchid.ac.uk/ahm2014/session5 -->
<g id="edge6" class="edge">
<title>&#45;attrs5&#45;&gt;http://www.orchid.ac.uk/ahm2014/session5</title>
<path fill="none" stroke="#c0c0c0" stroke-dasharray="5,2" d="M1916.0989,-166.1025C1911.1628,-177.6201 1905.2833,-191.3389 1900.6915,-202.0532"/>
</g>
<!-- &#45;attrs6 -->
<g id="node14" class="node">
<title>&#45;attrs6</title>
<polygon fill="none" stroke="#c0c0c0" points="1806.5,-166 1641.5,-166 1641.5,-120 1812.5,-120 1812.5,-160 1806.5,-166"/>
<polyline fill="none" stroke="#c0c0c0" points="1806.5,-166 1806.5,-160 "/>
<polyline fill="none" stroke="#c0c0c0" points="1812.5,-160 1806.5,-160 "/>
<text text-anchor="start" x="1652" y="-152" font-family="Times,serif" font-size="10.00" fill="#000000">type:</text>
<text text-anchor="start" x="1676" y="-152" font-family="Times,serif" font-size="10.00" fill="#000000">pic:ScheduledSession</text>
<text text-anchor="start" x="1651.894" y="-140" font-family="Times,serif" font-size="10.00" fill="#000000">label:</text>
<text text-anchor="start" x="1675.9014" y="-140" font-family="Times,serif" font-size="10.00" fill="#000000">Session&#45;VI: Researchers Forum</text>
<text text-anchor="start" x="1652" y="-128" font-family="Times,serif" font-size="10.00" fill="#000000">type:</text>
<text text-anchor="start" x="1676" y="-128" font-family="Times,serif" font-size="10.00" fill="#000000">prov:Plan</text>
</g>
<!-- &#45;attrs6&#45;&gt;http://www.orchid.ac.uk/ahm2014/session6 -->
<g id="edge7" class="edge">
<title>&#45;attrs6&#45;&gt;http://www.orchid.ac.uk/ahm2014/session6</title>
<path fill="none" stroke="#c0c0c0" stroke-dasharray="5,2" d="M1708.998,-166.1025C1700.0233,-177.6201 1689.3333,-191.3389 1680.9845,-202.0532"/>
</g>
<!-- &#45;attrs7 -->
<g id="node16" class="node">
<title>&#45;attrs7</title>
<polygon fill="none" stroke="#c0c0c0" points="1448.5,-166 1323.5,-166 1323.5,-120 1454.5,-120 1454.5,-160 1448.5,-166"/>
<polyline fill="none" stroke="#c0c0c0" points="1448.5,-166 1448.5,-160 "/>
<polyline fill="none" stroke="#c0c0c0" points="1454.5,-160 1448.5,-160 "/>
<text text-anchor="start" x="1334" y="-152" font-family="Times,serif" font-size="10.00" fill="#000000">type:</text>
<text text-anchor="start" x="1357.894" y="-152" font-family="Times,serif" font-size="10.00" fill="#000000">pic:ScheduledSession</text>
<text text-anchor="start" x="1333.894" y="-140" font-family="Times,serif" font-size="10.00" fill="#000000">label:</text>
<text text-anchor="start" x="1358" y="-140" font-family="Times,serif" font-size="10.00" fill="#000000">Session&#45;VII: MCC</text>
<text text-anchor="start" x="1334" y="-128" font-family="Times,serif" font-size="10.00" fill="#000000">type:</text>
<text text-anchor="start" x="1358" y="-128" font-family="Times,serif" font-size="10.00" fill="#000000">prov:Plan</text>
</g>
<!-- &#45;attrs7&#45;&gt;http://www.orchid.ac.uk/ahm2014/session7 -->
<g id="edge8" class="edge">
<title>&#45;attrs7&#45;&gt;http://www.orchid.ac.uk/ahm2014/session7</title>
<path fill="none" stroke="#c0c0c0" stroke-dasharray="5,2" d="M1396.5008,-166.1025C1400.2403,-177.6201 1404.6945,-191.3389 1408.1731,-202.0532"/>
</g>
<!-- &#45;attrs8 -->
<g id="node18" class="node">
<title>&#45;attrs8</title>
<polygon fill="none" stroke="#c0c0c0" points="1299.5,-166 1108.5,-166 1108.5,-120 1305.5,-120 1305.5,-160 1299.5,-166"/>
<polyline fill="none" stroke="#c0c0c0" points="1299.5,-166 1299.5,-160 "/>
<polyline fill="none" stroke="#c0c0c0" points="1305.5,-160 1299.5,-160 "/>
<text text-anchor="start" x="1119" y="-152" font-family="Times,serif" font-size="10.00" fill="#000000">type:</text>
<text text-anchor="start" x="1143" y="-152" font-family="Times,serif" font-size="10.00" fill="#000000">pic:ScheduledSession</text>
<text text-anchor="start" x="1118.894" y="-140" font-family="Times,serif" font-size="10.00" fill="#000000">label:</text>
<text text-anchor="start" x="1142.7007" y="-140" font-family="Times,serif" font-size="10.00" fill="#000000">Session&#45;VIII: Advisory Panel Meeting</text>
<text text-anchor="start" x="1119" y="-128" font-family="Times,serif" font-size="10.00" fill="#000000">type:</text>
<text text-anchor="start" x="1143" y="-128" font-family="Times,serif" font-size="10.00" fill="#000000">prov:Plan</text>
</g>
<!-- &#45;attrs8&#45;&gt;http://www.orchid.ac.uk/ahm2014/session8 -->
<g id="edge9" class="edge">
<title>&#45;attrs8&#45;&gt;http://www.orchid.ac.uk/ahm2014/session8</title>
<path fill="none" stroke="#c0c0c0" stroke-dasharray="5,2" d="M1212.7006,-166.1025C1215.4989,-177.443 1218.8238,-190.9173 1221.449,-201.5566"/>
</g>
<!-- &#45;attrs9 -->
<g id="node20" class="node">
<title>&#45;attrs9</title>
<polygon fill="none" stroke="#c0c0c0" points="1084.5,-166 857.5,-166 857.5,-120 1090.5,-120 1090.5,-160 1084.5,-166"/>
<polyline fill="none" stroke="#c0c0c0" points="1084.5,-166 1084.5,-160 "/>
<polyline fill="none" stroke="#c0c0c0" points="1090.5,-160 1084.5,-160 "/>
<text text-anchor="start" x="868" y="-152" font-family="Times,serif" font-size="10.00" fill="#000000">type:</text>
<text text-anchor="start" x="892" y="-152" font-family="Times,serif" font-size="10.00" fill="#000000">pic:ScheduledSession</text>
<text text-anchor="start" x="867.894" y="-140" font-family="Times,serif" font-size="10.00" fill="#000000">label:</text>
<text text-anchor="start" x="891.5244" y="-140" font-family="Times,serif" font-size="10.00" fill="#000000">Session&#45;IX: Feedback from Researchers Forum</text>
<text text-anchor="start" x="868" y="-128" font-family="Times,serif" font-size="10.00" fill="#000000">type:</text>
<text text-anchor="start" x="892" y="-128" font-family="Times,serif" font-size="10.00" fill="#000000">prov:Plan</text>
</g>
<!-- &#45;attrs9&#45;&gt;http://www.orchid.ac.uk/ahm2014/session9 -->
<g id="edge10" class="edge">
<title>&#45;attrs9&#45;&gt;http://www.orchid.ac.uk/ahm2014/session9</title>
<path fill="none" stroke="#c0c0c0" stroke-dasharray="5,2" d="M986.3014,-166.1025C992.4341,-177.6201 999.7389,-191.3389 1005.4439,-202.0532"/>
</g>
<!-- &#45;attrs10 -->
<g id="node22" class="node">
<title>&#45;attrs10</title>
<polygon fill="none" stroke="#c0c0c0" points="833.5,-166 646.5,-166 646.5,-120 839.5,-120 839.5,-160 833.5,-166"/>
<polyline fill="none" stroke="#c0c0c0" points="833.5,-166 833.5,-160 "/>
<polyline fill="none" stroke="#c0c0c0" points="839.5,-160 833.5,-160 "/>
<text text-anchor="start" x="657" y="-152" font-family="Times,serif" font-size="10.00" fill="#000000">type:</text>
<text text-anchor="start" x="681" y="-152" font-family="Times,serif" font-size="10.00" fill="#000000">pic:ScheduledSession</text>
<text text-anchor="start" x="656.894" y="-140" font-family="Times,serif" font-size="10.00" fill="#000000">label:</text>
<text text-anchor="start" x="680.9297" y="-140" font-family="Times,serif" font-size="10.00" fill="#000000">Session&#45;X: Plans for the coming year</text>
<text text-anchor="start" x="657" y="-128" font-family="Times,serif" font-size="10.00" fill="#000000">type:</text>
<text text-anchor="start" x="681" y="-128" font-family="Times,serif" font-size="10.00" fill="#000000">prov:Plan</text>
</g>
<!-- &#45;attrs10&#45;&gt;http://www.orchid.ac.uk/ahm2014/session10 -->
<g id="edge11" class="edge">
<title>&#45;attrs10&#45;&gt;http://www.orchid.ac.uk/ahm2014/session10</title>
<path fill="none" stroke="#c0c0c0" stroke-dasharray="5,2" d="M757.7016,-166.1025C765.031,-177.6201 773.7611,-191.3389 780.5793,-202.0532"/>
</g>
<!-- &#45;attrs11 -->
<g id="node24" class="node">
<title>&#45;attrs11</title>
<polygon fill="none" stroke="#c0c0c0" points="622.5,-166 479.5,-166 479.5,-120 628.5,-120 628.5,-160 622.5,-166"/>
<polyline fill="none" stroke="#c0c0c0" points="622.5,-166 622.5,-160 "/>
<polyline fill="none" stroke="#c0c0c0" points="628.5,-160 622.5,-160 "/>
<text text-anchor="start" x="490" y="-152" font-family="Times,serif" font-size="10.00" fill="#000000">type:</text>
<text text-anchor="start" x="514" y="-152" font-family="Times,serif" font-size="10.00" fill="#000000">pic:ScheduledSession</text>
<text text-anchor="start" x="489.894" y="-140" font-family="Times,serif" font-size="10.00" fill="#000000">label:</text>
<text text-anchor="start" x="513.7241" y="-140" font-family="Times,serif" font-size="10.00" fill="#000000">Session&#45;XI: HAC Patterns</text>
<text text-anchor="start" x="490" y="-128" font-family="Times,serif" font-size="10.00" fill="#000000">type:</text>
<text text-anchor="start" x="514" y="-128" font-family="Times,serif" font-size="10.00" fill="#000000">prov:Plan</text>
</g>
<!-- &#45;attrs11&#45;&gt;http://www.orchid.ac.uk/ahm2014/session11 -->
<g id="edge12" class="edge">
<title>&#45;attrs11&#45;&gt;http://www.orchid.ac.uk/ahm2014/session11</title>
<path fill="none" stroke="#c0c0c0" stroke-dasharray="5,2" d="M563.001,-166.1025C567.4884,-177.6201 572.8333,-191.3389 577.0077,-202.0532"/>
</g>
<!-- &#45;attrs12 -->
<g id="node26" class="node">
<title>&#45;attrs12</title>
<polygon fill="none" stroke="#c0c0c0" points="455.5,-166 258.5,-166 258.5,-120 461.5,-120 461.5,-160 455.5,-166"/>
<polyline fill="none" stroke="#c0c0c0" points="455.5,-166 455.5,-160 "/>
<polyline fill="none" stroke="#c0c0c0" points="461.5,-160 455.5,-160 "/>
<text text-anchor="start" x="269" y="-152" font-family="Times,serif" font-size="10.00" fill="#000000">type:</text>
<text text-anchor="start" x="293" y="-152" font-family="Times,serif" font-size="10.00" fill="#000000">pic:ScheduledSession</text>
<text text-anchor="start" x="268.894" y="-140" font-family="Times,serif" font-size="10.00" fill="#000000">label:</text>
<text text-anchor="start" x="292.9175" y="-140" font-family="Times,serif" font-size="10.00" fill="#000000">Session&#45;XII: HAC Patterns Discussions</text>
<text text-anchor="start" x="269" y="-128" font-family="Times,serif" font-size="10.00" fill="#000000">type:</text>
<text text-anchor="start" x="293" y="-128" font-family="Times,serif" font-size="10.00" fill="#000000">prov:Plan</text>
</g>
<!-- &#45;attrs12&#45;&gt;http://www.orchid.ac.uk/ahm2014/session12 -->
<g id="edge13" class="edge">
<title>&#45;attrs12&#45;&gt;http://www.orchid.ac.uk/ahm2014/session12</title>
<path fill="none" stroke="#c0c0c0" stroke-dasharray="5,2" d="M366.9008,-166.1025C370.2882,-177.443 374.313,-190.9173 377.4909,-201.5566"/>
</g>
<!-- &#45;attrs13 -->
<g id="node28" class="node">
<title>&#45;attrs13</title>
<polygon fill="none" stroke="#c0c0c0" points="234,-166 16,-166 16,-120 240,-120 240,-160 234,-166"/>
<polyline fill="none" stroke="#c0c0c0" points="234,-166 234,-160 "/>
<polyline fill="none" stroke="#c0c0c0" points="240,-160 234,-160 "/>
<text text-anchor="start" x="26" y="-152" font-family="Times,serif" font-size="10.00" fill="#000000">type:</text>
<text text-anchor="start" x="50" y="-152" font-family="Times,serif" font-size="10.00" fill="#000000">pic:ScheduledSession</text>
<text text-anchor="start" x="25.894" y="-140" font-family="Times,serif" font-size="10.00" fill="#000000">label:</text>
<text text-anchor="start" x="49.7363" y="-140" font-family="Times,serif" font-size="10.00" fill="#000000">Session&#45;XIII: Feedback from Advisory Panel</text>
<text text-anchor="start" x="26" y="-128" font-family="Times,serif" font-size="10.00" fill="#000000">type:</text>
<text text-anchor="start" x="50" y="-128" font-family="Times,serif" font-size="10.00" fill="#000000">prov:Plan</text>
</g>
<!-- &#45;attrs13&#45;&gt;http://www.orchid.ac.uk/ahm2014/session13 -->
<g id="edge14" class="edge">
<title>&#45;attrs13&#45;&gt;http://www.orchid.ac.uk/ahm2014/session13</title>
<path fill="none" stroke="#c0c0c0" stroke-dasharray="5,2" d="M139.4013,-166.1025C145.0853,-177.6201 151.8556,-191.3389 157.1431,-202.0532"/>
</g>
</g>
</svg>
