<?xml version="1.0" encoding="UTF-8" standalone="no"?>
<!DOCTYPE svg PUBLIC "-//W3C//DTD SVG 1.1//EN"
 "http://www.w3.org/Graphics/SVG/1.1/DTD/svg11.dtd">
<!-- Generated by graphviz version 2.40.1 (20161225.0304)
 -->
<!-- Title: PROV Pages: 1 -->
<svg width="877pt" height="262pt"
 viewBox="0.00 0.00 877.00 262.00" xmlns="http://www.w3.org/2000/svg" xmlns:xlink="http://www.w3.org/1999/xlink">
<g id="graph0" class="graph" transform="scale(1 1) rotate(0) translate(4 258)">
<title>PROV</title>
<polygon fill="#ffffff" stroke="transparent" points="-4,4 -4,-258 873,-258 873,4 -4,4"/>
<g id="clust1" class="cluster">
<title>clusterurn:uuid:0235394e&#45;336c&#45;4807&#45;9bab&#45;b4fc8acad269</title>
<g id="a_clust1"><a xlink:href="urn:uuid:0235394e-336c-4807-9bab-b4fc8acad269" xlink:title="0235394e&#45;336c&#45;4807&#45;9bab&#45;b4fc8acad269">
<polygon fill="none" stroke="#000000" points="8,-8 8,-246 861,-246 861,-8 8,-8"/>
<text text-anchor="middle" x="434.5" y="-14.8" font-family="Times,serif" font-size="14.00" fill="#000000">0235394e&#45;336c&#45;4807&#45;9bab&#45;b4fc8acad269</text>
</a>
</g>
</g>
<!-- https://www.usenix.org/conference/tapp2014/ -->
<g id="node1" class="node">
<title>https://www.usenix.org/conference/tapp2014/</title>
<g id="a_node1"><a xlink:href="https://www.usenix.org/conference/tapp2014/" xlink:title="tapp2014/">
<ellipse fill="#fffc87" stroke="#808080" cx="509" cy="-143" rx="45.4527" ry="18"/>
<text text-anchor="middle" x="509" y="-138.8" font-family="Times,serif" font-size="14.00" fill="#000000">tapp2014/</text>
</a>
</g>
</g>
<!-- http://www.ipaw.info/tapp14/session1 -->
<g id="node3" class="node">
<title>http://www.ipaw.info/tapp14/session1</title>
<g id="a_node3"><a xlink:href="http://www.ipaw.info/tapp14/session1" xlink:title="session1">
<ellipse fill="#fffc87" stroke="#808080" cx="753" cy="-220" rx="40.1576" ry="18"/>
<text text-anchor="middle" x="753" y="-215.8" font-family="Times,serif" font-size="14.00" fill="#000000">session1</text>
</a>
</g>
</g>
<!-- https://www.usenix.org/conference/tapp2014/&#45;&gt;http://www.ipaw.info/tapp14/session1 -->
<g id="edge7" class="edge">
<title>https://www.usenix.org/conference/tapp2014/&#45;&gt;http://www.ipaw.info/tapp14/session1</title>
<path fill="none" stroke="#000000" d="M539.5862,-156.541C547.4698,-159.8234 555.991,-163.1922 564,-166 612.4819,-182.9967 669.3039,-198.6777 707.8903,-208.7124"/>
<polygon fill="#000000" stroke="#000000" points="707.2216,-212.1544 717.779,-211.2642 708.9707,-205.3764 707.2216,-212.1544"/>
</g>
<!-- http://www.ipaw.info/tapp14/session3 -->
<g id="node5" class="node">
<title>http://www.ipaw.info/tapp14/session3</title>
<g id="a_node5"><a xlink:href="http://www.ipaw.info/tapp14/session3" xlink:title="session3">
<ellipse fill="#fffc87" stroke="#808080" cx="621" cy="-220" rx="40.1576" ry="18"/>
<text text-anchor="middle" x="621" y="-215.8" font-family="Times,serif" font-size="14.00" fill="#000000">session3</text>
</a>
</g>
</g>
<!-- https://www.usenix.org/conference/tapp2014/&#45;&gt;http://www.ipaw.info/tapp14/session3 -->
<g id="edge8" class="edge">
<title>https://www.usenix.org/conference/tapp2014/&#45;&gt;http://www.ipaw.info/tapp14/session3</title>
<path fill="none" stroke="#000000" d="M531.9351,-158.7679C548.8412,-170.3908 572.011,-186.3201 590.4808,-199.0181"/>
<polygon fill="#000000" stroke="#000000" points="588.6355,-201.9968 598.8588,-204.7779 592.6012,-196.2285 588.6355,-201.9968"/>
</g>
<!-- http://www.ipaw.info/tapp14/session4 -->
<g id="node7" class="node">
<title>http://www.ipaw.info/tapp14/session4</title>
<g id="a_node7"><a xlink:href="http://www.ipaw.info/tapp14/session4" xlink:title="session4">
<ellipse fill="#fffc87" stroke="#808080" cx="507" cy="-220" rx="40.1576" ry="18"/>
<text text-anchor="middle" x="507" y="-215.8" font-family="Times,serif" font-size="14.00" fill="#000000">session4</text>
</a>
</g>
</g>
<!-- https://www.usenix.org/conference/tapp2014/&#45;&gt;http://www.ipaw.info/tapp14/session4 -->
<g id="edge9" class="edge">
<title>https://www.usenix.org/conference/tapp2014/&#45;&gt;http://www.ipaw.info/tapp14/session4</title>
<path fill="none" stroke="#000000" d="M508.526,-161.2479C508.2894,-170.3578 507.9979,-181.5826 507.7332,-191.7718"/>
<polygon fill="#000000" stroke="#000000" points="504.2315,-191.7955 507.4706,-201.8831 511.2291,-191.9773 504.2315,-191.7955"/>
</g>
<!-- http://www.ipaw.info/tapp14/session2 -->
<g id="node9" class="node">
<title>http://www.ipaw.info/tapp14/session2</title>
<g id="a_node9"><a xlink:href="http://www.ipaw.info/tapp14/session2" xlink:title="session2">
<ellipse fill="#fffc87" stroke="#808080" cx="407" cy="-220" rx="40.1576" ry="18"/>
<text text-anchor="middle" x="407" y="-215.8" font-family="Times,serif" font-size="14.00" fill="#000000">session2</text>
</a>
</g>
</g>
<!-- https://www.usenix.org/conference/tapp2014/&#45;&gt;http://www.ipaw.info/tapp14/session2 -->
<g id="edge10" class="edge">
<title>https://www.usenix.org/conference/tapp2014/&#45;&gt;http://www.ipaw.info/tapp14/session2</title>
<path fill="none" stroke="#000000" d="M487.8655,-158.9544C472.8589,-170.283 452.5257,-185.6325 436.003,-198.1056"/>
<polygon fill="#000000" stroke="#000000" points="433.6308,-195.511 427.7584,-204.3294 437.8484,-201.0978 433.6308,-195.511"/>
</g>
<!-- https://www.usenix.org/conference/tapp2014/technical&#45;sessions/session/keynote&#45;address -->
<g id="node11" class="node">
<title>https://www.usenix.org/conference/tapp2014/technical&#45;sessions/session/keynote&#45;address</title>
<g id="a_node11"><a xlink:href="https://www.usenix.org/conference/tapp2014/technical-sessions/session/keynote-address" xlink:title="technical&#45;sessions/session/keynote&#45;address">
<ellipse fill="#fffc87" stroke="#808080" cx="184" cy="-220" rx="161.7674" ry="18"/>
<text text-anchor="middle" x="184" y="-215.8" font-family="Times,serif" font-size="14.00" fill="#000000">technical&#45;sessions/session/keynote&#45;address</text>
</a>
</g>
</g>
<!-- https://www.usenix.org/conference/tapp2014/&#45;&gt;https://www.usenix.org/conference/tapp2014/technical&#45;sessions/session/keynote&#45;address -->
<g id="edge11" class="edge">
<title>https://www.usenix.org/conference/tapp2014/&#45;&gt;https://www.usenix.org/conference/tapp2014/technical&#45;sessions/session/keynote&#45;address</title>
<path fill="none" stroke="#000000" d="M479.7016,-156.7742C471.8033,-160.1283 463.1781,-163.4732 455,-166 402.0384,-182.3638 341.6773,-194.9568 291.3857,-203.8493"/>
<polygon fill="#000000" stroke="#000000" points="290.7171,-200.4129 281.4668,-205.5784 291.9194,-207.3089 290.7171,-200.4129"/>
</g>
<!-- &#45;attrs0 -->
<g id="node2" class="node">
<title>&#45;attrs0</title>
<polygon fill="none" stroke="#c0c0c0" points="569,-84 443,-84 443,-38 575,-38 575,-78 569,-84"/>
<polyline fill="none" stroke="#c0c0c0" points="569,-84 569,-78 "/>
<polyline fill="none" stroke="#c0c0c0" points="575,-78 569,-78 "/>
<text text-anchor="start" x="452.5024" y="-70" font-family="Times,serif" font-size="10.00" fill="#000000">type:</text>
<text text-anchor="start" x="473.9556" y="-70" font-family="Times,serif" font-size="10.00" fill="#000000">pic:ScheduledProgram</text>
<text text-anchor="start" x="452.5024" y="-58" font-family="Times,serif" font-size="10.00" fill="#000000">type:</text>
<text text-anchor="start" x="474" y="-58" font-family="Times,serif" font-size="10.00" fill="#000000">prov:Collection</text>
<text text-anchor="start" x="452.5024" y="-46" font-family="Times,serif" font-size="10.00" fill="#000000">type:</text>
<text text-anchor="start" x="474" y="-46" font-family="Times,serif" font-size="10.00" fill="#000000">prov:Plan</text>
</g>
<!-- &#45;attrs0&#45;&gt;https://www.usenix.org/conference/tapp2014/ -->
<g id="edge1" class="edge">
<title>&#45;attrs0&#45;&gt;https://www.usenix.org/conference/tapp2014/</title>
<path fill="none" stroke="#c0c0c0" stroke-dasharray="5,2" d="M509,-84.2786C509,-97.1576 509,-112.9254 509,-124.8778"/>
</g>
<!-- &#45;attrs1 -->
<g id="node4" class="node">
<title>&#45;attrs1</title>
<polygon fill="none" stroke="#c0c0c0" points="846.5,-166 721.5,-166 721.5,-120 852.5,-120 852.5,-160 846.5,-166"/>
<polyline fill="none" stroke="#c0c0c0" points="846.5,-166 846.5,-160 "/>
<polyline fill="none" stroke="#c0c0c0" points="852.5,-160 846.5,-160 "/>
<text text-anchor="start" x="732" y="-152" font-family="Times,serif" font-size="10.00" fill="#000000">type:</text>
<text text-anchor="start" x="755.894" y="-152" font-family="Times,serif" font-size="10.00" fill="#000000">pic:ScheduledSession</text>
<text text-anchor="start" x="731.894" y="-140" font-family="Times,serif" font-size="10.00" fill="#000000">label:</text>
<text text-anchor="start" x="756" y="-140" font-family="Times,serif" font-size="10.00" fill="#000000">Session&#45;I: Usage</text>
<text text-anchor="start" x="732" y="-128" font-family="Times,serif" font-size="10.00" fill="#000000">type:</text>
<text text-anchor="start" x="756" y="-128" font-family="Times,serif" font-size="10.00" fill="#000000">prov:Plan</text>
</g>
<!-- &#45;attrs1&#45;&gt;http://www.ipaw.info/tapp14/session1 -->
<g id="edge2" class="edge">
<title>&#45;attrs1&#45;&gt;http://www.ipaw.info/tapp14/session1</title>
<path fill="none" stroke="#c0c0c0" stroke-dasharray="5,2" d="M776.7989,-166.1025C771.7132,-177.6201 765.6555,-191.3389 760.9246,-202.0532"/>
</g>
<!-- &#45;attrs2 -->
<g id="node6" class="node">
<title>&#45;attrs2</title>
<polygon fill="none" stroke="#c0c0c0" points="697.5,-166 572.5,-166 572.5,-120 703.5,-120 703.5,-160 697.5,-166"/>
<polyline fill="none" stroke="#c0c0c0" points="697.5,-166 697.5,-160 "/>
<polyline fill="none" stroke="#c0c0c0" points="703.5,-160 697.5,-160 "/>
<text text-anchor="start" x="583" y="-152" font-family="Times,serif" font-size="10.00" fill="#000000">type:</text>
<text text-anchor="start" x="606.894" y="-152" font-family="Times,serif" font-size="10.00" fill="#000000">pic:ScheduledSession</text>
<text text-anchor="start" x="582.894" y="-140" font-family="Times,serif" font-size="10.00" fill="#000000">label:</text>
<text text-anchor="start" x="607" y="-140" font-family="Times,serif" font-size="10.00" fill="#000000">Session&#45;III: Theory</text>
<text text-anchor="start" x="583" y="-128" font-family="Times,serif" font-size="10.00" fill="#000000">type:</text>
<text text-anchor="start" x="607" y="-128" font-family="Times,serif" font-size="10.00" fill="#000000">prov:Plan</text>
</g>
<!-- &#45;attrs2&#45;&gt;http://www.ipaw.info/tapp14/session3 -->
<g id="edge3" class="edge">
<title>&#45;attrs2&#45;&gt;http://www.ipaw.info/tapp14/session3</title>
<path fill="none" stroke="#c0c0c0" stroke-dasharray="5,2" d="M632.8994,-166.1025C630.3566,-177.6201 627.3278,-191.3389 624.9623,-202.0532"/>
</g>
<!-- &#45;attrs3 -->
<g id="node8" class="node">
<title>&#45;attrs3</title>
<polygon fill="none" stroke="#c0c0c0" points="439.5,-166 314.5,-166 314.5,-120 445.5,-120 445.5,-160 439.5,-166"/>
<polyline fill="none" stroke="#c0c0c0" points="439.5,-166 439.5,-160 "/>
<polyline fill="none" stroke="#c0c0c0" points="445.5,-160 439.5,-160 "/>
<text text-anchor="start" x="325" y="-152" font-family="Times,serif" font-size="10.00" fill="#000000">type:</text>
<text text-anchor="start" x="348.894" y="-152" font-family="Times,serif" font-size="10.00" fill="#000000">pic:ScheduledSession</text>
<text text-anchor="start" x="324.894" y="-140" font-family="Times,serif" font-size="10.00" fill="#000000">label:</text>
<text text-anchor="start" x="349" y="-140" font-family="Times,serif" font-size="10.00" fill="#000000">Session IV: Practice</text>
<text text-anchor="start" x="325" y="-128" font-family="Times,serif" font-size="10.00" fill="#000000">type:</text>
<text text-anchor="start" x="349" y="-128" font-family="Times,serif" font-size="10.00" fill="#000000">prov:Plan</text>
</g>
<!-- &#45;attrs3&#45;&gt;http://www.ipaw.info/tapp14/session4 -->
<g id="edge4" class="edge">
<title>&#45;attrs3&#45;&gt;http://www.ipaw.info/tapp14/session4</title>
<path fill="none" stroke="#c0c0c0" stroke-dasharray="5,2" d="M418.1042,-166.1025C439.1466,-178.8605 464.6434,-194.3193 482.9256,-205.4037"/>
</g>
<!-- &#45;attrs4 -->
<g id="node10" class="node">
<title>&#45;attrs4</title>
<polygon fill="none" stroke="#c0c0c0" points="290.5,-166 165.5,-166 165.5,-120 296.5,-120 296.5,-160 290.5,-166"/>
<polyline fill="none" stroke="#c0c0c0" points="290.5,-166 290.5,-160 "/>
<polyline fill="none" stroke="#c0c0c0" points="296.5,-160 290.5,-160 "/>
<text text-anchor="start" x="176" y="-152" font-family="Times,serif" font-size="10.00" fill="#000000">type:</text>
<text text-anchor="start" x="199.894" y="-152" font-family="Times,serif" font-size="10.00" fill="#000000">pic:ScheduledSession</text>
<text text-anchor="start" x="175.894" y="-140" font-family="Times,serif" font-size="10.00" fill="#000000">label:</text>
<text text-anchor="start" x="200" y="-140" font-family="Times,serif" font-size="10.00" fill="#000000">Session&#45;II: Capture</text>
<text text-anchor="start" x="176" y="-128" font-family="Times,serif" font-size="10.00" fill="#000000">type:</text>
<text text-anchor="start" x="200" y="-128" font-family="Times,serif" font-size="10.00" fill="#000000">prov:Plan</text>
</g>
<!-- &#45;attrs4&#45;&gt;http://www.ipaw.info/tapp14/session2 -->
<g id="edge5" class="edge">
<title>&#45;attrs4&#45;&gt;http://www.ipaw.info/tapp14/session2</title>
<path fill="none" stroke="#c0c0c0" stroke-dasharray="5,2" d="M283.8058,-166.1025C314.7894,-179.6579 352.7421,-196.2621 378.2664,-207.429"/>
</g>
<!-- &#45;attrs5 -->
<g id="node12" class="node">
<title>&#45;attrs5</title>
<polygon fill="none" stroke="#c0c0c0" points="141.5,-166 16.5,-166 16.5,-120 147.5,-120 147.5,-160 141.5,-166"/>
<polyline fill="none" stroke="#c0c0c0" points="141.5,-166 141.5,-160 "/>
<polyline fill="none" stroke="#c0c0c0" points="147.5,-160 141.5,-160 "/>
<text text-anchor="start" x="27" y="-152" font-family="Times,serif" font-size="10.00" fill="#000000">type:</text>
<text text-anchor="start" x="50.894" y="-152" font-family="Times,serif" font-size="10.00" fill="#000000">pic:ScheduledSession</text>
<text text-anchor="start" x="26.894" y="-140" font-family="Times,serif" font-size="10.00" fill="#000000">label:</text>
<text text-anchor="start" x="51" y="-140" font-family="Times,serif" font-size="10.00" fill="#000000">Keynote Address</text>
<text text-anchor="start" x="27" y="-128" font-family="Times,serif" font-size="10.00" fill="#000000">type:</text>
<text text-anchor="start" x="51" y="-128" font-family="Times,serif" font-size="10.00" fill="#000000">prov:Plan</text>
</g>
<!-- &#45;attrs5&#45;&gt;https://www.usenix.org/conference/tapp2014/technical&#45;sessions/session/keynote&#45;address -->
<g id="edge6" class="edge">
<title>&#45;attrs5&#45;&gt;https://www.usenix.org/conference/tapp2014/technical&#45;sessions/session/keynote&#45;address</title>
<path fill="none" stroke="#c0c0c0" stroke-dasharray="5,2" d="M112.6034,-166.1025C127.8605,-177.6201 146.0334,-191.3389 160.2263,-202.0532"/>
</g>
</g>
</svg>
